G04 #@! TF.GenerationSoftware,KiCad,Pcbnew,(5.1.5)-3*
G04 #@! TF.CreationDate,2020-09-20T15:24:45+01:00*
G04 #@! TF.ProjectId,Alexa_kicad_PCB,416c6578-615f-46b6-9963-61645f504342,rev?*
G04 #@! TF.SameCoordinates,Original*
G04 #@! TF.FileFunction,Soldermask,Top*
G04 #@! TF.FilePolarity,Negative*
%FSLAX46Y46*%
G04 Gerber Fmt 4.6, Leading zero omitted, Abs format (unit mm)*
G04 Created by KiCad (PCBNEW (5.1.5)-3) date 2020-09-20 15:24:45*
%MOMM*%
%LPD*%
G04 APERTURE LIST*
%ADD10C,0.100000*%
G04 APERTURE END LIST*
D10*
G36*
X145289943Y-107466248D02*
G01*
X145845189Y-107696238D01*
X145845190Y-107696239D01*
X146344899Y-108030134D01*
X146769866Y-108455101D01*
X146769867Y-108455103D01*
X147103762Y-108954811D01*
X147333752Y-109510057D01*
X147451000Y-110099501D01*
X147451000Y-110700499D01*
X147333752Y-111289943D01*
X147103762Y-111845189D01*
X147103761Y-111845190D01*
X146769866Y-112344899D01*
X146344899Y-112769866D01*
X146093347Y-112937948D01*
X145845189Y-113103762D01*
X145289943Y-113333752D01*
X144700499Y-113451000D01*
X144099501Y-113451000D01*
X143510057Y-113333752D01*
X142954811Y-113103762D01*
X142706653Y-112937948D01*
X142455101Y-112769866D01*
X142030134Y-112344899D01*
X141696239Y-111845190D01*
X141696238Y-111845189D01*
X141466248Y-111289943D01*
X141349000Y-110700499D01*
X141349000Y-110099501D01*
X141466248Y-109510057D01*
X141696238Y-108954811D01*
X142030133Y-108455103D01*
X142030134Y-108455101D01*
X142455101Y-108030134D01*
X142954810Y-107696239D01*
X142954811Y-107696238D01*
X143510057Y-107466248D01*
X144099501Y-107349000D01*
X144700499Y-107349000D01*
X145289943Y-107466248D01*
G37*
G36*
X126631000Y-112407000D02*
G01*
X124829000Y-112407000D01*
X124829000Y-110605000D01*
X126631000Y-110605000D01*
X126631000Y-112407000D01*
G37*
G36*
X123303512Y-110609927D02*
G01*
X123452812Y-110639624D01*
X123616784Y-110707544D01*
X123764354Y-110806147D01*
X123889853Y-110931646D01*
X123988456Y-111079216D01*
X124056376Y-111243188D01*
X124091000Y-111417259D01*
X124091000Y-111594741D01*
X124056376Y-111768812D01*
X123988456Y-111932784D01*
X123889853Y-112080354D01*
X123764354Y-112205853D01*
X123616784Y-112304456D01*
X123452812Y-112372376D01*
X123303512Y-112402073D01*
X123278742Y-112407000D01*
X123101258Y-112407000D01*
X123076488Y-112402073D01*
X122927188Y-112372376D01*
X122763216Y-112304456D01*
X122615646Y-112205853D01*
X122490147Y-112080354D01*
X122391544Y-111932784D01*
X122323624Y-111768812D01*
X122289000Y-111594741D01*
X122289000Y-111417259D01*
X122323624Y-111243188D01*
X122391544Y-111079216D01*
X122490147Y-110931646D01*
X122615646Y-110806147D01*
X122763216Y-110707544D01*
X122927188Y-110639624D01*
X123076488Y-110609927D01*
X123101258Y-110605000D01*
X123278742Y-110605000D01*
X123303512Y-110609927D01*
G37*
G36*
X120763512Y-110609927D02*
G01*
X120912812Y-110639624D01*
X121076784Y-110707544D01*
X121224354Y-110806147D01*
X121349853Y-110931646D01*
X121448456Y-111079216D01*
X121516376Y-111243188D01*
X121551000Y-111417259D01*
X121551000Y-111594741D01*
X121516376Y-111768812D01*
X121448456Y-111932784D01*
X121349853Y-112080354D01*
X121224354Y-112205853D01*
X121076784Y-112304456D01*
X120912812Y-112372376D01*
X120763512Y-112402073D01*
X120738742Y-112407000D01*
X120561258Y-112407000D01*
X120536488Y-112402073D01*
X120387188Y-112372376D01*
X120223216Y-112304456D01*
X120075646Y-112205853D01*
X119950147Y-112080354D01*
X119851544Y-111932784D01*
X119783624Y-111768812D01*
X119749000Y-111594741D01*
X119749000Y-111417259D01*
X119783624Y-111243188D01*
X119851544Y-111079216D01*
X119950147Y-110931646D01*
X120075646Y-110806147D01*
X120223216Y-110707544D01*
X120387188Y-110639624D01*
X120536488Y-110609927D01*
X120561258Y-110605000D01*
X120738742Y-110605000D01*
X120763512Y-110609927D01*
G37*
G36*
X111111512Y-110609927D02*
G01*
X111260812Y-110639624D01*
X111424784Y-110707544D01*
X111572354Y-110806147D01*
X111697853Y-110931646D01*
X111796456Y-111079216D01*
X111864376Y-111243188D01*
X111899000Y-111417259D01*
X111899000Y-111594741D01*
X111864376Y-111768812D01*
X111796456Y-111932784D01*
X111697853Y-112080354D01*
X111572354Y-112205853D01*
X111424784Y-112304456D01*
X111260812Y-112372376D01*
X111111512Y-112402073D01*
X111086742Y-112407000D01*
X110909258Y-112407000D01*
X110884488Y-112402073D01*
X110735188Y-112372376D01*
X110571216Y-112304456D01*
X110423646Y-112205853D01*
X110298147Y-112080354D01*
X110199544Y-111932784D01*
X110131624Y-111768812D01*
X110097000Y-111594741D01*
X110097000Y-111417259D01*
X110131624Y-111243188D01*
X110199544Y-111079216D01*
X110298147Y-110931646D01*
X110423646Y-110806147D01*
X110571216Y-110707544D01*
X110735188Y-110639624D01*
X110884488Y-110609927D01*
X110909258Y-110605000D01*
X111086742Y-110605000D01*
X111111512Y-110609927D01*
G37*
G36*
X108571512Y-110609927D02*
G01*
X108720812Y-110639624D01*
X108884784Y-110707544D01*
X109032354Y-110806147D01*
X109157853Y-110931646D01*
X109256456Y-111079216D01*
X109324376Y-111243188D01*
X109359000Y-111417259D01*
X109359000Y-111594741D01*
X109324376Y-111768812D01*
X109256456Y-111932784D01*
X109157853Y-112080354D01*
X109032354Y-112205853D01*
X108884784Y-112304456D01*
X108720812Y-112372376D01*
X108571512Y-112402073D01*
X108546742Y-112407000D01*
X108369258Y-112407000D01*
X108344488Y-112402073D01*
X108195188Y-112372376D01*
X108031216Y-112304456D01*
X107883646Y-112205853D01*
X107758147Y-112080354D01*
X107659544Y-111932784D01*
X107591624Y-111768812D01*
X107557000Y-111594741D01*
X107557000Y-111417259D01*
X107591624Y-111243188D01*
X107659544Y-111079216D01*
X107758147Y-110931646D01*
X107883646Y-110806147D01*
X108031216Y-110707544D01*
X108195188Y-110639624D01*
X108344488Y-110609927D01*
X108369258Y-110605000D01*
X108546742Y-110605000D01*
X108571512Y-110609927D01*
G37*
G36*
X114439000Y-112407000D02*
G01*
X112637000Y-112407000D01*
X112637000Y-110605000D01*
X114439000Y-110605000D01*
X114439000Y-112407000D01*
G37*
G36*
X134987512Y-110355927D02*
G01*
X135136812Y-110385624D01*
X135300784Y-110453544D01*
X135448354Y-110552147D01*
X135573853Y-110677646D01*
X135672456Y-110825216D01*
X135740376Y-110989188D01*
X135775000Y-111163259D01*
X135775000Y-111340741D01*
X135740376Y-111514812D01*
X135672456Y-111678784D01*
X135573853Y-111826354D01*
X135448354Y-111951853D01*
X135300784Y-112050456D01*
X135136812Y-112118376D01*
X134987512Y-112148073D01*
X134962742Y-112153000D01*
X134785258Y-112153000D01*
X134760488Y-112148073D01*
X134611188Y-112118376D01*
X134447216Y-112050456D01*
X134299646Y-111951853D01*
X134174147Y-111826354D01*
X134075544Y-111678784D01*
X134007624Y-111514812D01*
X133973000Y-111340741D01*
X133973000Y-111163259D01*
X134007624Y-110989188D01*
X134075544Y-110825216D01*
X134174147Y-110677646D01*
X134299646Y-110552147D01*
X134447216Y-110453544D01*
X134611188Y-110385624D01*
X134760488Y-110355927D01*
X134785258Y-110351000D01*
X134962742Y-110351000D01*
X134987512Y-110355927D01*
G37*
G36*
X132447512Y-110355927D02*
G01*
X132596812Y-110385624D01*
X132760784Y-110453544D01*
X132908354Y-110552147D01*
X133033853Y-110677646D01*
X133132456Y-110825216D01*
X133200376Y-110989188D01*
X133235000Y-111163259D01*
X133235000Y-111340741D01*
X133200376Y-111514812D01*
X133132456Y-111678784D01*
X133033853Y-111826354D01*
X132908354Y-111951853D01*
X132760784Y-112050456D01*
X132596812Y-112118376D01*
X132447512Y-112148073D01*
X132422742Y-112153000D01*
X132245258Y-112153000D01*
X132220488Y-112148073D01*
X132071188Y-112118376D01*
X131907216Y-112050456D01*
X131759646Y-111951853D01*
X131634147Y-111826354D01*
X131535544Y-111678784D01*
X131467624Y-111514812D01*
X131433000Y-111340741D01*
X131433000Y-111163259D01*
X131467624Y-110989188D01*
X131535544Y-110825216D01*
X131634147Y-110677646D01*
X131759646Y-110552147D01*
X131907216Y-110453544D01*
X132071188Y-110385624D01*
X132220488Y-110355927D01*
X132245258Y-110351000D01*
X132422742Y-110351000D01*
X132447512Y-110355927D01*
G37*
G36*
X138315000Y-112153000D02*
G01*
X136513000Y-112153000D01*
X136513000Y-110351000D01*
X138315000Y-110351000D01*
X138315000Y-112153000D01*
G37*
G36*
X103701000Y-111601000D02*
G01*
X102699000Y-111601000D01*
X102699000Y-109799000D01*
X103701000Y-109799000D01*
X103701000Y-111601000D01*
G37*
G36*
X100301000Y-111601000D02*
G01*
X99299000Y-111601000D01*
X99299000Y-109799000D01*
X100301000Y-109799000D01*
X100301000Y-111601000D01*
G37*
G36*
X104529591Y-107178085D02*
G01*
X104563569Y-107188393D01*
X104594890Y-107205134D01*
X104622339Y-107227661D01*
X104644866Y-107255110D01*
X104661607Y-107286431D01*
X104671915Y-107320409D01*
X104676000Y-107361890D01*
X104676000Y-108038110D01*
X104671915Y-108079591D01*
X104661607Y-108113569D01*
X104644866Y-108144890D01*
X104622339Y-108172339D01*
X104594890Y-108194866D01*
X104563569Y-108211607D01*
X104529591Y-108221915D01*
X104488110Y-108226000D01*
X103886890Y-108226000D01*
X103845409Y-108221915D01*
X103811431Y-108211607D01*
X103780110Y-108194866D01*
X103752661Y-108172339D01*
X103730134Y-108144890D01*
X103713393Y-108113569D01*
X103703085Y-108079591D01*
X103699000Y-108038110D01*
X103699000Y-107361890D01*
X103703085Y-107320409D01*
X103713393Y-107286431D01*
X103730134Y-107255110D01*
X103752661Y-107227661D01*
X103780110Y-107205134D01*
X103811431Y-107188393D01*
X103845409Y-107178085D01*
X103886890Y-107174000D01*
X104488110Y-107174000D01*
X104529591Y-107178085D01*
G37*
G36*
X102954591Y-107178085D02*
G01*
X102988569Y-107188393D01*
X103019890Y-107205134D01*
X103047339Y-107227661D01*
X103069866Y-107255110D01*
X103086607Y-107286431D01*
X103096915Y-107320409D01*
X103101000Y-107361890D01*
X103101000Y-108038110D01*
X103096915Y-108079591D01*
X103086607Y-108113569D01*
X103069866Y-108144890D01*
X103047339Y-108172339D01*
X103019890Y-108194866D01*
X102988569Y-108211607D01*
X102954591Y-108221915D01*
X102913110Y-108226000D01*
X102311890Y-108226000D01*
X102270409Y-108221915D01*
X102236431Y-108211607D01*
X102205110Y-108194866D01*
X102177661Y-108172339D01*
X102155134Y-108144890D01*
X102138393Y-108113569D01*
X102128085Y-108079591D01*
X102124000Y-108038110D01*
X102124000Y-107361890D01*
X102128085Y-107320409D01*
X102138393Y-107286431D01*
X102155134Y-107255110D01*
X102177661Y-107227661D01*
X102205110Y-107205134D01*
X102236431Y-107188393D01*
X102270409Y-107178085D01*
X102311890Y-107174000D01*
X102913110Y-107174000D01*
X102954591Y-107178085D01*
G37*
G36*
X119101000Y-107001000D02*
G01*
X118099000Y-107001000D01*
X118099000Y-105199000D01*
X119101000Y-105199000D01*
X119101000Y-107001000D01*
G37*
G36*
X122501000Y-107001000D02*
G01*
X121499000Y-107001000D01*
X121499000Y-105199000D01*
X122501000Y-105199000D01*
X122501000Y-107001000D01*
G37*
G36*
X113044091Y-105650085D02*
G01*
X113078069Y-105660393D01*
X113109390Y-105677134D01*
X113136839Y-105699661D01*
X113159366Y-105727110D01*
X113176107Y-105758431D01*
X113186415Y-105792409D01*
X113190500Y-105833890D01*
X113190500Y-106510110D01*
X113186415Y-106551591D01*
X113176107Y-106585569D01*
X113159366Y-106616890D01*
X113136839Y-106644339D01*
X113109390Y-106666866D01*
X113078069Y-106683607D01*
X113044091Y-106693915D01*
X113002610Y-106698000D01*
X112401390Y-106698000D01*
X112359909Y-106693915D01*
X112325931Y-106683607D01*
X112294610Y-106666866D01*
X112267161Y-106644339D01*
X112244634Y-106616890D01*
X112227893Y-106585569D01*
X112217585Y-106551591D01*
X112213500Y-106510110D01*
X112213500Y-105833890D01*
X112217585Y-105792409D01*
X112227893Y-105758431D01*
X112244634Y-105727110D01*
X112267161Y-105699661D01*
X112294610Y-105677134D01*
X112325931Y-105660393D01*
X112359909Y-105650085D01*
X112401390Y-105646000D01*
X113002610Y-105646000D01*
X113044091Y-105650085D01*
G37*
G36*
X114619091Y-105650085D02*
G01*
X114653069Y-105660393D01*
X114684390Y-105677134D01*
X114711839Y-105699661D01*
X114734366Y-105727110D01*
X114751107Y-105758431D01*
X114761415Y-105792409D01*
X114765500Y-105833890D01*
X114765500Y-106510110D01*
X114761415Y-106551591D01*
X114751107Y-106585569D01*
X114734366Y-106616890D01*
X114711839Y-106644339D01*
X114684390Y-106666866D01*
X114653069Y-106683607D01*
X114619091Y-106693915D01*
X114577610Y-106698000D01*
X113976390Y-106698000D01*
X113934909Y-106693915D01*
X113900931Y-106683607D01*
X113869610Y-106666866D01*
X113842161Y-106644339D01*
X113819634Y-106616890D01*
X113802893Y-106585569D01*
X113792585Y-106551591D01*
X113788500Y-106510110D01*
X113788500Y-105833890D01*
X113792585Y-105792409D01*
X113802893Y-105758431D01*
X113819634Y-105727110D01*
X113842161Y-105699661D01*
X113869610Y-105677134D01*
X113900931Y-105660393D01*
X113934909Y-105650085D01*
X113976390Y-105646000D01*
X114577610Y-105646000D01*
X114619091Y-105650085D01*
G37*
G36*
X134742091Y-105278085D02*
G01*
X134776069Y-105288393D01*
X134807390Y-105305134D01*
X134834839Y-105327661D01*
X134857366Y-105355110D01*
X134874107Y-105386431D01*
X134884415Y-105420409D01*
X134888500Y-105461890D01*
X134888500Y-106138110D01*
X134884415Y-106179591D01*
X134874107Y-106213569D01*
X134857366Y-106244890D01*
X134834839Y-106272339D01*
X134807390Y-106294866D01*
X134776069Y-106311607D01*
X134742091Y-106321915D01*
X134700610Y-106326000D01*
X134099390Y-106326000D01*
X134057909Y-106321915D01*
X134023931Y-106311607D01*
X133992610Y-106294866D01*
X133965161Y-106272339D01*
X133942634Y-106244890D01*
X133925893Y-106213569D01*
X133915585Y-106179591D01*
X133911500Y-106138110D01*
X133911500Y-105461890D01*
X133915585Y-105420409D01*
X133925893Y-105386431D01*
X133942634Y-105355110D01*
X133965161Y-105327661D01*
X133992610Y-105305134D01*
X134023931Y-105288393D01*
X134057909Y-105278085D01*
X134099390Y-105274000D01*
X134700610Y-105274000D01*
X134742091Y-105278085D01*
G37*
G36*
X136317091Y-105278085D02*
G01*
X136351069Y-105288393D01*
X136382390Y-105305134D01*
X136409839Y-105327661D01*
X136432366Y-105355110D01*
X136449107Y-105386431D01*
X136459415Y-105420409D01*
X136463500Y-105461890D01*
X136463500Y-106138110D01*
X136459415Y-106179591D01*
X136449107Y-106213569D01*
X136432366Y-106244890D01*
X136409839Y-106272339D01*
X136382390Y-106294866D01*
X136351069Y-106311607D01*
X136317091Y-106321915D01*
X136275610Y-106326000D01*
X135674390Y-106326000D01*
X135632909Y-106321915D01*
X135598931Y-106311607D01*
X135567610Y-106294866D01*
X135540161Y-106272339D01*
X135517634Y-106244890D01*
X135500893Y-106213569D01*
X135490585Y-106179591D01*
X135486500Y-106138110D01*
X135486500Y-105461890D01*
X135490585Y-105420409D01*
X135500893Y-105386431D01*
X135517634Y-105355110D01*
X135540161Y-105327661D01*
X135567610Y-105305134D01*
X135598931Y-105288393D01*
X135632909Y-105278085D01*
X135674390Y-105274000D01*
X136275610Y-105274000D01*
X136317091Y-105278085D01*
G37*
G36*
X139717091Y-105178085D02*
G01*
X139751069Y-105188393D01*
X139782390Y-105205134D01*
X139809839Y-105227661D01*
X139832366Y-105255110D01*
X139849107Y-105286431D01*
X139859415Y-105320409D01*
X139863500Y-105361890D01*
X139863500Y-106038110D01*
X139859415Y-106079591D01*
X139849107Y-106113569D01*
X139832366Y-106144890D01*
X139809839Y-106172339D01*
X139782390Y-106194866D01*
X139751069Y-106211607D01*
X139717091Y-106221915D01*
X139675610Y-106226000D01*
X139074390Y-106226000D01*
X139032909Y-106221915D01*
X138998931Y-106211607D01*
X138967610Y-106194866D01*
X138940161Y-106172339D01*
X138917634Y-106144890D01*
X138900893Y-106113569D01*
X138890585Y-106079591D01*
X138886500Y-106038110D01*
X138886500Y-105361890D01*
X138890585Y-105320409D01*
X138900893Y-105286431D01*
X138917634Y-105255110D01*
X138940161Y-105227661D01*
X138967610Y-105205134D01*
X138998931Y-105188393D01*
X139032909Y-105178085D01*
X139074390Y-105174000D01*
X139675610Y-105174000D01*
X139717091Y-105178085D01*
G37*
G36*
X138142091Y-105178085D02*
G01*
X138176069Y-105188393D01*
X138207390Y-105205134D01*
X138234839Y-105227661D01*
X138257366Y-105255110D01*
X138274107Y-105286431D01*
X138284415Y-105320409D01*
X138288500Y-105361890D01*
X138288500Y-106038110D01*
X138284415Y-106079591D01*
X138274107Y-106113569D01*
X138257366Y-106144890D01*
X138234839Y-106172339D01*
X138207390Y-106194866D01*
X138176069Y-106211607D01*
X138142091Y-106221915D01*
X138100610Y-106226000D01*
X137499390Y-106226000D01*
X137457909Y-106221915D01*
X137423931Y-106211607D01*
X137392610Y-106194866D01*
X137365161Y-106172339D01*
X137342634Y-106144890D01*
X137325893Y-106113569D01*
X137315585Y-106079591D01*
X137311500Y-106038110D01*
X137311500Y-105361890D01*
X137315585Y-105320409D01*
X137325893Y-105286431D01*
X137342634Y-105255110D01*
X137365161Y-105227661D01*
X137392610Y-105205134D01*
X137423931Y-105188393D01*
X137457909Y-105178085D01*
X137499390Y-105174000D01*
X138100610Y-105174000D01*
X138142091Y-105178085D01*
G37*
G36*
X148703512Y-103751927D02*
G01*
X148852812Y-103781624D01*
X149016784Y-103849544D01*
X149164354Y-103948147D01*
X149289853Y-104073646D01*
X149388456Y-104221216D01*
X149456376Y-104385188D01*
X149491000Y-104559259D01*
X149491000Y-104736741D01*
X149456376Y-104910812D01*
X149388456Y-105074784D01*
X149289853Y-105222354D01*
X149164354Y-105347853D01*
X149016784Y-105446456D01*
X148852812Y-105514376D01*
X148703512Y-105544073D01*
X148678742Y-105549000D01*
X148501258Y-105549000D01*
X148476488Y-105544073D01*
X148327188Y-105514376D01*
X148163216Y-105446456D01*
X148015646Y-105347853D01*
X147890147Y-105222354D01*
X147791544Y-105074784D01*
X147723624Y-104910812D01*
X147689000Y-104736741D01*
X147689000Y-104559259D01*
X147723624Y-104385188D01*
X147791544Y-104221216D01*
X147890147Y-104073646D01*
X148015646Y-103948147D01*
X148163216Y-103849544D01*
X148327188Y-103781624D01*
X148476488Y-103751927D01*
X148501258Y-103747000D01*
X148678742Y-103747000D01*
X148703512Y-103751927D01*
G37*
G36*
X129742091Y-104378085D02*
G01*
X129776069Y-104388393D01*
X129807390Y-104405134D01*
X129834839Y-104427661D01*
X129857366Y-104455110D01*
X129874107Y-104486431D01*
X129884415Y-104520409D01*
X129888500Y-104561890D01*
X129888500Y-105238110D01*
X129884415Y-105279591D01*
X129874107Y-105313569D01*
X129857366Y-105344890D01*
X129834839Y-105372339D01*
X129807390Y-105394866D01*
X129776069Y-105411607D01*
X129742091Y-105421915D01*
X129700610Y-105426000D01*
X129099390Y-105426000D01*
X129057909Y-105421915D01*
X129023931Y-105411607D01*
X128992610Y-105394866D01*
X128965161Y-105372339D01*
X128942634Y-105344890D01*
X128925893Y-105313569D01*
X128915585Y-105279591D01*
X128911500Y-105238110D01*
X128911500Y-104561890D01*
X128915585Y-104520409D01*
X128925893Y-104486431D01*
X128942634Y-104455110D01*
X128965161Y-104427661D01*
X128992610Y-104405134D01*
X129023931Y-104388393D01*
X129057909Y-104378085D01*
X129099390Y-104374000D01*
X129700610Y-104374000D01*
X129742091Y-104378085D01*
G37*
G36*
X128167091Y-104378085D02*
G01*
X128201069Y-104388393D01*
X128232390Y-104405134D01*
X128259839Y-104427661D01*
X128282366Y-104455110D01*
X128299107Y-104486431D01*
X128309415Y-104520409D01*
X128313500Y-104561890D01*
X128313500Y-105238110D01*
X128309415Y-105279591D01*
X128299107Y-105313569D01*
X128282366Y-105344890D01*
X128259839Y-105372339D01*
X128232390Y-105394866D01*
X128201069Y-105411607D01*
X128167091Y-105421915D01*
X128125610Y-105426000D01*
X127524390Y-105426000D01*
X127482909Y-105421915D01*
X127448931Y-105411607D01*
X127417610Y-105394866D01*
X127390161Y-105372339D01*
X127367634Y-105344890D01*
X127350893Y-105313569D01*
X127340585Y-105279591D01*
X127336500Y-105238110D01*
X127336500Y-104561890D01*
X127340585Y-104520409D01*
X127350893Y-104486431D01*
X127367634Y-104455110D01*
X127390161Y-104427661D01*
X127417610Y-104405134D01*
X127448931Y-104388393D01*
X127482909Y-104378085D01*
X127524390Y-104374000D01*
X128125610Y-104374000D01*
X128167091Y-104378085D01*
G37*
G36*
X103819000Y-104574000D02*
G01*
X101717000Y-104574000D01*
X101717000Y-102972000D01*
X103819000Y-102972000D01*
X103819000Y-104574000D01*
G37*
G36*
X136317091Y-103278085D02*
G01*
X136351069Y-103288393D01*
X136382390Y-103305134D01*
X136409839Y-103327661D01*
X136432366Y-103355110D01*
X136449107Y-103386431D01*
X136459415Y-103420409D01*
X136463500Y-103461890D01*
X136463500Y-104138110D01*
X136459415Y-104179591D01*
X136449107Y-104213569D01*
X136432366Y-104244890D01*
X136409839Y-104272339D01*
X136382390Y-104294866D01*
X136351069Y-104311607D01*
X136317091Y-104321915D01*
X136275610Y-104326000D01*
X135674390Y-104326000D01*
X135632909Y-104321915D01*
X135598931Y-104311607D01*
X135567610Y-104294866D01*
X135540161Y-104272339D01*
X135517634Y-104244890D01*
X135500893Y-104213569D01*
X135490585Y-104179591D01*
X135486500Y-104138110D01*
X135486500Y-103461890D01*
X135490585Y-103420409D01*
X135500893Y-103386431D01*
X135517634Y-103355110D01*
X135540161Y-103327661D01*
X135567610Y-103305134D01*
X135598931Y-103288393D01*
X135632909Y-103278085D01*
X135674390Y-103274000D01*
X136275610Y-103274000D01*
X136317091Y-103278085D01*
G37*
G36*
X134742091Y-103278085D02*
G01*
X134776069Y-103288393D01*
X134807390Y-103305134D01*
X134834839Y-103327661D01*
X134857366Y-103355110D01*
X134874107Y-103386431D01*
X134884415Y-103420409D01*
X134888500Y-103461890D01*
X134888500Y-104138110D01*
X134884415Y-104179591D01*
X134874107Y-104213569D01*
X134857366Y-104244890D01*
X134834839Y-104272339D01*
X134807390Y-104294866D01*
X134776069Y-104311607D01*
X134742091Y-104321915D01*
X134700610Y-104326000D01*
X134099390Y-104326000D01*
X134057909Y-104321915D01*
X134023931Y-104311607D01*
X133992610Y-104294866D01*
X133965161Y-104272339D01*
X133942634Y-104244890D01*
X133925893Y-104213569D01*
X133915585Y-104179591D01*
X133911500Y-104138110D01*
X133911500Y-103461890D01*
X133915585Y-103420409D01*
X133925893Y-103386431D01*
X133942634Y-103355110D01*
X133965161Y-103327661D01*
X133992610Y-103305134D01*
X134023931Y-103288393D01*
X134057909Y-103278085D01*
X134099390Y-103274000D01*
X134700610Y-103274000D01*
X134742091Y-103278085D01*
G37*
G36*
X138242091Y-103178085D02*
G01*
X138276069Y-103188393D01*
X138307390Y-103205134D01*
X138334839Y-103227661D01*
X138357366Y-103255110D01*
X138374107Y-103286431D01*
X138384415Y-103320409D01*
X138388500Y-103361890D01*
X138388500Y-104038110D01*
X138384415Y-104079591D01*
X138374107Y-104113569D01*
X138357366Y-104144890D01*
X138334839Y-104172339D01*
X138307390Y-104194866D01*
X138276069Y-104211607D01*
X138242091Y-104221915D01*
X138200610Y-104226000D01*
X137599390Y-104226000D01*
X137557909Y-104221915D01*
X137523931Y-104211607D01*
X137492610Y-104194866D01*
X137465161Y-104172339D01*
X137442634Y-104144890D01*
X137425893Y-104113569D01*
X137415585Y-104079591D01*
X137411500Y-104038110D01*
X137411500Y-103361890D01*
X137415585Y-103320409D01*
X137425893Y-103286431D01*
X137442634Y-103255110D01*
X137465161Y-103227661D01*
X137492610Y-103205134D01*
X137523931Y-103188393D01*
X137557909Y-103178085D01*
X137599390Y-103174000D01*
X138200610Y-103174000D01*
X138242091Y-103178085D01*
G37*
G36*
X139817091Y-103178085D02*
G01*
X139851069Y-103188393D01*
X139882390Y-103205134D01*
X139909839Y-103227661D01*
X139932366Y-103255110D01*
X139949107Y-103286431D01*
X139959415Y-103320409D01*
X139963500Y-103361890D01*
X139963500Y-104038110D01*
X139959415Y-104079591D01*
X139949107Y-104113569D01*
X139932366Y-104144890D01*
X139909839Y-104172339D01*
X139882390Y-104194866D01*
X139851069Y-104211607D01*
X139817091Y-104221915D01*
X139775610Y-104226000D01*
X139174390Y-104226000D01*
X139132909Y-104221915D01*
X139098931Y-104211607D01*
X139067610Y-104194866D01*
X139040161Y-104172339D01*
X139017634Y-104144890D01*
X139000893Y-104113569D01*
X138990585Y-104079591D01*
X138986500Y-104038110D01*
X138986500Y-103361890D01*
X138990585Y-103320409D01*
X139000893Y-103286431D01*
X139017634Y-103255110D01*
X139040161Y-103227661D01*
X139067610Y-103205134D01*
X139098931Y-103188393D01*
X139132909Y-103178085D01*
X139174390Y-103174000D01*
X139775610Y-103174000D01*
X139817091Y-103178085D01*
G37*
G36*
X114619091Y-103110085D02*
G01*
X114653069Y-103120393D01*
X114684390Y-103137134D01*
X114711839Y-103159661D01*
X114734366Y-103187110D01*
X114751107Y-103218431D01*
X114761415Y-103252409D01*
X114765500Y-103293890D01*
X114765500Y-103970110D01*
X114761415Y-104011591D01*
X114751107Y-104045569D01*
X114734366Y-104076890D01*
X114711839Y-104104339D01*
X114684390Y-104126866D01*
X114653069Y-104143607D01*
X114619091Y-104153915D01*
X114577610Y-104158000D01*
X113976390Y-104158000D01*
X113934909Y-104153915D01*
X113900931Y-104143607D01*
X113869610Y-104126866D01*
X113842161Y-104104339D01*
X113819634Y-104076890D01*
X113802893Y-104045569D01*
X113792585Y-104011591D01*
X113788500Y-103970110D01*
X113788500Y-103293890D01*
X113792585Y-103252409D01*
X113802893Y-103218431D01*
X113819634Y-103187110D01*
X113842161Y-103159661D01*
X113869610Y-103137134D01*
X113900931Y-103120393D01*
X113934909Y-103110085D01*
X113976390Y-103106000D01*
X114577610Y-103106000D01*
X114619091Y-103110085D01*
G37*
G36*
X113044091Y-103110085D02*
G01*
X113078069Y-103120393D01*
X113109390Y-103137134D01*
X113136839Y-103159661D01*
X113159366Y-103187110D01*
X113176107Y-103218431D01*
X113186415Y-103252409D01*
X113190500Y-103293890D01*
X113190500Y-103970110D01*
X113186415Y-104011591D01*
X113176107Y-104045569D01*
X113159366Y-104076890D01*
X113136839Y-104104339D01*
X113109390Y-104126866D01*
X113078069Y-104143607D01*
X113044091Y-104153915D01*
X113002610Y-104158000D01*
X112401390Y-104158000D01*
X112359909Y-104153915D01*
X112325931Y-104143607D01*
X112294610Y-104126866D01*
X112267161Y-104104339D01*
X112244634Y-104076890D01*
X112227893Y-104045569D01*
X112217585Y-104011591D01*
X112213500Y-103970110D01*
X112213500Y-103293890D01*
X112217585Y-103252409D01*
X112227893Y-103218431D01*
X112244634Y-103187110D01*
X112267161Y-103159661D01*
X112294610Y-103137134D01*
X112325931Y-103120393D01*
X112359909Y-103110085D01*
X112401390Y-103106000D01*
X113002610Y-103106000D01*
X113044091Y-103110085D01*
G37*
G36*
X127042091Y-102878085D02*
G01*
X127076069Y-102888393D01*
X127107390Y-102905134D01*
X127134839Y-102927661D01*
X127157366Y-102955110D01*
X127174107Y-102986431D01*
X127184415Y-103020409D01*
X127188500Y-103061890D01*
X127188500Y-103738110D01*
X127184415Y-103779591D01*
X127174107Y-103813569D01*
X127157366Y-103844890D01*
X127134839Y-103872339D01*
X127107390Y-103894866D01*
X127076069Y-103911607D01*
X127042091Y-103921915D01*
X127000610Y-103926000D01*
X126399390Y-103926000D01*
X126357909Y-103921915D01*
X126323931Y-103911607D01*
X126292610Y-103894866D01*
X126265161Y-103872339D01*
X126242634Y-103844890D01*
X126225893Y-103813569D01*
X126215585Y-103779591D01*
X126211500Y-103738110D01*
X126211500Y-103061890D01*
X126215585Y-103020409D01*
X126225893Y-102986431D01*
X126242634Y-102955110D01*
X126265161Y-102927661D01*
X126292610Y-102905134D01*
X126323931Y-102888393D01*
X126357909Y-102878085D01*
X126399390Y-102874000D01*
X127000610Y-102874000D01*
X127042091Y-102878085D01*
G37*
G36*
X125467091Y-102878085D02*
G01*
X125501069Y-102888393D01*
X125532390Y-102905134D01*
X125559839Y-102927661D01*
X125582366Y-102955110D01*
X125599107Y-102986431D01*
X125609415Y-103020409D01*
X125613500Y-103061890D01*
X125613500Y-103738110D01*
X125609415Y-103779591D01*
X125599107Y-103813569D01*
X125582366Y-103844890D01*
X125559839Y-103872339D01*
X125532390Y-103894866D01*
X125501069Y-103911607D01*
X125467091Y-103921915D01*
X125425610Y-103926000D01*
X124824390Y-103926000D01*
X124782909Y-103921915D01*
X124748931Y-103911607D01*
X124717610Y-103894866D01*
X124690161Y-103872339D01*
X124667634Y-103844890D01*
X124650893Y-103813569D01*
X124640585Y-103779591D01*
X124636500Y-103738110D01*
X124636500Y-103061890D01*
X124640585Y-103020409D01*
X124650893Y-102986431D01*
X124667634Y-102955110D01*
X124690161Y-102927661D01*
X124717610Y-102905134D01*
X124748931Y-102888393D01*
X124782909Y-102878085D01*
X124824390Y-102874000D01*
X125425610Y-102874000D01*
X125467091Y-102878085D01*
G37*
G36*
X130242091Y-102678085D02*
G01*
X130276069Y-102688393D01*
X130307390Y-102705134D01*
X130334839Y-102727661D01*
X130357366Y-102755110D01*
X130374107Y-102786431D01*
X130384415Y-102820409D01*
X130388500Y-102861890D01*
X130388500Y-103538110D01*
X130384415Y-103579591D01*
X130374107Y-103613569D01*
X130357366Y-103644890D01*
X130334839Y-103672339D01*
X130307390Y-103694866D01*
X130276069Y-103711607D01*
X130242091Y-103721915D01*
X130200610Y-103726000D01*
X129599390Y-103726000D01*
X129557909Y-103721915D01*
X129523931Y-103711607D01*
X129492610Y-103694866D01*
X129465161Y-103672339D01*
X129442634Y-103644890D01*
X129425893Y-103613569D01*
X129415585Y-103579591D01*
X129411500Y-103538110D01*
X129411500Y-102861890D01*
X129415585Y-102820409D01*
X129425893Y-102786431D01*
X129442634Y-102755110D01*
X129465161Y-102727661D01*
X129492610Y-102705134D01*
X129523931Y-102688393D01*
X129557909Y-102678085D01*
X129599390Y-102674000D01*
X130200610Y-102674000D01*
X130242091Y-102678085D01*
G37*
G36*
X131817091Y-102678085D02*
G01*
X131851069Y-102688393D01*
X131882390Y-102705134D01*
X131909839Y-102727661D01*
X131932366Y-102755110D01*
X131949107Y-102786431D01*
X131959415Y-102820409D01*
X131963500Y-102861890D01*
X131963500Y-103538110D01*
X131959415Y-103579591D01*
X131949107Y-103613569D01*
X131932366Y-103644890D01*
X131909839Y-103672339D01*
X131882390Y-103694866D01*
X131851069Y-103711607D01*
X131817091Y-103721915D01*
X131775610Y-103726000D01*
X131174390Y-103726000D01*
X131132909Y-103721915D01*
X131098931Y-103711607D01*
X131067610Y-103694866D01*
X131040161Y-103672339D01*
X131017634Y-103644890D01*
X131000893Y-103613569D01*
X130990585Y-103579591D01*
X130986500Y-103538110D01*
X130986500Y-102861890D01*
X130990585Y-102820409D01*
X131000893Y-102786431D01*
X131017634Y-102755110D01*
X131040161Y-102727661D01*
X131067610Y-102705134D01*
X131098931Y-102688393D01*
X131132909Y-102678085D01*
X131174390Y-102674000D01*
X131775610Y-102674000D01*
X131817091Y-102678085D01*
G37*
G36*
X110119000Y-103424000D02*
G01*
X108017000Y-103424000D01*
X108017000Y-99522000D01*
X110119000Y-99522000D01*
X110119000Y-103424000D01*
G37*
G36*
X148703512Y-101211927D02*
G01*
X148852812Y-101241624D01*
X149016784Y-101309544D01*
X149164354Y-101408147D01*
X149289853Y-101533646D01*
X149388456Y-101681216D01*
X149456376Y-101845188D01*
X149491000Y-102019259D01*
X149491000Y-102196741D01*
X149456376Y-102370812D01*
X149388456Y-102534784D01*
X149289853Y-102682354D01*
X149164354Y-102807853D01*
X149016784Y-102906456D01*
X148852812Y-102974376D01*
X148703512Y-103004073D01*
X148678742Y-103009000D01*
X148501258Y-103009000D01*
X148476488Y-103004073D01*
X148327188Y-102974376D01*
X148163216Y-102906456D01*
X148015646Y-102807853D01*
X147890147Y-102682354D01*
X147791544Y-102534784D01*
X147723624Y-102370812D01*
X147689000Y-102196741D01*
X147689000Y-102019259D01*
X147723624Y-101845188D01*
X147791544Y-101681216D01*
X147890147Y-101533646D01*
X148015646Y-101408147D01*
X148163216Y-101309544D01*
X148327188Y-101241624D01*
X148476488Y-101211927D01*
X148501258Y-101207000D01*
X148678742Y-101207000D01*
X148703512Y-101211927D01*
G37*
G36*
X134742091Y-101478085D02*
G01*
X134776069Y-101488393D01*
X134807390Y-101505134D01*
X134834839Y-101527661D01*
X134857366Y-101555110D01*
X134874107Y-101586431D01*
X134884415Y-101620409D01*
X134888500Y-101661890D01*
X134888500Y-102338110D01*
X134884415Y-102379591D01*
X134874107Y-102413569D01*
X134857366Y-102444890D01*
X134834839Y-102472339D01*
X134807390Y-102494866D01*
X134776069Y-102511607D01*
X134742091Y-102521915D01*
X134700610Y-102526000D01*
X134099390Y-102526000D01*
X134057909Y-102521915D01*
X134023931Y-102511607D01*
X133992610Y-102494866D01*
X133965161Y-102472339D01*
X133942634Y-102444890D01*
X133925893Y-102413569D01*
X133915585Y-102379591D01*
X133911500Y-102338110D01*
X133911500Y-101661890D01*
X133915585Y-101620409D01*
X133925893Y-101586431D01*
X133942634Y-101555110D01*
X133965161Y-101527661D01*
X133992610Y-101505134D01*
X134023931Y-101488393D01*
X134057909Y-101478085D01*
X134099390Y-101474000D01*
X134700610Y-101474000D01*
X134742091Y-101478085D01*
G37*
G36*
X139817091Y-101478085D02*
G01*
X139851069Y-101488393D01*
X139882390Y-101505134D01*
X139909839Y-101527661D01*
X139932366Y-101555110D01*
X139949107Y-101586431D01*
X139959415Y-101620409D01*
X139963500Y-101661890D01*
X139963500Y-102338110D01*
X139959415Y-102379591D01*
X139949107Y-102413569D01*
X139932366Y-102444890D01*
X139909839Y-102472339D01*
X139882390Y-102494866D01*
X139851069Y-102511607D01*
X139817091Y-102521915D01*
X139775610Y-102526000D01*
X139174390Y-102526000D01*
X139132909Y-102521915D01*
X139098931Y-102511607D01*
X139067610Y-102494866D01*
X139040161Y-102472339D01*
X139017634Y-102444890D01*
X139000893Y-102413569D01*
X138990585Y-102379591D01*
X138986500Y-102338110D01*
X138986500Y-101661890D01*
X138990585Y-101620409D01*
X139000893Y-101586431D01*
X139017634Y-101555110D01*
X139040161Y-101527661D01*
X139067610Y-101505134D01*
X139098931Y-101488393D01*
X139132909Y-101478085D01*
X139174390Y-101474000D01*
X139775610Y-101474000D01*
X139817091Y-101478085D01*
G37*
G36*
X138242091Y-101478085D02*
G01*
X138276069Y-101488393D01*
X138307390Y-101505134D01*
X138334839Y-101527661D01*
X138357366Y-101555110D01*
X138374107Y-101586431D01*
X138384415Y-101620409D01*
X138388500Y-101661890D01*
X138388500Y-102338110D01*
X138384415Y-102379591D01*
X138374107Y-102413569D01*
X138357366Y-102444890D01*
X138334839Y-102472339D01*
X138307390Y-102494866D01*
X138276069Y-102511607D01*
X138242091Y-102521915D01*
X138200610Y-102526000D01*
X137599390Y-102526000D01*
X137557909Y-102521915D01*
X137523931Y-102511607D01*
X137492610Y-102494866D01*
X137465161Y-102472339D01*
X137442634Y-102444890D01*
X137425893Y-102413569D01*
X137415585Y-102379591D01*
X137411500Y-102338110D01*
X137411500Y-101661890D01*
X137415585Y-101620409D01*
X137425893Y-101586431D01*
X137442634Y-101555110D01*
X137465161Y-101527661D01*
X137492610Y-101505134D01*
X137523931Y-101488393D01*
X137557909Y-101478085D01*
X137599390Y-101474000D01*
X138200610Y-101474000D01*
X138242091Y-101478085D01*
G37*
G36*
X136317091Y-101478085D02*
G01*
X136351069Y-101488393D01*
X136382390Y-101505134D01*
X136409839Y-101527661D01*
X136432366Y-101555110D01*
X136449107Y-101586431D01*
X136459415Y-101620409D01*
X136463500Y-101661890D01*
X136463500Y-102338110D01*
X136459415Y-102379591D01*
X136449107Y-102413569D01*
X136432366Y-102444890D01*
X136409839Y-102472339D01*
X136382390Y-102494866D01*
X136351069Y-102511607D01*
X136317091Y-102521915D01*
X136275610Y-102526000D01*
X135674390Y-102526000D01*
X135632909Y-102521915D01*
X135598931Y-102511607D01*
X135567610Y-102494866D01*
X135540161Y-102472339D01*
X135517634Y-102444890D01*
X135500893Y-102413569D01*
X135490585Y-102379591D01*
X135486500Y-102338110D01*
X135486500Y-101661890D01*
X135490585Y-101620409D01*
X135500893Y-101586431D01*
X135517634Y-101555110D01*
X135540161Y-101527661D01*
X135567610Y-101505134D01*
X135598931Y-101488393D01*
X135632909Y-101478085D01*
X135674390Y-101474000D01*
X136275610Y-101474000D01*
X136317091Y-101478085D01*
G37*
G36*
X103819000Y-102274000D02*
G01*
X101717000Y-102274000D01*
X101717000Y-100672000D01*
X103819000Y-100672000D01*
X103819000Y-102274000D01*
G37*
G36*
X139742091Y-99578085D02*
G01*
X139776069Y-99588393D01*
X139807390Y-99605134D01*
X139834839Y-99627661D01*
X139857366Y-99655110D01*
X139874107Y-99686431D01*
X139884415Y-99720409D01*
X139888500Y-99761890D01*
X139888500Y-100438110D01*
X139884415Y-100479591D01*
X139874107Y-100513569D01*
X139857366Y-100544890D01*
X139834839Y-100572339D01*
X139807390Y-100594866D01*
X139776069Y-100611607D01*
X139742091Y-100621915D01*
X139700610Y-100626000D01*
X139099390Y-100626000D01*
X139057909Y-100621915D01*
X139023931Y-100611607D01*
X138992610Y-100594866D01*
X138965161Y-100572339D01*
X138942634Y-100544890D01*
X138925893Y-100513569D01*
X138915585Y-100479591D01*
X138911500Y-100438110D01*
X138911500Y-99761890D01*
X138915585Y-99720409D01*
X138925893Y-99686431D01*
X138942634Y-99655110D01*
X138965161Y-99627661D01*
X138992610Y-99605134D01*
X139023931Y-99588393D01*
X139057909Y-99578085D01*
X139099390Y-99574000D01*
X139700610Y-99574000D01*
X139742091Y-99578085D01*
G37*
G36*
X138167091Y-99578085D02*
G01*
X138201069Y-99588393D01*
X138232390Y-99605134D01*
X138259839Y-99627661D01*
X138282366Y-99655110D01*
X138299107Y-99686431D01*
X138309415Y-99720409D01*
X138313500Y-99761890D01*
X138313500Y-100438110D01*
X138309415Y-100479591D01*
X138299107Y-100513569D01*
X138282366Y-100544890D01*
X138259839Y-100572339D01*
X138232390Y-100594866D01*
X138201069Y-100611607D01*
X138167091Y-100621915D01*
X138125610Y-100626000D01*
X137524390Y-100626000D01*
X137482909Y-100621915D01*
X137448931Y-100611607D01*
X137417610Y-100594866D01*
X137390161Y-100572339D01*
X137367634Y-100544890D01*
X137350893Y-100513569D01*
X137340585Y-100479591D01*
X137336500Y-100438110D01*
X137336500Y-99761890D01*
X137340585Y-99720409D01*
X137350893Y-99686431D01*
X137367634Y-99655110D01*
X137390161Y-99627661D01*
X137417610Y-99605134D01*
X137448931Y-99588393D01*
X137482909Y-99578085D01*
X137524390Y-99574000D01*
X138125610Y-99574000D01*
X138167091Y-99578085D01*
G37*
G36*
X136342091Y-99578085D02*
G01*
X136376069Y-99588393D01*
X136407390Y-99605134D01*
X136434839Y-99627661D01*
X136457366Y-99655110D01*
X136474107Y-99686431D01*
X136484415Y-99720409D01*
X136488500Y-99761890D01*
X136488500Y-100438110D01*
X136484415Y-100479591D01*
X136474107Y-100513569D01*
X136457366Y-100544890D01*
X136434839Y-100572339D01*
X136407390Y-100594866D01*
X136376069Y-100611607D01*
X136342091Y-100621915D01*
X136300610Y-100626000D01*
X135699390Y-100626000D01*
X135657909Y-100621915D01*
X135623931Y-100611607D01*
X135592610Y-100594866D01*
X135565161Y-100572339D01*
X135542634Y-100544890D01*
X135525893Y-100513569D01*
X135515585Y-100479591D01*
X135511500Y-100438110D01*
X135511500Y-99761890D01*
X135515585Y-99720409D01*
X135525893Y-99686431D01*
X135542634Y-99655110D01*
X135565161Y-99627661D01*
X135592610Y-99605134D01*
X135623931Y-99588393D01*
X135657909Y-99578085D01*
X135699390Y-99574000D01*
X136300610Y-99574000D01*
X136342091Y-99578085D01*
G37*
G36*
X134767091Y-99578085D02*
G01*
X134801069Y-99588393D01*
X134832390Y-99605134D01*
X134859839Y-99627661D01*
X134882366Y-99655110D01*
X134899107Y-99686431D01*
X134909415Y-99720409D01*
X134913500Y-99761890D01*
X134913500Y-100438110D01*
X134909415Y-100479591D01*
X134899107Y-100513569D01*
X134882366Y-100544890D01*
X134859839Y-100572339D01*
X134832390Y-100594866D01*
X134801069Y-100611607D01*
X134767091Y-100621915D01*
X134725610Y-100626000D01*
X134124390Y-100626000D01*
X134082909Y-100621915D01*
X134048931Y-100611607D01*
X134017610Y-100594866D01*
X133990161Y-100572339D01*
X133967634Y-100544890D01*
X133950893Y-100513569D01*
X133940585Y-100479591D01*
X133936500Y-100438110D01*
X133936500Y-99761890D01*
X133940585Y-99720409D01*
X133950893Y-99686431D01*
X133967634Y-99655110D01*
X133990161Y-99627661D01*
X134017610Y-99605134D01*
X134048931Y-99588393D01*
X134082909Y-99578085D01*
X134124390Y-99574000D01*
X134725610Y-99574000D01*
X134767091Y-99578085D01*
G37*
G36*
X120880295Y-98830323D02*
G01*
X120887309Y-98832451D01*
X120901077Y-98839810D01*
X120923716Y-98849187D01*
X120947749Y-98853967D01*
X120972253Y-98853967D01*
X120996286Y-98849186D01*
X121018923Y-98839810D01*
X121032691Y-98832451D01*
X121039705Y-98830323D01*
X121053140Y-98829000D01*
X121366860Y-98829000D01*
X121380295Y-98830323D01*
X121387309Y-98832451D01*
X121401077Y-98839810D01*
X121423716Y-98849187D01*
X121447749Y-98853967D01*
X121472253Y-98853967D01*
X121496286Y-98849186D01*
X121518923Y-98839810D01*
X121532691Y-98832451D01*
X121539705Y-98830323D01*
X121553140Y-98829000D01*
X121866860Y-98829000D01*
X121880295Y-98830323D01*
X121887309Y-98832451D01*
X121901077Y-98839810D01*
X121923716Y-98849187D01*
X121947749Y-98853967D01*
X121972253Y-98853967D01*
X121996286Y-98849186D01*
X122018923Y-98839810D01*
X122032691Y-98832451D01*
X122039705Y-98830323D01*
X122053140Y-98829000D01*
X122366860Y-98829000D01*
X122380295Y-98830323D01*
X122387309Y-98832451D01*
X122401077Y-98839810D01*
X122423716Y-98849187D01*
X122447749Y-98853967D01*
X122472253Y-98853967D01*
X122496286Y-98849186D01*
X122518923Y-98839810D01*
X122532691Y-98832451D01*
X122539705Y-98830323D01*
X122553140Y-98829000D01*
X122866860Y-98829000D01*
X122880295Y-98830323D01*
X122887309Y-98832451D01*
X122901077Y-98839810D01*
X122923716Y-98849187D01*
X122947749Y-98853967D01*
X122972253Y-98853967D01*
X122996286Y-98849186D01*
X123018923Y-98839810D01*
X123032691Y-98832451D01*
X123039705Y-98830323D01*
X123053140Y-98829000D01*
X123366860Y-98829000D01*
X123380295Y-98830323D01*
X123387309Y-98832451D01*
X123401077Y-98839810D01*
X123423716Y-98849187D01*
X123447749Y-98853967D01*
X123472253Y-98853967D01*
X123496286Y-98849186D01*
X123518923Y-98839810D01*
X123532691Y-98832451D01*
X123539705Y-98830323D01*
X123553140Y-98829000D01*
X123866860Y-98829000D01*
X123880295Y-98830323D01*
X123887309Y-98832451D01*
X123901077Y-98839810D01*
X123923716Y-98849187D01*
X123947749Y-98853967D01*
X123972253Y-98853967D01*
X123996286Y-98849186D01*
X124018923Y-98839810D01*
X124032691Y-98832451D01*
X124039705Y-98830323D01*
X124053140Y-98829000D01*
X124366860Y-98829000D01*
X124380295Y-98830323D01*
X124387309Y-98832451D01*
X124401077Y-98839810D01*
X124423716Y-98849187D01*
X124447749Y-98853967D01*
X124472253Y-98853967D01*
X124496286Y-98849186D01*
X124518923Y-98839810D01*
X124532691Y-98832451D01*
X124539705Y-98830323D01*
X124553140Y-98829000D01*
X124866860Y-98829000D01*
X124880295Y-98830323D01*
X124887309Y-98832451D01*
X124901077Y-98839810D01*
X124923716Y-98849187D01*
X124947749Y-98853967D01*
X124972253Y-98853967D01*
X124996286Y-98849186D01*
X125018923Y-98839810D01*
X125032691Y-98832451D01*
X125039705Y-98830323D01*
X125053140Y-98829000D01*
X125366860Y-98829000D01*
X125380295Y-98830323D01*
X125387309Y-98832451D01*
X125401077Y-98839810D01*
X125423716Y-98849187D01*
X125447749Y-98853967D01*
X125472253Y-98853967D01*
X125496286Y-98849186D01*
X125518923Y-98839810D01*
X125532691Y-98832451D01*
X125539705Y-98830323D01*
X125553140Y-98829000D01*
X125866860Y-98829000D01*
X125880295Y-98830323D01*
X125887309Y-98832451D01*
X125901077Y-98839810D01*
X125923716Y-98849187D01*
X125947749Y-98853967D01*
X125972253Y-98853967D01*
X125996286Y-98849186D01*
X126018923Y-98839810D01*
X126032691Y-98832451D01*
X126039705Y-98830323D01*
X126053140Y-98829000D01*
X126366860Y-98829000D01*
X126380295Y-98830323D01*
X126387309Y-98832451D01*
X126401077Y-98839810D01*
X126423716Y-98849187D01*
X126447749Y-98853967D01*
X126472253Y-98853967D01*
X126496286Y-98849186D01*
X126518923Y-98839810D01*
X126532691Y-98832451D01*
X126539705Y-98830323D01*
X126553140Y-98829000D01*
X126866860Y-98829000D01*
X126880295Y-98830323D01*
X126887309Y-98832451D01*
X126901077Y-98839810D01*
X126923716Y-98849187D01*
X126947749Y-98853967D01*
X126972253Y-98853967D01*
X126996286Y-98849186D01*
X127018923Y-98839810D01*
X127032691Y-98832451D01*
X127039705Y-98830323D01*
X127053140Y-98829000D01*
X127366860Y-98829000D01*
X127380295Y-98830323D01*
X127387309Y-98832451D01*
X127401077Y-98839810D01*
X127423716Y-98849187D01*
X127447749Y-98853967D01*
X127472253Y-98853967D01*
X127496286Y-98849186D01*
X127518923Y-98839810D01*
X127532691Y-98832451D01*
X127539705Y-98830323D01*
X127553140Y-98829000D01*
X127866860Y-98829000D01*
X127880295Y-98830323D01*
X127887309Y-98832451D01*
X127901077Y-98839810D01*
X127923716Y-98849187D01*
X127947749Y-98853967D01*
X127972253Y-98853967D01*
X127996286Y-98849186D01*
X128018923Y-98839810D01*
X128032691Y-98832451D01*
X128039705Y-98830323D01*
X128053140Y-98829000D01*
X128366860Y-98829000D01*
X128380295Y-98830323D01*
X128387310Y-98832451D01*
X128393776Y-98835908D01*
X128399442Y-98840558D01*
X128404092Y-98846224D01*
X128407549Y-98852690D01*
X128409677Y-98859705D01*
X128411000Y-98873140D01*
X128411000Y-100436860D01*
X128409677Y-100450295D01*
X128407549Y-100457310D01*
X128404092Y-100463776D01*
X128399442Y-100469442D01*
X128393776Y-100474092D01*
X128387310Y-100477549D01*
X128380295Y-100479677D01*
X128366860Y-100481000D01*
X128053140Y-100481000D01*
X128039705Y-100479677D01*
X128032691Y-100477549D01*
X128018923Y-100470190D01*
X127996284Y-100460813D01*
X127972251Y-100456033D01*
X127947747Y-100456033D01*
X127923714Y-100460814D01*
X127901077Y-100470190D01*
X127887309Y-100477549D01*
X127880295Y-100479677D01*
X127866860Y-100481000D01*
X127553140Y-100481000D01*
X127539705Y-100479677D01*
X127532691Y-100477549D01*
X127518923Y-100470190D01*
X127496284Y-100460813D01*
X127472251Y-100456033D01*
X127447747Y-100456033D01*
X127423714Y-100460814D01*
X127401077Y-100470190D01*
X127387309Y-100477549D01*
X127380295Y-100479677D01*
X127366860Y-100481000D01*
X127053140Y-100481000D01*
X127039705Y-100479677D01*
X127032691Y-100477549D01*
X127018923Y-100470190D01*
X126996284Y-100460813D01*
X126972251Y-100456033D01*
X126947747Y-100456033D01*
X126923714Y-100460814D01*
X126901077Y-100470190D01*
X126887309Y-100477549D01*
X126880295Y-100479677D01*
X126866860Y-100481000D01*
X126553140Y-100481000D01*
X126539705Y-100479677D01*
X126532691Y-100477549D01*
X126518923Y-100470190D01*
X126496284Y-100460813D01*
X126472251Y-100456033D01*
X126447747Y-100456033D01*
X126423714Y-100460814D01*
X126401077Y-100470190D01*
X126387309Y-100477549D01*
X126380295Y-100479677D01*
X126366860Y-100481000D01*
X126053140Y-100481000D01*
X126039705Y-100479677D01*
X126032691Y-100477549D01*
X126018923Y-100470190D01*
X125996284Y-100460813D01*
X125972251Y-100456033D01*
X125947747Y-100456033D01*
X125923714Y-100460814D01*
X125901077Y-100470190D01*
X125887309Y-100477549D01*
X125880295Y-100479677D01*
X125866860Y-100481000D01*
X125553140Y-100481000D01*
X125539705Y-100479677D01*
X125532691Y-100477549D01*
X125518923Y-100470190D01*
X125496284Y-100460813D01*
X125472251Y-100456033D01*
X125447747Y-100456033D01*
X125423714Y-100460814D01*
X125401077Y-100470190D01*
X125387309Y-100477549D01*
X125380295Y-100479677D01*
X125366860Y-100481000D01*
X125053140Y-100481000D01*
X125039705Y-100479677D01*
X125032691Y-100477549D01*
X125018923Y-100470190D01*
X124996284Y-100460813D01*
X124972251Y-100456033D01*
X124947747Y-100456033D01*
X124923714Y-100460814D01*
X124901077Y-100470190D01*
X124887309Y-100477549D01*
X124880295Y-100479677D01*
X124866860Y-100481000D01*
X124553140Y-100481000D01*
X124539705Y-100479677D01*
X124532691Y-100477549D01*
X124518923Y-100470190D01*
X124496284Y-100460813D01*
X124472251Y-100456033D01*
X124447747Y-100456033D01*
X124423714Y-100460814D01*
X124401077Y-100470190D01*
X124387309Y-100477549D01*
X124380295Y-100479677D01*
X124366860Y-100481000D01*
X124053140Y-100481000D01*
X124039705Y-100479677D01*
X124032691Y-100477549D01*
X124018923Y-100470190D01*
X123996284Y-100460813D01*
X123972251Y-100456033D01*
X123947747Y-100456033D01*
X123923714Y-100460814D01*
X123901077Y-100470190D01*
X123887309Y-100477549D01*
X123880295Y-100479677D01*
X123866860Y-100481000D01*
X123553140Y-100481000D01*
X123539705Y-100479677D01*
X123532691Y-100477549D01*
X123518923Y-100470190D01*
X123496284Y-100460813D01*
X123472251Y-100456033D01*
X123447747Y-100456033D01*
X123423714Y-100460814D01*
X123401077Y-100470190D01*
X123387309Y-100477549D01*
X123380295Y-100479677D01*
X123366860Y-100481000D01*
X123053140Y-100481000D01*
X123039705Y-100479677D01*
X123032691Y-100477549D01*
X123018923Y-100470190D01*
X122996284Y-100460813D01*
X122972251Y-100456033D01*
X122947747Y-100456033D01*
X122923714Y-100460814D01*
X122901077Y-100470190D01*
X122887309Y-100477549D01*
X122880295Y-100479677D01*
X122866860Y-100481000D01*
X122553140Y-100481000D01*
X122539705Y-100479677D01*
X122532691Y-100477549D01*
X122518923Y-100470190D01*
X122496284Y-100460813D01*
X122472251Y-100456033D01*
X122447747Y-100456033D01*
X122423714Y-100460814D01*
X122401077Y-100470190D01*
X122387309Y-100477549D01*
X122380295Y-100479677D01*
X122366860Y-100481000D01*
X122053140Y-100481000D01*
X122039705Y-100479677D01*
X122032691Y-100477549D01*
X122018923Y-100470190D01*
X121996284Y-100460813D01*
X121972251Y-100456033D01*
X121947747Y-100456033D01*
X121923714Y-100460814D01*
X121901077Y-100470190D01*
X121887309Y-100477549D01*
X121880295Y-100479677D01*
X121866860Y-100481000D01*
X121553140Y-100481000D01*
X121539705Y-100479677D01*
X121532691Y-100477549D01*
X121518923Y-100470190D01*
X121496284Y-100460813D01*
X121472251Y-100456033D01*
X121447747Y-100456033D01*
X121423714Y-100460814D01*
X121401077Y-100470190D01*
X121387309Y-100477549D01*
X121380295Y-100479677D01*
X121366860Y-100481000D01*
X121053140Y-100481000D01*
X121039705Y-100479677D01*
X121032691Y-100477549D01*
X121018923Y-100470190D01*
X120996284Y-100460813D01*
X120972251Y-100456033D01*
X120947747Y-100456033D01*
X120923714Y-100460814D01*
X120901077Y-100470190D01*
X120887309Y-100477549D01*
X120880295Y-100479677D01*
X120866860Y-100481000D01*
X120553140Y-100481000D01*
X120539705Y-100479677D01*
X120532690Y-100477549D01*
X120526224Y-100474092D01*
X120520558Y-100469442D01*
X120515908Y-100463776D01*
X120512451Y-100457310D01*
X120510323Y-100450295D01*
X120509000Y-100436860D01*
X120509000Y-98873140D01*
X120510323Y-98859705D01*
X120512451Y-98852690D01*
X120515908Y-98846224D01*
X120520558Y-98840558D01*
X120526224Y-98835908D01*
X120532690Y-98832451D01*
X120539705Y-98830323D01*
X120553140Y-98829000D01*
X120866860Y-98829000D01*
X120880295Y-98830323D01*
G37*
G36*
X148703512Y-98671927D02*
G01*
X148852812Y-98701624D01*
X149016784Y-98769544D01*
X149164354Y-98868147D01*
X149289853Y-98993646D01*
X149388456Y-99141216D01*
X149456376Y-99305188D01*
X149491000Y-99479259D01*
X149491000Y-99656741D01*
X149456376Y-99830812D01*
X149388456Y-99994784D01*
X149289853Y-100142354D01*
X149164354Y-100267853D01*
X149016784Y-100366456D01*
X148852812Y-100434376D01*
X148705004Y-100463776D01*
X148678742Y-100469000D01*
X148501258Y-100469000D01*
X148474996Y-100463776D01*
X148327188Y-100434376D01*
X148163216Y-100366456D01*
X148015646Y-100267853D01*
X147890147Y-100142354D01*
X147791544Y-99994784D01*
X147723624Y-99830812D01*
X147689000Y-99656741D01*
X147689000Y-99479259D01*
X147723624Y-99305188D01*
X147791544Y-99141216D01*
X147890147Y-98993646D01*
X148015646Y-98868147D01*
X148163216Y-98769544D01*
X148327188Y-98701624D01*
X148476488Y-98671927D01*
X148501258Y-98667000D01*
X148678742Y-98667000D01*
X148703512Y-98671927D01*
G37*
G36*
X103819000Y-99974000D02*
G01*
X101717000Y-99974000D01*
X101717000Y-98372000D01*
X103819000Y-98372000D01*
X103819000Y-99974000D01*
G37*
G36*
X113171091Y-98538085D02*
G01*
X113205069Y-98548393D01*
X113236390Y-98565134D01*
X113263839Y-98587661D01*
X113286366Y-98615110D01*
X113303107Y-98646431D01*
X113313415Y-98680409D01*
X113317500Y-98721890D01*
X113317500Y-99398110D01*
X113313415Y-99439591D01*
X113303107Y-99473569D01*
X113286366Y-99504890D01*
X113263839Y-99532339D01*
X113236390Y-99554866D01*
X113205069Y-99571607D01*
X113171091Y-99581915D01*
X113129610Y-99586000D01*
X112528390Y-99586000D01*
X112486909Y-99581915D01*
X112452931Y-99571607D01*
X112421610Y-99554866D01*
X112394161Y-99532339D01*
X112371634Y-99504890D01*
X112354893Y-99473569D01*
X112344585Y-99439591D01*
X112340500Y-99398110D01*
X112340500Y-98721890D01*
X112344585Y-98680409D01*
X112354893Y-98646431D01*
X112371634Y-98615110D01*
X112394161Y-98587661D01*
X112421610Y-98565134D01*
X112452931Y-98548393D01*
X112486909Y-98538085D01*
X112528390Y-98534000D01*
X113129610Y-98534000D01*
X113171091Y-98538085D01*
G37*
G36*
X114746091Y-98538085D02*
G01*
X114780069Y-98548393D01*
X114811390Y-98565134D01*
X114838839Y-98587661D01*
X114861366Y-98615110D01*
X114878107Y-98646431D01*
X114888415Y-98680409D01*
X114892500Y-98721890D01*
X114892500Y-99398110D01*
X114888415Y-99439591D01*
X114878107Y-99473569D01*
X114861366Y-99504890D01*
X114838839Y-99532339D01*
X114811390Y-99554866D01*
X114780069Y-99571607D01*
X114746091Y-99581915D01*
X114704610Y-99586000D01*
X114103390Y-99586000D01*
X114061909Y-99581915D01*
X114027931Y-99571607D01*
X113996610Y-99554866D01*
X113969161Y-99532339D01*
X113946634Y-99504890D01*
X113929893Y-99473569D01*
X113919585Y-99439591D01*
X113915500Y-99398110D01*
X113915500Y-98721890D01*
X113919585Y-98680409D01*
X113929893Y-98646431D01*
X113946634Y-98615110D01*
X113969161Y-98587661D01*
X113996610Y-98565134D01*
X114027931Y-98548393D01*
X114061909Y-98538085D01*
X114103390Y-98534000D01*
X114704610Y-98534000D01*
X114746091Y-98538085D01*
G37*
G36*
X130930295Y-90030323D02*
G01*
X130937310Y-90032451D01*
X130943776Y-90035908D01*
X130949442Y-90040558D01*
X130954092Y-90046224D01*
X130957549Y-90052690D01*
X130959677Y-90059705D01*
X130961000Y-90073140D01*
X130961000Y-90386860D01*
X130959677Y-90400295D01*
X130957549Y-90407309D01*
X130950190Y-90421077D01*
X130940813Y-90443716D01*
X130936033Y-90467749D01*
X130936033Y-90492253D01*
X130940814Y-90516286D01*
X130950190Y-90538923D01*
X130957549Y-90552691D01*
X130959677Y-90559705D01*
X130961000Y-90573140D01*
X130961000Y-90886860D01*
X130959677Y-90900295D01*
X130957549Y-90907309D01*
X130950190Y-90921077D01*
X130940813Y-90943716D01*
X130936033Y-90967749D01*
X130936033Y-90992253D01*
X130940814Y-91016286D01*
X130950190Y-91038923D01*
X130957549Y-91052691D01*
X130959677Y-91059705D01*
X130961000Y-91073140D01*
X130961000Y-91386860D01*
X130959677Y-91400295D01*
X130957549Y-91407309D01*
X130950190Y-91421077D01*
X130940813Y-91443716D01*
X130936033Y-91467749D01*
X130936033Y-91492253D01*
X130940814Y-91516286D01*
X130950190Y-91538923D01*
X130957549Y-91552691D01*
X130959677Y-91559705D01*
X130961000Y-91573140D01*
X130961000Y-91886860D01*
X130959677Y-91900295D01*
X130957549Y-91907309D01*
X130950190Y-91921077D01*
X130940813Y-91943716D01*
X130936033Y-91967749D01*
X130936033Y-91992253D01*
X130940814Y-92016286D01*
X130950190Y-92038923D01*
X130957549Y-92052691D01*
X130959677Y-92059705D01*
X130961000Y-92073140D01*
X130961000Y-92386860D01*
X130959677Y-92400295D01*
X130957549Y-92407309D01*
X130950190Y-92421077D01*
X130940813Y-92443716D01*
X130936033Y-92467749D01*
X130936033Y-92492253D01*
X130940814Y-92516286D01*
X130950190Y-92538923D01*
X130957549Y-92552691D01*
X130959677Y-92559705D01*
X130961000Y-92573140D01*
X130961000Y-92886860D01*
X130959677Y-92900295D01*
X130957549Y-92907309D01*
X130950190Y-92921077D01*
X130940813Y-92943716D01*
X130936033Y-92967749D01*
X130936033Y-92992253D01*
X130940814Y-93016286D01*
X130950190Y-93038923D01*
X130957549Y-93052691D01*
X130959677Y-93059705D01*
X130961000Y-93073140D01*
X130961000Y-93386860D01*
X130959677Y-93400295D01*
X130957549Y-93407309D01*
X130950190Y-93421077D01*
X130940813Y-93443716D01*
X130936033Y-93467749D01*
X130936033Y-93492253D01*
X130940814Y-93516286D01*
X130950190Y-93538923D01*
X130957549Y-93552691D01*
X130959677Y-93559705D01*
X130961000Y-93573140D01*
X130961000Y-93886860D01*
X130959677Y-93900295D01*
X130957549Y-93907309D01*
X130950190Y-93921077D01*
X130940813Y-93943716D01*
X130936033Y-93967749D01*
X130936033Y-93992253D01*
X130940814Y-94016286D01*
X130950190Y-94038923D01*
X130957549Y-94052691D01*
X130959677Y-94059705D01*
X130961000Y-94073140D01*
X130961000Y-94386860D01*
X130959677Y-94400295D01*
X130957549Y-94407309D01*
X130950190Y-94421077D01*
X130940813Y-94443716D01*
X130936033Y-94467749D01*
X130936033Y-94492253D01*
X130940814Y-94516286D01*
X130950190Y-94538923D01*
X130957549Y-94552691D01*
X130959677Y-94559705D01*
X130961000Y-94573140D01*
X130961000Y-94886860D01*
X130959677Y-94900295D01*
X130957549Y-94907309D01*
X130950190Y-94921077D01*
X130940813Y-94943716D01*
X130936033Y-94967749D01*
X130936033Y-94992253D01*
X130940814Y-95016286D01*
X130950190Y-95038923D01*
X130957549Y-95052691D01*
X130959677Y-95059705D01*
X130961000Y-95073140D01*
X130961000Y-95386860D01*
X130959677Y-95400295D01*
X130957549Y-95407309D01*
X130950190Y-95421077D01*
X130940813Y-95443716D01*
X130936033Y-95467749D01*
X130936033Y-95492253D01*
X130940814Y-95516286D01*
X130950190Y-95538923D01*
X130957549Y-95552691D01*
X130959677Y-95559705D01*
X130961000Y-95573140D01*
X130961000Y-95886860D01*
X130959677Y-95900295D01*
X130957549Y-95907309D01*
X130950190Y-95921077D01*
X130940813Y-95943716D01*
X130936033Y-95967749D01*
X130936033Y-95992253D01*
X130940814Y-96016286D01*
X130950190Y-96038923D01*
X130957549Y-96052691D01*
X130959677Y-96059705D01*
X130961000Y-96073140D01*
X130961000Y-96386860D01*
X130959677Y-96400295D01*
X130957549Y-96407309D01*
X130950190Y-96421077D01*
X130940813Y-96443716D01*
X130936033Y-96467749D01*
X130936033Y-96492253D01*
X130940814Y-96516286D01*
X130950190Y-96538923D01*
X130957549Y-96552691D01*
X130959677Y-96559705D01*
X130961000Y-96573140D01*
X130961000Y-96886860D01*
X130959677Y-96900295D01*
X130957549Y-96907309D01*
X130950190Y-96921077D01*
X130940813Y-96943716D01*
X130936033Y-96967749D01*
X130936033Y-96992253D01*
X130940814Y-97016286D01*
X130950190Y-97038923D01*
X130957549Y-97052691D01*
X130959677Y-97059705D01*
X130961000Y-97073140D01*
X130961000Y-97386860D01*
X130959677Y-97400295D01*
X130957549Y-97407309D01*
X130950190Y-97421077D01*
X130940813Y-97443716D01*
X130936033Y-97467749D01*
X130936033Y-97492253D01*
X130940814Y-97516286D01*
X130950190Y-97538923D01*
X130957549Y-97552691D01*
X130959677Y-97559705D01*
X130961000Y-97573140D01*
X130961000Y-97886860D01*
X130959677Y-97900295D01*
X130957549Y-97907310D01*
X130954092Y-97913776D01*
X130949442Y-97919442D01*
X130943776Y-97924092D01*
X130937310Y-97927549D01*
X130930295Y-97929677D01*
X130916860Y-97931000D01*
X129353140Y-97931000D01*
X129339705Y-97929677D01*
X129332690Y-97927549D01*
X129326224Y-97924092D01*
X129320558Y-97919442D01*
X129315908Y-97913776D01*
X129312451Y-97907310D01*
X129310323Y-97900295D01*
X129309000Y-97886860D01*
X129309000Y-97573140D01*
X129310323Y-97559705D01*
X129312451Y-97552691D01*
X129319810Y-97538923D01*
X129329187Y-97516284D01*
X129333967Y-97492251D01*
X129333967Y-97467747D01*
X129329186Y-97443714D01*
X129319810Y-97421077D01*
X129312451Y-97407309D01*
X129310323Y-97400295D01*
X129309000Y-97386860D01*
X129309000Y-97073140D01*
X129310323Y-97059705D01*
X129312451Y-97052691D01*
X129319810Y-97038923D01*
X129329187Y-97016284D01*
X129333967Y-96992251D01*
X129333967Y-96967747D01*
X129329186Y-96943714D01*
X129319810Y-96921077D01*
X129312451Y-96907309D01*
X129310323Y-96900295D01*
X129309000Y-96886860D01*
X129309000Y-96573140D01*
X129310323Y-96559705D01*
X129312451Y-96552691D01*
X129319810Y-96538923D01*
X129329187Y-96516284D01*
X129333967Y-96492251D01*
X129333967Y-96467747D01*
X129329186Y-96443714D01*
X129319810Y-96421077D01*
X129312451Y-96407309D01*
X129310323Y-96400295D01*
X129309000Y-96386860D01*
X129309000Y-96073140D01*
X129310323Y-96059705D01*
X129312451Y-96052691D01*
X129319810Y-96038923D01*
X129329187Y-96016284D01*
X129333967Y-95992251D01*
X129333967Y-95967747D01*
X129329186Y-95943714D01*
X129319810Y-95921077D01*
X129312451Y-95907309D01*
X129310323Y-95900295D01*
X129309000Y-95886860D01*
X129309000Y-95573140D01*
X129310323Y-95559705D01*
X129312451Y-95552691D01*
X129319810Y-95538923D01*
X129329187Y-95516284D01*
X129333967Y-95492251D01*
X129333967Y-95467747D01*
X129329186Y-95443714D01*
X129319810Y-95421077D01*
X129312451Y-95407309D01*
X129310323Y-95400295D01*
X129309000Y-95386860D01*
X129309000Y-95073140D01*
X129310323Y-95059705D01*
X129312451Y-95052691D01*
X129319810Y-95038923D01*
X129329187Y-95016284D01*
X129333967Y-94992251D01*
X129333967Y-94967747D01*
X129329186Y-94943714D01*
X129319810Y-94921077D01*
X129312451Y-94907309D01*
X129310323Y-94900295D01*
X129309000Y-94886860D01*
X129309000Y-94573140D01*
X129310323Y-94559705D01*
X129312451Y-94552691D01*
X129319810Y-94538923D01*
X129329187Y-94516284D01*
X129333967Y-94492251D01*
X129333967Y-94467747D01*
X129329186Y-94443714D01*
X129319810Y-94421077D01*
X129312451Y-94407309D01*
X129310323Y-94400295D01*
X129309000Y-94386860D01*
X129309000Y-94073140D01*
X129310323Y-94059705D01*
X129312451Y-94052691D01*
X129319810Y-94038923D01*
X129329187Y-94016284D01*
X129333967Y-93992251D01*
X129333967Y-93967747D01*
X129329186Y-93943714D01*
X129319810Y-93921077D01*
X129312451Y-93907309D01*
X129310323Y-93900295D01*
X129309000Y-93886860D01*
X129309000Y-93573140D01*
X129310323Y-93559705D01*
X129312451Y-93552691D01*
X129319810Y-93538923D01*
X129329187Y-93516284D01*
X129333967Y-93492251D01*
X129333967Y-93467747D01*
X129329186Y-93443714D01*
X129319810Y-93421077D01*
X129312451Y-93407309D01*
X129310323Y-93400295D01*
X129309000Y-93386860D01*
X129309000Y-93073140D01*
X129310323Y-93059705D01*
X129312451Y-93052691D01*
X129319810Y-93038923D01*
X129329187Y-93016284D01*
X129333967Y-92992251D01*
X129333967Y-92967747D01*
X129329186Y-92943714D01*
X129319810Y-92921077D01*
X129312451Y-92907309D01*
X129310323Y-92900295D01*
X129309000Y-92886860D01*
X129309000Y-92573140D01*
X129310323Y-92559705D01*
X129312451Y-92552691D01*
X129319810Y-92538923D01*
X129329187Y-92516284D01*
X129333967Y-92492251D01*
X129333967Y-92467747D01*
X129329186Y-92443714D01*
X129319810Y-92421077D01*
X129312451Y-92407309D01*
X129310323Y-92400295D01*
X129309000Y-92386860D01*
X129309000Y-92073140D01*
X129310323Y-92059705D01*
X129312451Y-92052691D01*
X129319810Y-92038923D01*
X129329187Y-92016284D01*
X129333967Y-91992251D01*
X129333967Y-91967747D01*
X129329186Y-91943714D01*
X129319810Y-91921077D01*
X129312451Y-91907309D01*
X129310323Y-91900295D01*
X129309000Y-91886860D01*
X129309000Y-91573140D01*
X129310323Y-91559705D01*
X129312451Y-91552691D01*
X129319810Y-91538923D01*
X129329187Y-91516284D01*
X129333967Y-91492251D01*
X129333967Y-91467747D01*
X129329186Y-91443714D01*
X129319810Y-91421077D01*
X129312451Y-91407309D01*
X129310323Y-91400295D01*
X129309000Y-91386860D01*
X129309000Y-91073140D01*
X129310323Y-91059705D01*
X129312451Y-91052691D01*
X129319810Y-91038923D01*
X129329187Y-91016284D01*
X129333967Y-90992251D01*
X129333967Y-90967747D01*
X129329186Y-90943714D01*
X129319810Y-90921077D01*
X129312451Y-90907309D01*
X129310323Y-90900295D01*
X129309000Y-90886860D01*
X129309000Y-90573140D01*
X129310323Y-90559705D01*
X129312451Y-90552691D01*
X129319810Y-90538923D01*
X129329187Y-90516284D01*
X129333967Y-90492251D01*
X129333967Y-90467747D01*
X129329186Y-90443714D01*
X129319810Y-90421077D01*
X129312451Y-90407309D01*
X129310323Y-90400295D01*
X129309000Y-90386860D01*
X129309000Y-90073140D01*
X129310323Y-90059705D01*
X129312451Y-90052690D01*
X129315908Y-90046224D01*
X129320558Y-90040558D01*
X129326224Y-90035908D01*
X129332690Y-90032451D01*
X129339705Y-90030323D01*
X129353140Y-90029000D01*
X130916860Y-90029000D01*
X130930295Y-90030323D01*
G37*
G36*
X119580295Y-90030323D02*
G01*
X119587310Y-90032451D01*
X119593776Y-90035908D01*
X119599442Y-90040558D01*
X119604092Y-90046224D01*
X119607549Y-90052690D01*
X119609677Y-90059705D01*
X119611000Y-90073140D01*
X119611000Y-90386860D01*
X119609677Y-90400295D01*
X119607549Y-90407309D01*
X119600190Y-90421077D01*
X119590813Y-90443716D01*
X119586033Y-90467749D01*
X119586033Y-90492253D01*
X119590814Y-90516286D01*
X119600190Y-90538923D01*
X119607549Y-90552691D01*
X119609677Y-90559705D01*
X119611000Y-90573140D01*
X119611000Y-90886860D01*
X119609677Y-90900295D01*
X119607549Y-90907309D01*
X119600190Y-90921077D01*
X119590813Y-90943716D01*
X119586033Y-90967749D01*
X119586033Y-90992253D01*
X119590814Y-91016286D01*
X119600190Y-91038923D01*
X119607549Y-91052691D01*
X119609677Y-91059705D01*
X119611000Y-91073140D01*
X119611000Y-91386860D01*
X119609677Y-91400295D01*
X119607549Y-91407309D01*
X119600190Y-91421077D01*
X119590813Y-91443716D01*
X119586033Y-91467749D01*
X119586033Y-91492253D01*
X119590814Y-91516286D01*
X119600190Y-91538923D01*
X119607549Y-91552691D01*
X119609677Y-91559705D01*
X119611000Y-91573140D01*
X119611000Y-91886860D01*
X119609677Y-91900295D01*
X119607549Y-91907309D01*
X119600190Y-91921077D01*
X119590813Y-91943716D01*
X119586033Y-91967749D01*
X119586033Y-91992253D01*
X119590814Y-92016286D01*
X119600190Y-92038923D01*
X119607549Y-92052691D01*
X119609677Y-92059705D01*
X119611000Y-92073140D01*
X119611000Y-92386860D01*
X119609677Y-92400295D01*
X119607549Y-92407309D01*
X119600190Y-92421077D01*
X119590813Y-92443716D01*
X119586033Y-92467749D01*
X119586033Y-92492253D01*
X119590814Y-92516286D01*
X119600190Y-92538923D01*
X119607549Y-92552691D01*
X119609677Y-92559705D01*
X119611000Y-92573140D01*
X119611000Y-92886860D01*
X119609677Y-92900295D01*
X119607549Y-92907309D01*
X119600190Y-92921077D01*
X119590813Y-92943716D01*
X119586033Y-92967749D01*
X119586033Y-92992253D01*
X119590814Y-93016286D01*
X119600190Y-93038923D01*
X119607549Y-93052691D01*
X119609677Y-93059705D01*
X119611000Y-93073140D01*
X119611000Y-93386860D01*
X119609677Y-93400295D01*
X119607549Y-93407309D01*
X119600190Y-93421077D01*
X119590813Y-93443716D01*
X119586033Y-93467749D01*
X119586033Y-93492253D01*
X119590814Y-93516286D01*
X119600190Y-93538923D01*
X119607549Y-93552691D01*
X119609677Y-93559705D01*
X119611000Y-93573140D01*
X119611000Y-93886860D01*
X119609677Y-93900295D01*
X119607549Y-93907309D01*
X119600190Y-93921077D01*
X119590813Y-93943716D01*
X119586033Y-93967749D01*
X119586033Y-93992253D01*
X119590814Y-94016286D01*
X119600190Y-94038923D01*
X119607549Y-94052691D01*
X119609677Y-94059705D01*
X119611000Y-94073140D01*
X119611000Y-94386860D01*
X119609677Y-94400295D01*
X119607549Y-94407309D01*
X119600190Y-94421077D01*
X119590813Y-94443716D01*
X119586033Y-94467749D01*
X119586033Y-94492253D01*
X119590814Y-94516286D01*
X119600190Y-94538923D01*
X119607549Y-94552691D01*
X119609677Y-94559705D01*
X119611000Y-94573140D01*
X119611000Y-94886860D01*
X119609677Y-94900295D01*
X119607549Y-94907309D01*
X119600190Y-94921077D01*
X119590813Y-94943716D01*
X119586033Y-94967749D01*
X119586033Y-94992253D01*
X119590814Y-95016286D01*
X119600190Y-95038923D01*
X119607549Y-95052691D01*
X119609677Y-95059705D01*
X119611000Y-95073140D01*
X119611000Y-95386860D01*
X119609677Y-95400295D01*
X119607549Y-95407309D01*
X119600190Y-95421077D01*
X119590813Y-95443716D01*
X119586033Y-95467749D01*
X119586033Y-95492253D01*
X119590814Y-95516286D01*
X119600190Y-95538923D01*
X119607549Y-95552691D01*
X119609677Y-95559705D01*
X119611000Y-95573140D01*
X119611000Y-95886860D01*
X119609677Y-95900295D01*
X119607549Y-95907309D01*
X119600190Y-95921077D01*
X119590813Y-95943716D01*
X119586033Y-95967749D01*
X119586033Y-95992253D01*
X119590814Y-96016286D01*
X119600190Y-96038923D01*
X119607549Y-96052691D01*
X119609677Y-96059705D01*
X119611000Y-96073140D01*
X119611000Y-96386860D01*
X119609677Y-96400295D01*
X119607549Y-96407309D01*
X119600190Y-96421077D01*
X119590813Y-96443716D01*
X119586033Y-96467749D01*
X119586033Y-96492253D01*
X119590814Y-96516286D01*
X119600190Y-96538923D01*
X119607549Y-96552691D01*
X119609677Y-96559705D01*
X119611000Y-96573140D01*
X119611000Y-96886860D01*
X119609677Y-96900295D01*
X119607549Y-96907309D01*
X119600190Y-96921077D01*
X119590813Y-96943716D01*
X119586033Y-96967749D01*
X119586033Y-96992253D01*
X119590814Y-97016286D01*
X119600190Y-97038923D01*
X119607549Y-97052691D01*
X119609677Y-97059705D01*
X119611000Y-97073140D01*
X119611000Y-97386860D01*
X119609677Y-97400295D01*
X119607549Y-97407309D01*
X119600190Y-97421077D01*
X119590813Y-97443716D01*
X119586033Y-97467749D01*
X119586033Y-97492253D01*
X119590814Y-97516286D01*
X119600190Y-97538923D01*
X119607549Y-97552691D01*
X119609677Y-97559705D01*
X119611000Y-97573140D01*
X119611000Y-97886860D01*
X119609677Y-97900295D01*
X119607549Y-97907310D01*
X119604092Y-97913776D01*
X119599442Y-97919442D01*
X119593776Y-97924092D01*
X119587310Y-97927549D01*
X119580295Y-97929677D01*
X119566860Y-97931000D01*
X118003140Y-97931000D01*
X117989705Y-97929677D01*
X117982690Y-97927549D01*
X117976224Y-97924092D01*
X117970558Y-97919442D01*
X117965908Y-97913776D01*
X117962451Y-97907310D01*
X117960323Y-97900295D01*
X117959000Y-97886860D01*
X117959000Y-97573140D01*
X117960323Y-97559705D01*
X117962451Y-97552691D01*
X117969810Y-97538923D01*
X117979187Y-97516284D01*
X117983967Y-97492251D01*
X117983967Y-97467747D01*
X117979186Y-97443714D01*
X117969810Y-97421077D01*
X117962451Y-97407309D01*
X117960323Y-97400295D01*
X117959000Y-97386860D01*
X117959000Y-97073140D01*
X117960323Y-97059705D01*
X117962451Y-97052691D01*
X117969810Y-97038923D01*
X117979187Y-97016284D01*
X117983967Y-96992251D01*
X117983967Y-96967747D01*
X117979186Y-96943714D01*
X117969810Y-96921077D01*
X117962451Y-96907309D01*
X117960323Y-96900295D01*
X117959000Y-96886860D01*
X117959000Y-96573140D01*
X117960323Y-96559705D01*
X117962451Y-96552691D01*
X117969810Y-96538923D01*
X117979187Y-96516284D01*
X117983967Y-96492251D01*
X117983967Y-96467747D01*
X117979186Y-96443714D01*
X117969810Y-96421077D01*
X117962451Y-96407309D01*
X117960323Y-96400295D01*
X117959000Y-96386860D01*
X117959000Y-96073140D01*
X117960323Y-96059705D01*
X117962451Y-96052691D01*
X117969810Y-96038923D01*
X117979187Y-96016284D01*
X117983967Y-95992251D01*
X117983967Y-95967747D01*
X117979186Y-95943714D01*
X117969810Y-95921077D01*
X117962451Y-95907309D01*
X117960323Y-95900295D01*
X117959000Y-95886860D01*
X117959000Y-95573140D01*
X117960323Y-95559705D01*
X117962451Y-95552691D01*
X117969810Y-95538923D01*
X117979187Y-95516284D01*
X117983967Y-95492251D01*
X117983967Y-95467747D01*
X117979186Y-95443714D01*
X117969810Y-95421077D01*
X117962451Y-95407309D01*
X117960323Y-95400295D01*
X117959000Y-95386860D01*
X117959000Y-95073140D01*
X117960323Y-95059705D01*
X117962451Y-95052691D01*
X117969810Y-95038923D01*
X117979187Y-95016284D01*
X117983967Y-94992251D01*
X117983967Y-94967747D01*
X117979186Y-94943714D01*
X117969810Y-94921077D01*
X117962451Y-94907309D01*
X117960323Y-94900295D01*
X117959000Y-94886860D01*
X117959000Y-94573140D01*
X117960323Y-94559705D01*
X117962451Y-94552691D01*
X117969810Y-94538923D01*
X117979187Y-94516284D01*
X117983967Y-94492251D01*
X117983967Y-94467747D01*
X117979186Y-94443714D01*
X117969810Y-94421077D01*
X117962451Y-94407309D01*
X117960323Y-94400295D01*
X117959000Y-94386860D01*
X117959000Y-94073140D01*
X117960323Y-94059705D01*
X117962451Y-94052691D01*
X117969810Y-94038923D01*
X117979187Y-94016284D01*
X117983967Y-93992251D01*
X117983967Y-93967747D01*
X117979186Y-93943714D01*
X117969810Y-93921077D01*
X117962451Y-93907309D01*
X117960323Y-93900295D01*
X117959000Y-93886860D01*
X117959000Y-93573140D01*
X117960323Y-93559705D01*
X117962451Y-93552691D01*
X117969810Y-93538923D01*
X117979187Y-93516284D01*
X117983967Y-93492251D01*
X117983967Y-93467747D01*
X117979186Y-93443714D01*
X117969810Y-93421077D01*
X117962451Y-93407309D01*
X117960323Y-93400295D01*
X117959000Y-93386860D01*
X117959000Y-93073140D01*
X117960323Y-93059705D01*
X117962451Y-93052691D01*
X117969810Y-93038923D01*
X117979187Y-93016284D01*
X117983967Y-92992251D01*
X117983967Y-92967747D01*
X117979186Y-92943714D01*
X117969810Y-92921077D01*
X117962451Y-92907309D01*
X117960323Y-92900295D01*
X117959000Y-92886860D01*
X117959000Y-92573140D01*
X117960323Y-92559705D01*
X117962451Y-92552691D01*
X117969810Y-92538923D01*
X117979187Y-92516284D01*
X117983967Y-92492251D01*
X117983967Y-92467747D01*
X117979186Y-92443714D01*
X117969810Y-92421077D01*
X117962451Y-92407309D01*
X117960323Y-92400295D01*
X117959000Y-92386860D01*
X117959000Y-92073140D01*
X117960323Y-92059705D01*
X117962451Y-92052691D01*
X117969810Y-92038923D01*
X117979187Y-92016284D01*
X117983967Y-91992251D01*
X117983967Y-91967747D01*
X117979186Y-91943714D01*
X117969810Y-91921077D01*
X117962451Y-91907309D01*
X117960323Y-91900295D01*
X117959000Y-91886860D01*
X117959000Y-91573140D01*
X117960323Y-91559705D01*
X117962451Y-91552691D01*
X117969810Y-91538923D01*
X117979187Y-91516284D01*
X117983967Y-91492251D01*
X117983967Y-91467747D01*
X117979186Y-91443714D01*
X117969810Y-91421077D01*
X117962451Y-91407309D01*
X117960323Y-91400295D01*
X117959000Y-91386860D01*
X117959000Y-91073140D01*
X117960323Y-91059705D01*
X117962451Y-91052691D01*
X117969810Y-91038923D01*
X117979187Y-91016284D01*
X117983967Y-90992251D01*
X117983967Y-90967747D01*
X117979186Y-90943714D01*
X117969810Y-90921077D01*
X117962451Y-90907309D01*
X117960323Y-90900295D01*
X117959000Y-90886860D01*
X117959000Y-90573140D01*
X117960323Y-90559705D01*
X117962451Y-90552691D01*
X117969810Y-90538923D01*
X117979187Y-90516284D01*
X117983967Y-90492251D01*
X117983967Y-90467747D01*
X117979186Y-90443714D01*
X117969810Y-90421077D01*
X117962451Y-90407309D01*
X117960323Y-90400295D01*
X117959000Y-90386860D01*
X117959000Y-90073140D01*
X117960323Y-90059705D01*
X117962451Y-90052690D01*
X117965908Y-90046224D01*
X117970558Y-90040558D01*
X117976224Y-90035908D01*
X117982690Y-90032451D01*
X117989705Y-90030323D01*
X118003140Y-90029000D01*
X119566860Y-90029000D01*
X119580295Y-90030323D01*
G37*
G36*
X148690812Y-96129401D02*
G01*
X148852812Y-96161624D01*
X149016784Y-96229544D01*
X149164354Y-96328147D01*
X149289853Y-96453646D01*
X149388456Y-96601216D01*
X149456376Y-96765188D01*
X149477017Y-96868960D01*
X149491000Y-96939258D01*
X149491000Y-97116742D01*
X149488462Y-97129500D01*
X149456376Y-97290812D01*
X149388456Y-97454784D01*
X149289853Y-97602354D01*
X149164354Y-97727853D01*
X149016784Y-97826456D01*
X148852812Y-97894376D01*
X148707146Y-97923350D01*
X148678742Y-97929000D01*
X148501258Y-97929000D01*
X148472854Y-97923350D01*
X148327188Y-97894376D01*
X148163216Y-97826456D01*
X148015646Y-97727853D01*
X147890147Y-97602354D01*
X147791544Y-97454784D01*
X147723624Y-97290812D01*
X147691538Y-97129500D01*
X147689000Y-97116742D01*
X147689000Y-96939258D01*
X147702983Y-96868960D01*
X147723624Y-96765188D01*
X147791544Y-96601216D01*
X147890147Y-96453646D01*
X148015646Y-96328147D01*
X148163216Y-96229544D01*
X148327188Y-96161624D01*
X148489188Y-96129401D01*
X148501258Y-96127000D01*
X148678742Y-96127000D01*
X148690812Y-96129401D01*
G37*
G36*
X143579591Y-96290585D02*
G01*
X143613569Y-96300893D01*
X143644890Y-96317634D01*
X143672339Y-96340161D01*
X143694866Y-96367610D01*
X143711607Y-96398931D01*
X143721915Y-96432909D01*
X143726000Y-96474390D01*
X143726000Y-97075610D01*
X143721915Y-97117091D01*
X143711607Y-97151069D01*
X143694866Y-97182390D01*
X143672339Y-97209839D01*
X143644890Y-97232366D01*
X143613569Y-97249107D01*
X143579591Y-97259415D01*
X143538110Y-97263500D01*
X142861890Y-97263500D01*
X142820409Y-97259415D01*
X142786431Y-97249107D01*
X142755110Y-97232366D01*
X142727661Y-97209839D01*
X142705134Y-97182390D01*
X142688393Y-97151069D01*
X142678085Y-97117091D01*
X142674000Y-97075610D01*
X142674000Y-96474390D01*
X142678085Y-96432909D01*
X142688393Y-96398931D01*
X142705134Y-96367610D01*
X142727661Y-96340161D01*
X142755110Y-96317634D01*
X142786431Y-96300893D01*
X142820409Y-96290585D01*
X142861890Y-96286500D01*
X143538110Y-96286500D01*
X143579591Y-96290585D01*
G37*
G36*
X102842091Y-95278085D02*
G01*
X102876069Y-95288393D01*
X102907390Y-95305134D01*
X102934839Y-95327661D01*
X102957366Y-95355110D01*
X102974107Y-95386431D01*
X102984415Y-95420409D01*
X102988500Y-95461890D01*
X102988500Y-96138110D01*
X102984415Y-96179591D01*
X102974107Y-96213569D01*
X102957366Y-96244890D01*
X102934839Y-96272339D01*
X102907390Y-96294866D01*
X102876069Y-96311607D01*
X102842091Y-96321915D01*
X102800610Y-96326000D01*
X102199390Y-96326000D01*
X102157909Y-96321915D01*
X102123931Y-96311607D01*
X102092610Y-96294866D01*
X102065161Y-96272339D01*
X102042634Y-96244890D01*
X102025893Y-96213569D01*
X102015585Y-96179591D01*
X102011500Y-96138110D01*
X102011500Y-95461890D01*
X102015585Y-95420409D01*
X102025893Y-95386431D01*
X102042634Y-95355110D01*
X102065161Y-95327661D01*
X102092610Y-95305134D01*
X102123931Y-95288393D01*
X102157909Y-95278085D01*
X102199390Y-95274000D01*
X102800610Y-95274000D01*
X102842091Y-95278085D01*
G37*
G36*
X104417091Y-95278085D02*
G01*
X104451069Y-95288393D01*
X104482390Y-95305134D01*
X104509839Y-95327661D01*
X104532366Y-95355110D01*
X104549107Y-95386431D01*
X104559415Y-95420409D01*
X104563500Y-95461890D01*
X104563500Y-96138110D01*
X104559415Y-96179591D01*
X104549107Y-96213569D01*
X104532366Y-96244890D01*
X104509839Y-96272339D01*
X104482390Y-96294866D01*
X104451069Y-96311607D01*
X104417091Y-96321915D01*
X104375610Y-96326000D01*
X103774390Y-96326000D01*
X103732909Y-96321915D01*
X103698931Y-96311607D01*
X103667610Y-96294866D01*
X103640161Y-96272339D01*
X103617634Y-96244890D01*
X103600893Y-96213569D01*
X103590585Y-96179591D01*
X103586500Y-96138110D01*
X103586500Y-95461890D01*
X103590585Y-95420409D01*
X103600893Y-95386431D01*
X103617634Y-95355110D01*
X103640161Y-95327661D01*
X103667610Y-95305134D01*
X103698931Y-95288393D01*
X103732909Y-95278085D01*
X103774390Y-95274000D01*
X104375610Y-95274000D01*
X104417091Y-95278085D01*
G37*
G36*
X107842091Y-95278085D02*
G01*
X107876069Y-95288393D01*
X107907390Y-95305134D01*
X107934839Y-95327661D01*
X107957366Y-95355110D01*
X107974107Y-95386431D01*
X107984415Y-95420409D01*
X107988500Y-95461890D01*
X107988500Y-96138110D01*
X107984415Y-96179591D01*
X107974107Y-96213569D01*
X107957366Y-96244890D01*
X107934839Y-96272339D01*
X107907390Y-96294866D01*
X107876069Y-96311607D01*
X107842091Y-96321915D01*
X107800610Y-96326000D01*
X107199390Y-96326000D01*
X107157909Y-96321915D01*
X107123931Y-96311607D01*
X107092610Y-96294866D01*
X107065161Y-96272339D01*
X107042634Y-96244890D01*
X107025893Y-96213569D01*
X107015585Y-96179591D01*
X107011500Y-96138110D01*
X107011500Y-95461890D01*
X107015585Y-95420409D01*
X107025893Y-95386431D01*
X107042634Y-95355110D01*
X107065161Y-95327661D01*
X107092610Y-95305134D01*
X107123931Y-95288393D01*
X107157909Y-95278085D01*
X107199390Y-95274000D01*
X107800610Y-95274000D01*
X107842091Y-95278085D01*
G37*
G36*
X106267091Y-95278085D02*
G01*
X106301069Y-95288393D01*
X106332390Y-95305134D01*
X106359839Y-95327661D01*
X106382366Y-95355110D01*
X106399107Y-95386431D01*
X106409415Y-95420409D01*
X106413500Y-95461890D01*
X106413500Y-96138110D01*
X106409415Y-96179591D01*
X106399107Y-96213569D01*
X106382366Y-96244890D01*
X106359839Y-96272339D01*
X106332390Y-96294866D01*
X106301069Y-96311607D01*
X106267091Y-96321915D01*
X106225610Y-96326000D01*
X105624390Y-96326000D01*
X105582909Y-96321915D01*
X105548931Y-96311607D01*
X105517610Y-96294866D01*
X105490161Y-96272339D01*
X105467634Y-96244890D01*
X105450893Y-96213569D01*
X105440585Y-96179591D01*
X105436500Y-96138110D01*
X105436500Y-95461890D01*
X105440585Y-95420409D01*
X105450893Y-95386431D01*
X105467634Y-95355110D01*
X105490161Y-95327661D01*
X105517610Y-95305134D01*
X105548931Y-95288393D01*
X105582909Y-95278085D01*
X105624390Y-95274000D01*
X106225610Y-95274000D01*
X106267091Y-95278085D01*
G37*
G36*
X115805000Y-96251000D02*
G01*
X113303000Y-96251000D01*
X113303000Y-94249000D01*
X115805000Y-94249000D01*
X115805000Y-96251000D01*
G37*
G36*
X143579591Y-94715585D02*
G01*
X143613569Y-94725893D01*
X143644890Y-94742634D01*
X143672339Y-94765161D01*
X143694866Y-94792610D01*
X143711607Y-94823931D01*
X143721915Y-94857909D01*
X143726000Y-94899390D01*
X143726000Y-95500610D01*
X143721915Y-95542091D01*
X143711607Y-95576069D01*
X143694866Y-95607390D01*
X143672339Y-95634839D01*
X143644890Y-95657366D01*
X143613569Y-95674107D01*
X143579591Y-95684415D01*
X143538110Y-95688500D01*
X142861890Y-95688500D01*
X142820409Y-95684415D01*
X142786431Y-95674107D01*
X142755110Y-95657366D01*
X142727661Y-95634839D01*
X142705134Y-95607390D01*
X142688393Y-95576069D01*
X142678085Y-95542091D01*
X142674000Y-95500610D01*
X142674000Y-94899390D01*
X142678085Y-94857909D01*
X142688393Y-94823931D01*
X142705134Y-94792610D01*
X142727661Y-94765161D01*
X142755110Y-94742634D01*
X142786431Y-94725893D01*
X142820409Y-94715585D01*
X142861890Y-94711500D01*
X143538110Y-94711500D01*
X143579591Y-94715585D01*
G37*
G36*
X148699052Y-93591040D02*
G01*
X148852812Y-93621624D01*
X149016784Y-93689544D01*
X149164354Y-93788147D01*
X149289853Y-93913646D01*
X149388456Y-94061216D01*
X149456376Y-94225188D01*
X149491000Y-94399259D01*
X149491000Y-94576741D01*
X149456376Y-94750812D01*
X149388456Y-94914784D01*
X149289853Y-95062354D01*
X149164354Y-95187853D01*
X149016784Y-95286456D01*
X148852812Y-95354376D01*
X148711158Y-95382552D01*
X148678742Y-95389000D01*
X148501258Y-95389000D01*
X148468842Y-95382552D01*
X148327188Y-95354376D01*
X148163216Y-95286456D01*
X148015646Y-95187853D01*
X147890147Y-95062354D01*
X147791544Y-94914784D01*
X147723624Y-94750812D01*
X147689000Y-94576741D01*
X147689000Y-94399259D01*
X147723624Y-94225188D01*
X147791544Y-94061216D01*
X147890147Y-93913646D01*
X148015646Y-93788147D01*
X148163216Y-93689544D01*
X148327188Y-93621624D01*
X148480948Y-93591040D01*
X148501258Y-93587000D01*
X148678742Y-93587000D01*
X148699052Y-93591040D01*
G37*
G36*
X136003591Y-92442085D02*
G01*
X136037569Y-92452393D01*
X136068890Y-92469134D01*
X136096339Y-92491661D01*
X136118866Y-92519110D01*
X136135607Y-92550431D01*
X136145915Y-92584409D01*
X136150000Y-92625890D01*
X136150000Y-93302110D01*
X136145915Y-93343591D01*
X136135607Y-93377569D01*
X136118866Y-93408890D01*
X136096339Y-93436339D01*
X136068890Y-93458866D01*
X136037569Y-93475607D01*
X136003591Y-93485915D01*
X135962110Y-93490000D01*
X135360890Y-93490000D01*
X135319409Y-93485915D01*
X135285431Y-93475607D01*
X135254110Y-93458866D01*
X135226661Y-93436339D01*
X135204134Y-93408890D01*
X135187393Y-93377569D01*
X135177085Y-93343591D01*
X135173000Y-93302110D01*
X135173000Y-92625890D01*
X135177085Y-92584409D01*
X135187393Y-92550431D01*
X135204134Y-92519110D01*
X135226661Y-92491661D01*
X135254110Y-92469134D01*
X135285431Y-92452393D01*
X135319409Y-92442085D01*
X135360890Y-92438000D01*
X135962110Y-92438000D01*
X136003591Y-92442085D01*
G37*
G36*
X134428591Y-92442085D02*
G01*
X134462569Y-92452393D01*
X134493890Y-92469134D01*
X134521339Y-92491661D01*
X134543866Y-92519110D01*
X134560607Y-92550431D01*
X134570915Y-92584409D01*
X134575000Y-92625890D01*
X134575000Y-93302110D01*
X134570915Y-93343591D01*
X134560607Y-93377569D01*
X134543866Y-93408890D01*
X134521339Y-93436339D01*
X134493890Y-93458866D01*
X134462569Y-93475607D01*
X134428591Y-93485915D01*
X134387110Y-93490000D01*
X133785890Y-93490000D01*
X133744409Y-93485915D01*
X133710431Y-93475607D01*
X133679110Y-93458866D01*
X133651661Y-93436339D01*
X133629134Y-93408890D01*
X133612393Y-93377569D01*
X133602085Y-93343591D01*
X133598000Y-93302110D01*
X133598000Y-92625890D01*
X133602085Y-92584409D01*
X133612393Y-92550431D01*
X133629134Y-92519110D01*
X133651661Y-92491661D01*
X133679110Y-92469134D01*
X133710431Y-92452393D01*
X133744409Y-92442085D01*
X133785890Y-92438000D01*
X134387110Y-92438000D01*
X134428591Y-92442085D01*
G37*
G36*
X109098928Y-91367764D02*
G01*
X109120009Y-91374160D01*
X109139445Y-91384548D01*
X109156476Y-91398524D01*
X109170452Y-91415555D01*
X109180840Y-91434991D01*
X109187236Y-91456072D01*
X109190000Y-91484140D01*
X109190000Y-93297860D01*
X109187236Y-93325928D01*
X109180840Y-93347009D01*
X109170452Y-93366445D01*
X109156476Y-93383476D01*
X109139445Y-93397452D01*
X109120009Y-93407840D01*
X109098928Y-93414236D01*
X109070860Y-93417000D01*
X108607140Y-93417000D01*
X108579072Y-93414236D01*
X108557991Y-93407840D01*
X108538555Y-93397452D01*
X108521524Y-93383476D01*
X108507548Y-93366445D01*
X108497160Y-93347009D01*
X108490764Y-93325928D01*
X108488000Y-93297860D01*
X108488000Y-91484140D01*
X108490764Y-91456072D01*
X108497160Y-91434991D01*
X108507548Y-91415555D01*
X108521524Y-91398524D01*
X108538555Y-91384548D01*
X108557991Y-91374160D01*
X108579072Y-91367764D01*
X108607140Y-91365000D01*
X109070860Y-91365000D01*
X109098928Y-91367764D01*
G37*
G36*
X105288928Y-91367764D02*
G01*
X105310009Y-91374160D01*
X105329445Y-91384548D01*
X105346476Y-91398524D01*
X105360452Y-91415555D01*
X105370840Y-91434991D01*
X105377236Y-91456072D01*
X105380000Y-91484140D01*
X105380000Y-93297860D01*
X105377236Y-93325928D01*
X105370840Y-93347009D01*
X105360452Y-93366445D01*
X105346476Y-93383476D01*
X105329445Y-93397452D01*
X105310009Y-93407840D01*
X105288928Y-93414236D01*
X105260860Y-93417000D01*
X104797140Y-93417000D01*
X104769072Y-93414236D01*
X104747991Y-93407840D01*
X104728555Y-93397452D01*
X104711524Y-93383476D01*
X104697548Y-93366445D01*
X104687160Y-93347009D01*
X104680764Y-93325928D01*
X104678000Y-93297860D01*
X104678000Y-91484140D01*
X104680764Y-91456072D01*
X104687160Y-91434991D01*
X104697548Y-91415555D01*
X104711524Y-91398524D01*
X104728555Y-91384548D01*
X104747991Y-91374160D01*
X104769072Y-91367764D01*
X104797140Y-91365000D01*
X105260860Y-91365000D01*
X105288928Y-91367764D01*
G37*
G36*
X106558928Y-91367764D02*
G01*
X106580009Y-91374160D01*
X106599445Y-91384548D01*
X106616476Y-91398524D01*
X106630452Y-91415555D01*
X106640840Y-91434991D01*
X106647236Y-91456072D01*
X106650000Y-91484140D01*
X106650000Y-93297860D01*
X106647236Y-93325928D01*
X106640840Y-93347009D01*
X106630452Y-93366445D01*
X106616476Y-93383476D01*
X106599445Y-93397452D01*
X106580009Y-93407840D01*
X106558928Y-93414236D01*
X106530860Y-93417000D01*
X106067140Y-93417000D01*
X106039072Y-93414236D01*
X106017991Y-93407840D01*
X105998555Y-93397452D01*
X105981524Y-93383476D01*
X105967548Y-93366445D01*
X105957160Y-93347009D01*
X105950764Y-93325928D01*
X105948000Y-93297860D01*
X105948000Y-91484140D01*
X105950764Y-91456072D01*
X105957160Y-91434991D01*
X105967548Y-91415555D01*
X105981524Y-91398524D01*
X105998555Y-91384548D01*
X106017991Y-91374160D01*
X106039072Y-91367764D01*
X106067140Y-91365000D01*
X106530860Y-91365000D01*
X106558928Y-91367764D01*
G37*
G36*
X107828928Y-91367764D02*
G01*
X107850009Y-91374160D01*
X107869445Y-91384548D01*
X107886476Y-91398524D01*
X107900452Y-91415555D01*
X107910840Y-91434991D01*
X107917236Y-91456072D01*
X107920000Y-91484140D01*
X107920000Y-93297860D01*
X107917236Y-93325928D01*
X107910840Y-93347009D01*
X107900452Y-93366445D01*
X107886476Y-93383476D01*
X107869445Y-93397452D01*
X107850009Y-93407840D01*
X107828928Y-93414236D01*
X107800860Y-93417000D01*
X107337140Y-93417000D01*
X107309072Y-93414236D01*
X107287991Y-93407840D01*
X107268555Y-93397452D01*
X107251524Y-93383476D01*
X107237548Y-93366445D01*
X107227160Y-93347009D01*
X107220764Y-93325928D01*
X107218000Y-93297860D01*
X107218000Y-91484140D01*
X107220764Y-91456072D01*
X107227160Y-91434991D01*
X107237548Y-91415555D01*
X107251524Y-91398524D01*
X107268555Y-91384548D01*
X107287991Y-91374160D01*
X107309072Y-91367764D01*
X107337140Y-91365000D01*
X107800860Y-91365000D01*
X107828928Y-91367764D01*
G37*
G36*
X138989282Y-92584925D02*
G01*
X138280761Y-93293446D01*
X137006554Y-92019239D01*
X137715075Y-91310718D01*
X138989282Y-92584925D01*
G37*
G36*
X148703512Y-91051927D02*
G01*
X148852812Y-91081624D01*
X149016784Y-91149544D01*
X149164354Y-91248147D01*
X149289853Y-91373646D01*
X149388456Y-91521216D01*
X149456376Y-91685188D01*
X149491000Y-91859259D01*
X149491000Y-92036741D01*
X149456376Y-92210812D01*
X149388456Y-92374784D01*
X149289853Y-92522354D01*
X149164354Y-92647853D01*
X149016784Y-92746456D01*
X148852812Y-92814376D01*
X148703512Y-92844073D01*
X148678742Y-92849000D01*
X148501258Y-92849000D01*
X148476488Y-92844073D01*
X148327188Y-92814376D01*
X148163216Y-92746456D01*
X148015646Y-92647853D01*
X147890147Y-92522354D01*
X147791544Y-92374784D01*
X147723624Y-92210812D01*
X147689000Y-92036741D01*
X147689000Y-91859259D01*
X147723624Y-91685188D01*
X147791544Y-91521216D01*
X147890147Y-91373646D01*
X148015646Y-91248147D01*
X148163216Y-91149544D01*
X148327188Y-91081624D01*
X148476488Y-91051927D01*
X148501258Y-91047000D01*
X148678742Y-91047000D01*
X148703512Y-91051927D01*
G37*
G36*
X115805000Y-92151000D02*
G01*
X113303000Y-92151000D01*
X113303000Y-90149000D01*
X115805000Y-90149000D01*
X115805000Y-92151000D01*
G37*
G36*
X100060091Y-90537085D02*
G01*
X100094069Y-90547393D01*
X100125390Y-90564134D01*
X100152839Y-90586661D01*
X100175366Y-90614110D01*
X100192107Y-90645431D01*
X100202415Y-90679409D01*
X100206500Y-90720890D01*
X100206500Y-91397110D01*
X100202415Y-91438591D01*
X100192107Y-91472569D01*
X100175366Y-91503890D01*
X100152839Y-91531339D01*
X100125390Y-91553866D01*
X100094069Y-91570607D01*
X100060091Y-91580915D01*
X100018610Y-91585000D01*
X99417390Y-91585000D01*
X99375909Y-91580915D01*
X99341931Y-91570607D01*
X99310610Y-91553866D01*
X99283161Y-91531339D01*
X99260634Y-91503890D01*
X99243893Y-91472569D01*
X99233585Y-91438591D01*
X99229500Y-91397110D01*
X99229500Y-90720890D01*
X99233585Y-90679409D01*
X99243893Y-90645431D01*
X99260634Y-90614110D01*
X99283161Y-90586661D01*
X99310610Y-90564134D01*
X99341931Y-90547393D01*
X99375909Y-90537085D01*
X99417390Y-90533000D01*
X100018610Y-90533000D01*
X100060091Y-90537085D01*
G37*
G36*
X101635091Y-90537085D02*
G01*
X101669069Y-90547393D01*
X101700390Y-90564134D01*
X101727839Y-90586661D01*
X101750366Y-90614110D01*
X101767107Y-90645431D01*
X101777415Y-90679409D01*
X101781500Y-90720890D01*
X101781500Y-91397110D01*
X101777415Y-91438591D01*
X101767107Y-91472569D01*
X101750366Y-91503890D01*
X101727839Y-91531339D01*
X101700390Y-91553866D01*
X101669069Y-91570607D01*
X101635091Y-91580915D01*
X101593610Y-91585000D01*
X100992390Y-91585000D01*
X100950909Y-91580915D01*
X100916931Y-91570607D01*
X100885610Y-91553866D01*
X100858161Y-91531339D01*
X100835634Y-91503890D01*
X100818893Y-91472569D01*
X100808585Y-91438591D01*
X100804500Y-91397110D01*
X100804500Y-90720890D01*
X100808585Y-90679409D01*
X100818893Y-90645431D01*
X100835634Y-90614110D01*
X100858161Y-90586661D01*
X100885610Y-90564134D01*
X100916931Y-90547393D01*
X100950909Y-90537085D01*
X100992390Y-90533000D01*
X101593610Y-90533000D01*
X101635091Y-90537085D01*
G37*
G36*
X134507091Y-89902085D02*
G01*
X134541069Y-89912393D01*
X134572390Y-89929134D01*
X134599839Y-89951661D01*
X134622366Y-89979110D01*
X134639107Y-90010431D01*
X134649415Y-90044409D01*
X134653500Y-90085890D01*
X134653500Y-90762110D01*
X134649415Y-90803591D01*
X134639107Y-90837569D01*
X134622366Y-90868890D01*
X134599839Y-90896339D01*
X134572390Y-90918866D01*
X134541069Y-90935607D01*
X134507091Y-90945915D01*
X134465610Y-90950000D01*
X133864390Y-90950000D01*
X133822909Y-90945915D01*
X133788931Y-90935607D01*
X133757610Y-90918866D01*
X133730161Y-90896339D01*
X133707634Y-90868890D01*
X133690893Y-90837569D01*
X133680585Y-90803591D01*
X133676500Y-90762110D01*
X133676500Y-90085890D01*
X133680585Y-90044409D01*
X133690893Y-90010431D01*
X133707634Y-89979110D01*
X133730161Y-89951661D01*
X133757610Y-89929134D01*
X133788931Y-89912393D01*
X133822909Y-89902085D01*
X133864390Y-89898000D01*
X134465610Y-89898000D01*
X134507091Y-89902085D01*
G37*
G36*
X136082091Y-89902085D02*
G01*
X136116069Y-89912393D01*
X136147390Y-89929134D01*
X136174839Y-89951661D01*
X136197366Y-89979110D01*
X136214107Y-90010431D01*
X136224415Y-90044409D01*
X136228500Y-90085890D01*
X136228500Y-90762110D01*
X136224415Y-90803591D01*
X136214107Y-90837569D01*
X136197366Y-90868890D01*
X136174839Y-90896339D01*
X136147390Y-90918866D01*
X136116069Y-90935607D01*
X136082091Y-90945915D01*
X136040610Y-90950000D01*
X135439390Y-90950000D01*
X135397909Y-90945915D01*
X135363931Y-90935607D01*
X135332610Y-90918866D01*
X135305161Y-90896339D01*
X135282634Y-90868890D01*
X135265893Y-90837569D01*
X135255585Y-90803591D01*
X135251500Y-90762110D01*
X135251500Y-90085890D01*
X135255585Y-90044409D01*
X135265893Y-90010431D01*
X135282634Y-89979110D01*
X135305161Y-89951661D01*
X135332610Y-89929134D01*
X135363931Y-89912393D01*
X135397909Y-89902085D01*
X135439390Y-89898000D01*
X136040610Y-89898000D01*
X136082091Y-89902085D01*
G37*
G36*
X141393446Y-90180761D02*
G01*
X140684925Y-90889282D01*
X139410718Y-89615075D01*
X140119239Y-88906554D01*
X141393446Y-90180761D01*
G37*
G36*
X149491000Y-90309000D02*
G01*
X147689000Y-90309000D01*
X147689000Y-88507000D01*
X149491000Y-88507000D01*
X149491000Y-90309000D01*
G37*
G36*
X120880295Y-87480323D02*
G01*
X120887309Y-87482451D01*
X120901077Y-87489810D01*
X120923716Y-87499187D01*
X120947749Y-87503967D01*
X120972253Y-87503967D01*
X120996286Y-87499186D01*
X121018923Y-87489810D01*
X121032691Y-87482451D01*
X121039705Y-87480323D01*
X121053140Y-87479000D01*
X121366860Y-87479000D01*
X121380295Y-87480323D01*
X121387309Y-87482451D01*
X121401077Y-87489810D01*
X121423716Y-87499187D01*
X121447749Y-87503967D01*
X121472253Y-87503967D01*
X121496286Y-87499186D01*
X121518923Y-87489810D01*
X121532691Y-87482451D01*
X121539705Y-87480323D01*
X121553140Y-87479000D01*
X121866860Y-87479000D01*
X121880295Y-87480323D01*
X121887309Y-87482451D01*
X121901077Y-87489810D01*
X121923716Y-87499187D01*
X121947749Y-87503967D01*
X121972253Y-87503967D01*
X121996286Y-87499186D01*
X122018923Y-87489810D01*
X122032691Y-87482451D01*
X122039705Y-87480323D01*
X122053140Y-87479000D01*
X122366860Y-87479000D01*
X122380295Y-87480323D01*
X122387309Y-87482451D01*
X122401077Y-87489810D01*
X122423716Y-87499187D01*
X122447749Y-87503967D01*
X122472253Y-87503967D01*
X122496286Y-87499186D01*
X122518923Y-87489810D01*
X122532691Y-87482451D01*
X122539705Y-87480323D01*
X122553140Y-87479000D01*
X122866860Y-87479000D01*
X122880295Y-87480323D01*
X122887309Y-87482451D01*
X122901077Y-87489810D01*
X122923716Y-87499187D01*
X122947749Y-87503967D01*
X122972253Y-87503967D01*
X122996286Y-87499186D01*
X123018923Y-87489810D01*
X123032691Y-87482451D01*
X123039705Y-87480323D01*
X123053140Y-87479000D01*
X123366860Y-87479000D01*
X123380295Y-87480323D01*
X123387309Y-87482451D01*
X123401077Y-87489810D01*
X123423716Y-87499187D01*
X123447749Y-87503967D01*
X123472253Y-87503967D01*
X123496286Y-87499186D01*
X123518923Y-87489810D01*
X123532691Y-87482451D01*
X123539705Y-87480323D01*
X123553140Y-87479000D01*
X123866860Y-87479000D01*
X123880295Y-87480323D01*
X123887309Y-87482451D01*
X123901077Y-87489810D01*
X123923716Y-87499187D01*
X123947749Y-87503967D01*
X123972253Y-87503967D01*
X123996286Y-87499186D01*
X124018923Y-87489810D01*
X124032691Y-87482451D01*
X124039705Y-87480323D01*
X124053140Y-87479000D01*
X124366860Y-87479000D01*
X124380295Y-87480323D01*
X124387309Y-87482451D01*
X124401077Y-87489810D01*
X124423716Y-87499187D01*
X124447749Y-87503967D01*
X124472253Y-87503967D01*
X124496286Y-87499186D01*
X124518923Y-87489810D01*
X124532691Y-87482451D01*
X124539705Y-87480323D01*
X124553140Y-87479000D01*
X124866860Y-87479000D01*
X124880295Y-87480323D01*
X124887309Y-87482451D01*
X124901077Y-87489810D01*
X124923716Y-87499187D01*
X124947749Y-87503967D01*
X124972253Y-87503967D01*
X124996286Y-87499186D01*
X125018923Y-87489810D01*
X125032691Y-87482451D01*
X125039705Y-87480323D01*
X125053140Y-87479000D01*
X125366860Y-87479000D01*
X125380295Y-87480323D01*
X125387309Y-87482451D01*
X125401077Y-87489810D01*
X125423716Y-87499187D01*
X125447749Y-87503967D01*
X125472253Y-87503967D01*
X125496286Y-87499186D01*
X125518923Y-87489810D01*
X125532691Y-87482451D01*
X125539705Y-87480323D01*
X125553140Y-87479000D01*
X125866860Y-87479000D01*
X125880295Y-87480323D01*
X125887309Y-87482451D01*
X125901077Y-87489810D01*
X125923716Y-87499187D01*
X125947749Y-87503967D01*
X125972253Y-87503967D01*
X125996286Y-87499186D01*
X126018923Y-87489810D01*
X126032691Y-87482451D01*
X126039705Y-87480323D01*
X126053140Y-87479000D01*
X126366860Y-87479000D01*
X126380295Y-87480323D01*
X126387309Y-87482451D01*
X126401077Y-87489810D01*
X126423716Y-87499187D01*
X126447749Y-87503967D01*
X126472253Y-87503967D01*
X126496286Y-87499186D01*
X126518923Y-87489810D01*
X126532691Y-87482451D01*
X126539705Y-87480323D01*
X126553140Y-87479000D01*
X126866860Y-87479000D01*
X126880295Y-87480323D01*
X126887309Y-87482451D01*
X126901077Y-87489810D01*
X126923716Y-87499187D01*
X126947749Y-87503967D01*
X126972253Y-87503967D01*
X126996286Y-87499186D01*
X127018923Y-87489810D01*
X127032691Y-87482451D01*
X127039705Y-87480323D01*
X127053140Y-87479000D01*
X127366860Y-87479000D01*
X127380295Y-87480323D01*
X127387309Y-87482451D01*
X127401077Y-87489810D01*
X127423716Y-87499187D01*
X127447749Y-87503967D01*
X127472253Y-87503967D01*
X127496286Y-87499186D01*
X127518923Y-87489810D01*
X127532691Y-87482451D01*
X127539705Y-87480323D01*
X127553140Y-87479000D01*
X127866860Y-87479000D01*
X127880295Y-87480323D01*
X127887309Y-87482451D01*
X127901077Y-87489810D01*
X127923716Y-87499187D01*
X127947749Y-87503967D01*
X127972253Y-87503967D01*
X127996286Y-87499186D01*
X128018923Y-87489810D01*
X128032691Y-87482451D01*
X128039705Y-87480323D01*
X128053140Y-87479000D01*
X128366860Y-87479000D01*
X128380295Y-87480323D01*
X128387310Y-87482451D01*
X128393776Y-87485908D01*
X128399442Y-87490558D01*
X128404092Y-87496224D01*
X128407549Y-87502690D01*
X128409677Y-87509705D01*
X128411000Y-87523140D01*
X128411000Y-89086860D01*
X128409677Y-89100295D01*
X128407549Y-89107310D01*
X128404092Y-89113776D01*
X128399442Y-89119442D01*
X128393776Y-89124092D01*
X128387310Y-89127549D01*
X128380295Y-89129677D01*
X128366860Y-89131000D01*
X128053140Y-89131000D01*
X128039705Y-89129677D01*
X128032691Y-89127549D01*
X128018923Y-89120190D01*
X127996284Y-89110813D01*
X127972251Y-89106033D01*
X127947747Y-89106033D01*
X127923714Y-89110814D01*
X127901077Y-89120190D01*
X127887309Y-89127549D01*
X127880295Y-89129677D01*
X127866860Y-89131000D01*
X127553140Y-89131000D01*
X127539705Y-89129677D01*
X127532691Y-89127549D01*
X127518923Y-89120190D01*
X127496284Y-89110813D01*
X127472251Y-89106033D01*
X127447747Y-89106033D01*
X127423714Y-89110814D01*
X127401077Y-89120190D01*
X127387309Y-89127549D01*
X127380295Y-89129677D01*
X127366860Y-89131000D01*
X127053140Y-89131000D01*
X127039705Y-89129677D01*
X127032691Y-89127549D01*
X127018923Y-89120190D01*
X126996284Y-89110813D01*
X126972251Y-89106033D01*
X126947747Y-89106033D01*
X126923714Y-89110814D01*
X126901077Y-89120190D01*
X126887309Y-89127549D01*
X126880295Y-89129677D01*
X126866860Y-89131000D01*
X126553140Y-89131000D01*
X126539705Y-89129677D01*
X126532691Y-89127549D01*
X126518923Y-89120190D01*
X126496284Y-89110813D01*
X126472251Y-89106033D01*
X126447747Y-89106033D01*
X126423714Y-89110814D01*
X126401077Y-89120190D01*
X126387309Y-89127549D01*
X126380295Y-89129677D01*
X126366860Y-89131000D01*
X126053140Y-89131000D01*
X126039705Y-89129677D01*
X126032691Y-89127549D01*
X126018923Y-89120190D01*
X125996284Y-89110813D01*
X125972251Y-89106033D01*
X125947747Y-89106033D01*
X125923714Y-89110814D01*
X125901077Y-89120190D01*
X125887309Y-89127549D01*
X125880295Y-89129677D01*
X125866860Y-89131000D01*
X125553140Y-89131000D01*
X125539705Y-89129677D01*
X125532691Y-89127549D01*
X125518923Y-89120190D01*
X125496284Y-89110813D01*
X125472251Y-89106033D01*
X125447747Y-89106033D01*
X125423714Y-89110814D01*
X125401077Y-89120190D01*
X125387309Y-89127549D01*
X125380295Y-89129677D01*
X125366860Y-89131000D01*
X125053140Y-89131000D01*
X125039705Y-89129677D01*
X125032691Y-89127549D01*
X125018923Y-89120190D01*
X124996284Y-89110813D01*
X124972251Y-89106033D01*
X124947747Y-89106033D01*
X124923714Y-89110814D01*
X124901077Y-89120190D01*
X124887309Y-89127549D01*
X124880295Y-89129677D01*
X124866860Y-89131000D01*
X124553140Y-89131000D01*
X124539705Y-89129677D01*
X124532691Y-89127549D01*
X124518923Y-89120190D01*
X124496284Y-89110813D01*
X124472251Y-89106033D01*
X124447747Y-89106033D01*
X124423714Y-89110814D01*
X124401077Y-89120190D01*
X124387309Y-89127549D01*
X124380295Y-89129677D01*
X124366860Y-89131000D01*
X124053140Y-89131000D01*
X124039705Y-89129677D01*
X124032691Y-89127549D01*
X124018923Y-89120190D01*
X123996284Y-89110813D01*
X123972251Y-89106033D01*
X123947747Y-89106033D01*
X123923714Y-89110814D01*
X123901077Y-89120190D01*
X123887309Y-89127549D01*
X123880295Y-89129677D01*
X123866860Y-89131000D01*
X123553140Y-89131000D01*
X123539705Y-89129677D01*
X123532691Y-89127549D01*
X123518923Y-89120190D01*
X123496284Y-89110813D01*
X123472251Y-89106033D01*
X123447747Y-89106033D01*
X123423714Y-89110814D01*
X123401077Y-89120190D01*
X123387309Y-89127549D01*
X123380295Y-89129677D01*
X123366860Y-89131000D01*
X123053140Y-89131000D01*
X123039705Y-89129677D01*
X123032691Y-89127549D01*
X123018923Y-89120190D01*
X122996284Y-89110813D01*
X122972251Y-89106033D01*
X122947747Y-89106033D01*
X122923714Y-89110814D01*
X122901077Y-89120190D01*
X122887309Y-89127549D01*
X122880295Y-89129677D01*
X122866860Y-89131000D01*
X122553140Y-89131000D01*
X122539705Y-89129677D01*
X122532691Y-89127549D01*
X122518923Y-89120190D01*
X122496284Y-89110813D01*
X122472251Y-89106033D01*
X122447747Y-89106033D01*
X122423714Y-89110814D01*
X122401077Y-89120190D01*
X122387309Y-89127549D01*
X122380295Y-89129677D01*
X122366860Y-89131000D01*
X122053140Y-89131000D01*
X122039705Y-89129677D01*
X122032691Y-89127549D01*
X122018923Y-89120190D01*
X121996284Y-89110813D01*
X121972251Y-89106033D01*
X121947747Y-89106033D01*
X121923714Y-89110814D01*
X121901077Y-89120190D01*
X121887309Y-89127549D01*
X121880295Y-89129677D01*
X121866860Y-89131000D01*
X121553140Y-89131000D01*
X121539705Y-89129677D01*
X121532691Y-89127549D01*
X121518923Y-89120190D01*
X121496284Y-89110813D01*
X121472251Y-89106033D01*
X121447747Y-89106033D01*
X121423714Y-89110814D01*
X121401077Y-89120190D01*
X121387309Y-89127549D01*
X121380295Y-89129677D01*
X121366860Y-89131000D01*
X121053140Y-89131000D01*
X121039705Y-89129677D01*
X121032691Y-89127549D01*
X121018923Y-89120190D01*
X120996284Y-89110813D01*
X120972251Y-89106033D01*
X120947747Y-89106033D01*
X120923714Y-89110814D01*
X120901077Y-89120190D01*
X120887309Y-89127549D01*
X120880295Y-89129677D01*
X120866860Y-89131000D01*
X120553140Y-89131000D01*
X120539705Y-89129677D01*
X120532690Y-89127549D01*
X120526224Y-89124092D01*
X120520558Y-89119442D01*
X120515908Y-89113776D01*
X120512451Y-89107310D01*
X120510323Y-89100295D01*
X120509000Y-89086860D01*
X120509000Y-87523140D01*
X120510323Y-87509705D01*
X120512451Y-87502690D01*
X120515908Y-87496224D01*
X120520558Y-87490558D01*
X120526224Y-87485908D01*
X120532690Y-87482451D01*
X120539705Y-87480323D01*
X120553140Y-87479000D01*
X120866860Y-87479000D01*
X120880295Y-87480323D01*
G37*
G36*
X101418604Y-87078347D02*
G01*
X101455144Y-87089432D01*
X101488821Y-87107433D01*
X101518341Y-87131659D01*
X101542567Y-87161179D01*
X101560568Y-87194856D01*
X101571653Y-87231396D01*
X101576000Y-87275538D01*
X101576000Y-88724462D01*
X101571653Y-88768604D01*
X101560568Y-88805144D01*
X101542567Y-88838821D01*
X101518341Y-88868341D01*
X101488821Y-88892567D01*
X101455144Y-88910568D01*
X101418604Y-88921653D01*
X101374462Y-88926000D01*
X100425538Y-88926000D01*
X100381396Y-88921653D01*
X100344856Y-88910568D01*
X100311179Y-88892567D01*
X100281659Y-88868341D01*
X100257433Y-88838821D01*
X100239432Y-88805144D01*
X100228347Y-88768604D01*
X100224000Y-88724462D01*
X100224000Y-87275538D01*
X100228347Y-87231396D01*
X100239432Y-87194856D01*
X100257433Y-87161179D01*
X100281659Y-87131659D01*
X100311179Y-87107433D01*
X100344856Y-87089432D01*
X100381396Y-87078347D01*
X100425538Y-87074000D01*
X101374462Y-87074000D01*
X101418604Y-87078347D01*
G37*
G36*
X98618604Y-87078347D02*
G01*
X98655144Y-87089432D01*
X98688821Y-87107433D01*
X98718341Y-87131659D01*
X98742567Y-87161179D01*
X98760568Y-87194856D01*
X98771653Y-87231396D01*
X98776000Y-87275538D01*
X98776000Y-88724462D01*
X98771653Y-88768604D01*
X98760568Y-88805144D01*
X98742567Y-88838821D01*
X98718341Y-88868341D01*
X98688821Y-88892567D01*
X98655144Y-88910568D01*
X98618604Y-88921653D01*
X98574462Y-88926000D01*
X97625538Y-88926000D01*
X97581396Y-88921653D01*
X97544856Y-88910568D01*
X97511179Y-88892567D01*
X97481659Y-88868341D01*
X97457433Y-88838821D01*
X97439432Y-88805144D01*
X97428347Y-88768604D01*
X97424000Y-88724462D01*
X97424000Y-87275538D01*
X97428347Y-87231396D01*
X97439432Y-87194856D01*
X97457433Y-87161179D01*
X97481659Y-87131659D01*
X97511179Y-87107433D01*
X97544856Y-87089432D01*
X97581396Y-87078347D01*
X97625538Y-87074000D01*
X98574462Y-87074000D01*
X98618604Y-87078347D01*
G37*
G36*
X107828928Y-86417764D02*
G01*
X107850009Y-86424160D01*
X107869445Y-86434548D01*
X107886476Y-86448524D01*
X107900452Y-86465555D01*
X107910840Y-86484991D01*
X107917236Y-86506072D01*
X107920000Y-86534140D01*
X107920000Y-88347860D01*
X107917236Y-88375928D01*
X107910840Y-88397009D01*
X107900452Y-88416445D01*
X107886476Y-88433476D01*
X107869445Y-88447452D01*
X107850009Y-88457840D01*
X107828928Y-88464236D01*
X107800860Y-88467000D01*
X107337140Y-88467000D01*
X107309072Y-88464236D01*
X107287991Y-88457840D01*
X107268555Y-88447452D01*
X107251524Y-88433476D01*
X107237548Y-88416445D01*
X107227160Y-88397009D01*
X107220764Y-88375928D01*
X107218000Y-88347860D01*
X107218000Y-86534140D01*
X107220764Y-86506072D01*
X107227160Y-86484991D01*
X107237548Y-86465555D01*
X107251524Y-86448524D01*
X107268555Y-86434548D01*
X107287991Y-86424160D01*
X107309072Y-86417764D01*
X107337140Y-86415000D01*
X107800860Y-86415000D01*
X107828928Y-86417764D01*
G37*
G36*
X109098928Y-86417764D02*
G01*
X109120009Y-86424160D01*
X109139445Y-86434548D01*
X109156476Y-86448524D01*
X109170452Y-86465555D01*
X109180840Y-86484991D01*
X109187236Y-86506072D01*
X109190000Y-86534140D01*
X109190000Y-88347860D01*
X109187236Y-88375928D01*
X109180840Y-88397009D01*
X109170452Y-88416445D01*
X109156476Y-88433476D01*
X109139445Y-88447452D01*
X109120009Y-88457840D01*
X109098928Y-88464236D01*
X109070860Y-88467000D01*
X108607140Y-88467000D01*
X108579072Y-88464236D01*
X108557991Y-88457840D01*
X108538555Y-88447452D01*
X108521524Y-88433476D01*
X108507548Y-88416445D01*
X108497160Y-88397009D01*
X108490764Y-88375928D01*
X108488000Y-88347860D01*
X108488000Y-86534140D01*
X108490764Y-86506072D01*
X108497160Y-86484991D01*
X108507548Y-86465555D01*
X108521524Y-86448524D01*
X108538555Y-86434548D01*
X108557991Y-86424160D01*
X108579072Y-86417764D01*
X108607140Y-86415000D01*
X109070860Y-86415000D01*
X109098928Y-86417764D01*
G37*
G36*
X106558928Y-86417764D02*
G01*
X106580009Y-86424160D01*
X106599445Y-86434548D01*
X106616476Y-86448524D01*
X106630452Y-86465555D01*
X106640840Y-86484991D01*
X106647236Y-86506072D01*
X106650000Y-86534140D01*
X106650000Y-88347860D01*
X106647236Y-88375928D01*
X106640840Y-88397009D01*
X106630452Y-88416445D01*
X106616476Y-88433476D01*
X106599445Y-88447452D01*
X106580009Y-88457840D01*
X106558928Y-88464236D01*
X106530860Y-88467000D01*
X106067140Y-88467000D01*
X106039072Y-88464236D01*
X106017991Y-88457840D01*
X105998555Y-88447452D01*
X105981524Y-88433476D01*
X105967548Y-88416445D01*
X105957160Y-88397009D01*
X105950764Y-88375928D01*
X105948000Y-88347860D01*
X105948000Y-86534140D01*
X105950764Y-86506072D01*
X105957160Y-86484991D01*
X105967548Y-86465555D01*
X105981524Y-86448524D01*
X105998555Y-86434548D01*
X106017991Y-86424160D01*
X106039072Y-86417764D01*
X106067140Y-86415000D01*
X106530860Y-86415000D01*
X106558928Y-86417764D01*
G37*
G36*
X105288928Y-86417764D02*
G01*
X105310009Y-86424160D01*
X105329445Y-86434548D01*
X105346476Y-86448524D01*
X105360452Y-86465555D01*
X105370840Y-86484991D01*
X105377236Y-86506072D01*
X105380000Y-86534140D01*
X105380000Y-88347860D01*
X105377236Y-88375928D01*
X105370840Y-88397009D01*
X105360452Y-88416445D01*
X105346476Y-88433476D01*
X105329445Y-88447452D01*
X105310009Y-88457840D01*
X105288928Y-88464236D01*
X105260860Y-88467000D01*
X104797140Y-88467000D01*
X104769072Y-88464236D01*
X104747991Y-88457840D01*
X104728555Y-88447452D01*
X104711524Y-88433476D01*
X104697548Y-88416445D01*
X104687160Y-88397009D01*
X104680764Y-88375928D01*
X104678000Y-88347860D01*
X104678000Y-86534140D01*
X104680764Y-86506072D01*
X104687160Y-86484991D01*
X104697548Y-86465555D01*
X104711524Y-86448524D01*
X104728555Y-86434548D01*
X104747991Y-86424160D01*
X104769072Y-86417764D01*
X104797140Y-86415000D01*
X105260860Y-86415000D01*
X105288928Y-86417764D01*
G37*
G36*
X118117091Y-86878085D02*
G01*
X118151069Y-86888393D01*
X118182390Y-86905134D01*
X118209839Y-86927661D01*
X118232366Y-86955110D01*
X118249107Y-86986431D01*
X118259415Y-87020409D01*
X118263500Y-87061890D01*
X118263500Y-87738110D01*
X118259415Y-87779591D01*
X118249107Y-87813569D01*
X118232366Y-87844890D01*
X118209839Y-87872339D01*
X118182390Y-87894866D01*
X118151069Y-87911607D01*
X118117091Y-87921915D01*
X118075610Y-87926000D01*
X117474390Y-87926000D01*
X117432909Y-87921915D01*
X117398931Y-87911607D01*
X117367610Y-87894866D01*
X117340161Y-87872339D01*
X117317634Y-87844890D01*
X117300893Y-87813569D01*
X117290585Y-87779591D01*
X117286500Y-87738110D01*
X117286500Y-87061890D01*
X117290585Y-87020409D01*
X117300893Y-86986431D01*
X117317634Y-86955110D01*
X117340161Y-86927661D01*
X117367610Y-86905134D01*
X117398931Y-86888393D01*
X117432909Y-86878085D01*
X117474390Y-86874000D01*
X118075610Y-86874000D01*
X118117091Y-86878085D01*
G37*
G36*
X116542091Y-86878085D02*
G01*
X116576069Y-86888393D01*
X116607390Y-86905134D01*
X116634839Y-86927661D01*
X116657366Y-86955110D01*
X116674107Y-86986431D01*
X116684415Y-87020409D01*
X116688500Y-87061890D01*
X116688500Y-87738110D01*
X116684415Y-87779591D01*
X116674107Y-87813569D01*
X116657366Y-87844890D01*
X116634839Y-87872339D01*
X116607390Y-87894866D01*
X116576069Y-87911607D01*
X116542091Y-87921915D01*
X116500610Y-87926000D01*
X115899390Y-87926000D01*
X115857909Y-87921915D01*
X115823931Y-87911607D01*
X115792610Y-87894866D01*
X115765161Y-87872339D01*
X115742634Y-87844890D01*
X115725893Y-87813569D01*
X115715585Y-87779591D01*
X115711500Y-87738110D01*
X115711500Y-87061890D01*
X115715585Y-87020409D01*
X115725893Y-86986431D01*
X115742634Y-86955110D01*
X115765161Y-86927661D01*
X115792610Y-86905134D01*
X115823931Y-86888393D01*
X115857909Y-86878085D01*
X115899390Y-86874000D01*
X116500610Y-86874000D01*
X116542091Y-86878085D01*
G37*
G36*
X113092591Y-86854085D02*
G01*
X113126569Y-86864393D01*
X113157890Y-86881134D01*
X113185339Y-86903661D01*
X113207866Y-86931110D01*
X113224607Y-86962431D01*
X113234915Y-86996409D01*
X113239000Y-87037890D01*
X113239000Y-87714110D01*
X113234915Y-87755591D01*
X113224607Y-87789569D01*
X113207866Y-87820890D01*
X113185339Y-87848339D01*
X113157890Y-87870866D01*
X113126569Y-87887607D01*
X113092591Y-87897915D01*
X113051110Y-87902000D01*
X112449890Y-87902000D01*
X112408409Y-87897915D01*
X112374431Y-87887607D01*
X112343110Y-87870866D01*
X112315661Y-87848339D01*
X112293134Y-87820890D01*
X112276393Y-87789569D01*
X112266085Y-87755591D01*
X112262000Y-87714110D01*
X112262000Y-87037890D01*
X112266085Y-86996409D01*
X112276393Y-86962431D01*
X112293134Y-86931110D01*
X112315661Y-86903661D01*
X112343110Y-86881134D01*
X112374431Y-86864393D01*
X112408409Y-86854085D01*
X112449890Y-86850000D01*
X113051110Y-86850000D01*
X113092591Y-86854085D01*
G37*
G36*
X114667591Y-86854085D02*
G01*
X114701569Y-86864393D01*
X114732890Y-86881134D01*
X114760339Y-86903661D01*
X114782866Y-86931110D01*
X114799607Y-86962431D01*
X114809915Y-86996409D01*
X114814000Y-87037890D01*
X114814000Y-87714110D01*
X114809915Y-87755591D01*
X114799607Y-87789569D01*
X114782866Y-87820890D01*
X114760339Y-87848339D01*
X114732890Y-87870866D01*
X114701569Y-87887607D01*
X114667591Y-87897915D01*
X114626110Y-87902000D01*
X114024890Y-87902000D01*
X113983409Y-87897915D01*
X113949431Y-87887607D01*
X113918110Y-87870866D01*
X113890661Y-87848339D01*
X113868134Y-87820890D01*
X113851393Y-87789569D01*
X113841085Y-87755591D01*
X113837000Y-87714110D01*
X113837000Y-87037890D01*
X113841085Y-86996409D01*
X113851393Y-86962431D01*
X113868134Y-86931110D01*
X113890661Y-86903661D01*
X113918110Y-86881134D01*
X113949431Y-86864393D01*
X113983409Y-86854085D01*
X114024890Y-86850000D01*
X114626110Y-86850000D01*
X114667591Y-86854085D01*
G37*
G36*
X131042091Y-85678085D02*
G01*
X131076069Y-85688393D01*
X131107390Y-85705134D01*
X131134839Y-85727661D01*
X131157366Y-85755110D01*
X131174107Y-85786431D01*
X131184415Y-85820409D01*
X131188500Y-85861890D01*
X131188500Y-86538110D01*
X131184415Y-86579591D01*
X131174107Y-86613569D01*
X131157366Y-86644890D01*
X131134839Y-86672339D01*
X131107390Y-86694866D01*
X131076069Y-86711607D01*
X131042091Y-86721915D01*
X131000610Y-86726000D01*
X130399390Y-86726000D01*
X130357909Y-86721915D01*
X130323931Y-86711607D01*
X130292610Y-86694866D01*
X130265161Y-86672339D01*
X130242634Y-86644890D01*
X130225893Y-86613569D01*
X130215585Y-86579591D01*
X130211500Y-86538110D01*
X130211500Y-85861890D01*
X130215585Y-85820409D01*
X130225893Y-85786431D01*
X130242634Y-85755110D01*
X130265161Y-85727661D01*
X130292610Y-85705134D01*
X130323931Y-85688393D01*
X130357909Y-85678085D01*
X130399390Y-85674000D01*
X131000610Y-85674000D01*
X131042091Y-85678085D01*
G37*
G36*
X129467091Y-85678085D02*
G01*
X129501069Y-85688393D01*
X129532390Y-85705134D01*
X129559839Y-85727661D01*
X129582366Y-85755110D01*
X129599107Y-85786431D01*
X129609415Y-85820409D01*
X129613500Y-85861890D01*
X129613500Y-86538110D01*
X129609415Y-86579591D01*
X129599107Y-86613569D01*
X129582366Y-86644890D01*
X129559839Y-86672339D01*
X129532390Y-86694866D01*
X129501069Y-86711607D01*
X129467091Y-86721915D01*
X129425610Y-86726000D01*
X128824390Y-86726000D01*
X128782909Y-86721915D01*
X128748931Y-86711607D01*
X128717610Y-86694866D01*
X128690161Y-86672339D01*
X128667634Y-86644890D01*
X128650893Y-86613569D01*
X128640585Y-86579591D01*
X128636500Y-86538110D01*
X128636500Y-85861890D01*
X128640585Y-85820409D01*
X128650893Y-85786431D01*
X128667634Y-85755110D01*
X128690161Y-85727661D01*
X128717610Y-85705134D01*
X128748931Y-85688393D01*
X128782909Y-85678085D01*
X128824390Y-85674000D01*
X129425610Y-85674000D01*
X129467091Y-85678085D01*
G37*
G36*
X136883000Y-86491000D02*
G01*
X135881000Y-86491000D01*
X135881000Y-85589000D01*
X136883000Y-85589000D01*
X136883000Y-86491000D01*
G37*
G36*
X121979591Y-85490585D02*
G01*
X122013569Y-85500893D01*
X122044890Y-85517634D01*
X122072339Y-85540161D01*
X122094866Y-85567610D01*
X122111607Y-85598931D01*
X122121915Y-85632909D01*
X122126000Y-85674390D01*
X122126000Y-86275610D01*
X122121915Y-86317091D01*
X122111607Y-86351069D01*
X122094866Y-86382390D01*
X122072339Y-86409839D01*
X122044890Y-86432366D01*
X122013569Y-86449107D01*
X121979591Y-86459415D01*
X121938110Y-86463500D01*
X121261890Y-86463500D01*
X121220409Y-86459415D01*
X121186431Y-86449107D01*
X121155110Y-86432366D01*
X121127661Y-86409839D01*
X121105134Y-86382390D01*
X121088393Y-86351069D01*
X121078085Y-86317091D01*
X121074000Y-86275610D01*
X121074000Y-85674390D01*
X121078085Y-85632909D01*
X121088393Y-85598931D01*
X121105134Y-85567610D01*
X121127661Y-85540161D01*
X121155110Y-85517634D01*
X121186431Y-85500893D01*
X121220409Y-85490585D01*
X121261890Y-85486500D01*
X121938110Y-85486500D01*
X121979591Y-85490585D01*
G37*
G36*
X127579591Y-85415585D02*
G01*
X127613569Y-85425893D01*
X127644890Y-85442634D01*
X127672339Y-85465161D01*
X127694866Y-85492610D01*
X127711607Y-85523931D01*
X127721915Y-85557909D01*
X127726000Y-85599390D01*
X127726000Y-86200610D01*
X127721915Y-86242091D01*
X127711607Y-86276069D01*
X127694866Y-86307390D01*
X127672339Y-86334839D01*
X127644890Y-86357366D01*
X127613569Y-86374107D01*
X127579591Y-86384415D01*
X127538110Y-86388500D01*
X126861890Y-86388500D01*
X126820409Y-86384415D01*
X126786431Y-86374107D01*
X126755110Y-86357366D01*
X126727661Y-86334839D01*
X126705134Y-86307390D01*
X126688393Y-86276069D01*
X126678085Y-86242091D01*
X126674000Y-86200610D01*
X126674000Y-85599390D01*
X126678085Y-85557909D01*
X126688393Y-85523931D01*
X126705134Y-85492610D01*
X126727661Y-85465161D01*
X126755110Y-85442634D01*
X126786431Y-85425893D01*
X126820409Y-85415585D01*
X126861890Y-85411500D01*
X127538110Y-85411500D01*
X127579591Y-85415585D01*
G37*
G36*
X125679591Y-85415585D02*
G01*
X125713569Y-85425893D01*
X125744890Y-85442634D01*
X125772339Y-85465161D01*
X125794866Y-85492610D01*
X125811607Y-85523931D01*
X125821915Y-85557909D01*
X125826000Y-85599390D01*
X125826000Y-86200610D01*
X125821915Y-86242091D01*
X125811607Y-86276069D01*
X125794866Y-86307390D01*
X125772339Y-86334839D01*
X125744890Y-86357366D01*
X125713569Y-86374107D01*
X125679591Y-86384415D01*
X125638110Y-86388500D01*
X124961890Y-86388500D01*
X124920409Y-86384415D01*
X124886431Y-86374107D01*
X124855110Y-86357366D01*
X124827661Y-86334839D01*
X124805134Y-86307390D01*
X124788393Y-86276069D01*
X124778085Y-86242091D01*
X124774000Y-86200610D01*
X124774000Y-85599390D01*
X124778085Y-85557909D01*
X124788393Y-85523931D01*
X124805134Y-85492610D01*
X124827661Y-85465161D01*
X124855110Y-85442634D01*
X124886431Y-85425893D01*
X124920409Y-85415585D01*
X124961890Y-85411500D01*
X125638110Y-85411500D01*
X125679591Y-85415585D01*
G37*
G36*
X123479591Y-85415585D02*
G01*
X123513569Y-85425893D01*
X123544890Y-85442634D01*
X123572339Y-85465161D01*
X123594866Y-85492610D01*
X123611607Y-85523931D01*
X123621915Y-85557909D01*
X123626000Y-85599390D01*
X123626000Y-86200610D01*
X123621915Y-86242091D01*
X123611607Y-86276069D01*
X123594866Y-86307390D01*
X123572339Y-86334839D01*
X123544890Y-86357366D01*
X123513569Y-86374107D01*
X123479591Y-86384415D01*
X123438110Y-86388500D01*
X122761890Y-86388500D01*
X122720409Y-86384415D01*
X122686431Y-86374107D01*
X122655110Y-86357366D01*
X122627661Y-86334839D01*
X122605134Y-86307390D01*
X122588393Y-86276069D01*
X122578085Y-86242091D01*
X122574000Y-86200610D01*
X122574000Y-85599390D01*
X122578085Y-85557909D01*
X122588393Y-85523931D01*
X122605134Y-85492610D01*
X122627661Y-85465161D01*
X122655110Y-85442634D01*
X122686431Y-85425893D01*
X122720409Y-85415585D01*
X122761890Y-85411500D01*
X123438110Y-85411500D01*
X123479591Y-85415585D01*
G37*
G36*
X134883000Y-85541000D02*
G01*
X133881000Y-85541000D01*
X133881000Y-84639000D01*
X134883000Y-84639000D01*
X134883000Y-85541000D01*
G37*
G36*
X113171091Y-84060085D02*
G01*
X113205069Y-84070393D01*
X113236390Y-84087134D01*
X113263839Y-84109661D01*
X113286366Y-84137110D01*
X113303107Y-84168431D01*
X113313415Y-84202409D01*
X113317500Y-84243890D01*
X113317500Y-84920110D01*
X113313415Y-84961591D01*
X113303107Y-84995569D01*
X113286366Y-85026890D01*
X113263839Y-85054339D01*
X113236390Y-85076866D01*
X113205069Y-85093607D01*
X113171091Y-85103915D01*
X113129610Y-85108000D01*
X112528390Y-85108000D01*
X112486909Y-85103915D01*
X112452931Y-85093607D01*
X112421610Y-85076866D01*
X112394161Y-85054339D01*
X112371634Y-85026890D01*
X112354893Y-84995569D01*
X112344585Y-84961591D01*
X112340500Y-84920110D01*
X112340500Y-84243890D01*
X112344585Y-84202409D01*
X112354893Y-84168431D01*
X112371634Y-84137110D01*
X112394161Y-84109661D01*
X112421610Y-84087134D01*
X112452931Y-84070393D01*
X112486909Y-84060085D01*
X112528390Y-84056000D01*
X113129610Y-84056000D01*
X113171091Y-84060085D01*
G37*
G36*
X114746091Y-84060085D02*
G01*
X114780069Y-84070393D01*
X114811390Y-84087134D01*
X114838839Y-84109661D01*
X114861366Y-84137110D01*
X114878107Y-84168431D01*
X114888415Y-84202409D01*
X114892500Y-84243890D01*
X114892500Y-84920110D01*
X114888415Y-84961591D01*
X114878107Y-84995569D01*
X114861366Y-85026890D01*
X114838839Y-85054339D01*
X114811390Y-85076866D01*
X114780069Y-85093607D01*
X114746091Y-85103915D01*
X114704610Y-85108000D01*
X114103390Y-85108000D01*
X114061909Y-85103915D01*
X114027931Y-85093607D01*
X113996610Y-85076866D01*
X113969161Y-85054339D01*
X113946634Y-85026890D01*
X113929893Y-84995569D01*
X113919585Y-84961591D01*
X113915500Y-84920110D01*
X113915500Y-84243890D01*
X113919585Y-84202409D01*
X113929893Y-84168431D01*
X113946634Y-84137110D01*
X113969161Y-84109661D01*
X113996610Y-84087134D01*
X114027931Y-84070393D01*
X114061909Y-84060085D01*
X114103390Y-84056000D01*
X114704610Y-84056000D01*
X114746091Y-84060085D01*
G37*
G36*
X121979591Y-83915585D02*
G01*
X122013569Y-83925893D01*
X122044890Y-83942634D01*
X122072339Y-83965161D01*
X122094866Y-83992610D01*
X122111607Y-84023931D01*
X122121915Y-84057909D01*
X122126000Y-84099390D01*
X122126000Y-84700610D01*
X122121915Y-84742091D01*
X122111607Y-84776069D01*
X122094866Y-84807390D01*
X122072339Y-84834839D01*
X122044890Y-84857366D01*
X122013569Y-84874107D01*
X121979591Y-84884415D01*
X121938110Y-84888500D01*
X121261890Y-84888500D01*
X121220409Y-84884415D01*
X121186431Y-84874107D01*
X121155110Y-84857366D01*
X121127661Y-84834839D01*
X121105134Y-84807390D01*
X121088393Y-84776069D01*
X121078085Y-84742091D01*
X121074000Y-84700610D01*
X121074000Y-84099390D01*
X121078085Y-84057909D01*
X121088393Y-84023931D01*
X121105134Y-83992610D01*
X121127661Y-83965161D01*
X121155110Y-83942634D01*
X121186431Y-83925893D01*
X121220409Y-83915585D01*
X121261890Y-83911500D01*
X121938110Y-83911500D01*
X121979591Y-83915585D01*
G37*
G36*
X127579591Y-83840585D02*
G01*
X127613569Y-83850893D01*
X127644890Y-83867634D01*
X127672339Y-83890161D01*
X127694866Y-83917610D01*
X127711607Y-83948931D01*
X127721915Y-83982909D01*
X127726000Y-84024390D01*
X127726000Y-84625610D01*
X127721915Y-84667091D01*
X127711607Y-84701069D01*
X127694866Y-84732390D01*
X127672339Y-84759839D01*
X127644890Y-84782366D01*
X127613569Y-84799107D01*
X127579591Y-84809415D01*
X127538110Y-84813500D01*
X126861890Y-84813500D01*
X126820409Y-84809415D01*
X126786431Y-84799107D01*
X126755110Y-84782366D01*
X126727661Y-84759839D01*
X126705134Y-84732390D01*
X126688393Y-84701069D01*
X126678085Y-84667091D01*
X126674000Y-84625610D01*
X126674000Y-84024390D01*
X126678085Y-83982909D01*
X126688393Y-83948931D01*
X126705134Y-83917610D01*
X126727661Y-83890161D01*
X126755110Y-83867634D01*
X126786431Y-83850893D01*
X126820409Y-83840585D01*
X126861890Y-83836500D01*
X127538110Y-83836500D01*
X127579591Y-83840585D01*
G37*
G36*
X125679591Y-83840585D02*
G01*
X125713569Y-83850893D01*
X125744890Y-83867634D01*
X125772339Y-83890161D01*
X125794866Y-83917610D01*
X125811607Y-83948931D01*
X125821915Y-83982909D01*
X125826000Y-84024390D01*
X125826000Y-84625610D01*
X125821915Y-84667091D01*
X125811607Y-84701069D01*
X125794866Y-84732390D01*
X125772339Y-84759839D01*
X125744890Y-84782366D01*
X125713569Y-84799107D01*
X125679591Y-84809415D01*
X125638110Y-84813500D01*
X124961890Y-84813500D01*
X124920409Y-84809415D01*
X124886431Y-84799107D01*
X124855110Y-84782366D01*
X124827661Y-84759839D01*
X124805134Y-84732390D01*
X124788393Y-84701069D01*
X124778085Y-84667091D01*
X124774000Y-84625610D01*
X124774000Y-84024390D01*
X124778085Y-83982909D01*
X124788393Y-83948931D01*
X124805134Y-83917610D01*
X124827661Y-83890161D01*
X124855110Y-83867634D01*
X124886431Y-83850893D01*
X124920409Y-83840585D01*
X124961890Y-83836500D01*
X125638110Y-83836500D01*
X125679591Y-83840585D01*
G37*
G36*
X123479591Y-83840585D02*
G01*
X123513569Y-83850893D01*
X123544890Y-83867634D01*
X123572339Y-83890161D01*
X123594866Y-83917610D01*
X123611607Y-83948931D01*
X123621915Y-83982909D01*
X123626000Y-84024390D01*
X123626000Y-84625610D01*
X123621915Y-84667091D01*
X123611607Y-84701069D01*
X123594866Y-84732390D01*
X123572339Y-84759839D01*
X123544890Y-84782366D01*
X123513569Y-84799107D01*
X123479591Y-84809415D01*
X123438110Y-84813500D01*
X122761890Y-84813500D01*
X122720409Y-84809415D01*
X122686431Y-84799107D01*
X122655110Y-84782366D01*
X122627661Y-84759839D01*
X122605134Y-84732390D01*
X122588393Y-84701069D01*
X122578085Y-84667091D01*
X122574000Y-84625610D01*
X122574000Y-84024390D01*
X122578085Y-83982909D01*
X122588393Y-83948931D01*
X122605134Y-83917610D01*
X122627661Y-83890161D01*
X122655110Y-83867634D01*
X122686431Y-83850893D01*
X122720409Y-83840585D01*
X122761890Y-83836500D01*
X123438110Y-83836500D01*
X123479591Y-83840585D01*
G37*
G36*
X109763091Y-83679085D02*
G01*
X109797069Y-83689393D01*
X109828390Y-83706134D01*
X109855839Y-83728661D01*
X109878366Y-83756110D01*
X109895107Y-83787431D01*
X109905415Y-83821409D01*
X109909500Y-83862890D01*
X109909500Y-84539110D01*
X109905415Y-84580591D01*
X109895107Y-84614569D01*
X109878366Y-84645890D01*
X109855839Y-84673339D01*
X109828390Y-84695866D01*
X109797069Y-84712607D01*
X109763091Y-84722915D01*
X109721610Y-84727000D01*
X109120390Y-84727000D01*
X109078909Y-84722915D01*
X109044931Y-84712607D01*
X109013610Y-84695866D01*
X108986161Y-84673339D01*
X108963634Y-84645890D01*
X108946893Y-84614569D01*
X108936585Y-84580591D01*
X108932500Y-84539110D01*
X108932500Y-83862890D01*
X108936585Y-83821409D01*
X108946893Y-83787431D01*
X108963634Y-83756110D01*
X108986161Y-83728661D01*
X109013610Y-83706134D01*
X109044931Y-83689393D01*
X109078909Y-83679085D01*
X109120390Y-83675000D01*
X109721610Y-83675000D01*
X109763091Y-83679085D01*
G37*
G36*
X108188091Y-83679085D02*
G01*
X108222069Y-83689393D01*
X108253390Y-83706134D01*
X108280839Y-83728661D01*
X108303366Y-83756110D01*
X108320107Y-83787431D01*
X108330415Y-83821409D01*
X108334500Y-83862890D01*
X108334500Y-84539110D01*
X108330415Y-84580591D01*
X108320107Y-84614569D01*
X108303366Y-84645890D01*
X108280839Y-84673339D01*
X108253390Y-84695866D01*
X108222069Y-84712607D01*
X108188091Y-84722915D01*
X108146610Y-84727000D01*
X107545390Y-84727000D01*
X107503909Y-84722915D01*
X107469931Y-84712607D01*
X107438610Y-84695866D01*
X107411161Y-84673339D01*
X107388634Y-84645890D01*
X107371893Y-84614569D01*
X107361585Y-84580591D01*
X107357500Y-84539110D01*
X107357500Y-83862890D01*
X107361585Y-83821409D01*
X107371893Y-83787431D01*
X107388634Y-83756110D01*
X107411161Y-83728661D01*
X107438610Y-83706134D01*
X107469931Y-83689393D01*
X107503909Y-83679085D01*
X107545390Y-83675000D01*
X108146610Y-83675000D01*
X108188091Y-83679085D01*
G37*
G36*
X136883000Y-84591000D02*
G01*
X135881000Y-84591000D01*
X135881000Y-83689000D01*
X136883000Y-83689000D01*
X136883000Y-84591000D01*
G37*
G36*
X140397000Y-84547000D02*
G01*
X138495000Y-84547000D01*
X138495000Y-80045000D01*
X140397000Y-80045000D01*
X140397000Y-84547000D01*
G37*
G36*
X145432424Y-80258760D02*
G01*
X145432427Y-80258761D01*
X145432428Y-80258761D01*
X145611692Y-80313140D01*
X145611695Y-80313142D01*
X145611696Y-80313142D01*
X145776903Y-80401446D01*
X145921712Y-80520288D01*
X146040554Y-80665097D01*
X146099298Y-80775000D01*
X146128860Y-80830307D01*
X146169247Y-80963446D01*
X146183240Y-81009575D01*
X146197000Y-81149282D01*
X146197000Y-83442718D01*
X146183240Y-83582425D01*
X146183239Y-83582428D01*
X146183239Y-83582429D01*
X146128860Y-83761693D01*
X146128858Y-83761696D01*
X146128858Y-83761697D01*
X146040554Y-83926903D01*
X145921712Y-84071712D01*
X145776903Y-84190554D01*
X145660824Y-84252599D01*
X145611693Y-84278860D01*
X145432429Y-84333239D01*
X145432428Y-84333239D01*
X145432425Y-84333240D01*
X145246000Y-84351601D01*
X145059576Y-84333240D01*
X145059573Y-84333239D01*
X145059572Y-84333239D01*
X144880308Y-84278860D01*
X144831177Y-84252599D01*
X144715098Y-84190554D01*
X144570289Y-84071712D01*
X144451447Y-83926903D01*
X144363143Y-83761697D01*
X144363143Y-83761696D01*
X144363141Y-83761693D01*
X144308762Y-83582429D01*
X144308762Y-83582428D01*
X144308761Y-83582425D01*
X144295001Y-83442718D01*
X144295000Y-81149283D01*
X144308760Y-81009576D01*
X144308761Y-81009572D01*
X144363140Y-80830308D01*
X144367770Y-80821645D01*
X144451446Y-80665097D01*
X144570288Y-80520288D01*
X144715097Y-80401446D01*
X144880303Y-80313142D01*
X144880304Y-80313142D01*
X144880307Y-80313140D01*
X145059571Y-80258761D01*
X145059572Y-80258761D01*
X145059575Y-80258760D01*
X145246000Y-80240399D01*
X145432424Y-80258760D01*
G37*
G36*
X104845000Y-84194000D02*
G01*
X103943000Y-84194000D01*
X103943000Y-83192000D01*
X104845000Y-83192000D01*
X104845000Y-84194000D01*
G37*
G36*
X102945000Y-84194000D02*
G01*
X102043000Y-84194000D01*
X102043000Y-83192000D01*
X102945000Y-83192000D01*
X102945000Y-84194000D01*
G37*
G36*
X103895000Y-82194000D02*
G01*
X102993000Y-82194000D01*
X102993000Y-81192000D01*
X103895000Y-81192000D01*
X103895000Y-82194000D01*
G37*
G36*
X124679855Y-80778140D02*
G01*
X124743618Y-80784420D01*
X124834404Y-80811960D01*
X124866336Y-80821646D01*
X124979425Y-80882094D01*
X125078554Y-80963446D01*
X125159906Y-81062575D01*
X125220354Y-81175664D01*
X125220355Y-81175668D01*
X125257580Y-81298382D01*
X125270149Y-81426000D01*
X125257580Y-81553618D01*
X125230040Y-81644404D01*
X125220354Y-81676336D01*
X125159906Y-81789425D01*
X125078554Y-81888554D01*
X124979425Y-81969906D01*
X124866336Y-82030354D01*
X124834404Y-82040040D01*
X124743618Y-82067580D01*
X124679855Y-82073860D01*
X124647974Y-82077000D01*
X123384026Y-82077000D01*
X123352145Y-82073860D01*
X123288382Y-82067580D01*
X123197596Y-82040040D01*
X123165664Y-82030354D01*
X123052575Y-81969906D01*
X122953446Y-81888554D01*
X122872094Y-81789425D01*
X122811646Y-81676336D01*
X122801960Y-81644404D01*
X122774420Y-81553618D01*
X122761851Y-81426000D01*
X122774420Y-81298382D01*
X122811645Y-81175668D01*
X122811646Y-81175664D01*
X122872094Y-81062575D01*
X122953446Y-80963446D01*
X123052575Y-80882094D01*
X123165664Y-80821646D01*
X123197596Y-80811960D01*
X123288382Y-80784420D01*
X123352145Y-80778140D01*
X123384026Y-80775000D01*
X124647974Y-80775000D01*
X124679855Y-80778140D01*
G37*
G36*
X110201855Y-80778140D02*
G01*
X110265618Y-80784420D01*
X110356404Y-80811960D01*
X110388336Y-80821646D01*
X110501425Y-80882094D01*
X110600554Y-80963446D01*
X110681906Y-81062575D01*
X110742354Y-81175664D01*
X110742355Y-81175668D01*
X110779580Y-81298382D01*
X110792149Y-81426000D01*
X110779580Y-81553618D01*
X110752040Y-81644404D01*
X110742354Y-81676336D01*
X110681906Y-81789425D01*
X110600554Y-81888554D01*
X110501425Y-81969906D01*
X110388336Y-82030354D01*
X110356404Y-82040040D01*
X110265618Y-82067580D01*
X110201855Y-82073860D01*
X110169974Y-82077000D01*
X108906026Y-82077000D01*
X108874145Y-82073860D01*
X108810382Y-82067580D01*
X108719596Y-82040040D01*
X108687664Y-82030354D01*
X108574575Y-81969906D01*
X108475446Y-81888554D01*
X108394094Y-81789425D01*
X108333646Y-81676336D01*
X108323960Y-81644404D01*
X108296420Y-81553618D01*
X108283851Y-81426000D01*
X108296420Y-81298382D01*
X108333645Y-81175668D01*
X108333646Y-81175664D01*
X108394094Y-81062575D01*
X108475446Y-80963446D01*
X108574575Y-80882094D01*
X108687664Y-80821646D01*
X108719596Y-80811960D01*
X108810382Y-80784420D01*
X108874145Y-80778140D01*
X108906026Y-80775000D01*
X110169974Y-80775000D01*
X110201855Y-80778140D01*
G37*
G36*
X118715617Y-76984420D02*
G01*
X118806403Y-77011960D01*
X118838335Y-77021646D01*
X118951424Y-77082094D01*
X119050554Y-77163447D01*
X119131906Y-77262575D01*
X119192354Y-77375664D01*
X119202040Y-77407596D01*
X119229580Y-77498382D01*
X119239000Y-77594027D01*
X119239000Y-78857973D01*
X119229580Y-78953618D01*
X119202040Y-79044404D01*
X119192354Y-79076336D01*
X119131906Y-79189425D01*
X119050554Y-79288554D01*
X118951425Y-79369906D01*
X118838336Y-79430354D01*
X118806404Y-79440040D01*
X118715618Y-79467580D01*
X118588000Y-79480149D01*
X118460383Y-79467580D01*
X118369597Y-79440040D01*
X118337665Y-79430354D01*
X118224576Y-79369906D01*
X118125447Y-79288554D01*
X118044095Y-79189425D01*
X117983647Y-79076336D01*
X117973961Y-79044404D01*
X117946421Y-78953618D01*
X117937001Y-78857973D01*
X117937000Y-77594028D01*
X117946420Y-77498383D01*
X117983645Y-77375669D01*
X117983646Y-77375665D01*
X118044094Y-77262576D01*
X118125447Y-77163446D01*
X118224575Y-77082094D01*
X118337664Y-77021646D01*
X118369596Y-77011960D01*
X118460382Y-76984420D01*
X118588000Y-76971851D01*
X118715617Y-76984420D01*
G37*
G36*
X133193617Y-76984420D02*
G01*
X133284403Y-77011960D01*
X133316335Y-77021646D01*
X133429424Y-77082094D01*
X133528554Y-77163447D01*
X133609906Y-77262575D01*
X133670354Y-77375664D01*
X133680040Y-77407596D01*
X133707580Y-77498382D01*
X133717000Y-77594027D01*
X133717000Y-78857973D01*
X133707580Y-78953618D01*
X133680040Y-79044404D01*
X133670354Y-79076336D01*
X133609906Y-79189425D01*
X133528554Y-79288554D01*
X133429425Y-79369906D01*
X133316336Y-79430354D01*
X133284404Y-79440040D01*
X133193618Y-79467580D01*
X133066000Y-79480149D01*
X132938383Y-79467580D01*
X132847597Y-79440040D01*
X132815665Y-79430354D01*
X132702576Y-79369906D01*
X132603447Y-79288554D01*
X132522095Y-79189425D01*
X132461647Y-79076336D01*
X132451961Y-79044404D01*
X132424421Y-78953618D01*
X132415001Y-78857973D01*
X132415000Y-77594028D01*
X132424420Y-77498383D01*
X132461645Y-77375669D01*
X132461646Y-77375665D01*
X132522094Y-77262576D01*
X132603447Y-77163446D01*
X132702575Y-77082094D01*
X132815664Y-77021646D01*
X132847596Y-77011960D01*
X132938382Y-76984420D01*
X133066000Y-76971851D01*
X133193617Y-76984420D01*
G37*
G36*
X143732425Y-76558760D02*
G01*
X143732428Y-76558761D01*
X143732429Y-76558761D01*
X143911693Y-76613140D01*
X143911696Y-76613142D01*
X143911697Y-76613142D01*
X144076903Y-76701446D01*
X144221712Y-76820288D01*
X144340554Y-76965097D01*
X144403090Y-77082095D01*
X144428860Y-77130307D01*
X144468983Y-77262575D01*
X144483240Y-77309575D01*
X144501601Y-77496000D01*
X144483240Y-77682425D01*
X144483239Y-77682428D01*
X144483239Y-77682429D01*
X144428860Y-77861693D01*
X144428858Y-77861696D01*
X144428858Y-77861697D01*
X144340554Y-78026903D01*
X144221712Y-78171712D01*
X144076903Y-78290554D01*
X143911697Y-78378858D01*
X143911693Y-78378860D01*
X143732429Y-78433239D01*
X143732428Y-78433239D01*
X143732425Y-78433240D01*
X143592718Y-78447000D01*
X141299282Y-78447000D01*
X141159575Y-78433240D01*
X141159572Y-78433239D01*
X141159571Y-78433239D01*
X140980307Y-78378860D01*
X140980303Y-78378858D01*
X140815097Y-78290554D01*
X140670288Y-78171712D01*
X140551446Y-78026903D01*
X140463142Y-77861697D01*
X140463142Y-77861696D01*
X140463140Y-77861693D01*
X140408761Y-77682429D01*
X140408761Y-77682428D01*
X140408760Y-77682425D01*
X140390399Y-77496000D01*
X140408760Y-77309575D01*
X140423017Y-77262575D01*
X140463140Y-77130307D01*
X140488910Y-77082095D01*
X140551446Y-76965097D01*
X140670288Y-76820288D01*
X140815097Y-76701446D01*
X140980303Y-76613142D01*
X140980304Y-76613142D01*
X140980307Y-76613140D01*
X141159571Y-76558761D01*
X141159572Y-76558761D01*
X141159575Y-76558760D01*
X141299282Y-76545000D01*
X143592718Y-76545000D01*
X143732425Y-76558760D01*
G37*
G36*
X116315617Y-75584420D02*
G01*
X116406403Y-75611960D01*
X116438335Y-75621646D01*
X116551424Y-75682094D01*
X116650554Y-75763447D01*
X116731906Y-75862575D01*
X116792354Y-75975664D01*
X116802040Y-76007596D01*
X116829580Y-76098382D01*
X116839000Y-76194027D01*
X116839000Y-77457973D01*
X116829580Y-77553618D01*
X116802040Y-77644404D01*
X116792354Y-77676336D01*
X116731906Y-77789425D01*
X116650554Y-77888554D01*
X116551425Y-77969906D01*
X116438336Y-78030354D01*
X116406404Y-78040040D01*
X116315618Y-78067580D01*
X116188000Y-78080149D01*
X116060383Y-78067580D01*
X115969597Y-78040040D01*
X115937665Y-78030354D01*
X115824576Y-77969906D01*
X115725447Y-77888554D01*
X115644095Y-77789425D01*
X115583647Y-77676336D01*
X115573961Y-77644404D01*
X115546421Y-77553618D01*
X115537001Y-77457973D01*
X115537000Y-76194028D01*
X115546420Y-76098383D01*
X115583645Y-75975669D01*
X115583646Y-75975665D01*
X115644094Y-75862576D01*
X115725447Y-75763446D01*
X115824575Y-75682094D01*
X115937664Y-75621646D01*
X115969596Y-75611960D01*
X116060382Y-75584420D01*
X116188000Y-75571851D01*
X116315617Y-75584420D01*
G37*
G36*
X130793617Y-75584420D02*
G01*
X130884403Y-75611960D01*
X130916335Y-75621646D01*
X131029424Y-75682094D01*
X131128554Y-75763447D01*
X131209906Y-75862575D01*
X131270354Y-75975664D01*
X131280040Y-76007596D01*
X131307580Y-76098382D01*
X131317000Y-76194027D01*
X131317000Y-77457973D01*
X131307580Y-77553618D01*
X131280040Y-77644404D01*
X131270354Y-77676336D01*
X131209906Y-77789425D01*
X131128554Y-77888554D01*
X131029425Y-77969906D01*
X130916336Y-78030354D01*
X130884404Y-78040040D01*
X130793618Y-78067580D01*
X130666000Y-78080149D01*
X130538383Y-78067580D01*
X130447597Y-78040040D01*
X130415665Y-78030354D01*
X130302576Y-77969906D01*
X130203447Y-77888554D01*
X130122095Y-77789425D01*
X130061647Y-77676336D01*
X130051961Y-77644404D01*
X130024421Y-77553618D01*
X130015001Y-77457973D01*
X130015000Y-76194028D01*
X130024420Y-76098383D01*
X130061645Y-75975669D01*
X130061646Y-75975665D01*
X130122094Y-75862576D01*
X130203447Y-75763446D01*
X130302575Y-75682094D01*
X130415664Y-75621646D01*
X130447596Y-75611960D01*
X130538382Y-75584420D01*
X130666000Y-75571851D01*
X130793617Y-75584420D01*
G37*
G36*
X103289943Y-70866248D02*
G01*
X103845189Y-71096238D01*
X103845190Y-71096239D01*
X104344899Y-71430134D01*
X104769866Y-71855101D01*
X104905319Y-72057821D01*
X105103762Y-72354811D01*
X105333752Y-72910057D01*
X105451000Y-73499501D01*
X105451000Y-74100499D01*
X105333752Y-74689943D01*
X105103762Y-75245189D01*
X105103761Y-75245190D01*
X104769866Y-75744899D01*
X104344899Y-76169866D01*
X104308738Y-76194028D01*
X103845189Y-76503762D01*
X103289943Y-76733752D01*
X102700499Y-76851000D01*
X102099501Y-76851000D01*
X101510057Y-76733752D01*
X100954811Y-76503762D01*
X100491262Y-76194028D01*
X100455101Y-76169866D01*
X100030134Y-75744899D01*
X99696239Y-75245190D01*
X99696238Y-75245189D01*
X99466248Y-74689943D01*
X99349000Y-74100499D01*
X99349000Y-73499501D01*
X99466248Y-72910057D01*
X99696238Y-72354811D01*
X99894681Y-72057821D01*
X100030134Y-71855101D01*
X100455101Y-71430134D01*
X100954810Y-71096239D01*
X100954811Y-71096238D01*
X101510057Y-70866248D01*
X102099501Y-70749000D01*
X102700499Y-70749000D01*
X103289943Y-70866248D01*
G37*
G36*
X123593617Y-72484420D02*
G01*
X123672454Y-72508335D01*
X123716335Y-72521646D01*
X123829424Y-72582094D01*
X123928554Y-72663447D01*
X124009906Y-72762575D01*
X124070354Y-72875664D01*
X124071799Y-72880429D01*
X124107580Y-72998382D01*
X124117000Y-73094027D01*
X124117000Y-74357973D01*
X124107580Y-74453618D01*
X124080040Y-74544404D01*
X124070354Y-74576336D01*
X124009906Y-74689425D01*
X123928554Y-74788554D01*
X123829425Y-74869906D01*
X123716336Y-74930354D01*
X123684404Y-74940040D01*
X123593618Y-74967580D01*
X123466000Y-74980149D01*
X123338383Y-74967580D01*
X123247597Y-74940040D01*
X123215665Y-74930354D01*
X123102576Y-74869906D01*
X123003447Y-74788554D01*
X122922095Y-74689425D01*
X122861647Y-74576336D01*
X122851961Y-74544404D01*
X122824421Y-74453618D01*
X122815001Y-74357973D01*
X122815000Y-73094028D01*
X122824420Y-72998383D01*
X122861645Y-72875669D01*
X122861646Y-72875665D01*
X122922094Y-72762576D01*
X123003447Y-72663446D01*
X123102575Y-72582094D01*
X123215664Y-72521646D01*
X123259545Y-72508335D01*
X123338382Y-72484420D01*
X123466000Y-72471851D01*
X123593617Y-72484420D01*
G37*
G36*
X109115617Y-72484420D02*
G01*
X109194454Y-72508335D01*
X109238335Y-72521646D01*
X109351424Y-72582094D01*
X109450554Y-72663447D01*
X109531906Y-72762575D01*
X109592354Y-72875664D01*
X109593799Y-72880429D01*
X109629580Y-72998382D01*
X109639000Y-73094027D01*
X109639000Y-74357973D01*
X109629580Y-74453618D01*
X109602040Y-74544404D01*
X109592354Y-74576336D01*
X109531906Y-74689425D01*
X109450554Y-74788554D01*
X109351425Y-74869906D01*
X109238336Y-74930354D01*
X109206404Y-74940040D01*
X109115618Y-74967580D01*
X108988000Y-74980149D01*
X108860383Y-74967580D01*
X108769597Y-74940040D01*
X108737665Y-74930354D01*
X108624576Y-74869906D01*
X108525447Y-74788554D01*
X108444095Y-74689425D01*
X108383647Y-74576336D01*
X108373961Y-74544404D01*
X108346421Y-74453618D01*
X108337001Y-74357973D01*
X108337000Y-73094028D01*
X108346420Y-72998383D01*
X108383645Y-72875669D01*
X108383646Y-72875665D01*
X108444094Y-72762576D01*
X108525447Y-72663446D01*
X108624575Y-72582094D01*
X108737664Y-72521646D01*
X108781545Y-72508335D01*
X108860382Y-72484420D01*
X108988000Y-72471851D01*
X109115617Y-72484420D01*
G37*
G36*
X140220348Y-72057820D02*
G01*
X140220350Y-72057821D01*
X140220351Y-72057821D01*
X140361574Y-72116317D01*
X140361577Y-72116319D01*
X140488669Y-72201239D01*
X140596761Y-72309331D01*
X140653375Y-72394060D01*
X140681683Y-72436426D01*
X140702517Y-72486725D01*
X140714068Y-72508336D01*
X140729614Y-72527278D01*
X140748556Y-72542823D01*
X140770166Y-72554374D01*
X140793615Y-72561487D01*
X140818001Y-72563889D01*
X140842387Y-72561487D01*
X140865836Y-72554374D01*
X140887447Y-72542823D01*
X140906389Y-72527277D01*
X140921934Y-72508335D01*
X140933485Y-72486725D01*
X140940598Y-72463276D01*
X140943000Y-72438890D01*
X140943000Y-72078000D01*
X144045000Y-72078000D01*
X144045000Y-72438890D01*
X144047402Y-72463276D01*
X144054515Y-72486725D01*
X144066066Y-72508336D01*
X144081611Y-72527278D01*
X144100553Y-72542823D01*
X144122164Y-72554374D01*
X144145613Y-72561487D01*
X144169999Y-72563889D01*
X144194385Y-72561487D01*
X144217834Y-72554374D01*
X144239445Y-72542823D01*
X144258387Y-72527278D01*
X144273932Y-72508336D01*
X144285483Y-72486725D01*
X144306317Y-72436426D01*
X144334625Y-72394060D01*
X144391239Y-72309331D01*
X144499331Y-72201239D01*
X144626423Y-72116319D01*
X144626426Y-72116317D01*
X144767649Y-72057821D01*
X144767650Y-72057821D01*
X144767652Y-72057820D01*
X144917569Y-72028000D01*
X145070431Y-72028000D01*
X145220348Y-72057820D01*
X145220350Y-72057821D01*
X145220351Y-72057821D01*
X145361574Y-72116317D01*
X145361577Y-72116319D01*
X145488669Y-72201239D01*
X145596761Y-72309331D01*
X145681681Y-72436423D01*
X145681683Y-72436426D01*
X145734479Y-72563889D01*
X145740180Y-72577652D01*
X145770000Y-72727569D01*
X145770000Y-72880431D01*
X145746538Y-72998385D01*
X145740179Y-73030351D01*
X145681683Y-73171574D01*
X145681682Y-73171575D01*
X145681681Y-73171577D01*
X145596761Y-73298669D01*
X145488669Y-73406761D01*
X145361577Y-73491681D01*
X145361574Y-73491683D01*
X145220351Y-73550179D01*
X145220350Y-73550179D01*
X145220348Y-73550180D01*
X145070431Y-73580000D01*
X144917569Y-73580000D01*
X144767652Y-73550180D01*
X144767650Y-73550179D01*
X144767649Y-73550179D01*
X144626426Y-73491683D01*
X144626423Y-73491681D01*
X144499331Y-73406761D01*
X144391239Y-73298669D01*
X144306318Y-73171575D01*
X144306317Y-73171574D01*
X144285481Y-73121272D01*
X144273932Y-73099664D01*
X144258386Y-73080722D01*
X144239444Y-73065177D01*
X144217834Y-73053626D01*
X144194385Y-73046513D01*
X144169999Y-73044111D01*
X144145613Y-73046513D01*
X144122164Y-73053626D01*
X144100553Y-73065177D01*
X144081611Y-73080723D01*
X144066066Y-73099665D01*
X144054515Y-73121275D01*
X144047402Y-73144724D01*
X144045000Y-73169110D01*
X144045000Y-73530000D01*
X140943000Y-73530000D01*
X140943000Y-73169110D01*
X140940598Y-73144724D01*
X140933485Y-73121275D01*
X140921934Y-73099664D01*
X140906389Y-73080722D01*
X140887447Y-73065177D01*
X140865836Y-73053626D01*
X140842387Y-73046513D01*
X140818001Y-73044111D01*
X140793615Y-73046513D01*
X140770166Y-73053626D01*
X140748555Y-73065177D01*
X140729613Y-73080722D01*
X140714068Y-73099664D01*
X140702519Y-73121272D01*
X140681683Y-73171574D01*
X140681682Y-73171575D01*
X140596761Y-73298669D01*
X140488669Y-73406761D01*
X140361577Y-73491681D01*
X140361574Y-73491683D01*
X140220351Y-73550179D01*
X140220350Y-73550179D01*
X140220348Y-73550180D01*
X140070431Y-73580000D01*
X139917569Y-73580000D01*
X139767652Y-73550180D01*
X139767650Y-73550179D01*
X139767649Y-73550179D01*
X139626426Y-73491683D01*
X139626423Y-73491681D01*
X139499331Y-73406761D01*
X139391239Y-73298669D01*
X139306319Y-73171577D01*
X139306318Y-73171575D01*
X139306317Y-73171574D01*
X139247821Y-73030351D01*
X139241463Y-72998385D01*
X139218000Y-72880431D01*
X139218000Y-72727569D01*
X139247820Y-72577652D01*
X139253521Y-72563889D01*
X139306317Y-72436426D01*
X139306319Y-72436423D01*
X139391239Y-72309331D01*
X139499331Y-72201239D01*
X139626423Y-72116319D01*
X139626426Y-72116317D01*
X139767649Y-72057821D01*
X139767650Y-72057821D01*
X139767652Y-72057820D01*
X139917569Y-72028000D01*
X140070431Y-72028000D01*
X140220348Y-72057820D01*
G37*
G36*
X139019862Y-69102398D02*
G01*
X139032114Y-69103000D01*
X140245000Y-69103000D01*
X140245000Y-71105000D01*
X139032114Y-71105000D01*
X139019862Y-71105602D01*
X138994000Y-71108149D01*
X138968138Y-71105602D01*
X138955886Y-71105000D01*
X138882594Y-71105000D01*
X138865836Y-71096043D01*
X138854299Y-71091915D01*
X138769307Y-71066132D01*
X138743664Y-71058354D01*
X138630575Y-70997906D01*
X138531447Y-70916554D01*
X138450094Y-70817424D01*
X138389646Y-70704335D01*
X138379960Y-70672403D01*
X138352420Y-70581617D01*
X138343000Y-70485972D01*
X138343000Y-69722027D01*
X138352420Y-69626382D01*
X138389645Y-69503668D01*
X138450096Y-69390574D01*
X138531447Y-69291446D01*
X138630576Y-69210094D01*
X138743666Y-69149646D01*
X138743669Y-69149645D01*
X138854290Y-69116088D01*
X138876925Y-69106712D01*
X138882481Y-69103000D01*
X138955886Y-69103000D01*
X138968138Y-69102398D01*
X138994000Y-69099851D01*
X139019862Y-69102398D01*
G37*
G36*
X146019862Y-69102398D02*
G01*
X146032114Y-69103000D01*
X146105406Y-69103000D01*
X146122164Y-69111957D01*
X146133707Y-69116087D01*
X146244331Y-69149645D01*
X146244334Y-69149646D01*
X146357424Y-69210094D01*
X146456554Y-69291447D01*
X146537906Y-69390575D01*
X146598354Y-69503664D01*
X146608040Y-69535596D01*
X146635580Y-69626382D01*
X146645000Y-69722027D01*
X146645000Y-70485973D01*
X146635580Y-70581618D01*
X146608040Y-70672404D01*
X146598354Y-70704336D01*
X146537906Y-70817425D01*
X146456554Y-70916554D01*
X146357425Y-70997906D01*
X146244336Y-71058354D01*
X146218693Y-71066132D01*
X146133708Y-71091913D01*
X146111075Y-71101287D01*
X146105518Y-71105000D01*
X146032114Y-71105000D01*
X146019862Y-71105602D01*
X145994000Y-71108149D01*
X145968138Y-71105602D01*
X145955886Y-71105000D01*
X144743000Y-71105000D01*
X144743000Y-69103000D01*
X145955886Y-69103000D01*
X145968138Y-69102398D01*
X145994000Y-69099851D01*
X146019862Y-69102398D01*
G37*
G36*
X144295000Y-71105000D02*
G01*
X142693000Y-71105000D01*
X142693000Y-69103000D01*
X144295000Y-69103000D01*
X144295000Y-71105000D01*
G37*
G36*
X142295000Y-71105000D02*
G01*
X140693000Y-71105000D01*
X140693000Y-69103000D01*
X142295000Y-69103000D01*
X142295000Y-71105000D01*
G37*
G36*
X128679855Y-69778140D02*
G01*
X128743618Y-69784420D01*
X128834404Y-69811960D01*
X128866336Y-69821646D01*
X128979425Y-69882094D01*
X129078554Y-69963446D01*
X129159906Y-70062575D01*
X129220354Y-70175664D01*
X129220355Y-70175668D01*
X129257580Y-70298382D01*
X129270149Y-70426000D01*
X129257580Y-70553618D01*
X129249086Y-70581618D01*
X129220354Y-70676336D01*
X129159906Y-70789425D01*
X129078554Y-70888554D01*
X128979425Y-70969906D01*
X128866336Y-71030354D01*
X128834404Y-71040040D01*
X128743618Y-71067580D01*
X128679855Y-71073860D01*
X128647974Y-71077000D01*
X127384026Y-71077000D01*
X127352145Y-71073860D01*
X127288382Y-71067580D01*
X127197596Y-71040040D01*
X127165664Y-71030354D01*
X127052575Y-70969906D01*
X126953446Y-70888554D01*
X126872094Y-70789425D01*
X126811646Y-70676336D01*
X126782914Y-70581618D01*
X126774420Y-70553618D01*
X126761851Y-70426000D01*
X126774420Y-70298382D01*
X126811645Y-70175668D01*
X126811646Y-70175664D01*
X126872094Y-70062575D01*
X126953446Y-69963446D01*
X127052575Y-69882094D01*
X127165664Y-69821646D01*
X127197596Y-69811960D01*
X127288382Y-69784420D01*
X127352145Y-69778140D01*
X127384026Y-69775000D01*
X128647974Y-69775000D01*
X128679855Y-69778140D01*
G37*
G36*
X114201855Y-69778140D02*
G01*
X114265618Y-69784420D01*
X114356404Y-69811960D01*
X114388336Y-69821646D01*
X114501425Y-69882094D01*
X114600554Y-69963446D01*
X114681906Y-70062575D01*
X114742354Y-70175664D01*
X114742355Y-70175668D01*
X114779580Y-70298382D01*
X114792149Y-70426000D01*
X114779580Y-70553618D01*
X114771086Y-70581618D01*
X114742354Y-70676336D01*
X114681906Y-70789425D01*
X114600554Y-70888554D01*
X114501425Y-70969906D01*
X114388336Y-71030354D01*
X114356404Y-71040040D01*
X114265618Y-71067580D01*
X114201855Y-71073860D01*
X114169974Y-71077000D01*
X112906026Y-71077000D01*
X112874145Y-71073860D01*
X112810382Y-71067580D01*
X112719596Y-71040040D01*
X112687664Y-71030354D01*
X112574575Y-70969906D01*
X112475446Y-70888554D01*
X112394094Y-70789425D01*
X112333646Y-70676336D01*
X112304914Y-70581618D01*
X112296420Y-70553618D01*
X112283851Y-70426000D01*
X112296420Y-70298382D01*
X112333645Y-70175668D01*
X112333646Y-70175664D01*
X112394094Y-70062575D01*
X112475446Y-69963446D01*
X112574575Y-69882094D01*
X112687664Y-69821646D01*
X112719596Y-69811960D01*
X112810382Y-69784420D01*
X112874145Y-69778140D01*
X112906026Y-69775000D01*
X114169974Y-69775000D01*
X114201855Y-69778140D01*
G37*
M02*
