M48
; DRILL file {KiCad (5.1.5)-3} date 21/09/2020 09:38:40
; FORMAT={-:-/ absolute / metric / decimal}
; #@! TF.CreationDate,2020-09-21T09:38:40+01:00
; #@! TF.GenerationSoftware,Kicad,Pcbnew,(5.1.5)-3
; #@! TF.FileFunction,Plated,1,2,PTH
FMAT,2
METRIC
T1C0.200
T2C0.400
T3C0.600
T4C0.800
T5C0.850
T6C1.000
T7C3.000
%
G90
G05
T1
X111.0Y-96.8
X111.2Y-93.2
X115.6Y-102.3
X115.6Y-103.7
X116.4Y-101.2
X120.1Y-101.0
X120.5Y-93.9
X120.9Y-104.4
X122.1Y-101.9
X122.5Y-95.9
X122.7Y-90.2
X123.4Y-97.1
X123.4Y-101.5
X124.0Y-91.2
X124.3Y-85.4
X125.4Y-101.9
X126.4Y-91.5
X126.6Y-104.7
X128.9Y-90.8
X129.0Y-84.4
X129.4Y-88.0
X132.7Y-89.4
X133.0Y-100.1
X137.6Y-89.6
X141.7Y-96.5
X144.8Y-96.7
X145.8Y-95.8
T2
X99.123Y-106.807
X141.224Y-87.122
T5
X139.994Y-72.804
X144.994Y-72.804
T6
X148.59Y-89.408
X148.59Y-91.948
X148.59Y-94.488
X148.59Y-97.028
X148.59Y-99.568
X148.59Y-102.108
X148.59Y-104.648
X120.65Y-111.506
X123.19Y-111.506
X125.73Y-111.506
X132.334Y-111.252
X134.874Y-111.252
X137.414Y-111.252
X108.458Y-111.506
X110.998Y-111.506
X113.538Y-111.506
T7
X102.4Y-73.8
X144.4Y-110.4
T3
G00X138.994Y-70.454
M15
G01X138.994Y-69.754
M16
G05
G00X145.994Y-69.754
M15
G01X145.994Y-70.454
M16
G05
T4
G00X123.466Y-73.376
M15
G01X123.466Y-74.076
M16
G05
G00X123.666Y-81.426
M15
G01X124.366Y-81.426
M16
G05
G00X127.666Y-70.426
M15
G01X128.366Y-70.426
M16
G05
G00X130.666Y-76.476
M15
G01X130.666Y-77.176
M16
G05
G00X133.066Y-77.876
M15
G01X133.066Y-78.576
M16
G05
G00X139.446Y-83.596
M15
G01X139.446Y-80.996
M16
G05
G00X143.546Y-77.496
M15
G01X141.346Y-77.496
M16
G05
G00X145.246Y-83.396
M15
G01X145.246Y-81.196
M16
G05
G00X108.988Y-73.376
M15
G01X108.988Y-74.076
M16
G05
G00X109.188Y-81.426
M15
G01X109.888Y-81.426
M16
G05
G00X113.188Y-70.426
M15
G01X113.888Y-70.426
M16
G05
G00X116.188Y-76.476
M15
G01X116.188Y-77.176
M16
G05
G00X118.588Y-77.876
M15
G01X118.588Y-78.576
M16
G05
T0
M30
