G04 #@! TF.GenerationSoftware,KiCad,Pcbnew,(5.1.5)-3*
G04 #@! TF.CreationDate,2020-09-20T15:24:45+01:00*
G04 #@! TF.ProjectId,Alexa_kicad_PCB,416c6578-615f-46b6-9963-61645f504342,rev?*
G04 #@! TF.SameCoordinates,Original*
G04 #@! TF.FileFunction,Legend,Top*
G04 #@! TF.FilePolarity,Positive*
%FSLAX46Y46*%
G04 Gerber Fmt 4.6, Leading zero omitted, Abs format (unit mm)*
G04 Created by KiCad (PCBNEW (5.1.5)-3) date 2020-09-20 15:24:45*
%MOMM*%
%LPD*%
G04 APERTURE LIST*
%ADD10C,0.120000*%
%ADD11C,0.200000*%
%ADD12C,0.300000*%
%ADD13C,0.203200*%
%ADD14C,0.150000*%
%ADD15C,0.015000*%
G04 APERTURE END LIST*
D10*
X110490000Y-86106000D02*
G75*
G03X110490000Y-86106000I-254000J0D01*
G01*
X119200000Y-88300000D02*
G75*
G03X119200000Y-88300000I-359210J0D01*
G01*
D11*
X144303904Y-104100380D02*
X144922952Y-104100380D01*
X144589619Y-104481333D01*
X144732476Y-104481333D01*
X144827714Y-104528952D01*
X144875333Y-104576571D01*
X144922952Y-104671809D01*
X144922952Y-104909904D01*
X144875333Y-105005142D01*
X144827714Y-105052761D01*
X144732476Y-105100380D01*
X144446761Y-105100380D01*
X144351523Y-105052761D01*
X144303904Y-105005142D01*
X145208666Y-104100380D02*
X145542000Y-105100380D01*
X145875333Y-104100380D01*
X146113428Y-104100380D02*
X146732476Y-104100380D01*
X146399142Y-104481333D01*
X146542000Y-104481333D01*
X146637238Y-104528952D01*
X146684857Y-104576571D01*
X146732476Y-104671809D01*
X146732476Y-104909904D01*
X146684857Y-105005142D01*
X146637238Y-105052761D01*
X146542000Y-105100380D01*
X146256285Y-105100380D01*
X146161047Y-105052761D01*
X146113428Y-105005142D01*
X144780095Y-101608000D02*
X144684857Y-101560380D01*
X144542000Y-101560380D01*
X144399142Y-101608000D01*
X144303904Y-101703238D01*
X144256285Y-101798476D01*
X144208666Y-101988952D01*
X144208666Y-102131809D01*
X144256285Y-102322285D01*
X144303904Y-102417523D01*
X144399142Y-102512761D01*
X144542000Y-102560380D01*
X144637238Y-102560380D01*
X144780095Y-102512761D01*
X144827714Y-102465142D01*
X144827714Y-102131809D01*
X144637238Y-102131809D01*
X145256285Y-102560380D02*
X145256285Y-101560380D01*
X145827714Y-102560380D01*
X145827714Y-101560380D01*
X146303904Y-102560380D02*
X146303904Y-101560380D01*
X146542000Y-101560380D01*
X146684857Y-101608000D01*
X146780095Y-101703238D01*
X146827714Y-101798476D01*
X146875333Y-101988952D01*
X146875333Y-102131809D01*
X146827714Y-102322285D01*
X146780095Y-102417523D01*
X146684857Y-102512761D01*
X146542000Y-102560380D01*
X146303904Y-102560380D01*
X144661047Y-99496571D02*
X144803904Y-99544190D01*
X144851523Y-99591809D01*
X144899142Y-99687047D01*
X144899142Y-99829904D01*
X144851523Y-99925142D01*
X144803904Y-99972761D01*
X144708666Y-100020380D01*
X144327714Y-100020380D01*
X144327714Y-99020380D01*
X144661047Y-99020380D01*
X144756285Y-99068000D01*
X144803904Y-99115619D01*
X144851523Y-99210857D01*
X144851523Y-99306095D01*
X144803904Y-99401333D01*
X144756285Y-99448952D01*
X144661047Y-99496571D01*
X144327714Y-99496571D01*
X145851523Y-100020380D02*
X145280095Y-100020380D01*
X145565809Y-100020380D02*
X145565809Y-99020380D01*
X145470571Y-99163238D01*
X145375333Y-99258476D01*
X145280095Y-99306095D01*
X146232476Y-99115619D02*
X146280095Y-99068000D01*
X146375333Y-99020380D01*
X146613428Y-99020380D01*
X146708666Y-99068000D01*
X146756285Y-99115619D01*
X146803904Y-99210857D01*
X146803904Y-99306095D01*
X146756285Y-99448952D01*
X146184857Y-100020380D01*
X146803904Y-100020380D01*
X144661047Y-96956571D02*
X144803904Y-97004190D01*
X144851523Y-97051809D01*
X144899142Y-97147047D01*
X144899142Y-97289904D01*
X144851523Y-97385142D01*
X144803904Y-97432761D01*
X144708666Y-97480380D01*
X144327714Y-97480380D01*
X144327714Y-96480380D01*
X144661047Y-96480380D01*
X144756285Y-96528000D01*
X144803904Y-96575619D01*
X144851523Y-96670857D01*
X144851523Y-96766095D01*
X144803904Y-96861333D01*
X144756285Y-96908952D01*
X144661047Y-96956571D01*
X144327714Y-96956571D01*
X145851523Y-97480380D02*
X145280095Y-97480380D01*
X145565809Y-97480380D02*
X145565809Y-96480380D01*
X145470571Y-96623238D01*
X145375333Y-96718476D01*
X145280095Y-96766095D01*
X146184857Y-96480380D02*
X146803904Y-96480380D01*
X146470571Y-96861333D01*
X146613428Y-96861333D01*
X146708666Y-96908952D01*
X146756285Y-96956571D01*
X146803904Y-97051809D01*
X146803904Y-97289904D01*
X146756285Y-97385142D01*
X146708666Y-97432761D01*
X146613428Y-97480380D01*
X146327714Y-97480380D01*
X146232476Y-97432761D01*
X146184857Y-97385142D01*
X144661047Y-94416571D02*
X144803904Y-94464190D01*
X144851523Y-94511809D01*
X144899142Y-94607047D01*
X144899142Y-94749904D01*
X144851523Y-94845142D01*
X144803904Y-94892761D01*
X144708666Y-94940380D01*
X144327714Y-94940380D01*
X144327714Y-93940380D01*
X144661047Y-93940380D01*
X144756285Y-93988000D01*
X144803904Y-94035619D01*
X144851523Y-94130857D01*
X144851523Y-94226095D01*
X144803904Y-94321333D01*
X144756285Y-94368952D01*
X144661047Y-94416571D01*
X144327714Y-94416571D01*
X145851523Y-94940380D02*
X145280095Y-94940380D01*
X145565809Y-94940380D02*
X145565809Y-93940380D01*
X145470571Y-94083238D01*
X145375333Y-94178476D01*
X145280095Y-94226095D01*
X146708666Y-94273714D02*
X146708666Y-94940380D01*
X146470571Y-93892761D02*
X146232476Y-94607047D01*
X146851523Y-94607047D01*
X144661047Y-91876571D02*
X144803904Y-91924190D01*
X144851523Y-91971809D01*
X144899142Y-92067047D01*
X144899142Y-92209904D01*
X144851523Y-92305142D01*
X144803904Y-92352761D01*
X144708666Y-92400380D01*
X144327714Y-92400380D01*
X144327714Y-91400380D01*
X144661047Y-91400380D01*
X144756285Y-91448000D01*
X144803904Y-91495619D01*
X144851523Y-91590857D01*
X144851523Y-91686095D01*
X144803904Y-91781333D01*
X144756285Y-91828952D01*
X144661047Y-91876571D01*
X144327714Y-91876571D01*
X145851523Y-92400380D02*
X145280095Y-92400380D01*
X145565809Y-92400380D02*
X145565809Y-91400380D01*
X145470571Y-91543238D01*
X145375333Y-91638476D01*
X145280095Y-91686095D01*
X146756285Y-91400380D02*
X146280095Y-91400380D01*
X146232476Y-91876571D01*
X146280095Y-91828952D01*
X146375333Y-91781333D01*
X146613428Y-91781333D01*
X146708666Y-91828952D01*
X146756285Y-91876571D01*
X146803904Y-91971809D01*
X146803904Y-92209904D01*
X146756285Y-92305142D01*
X146708666Y-92352761D01*
X146613428Y-92400380D01*
X146375333Y-92400380D01*
X146280095Y-92352761D01*
X146232476Y-92305142D01*
X145883333Y-89765142D02*
X145835714Y-89812761D01*
X145692857Y-89860380D01*
X145597619Y-89860380D01*
X145454761Y-89812761D01*
X145359523Y-89717523D01*
X145311904Y-89622285D01*
X145264285Y-89431809D01*
X145264285Y-89288952D01*
X145311904Y-89098476D01*
X145359523Y-89003238D01*
X145454761Y-88908000D01*
X145597619Y-88860380D01*
X145692857Y-88860380D01*
X145835714Y-88908000D01*
X145883333Y-88955619D01*
X146740476Y-88860380D02*
X146550000Y-88860380D01*
X146454761Y-88908000D01*
X146407142Y-88955619D01*
X146311904Y-89098476D01*
X146264285Y-89288952D01*
X146264285Y-89669904D01*
X146311904Y-89765142D01*
X146359523Y-89812761D01*
X146454761Y-89860380D01*
X146645238Y-89860380D01*
X146740476Y-89812761D01*
X146788095Y-89765142D01*
X146835714Y-89669904D01*
X146835714Y-89431809D01*
X146788095Y-89336571D01*
X146740476Y-89288952D01*
X146645238Y-89241333D01*
X146454761Y-89241333D01*
X146359523Y-89288952D01*
X146311904Y-89336571D01*
X146264285Y-89431809D01*
D12*
X132516857Y-108858857D02*
X133016857Y-108858857D01*
X133231142Y-109644571D02*
X132516857Y-109644571D01*
X132516857Y-108144571D01*
X133231142Y-108144571D01*
X134159714Y-108930285D02*
X134159714Y-109644571D01*
X133659714Y-108144571D02*
X134159714Y-108930285D01*
X134659714Y-108144571D01*
X135159714Y-108858857D02*
X135659714Y-108858857D01*
X135874000Y-109644571D02*
X135159714Y-109644571D01*
X135159714Y-108144571D01*
X135874000Y-108144571D01*
X136445428Y-109573142D02*
X136659714Y-109644571D01*
X137016857Y-109644571D01*
X137159714Y-109573142D01*
X137231142Y-109501714D01*
X137302571Y-109358857D01*
X137302571Y-109216000D01*
X137231142Y-109073142D01*
X137159714Y-109001714D01*
X137016857Y-108930285D01*
X136731142Y-108858857D01*
X136588285Y-108787428D01*
X136516857Y-108716000D01*
X136445428Y-108573142D01*
X136445428Y-108430285D01*
X136516857Y-108287428D01*
X136588285Y-108216000D01*
X136731142Y-108144571D01*
X137088285Y-108144571D01*
X137302571Y-108216000D01*
X120519357Y-109771571D02*
X120519357Y-108271571D01*
X121376500Y-109771571D01*
X121376500Y-108271571D01*
X122090785Y-108985857D02*
X122590785Y-108985857D01*
X122805071Y-109771571D02*
X122090785Y-109771571D01*
X122090785Y-108271571D01*
X122805071Y-108271571D01*
X124305071Y-109628714D02*
X124233642Y-109700142D01*
X124019357Y-109771571D01*
X123876500Y-109771571D01*
X123662214Y-109700142D01*
X123519357Y-109557285D01*
X123447928Y-109414428D01*
X123376500Y-109128714D01*
X123376500Y-108914428D01*
X123447928Y-108628714D01*
X123519357Y-108485857D01*
X123662214Y-108343000D01*
X123876500Y-108271571D01*
X124019357Y-108271571D01*
X124233642Y-108343000D01*
X124305071Y-108414428D01*
X124947928Y-109771571D02*
X124947928Y-108271571D01*
X125805071Y-109771571D02*
X125162214Y-108914428D01*
X125805071Y-108271571D02*
X124947928Y-109128714D01*
X107251928Y-109898571D02*
X107251928Y-108398571D01*
X107751928Y-109470000D01*
X108251928Y-108398571D01*
X108251928Y-109898571D01*
X109251928Y-108398571D02*
X109537642Y-108398571D01*
X109680500Y-108470000D01*
X109823357Y-108612857D01*
X109894785Y-108898571D01*
X109894785Y-109398571D01*
X109823357Y-109684285D01*
X109680500Y-109827142D01*
X109537642Y-109898571D01*
X109251928Y-109898571D01*
X109109071Y-109827142D01*
X108966214Y-109684285D01*
X108894785Y-109398571D01*
X108894785Y-108898571D01*
X108966214Y-108612857D01*
X109109071Y-108470000D01*
X109251928Y-108398571D01*
X110537642Y-108398571D02*
X110537642Y-109612857D01*
X110609071Y-109755714D01*
X110680500Y-109827142D01*
X110823357Y-109898571D01*
X111109071Y-109898571D01*
X111251928Y-109827142D01*
X111323357Y-109755714D01*
X111394785Y-109612857D01*
X111394785Y-108398571D01*
X111894785Y-108398571D02*
X112751928Y-108398571D01*
X112323357Y-109898571D02*
X112323357Y-108398571D01*
X113251928Y-109898571D02*
X113251928Y-108398571D01*
X113251928Y-109112857D02*
X114109071Y-109112857D01*
X114109071Y-109898571D02*
X114109071Y-108398571D01*
D10*
X105024000Y-81933000D02*
X104094000Y-81933000D01*
X101864000Y-81933000D02*
X102794000Y-81933000D01*
X101864000Y-81933000D02*
X101864000Y-84093000D01*
X105024000Y-81933000D02*
X105024000Y-83393000D01*
X144646000Y-77696000D02*
X153146000Y-77696000D01*
X153146000Y-77696000D02*
X153146000Y-86896000D01*
X153146000Y-86896000D02*
X138446000Y-86896000D01*
X138446000Y-79796000D02*
X138446000Y-77696000D01*
X138446000Y-77696000D02*
X140246000Y-77696000D01*
X138146000Y-85496000D02*
X138146000Y-87196000D01*
X138146000Y-87196000D02*
X139746000Y-87196000D01*
X138446000Y-86896000D02*
X138446000Y-84796000D01*
X146394000Y-73104000D02*
X145944000Y-73104000D01*
X146394000Y-71254000D02*
X146394000Y-73104000D01*
X138594000Y-68704000D02*
X138594000Y-68954000D01*
X146394000Y-68704000D02*
X146394000Y-68954000D01*
X138594000Y-71254000D02*
X138594000Y-73104000D01*
X138594000Y-73104000D02*
X139044000Y-73104000D01*
X144194000Y-73654000D02*
X143744000Y-73654000D01*
X144194000Y-73654000D02*
X144194000Y-73204000D01*
X138744000Y-112692000D02*
X131004000Y-112692000D01*
X131004000Y-112692000D02*
X131004000Y-115352000D01*
X131004000Y-115352000D02*
X138744000Y-115352000D01*
X138744000Y-115352000D02*
X138744000Y-112692000D01*
X137794000Y-115352000D02*
X137794000Y-121352000D01*
X137794000Y-121352000D02*
X137034000Y-121352000D01*
X137034000Y-121352000D02*
X137034000Y-115352000D01*
X137734000Y-115352000D02*
X137734000Y-121352000D01*
X137614000Y-115352000D02*
X137614000Y-121352000D01*
X137494000Y-115352000D02*
X137494000Y-121352000D01*
X137374000Y-115352000D02*
X137374000Y-121352000D01*
X137254000Y-115352000D02*
X137254000Y-121352000D01*
X137134000Y-115352000D02*
X137134000Y-121352000D01*
X137794000Y-112362000D02*
X137794000Y-112692000D01*
X137034000Y-112362000D02*
X137034000Y-112692000D01*
X136144000Y-112692000D02*
X136144000Y-115352000D01*
X135254000Y-115352000D02*
X135254000Y-121352000D01*
X135254000Y-121352000D02*
X134494000Y-121352000D01*
X134494000Y-121352000D02*
X134494000Y-115352000D01*
X135254000Y-112294929D02*
X135254000Y-112692000D01*
X134494000Y-112294929D02*
X134494000Y-112692000D01*
X133604000Y-112692000D02*
X133604000Y-115352000D01*
X132714000Y-115352000D02*
X132714000Y-121352000D01*
X132714000Y-121352000D02*
X131954000Y-121352000D01*
X131954000Y-121352000D02*
X131954000Y-115352000D01*
X132714000Y-112294929D02*
X132714000Y-112692000D01*
X131954000Y-112294929D02*
X131954000Y-112692000D01*
X137414000Y-109982000D02*
X138684000Y-109982000D01*
X138684000Y-109982000D02*
X138684000Y-111252000D01*
X114868000Y-112946000D02*
X107128000Y-112946000D01*
X107128000Y-112946000D02*
X107128000Y-115606000D01*
X107128000Y-115606000D02*
X114868000Y-115606000D01*
X114868000Y-115606000D02*
X114868000Y-112946000D01*
X113918000Y-115606000D02*
X113918000Y-121606000D01*
X113918000Y-121606000D02*
X113158000Y-121606000D01*
X113158000Y-121606000D02*
X113158000Y-115606000D01*
X113858000Y-115606000D02*
X113858000Y-121606000D01*
X113738000Y-115606000D02*
X113738000Y-121606000D01*
X113618000Y-115606000D02*
X113618000Y-121606000D01*
X113498000Y-115606000D02*
X113498000Y-121606000D01*
X113378000Y-115606000D02*
X113378000Y-121606000D01*
X113258000Y-115606000D02*
X113258000Y-121606000D01*
X113918000Y-112616000D02*
X113918000Y-112946000D01*
X113158000Y-112616000D02*
X113158000Y-112946000D01*
X112268000Y-112946000D02*
X112268000Y-115606000D01*
X111378000Y-115606000D02*
X111378000Y-121606000D01*
X111378000Y-121606000D02*
X110618000Y-121606000D01*
X110618000Y-121606000D02*
X110618000Y-115606000D01*
X111378000Y-112548929D02*
X111378000Y-112946000D01*
X110618000Y-112548929D02*
X110618000Y-112946000D01*
X109728000Y-112946000D02*
X109728000Y-115606000D01*
X108838000Y-115606000D02*
X108838000Y-121606000D01*
X108838000Y-121606000D02*
X108078000Y-121606000D01*
X108078000Y-121606000D02*
X108078000Y-115606000D01*
X108838000Y-112548929D02*
X108838000Y-112946000D01*
X108078000Y-112548929D02*
X108078000Y-112946000D01*
X113538000Y-110236000D02*
X114808000Y-110236000D01*
X114808000Y-110236000D02*
X114808000Y-111506000D01*
X127000000Y-110236000D02*
X127000000Y-111506000D01*
X125730000Y-110236000D02*
X127000000Y-110236000D01*
X120270000Y-112548929D02*
X120270000Y-112946000D01*
X121030000Y-112548929D02*
X121030000Y-112946000D01*
X120270000Y-121606000D02*
X120270000Y-115606000D01*
X121030000Y-121606000D02*
X120270000Y-121606000D01*
X121030000Y-115606000D02*
X121030000Y-121606000D01*
X121920000Y-112946000D02*
X121920000Y-115606000D01*
X122810000Y-112548929D02*
X122810000Y-112946000D01*
X123570000Y-112548929D02*
X123570000Y-112946000D01*
X122810000Y-121606000D02*
X122810000Y-115606000D01*
X123570000Y-121606000D02*
X122810000Y-121606000D01*
X123570000Y-115606000D02*
X123570000Y-121606000D01*
X124460000Y-112946000D02*
X124460000Y-115606000D01*
X125350000Y-112616000D02*
X125350000Y-112946000D01*
X126110000Y-112616000D02*
X126110000Y-112946000D01*
X125450000Y-115606000D02*
X125450000Y-121606000D01*
X125570000Y-115606000D02*
X125570000Y-121606000D01*
X125690000Y-115606000D02*
X125690000Y-121606000D01*
X125810000Y-115606000D02*
X125810000Y-121606000D01*
X125930000Y-115606000D02*
X125930000Y-121606000D01*
X126050000Y-115606000D02*
X126050000Y-121606000D01*
X125350000Y-121606000D02*
X125350000Y-115606000D01*
X126110000Y-121606000D02*
X125350000Y-121606000D01*
X126110000Y-115606000D02*
X126110000Y-121606000D01*
X127060000Y-115606000D02*
X127060000Y-112946000D01*
X119320000Y-115606000D02*
X127060000Y-115606000D01*
X119320000Y-112946000D02*
X119320000Y-115606000D01*
X127060000Y-112946000D02*
X119320000Y-112946000D01*
X104374000Y-89916000D02*
X104374000Y-91866000D01*
X104374000Y-89916000D02*
X104374000Y-87966000D01*
X109494000Y-89916000D02*
X109494000Y-91866000D01*
X109494000Y-89916000D02*
X109494000Y-86466000D01*
X107828000Y-104883000D02*
X107828000Y-103623000D01*
X107828000Y-98063000D02*
X107828000Y-99323000D01*
X104068000Y-104883000D02*
X107828000Y-104883000D01*
X101818000Y-98063000D02*
X107828000Y-98063000D01*
X128620000Y-99090000D02*
X129570000Y-99090000D01*
X129570000Y-99090000D02*
X129570000Y-98140000D01*
X120300000Y-99090000D02*
X119350000Y-99090000D01*
X119350000Y-99090000D02*
X119350000Y-98140000D01*
X128620000Y-88870000D02*
X129570000Y-88870000D01*
X129570000Y-88870000D02*
X129570000Y-89820000D01*
X120300000Y-88870000D02*
X119350000Y-88870000D01*
X119350000Y-88870000D02*
X119350000Y-89820000D01*
X119350000Y-89820000D02*
X118010000Y-89820000D01*
D13*
X122616000Y-68426000D02*
X133916000Y-68426000D01*
X133916000Y-68426000D02*
X133916000Y-82326000D01*
X133916000Y-82326000D02*
X122616000Y-82326000D01*
X122616000Y-82326000D02*
X122616000Y-68426000D01*
X125116000Y-68326000D02*
X125116000Y-64926000D01*
X125116000Y-64926000D02*
X130916000Y-64926000D01*
X130916000Y-64926000D02*
X130916000Y-68326000D01*
X116438000Y-64926000D02*
X116438000Y-68326000D01*
X110638000Y-64926000D02*
X116438000Y-64926000D01*
X110638000Y-68326000D02*
X110638000Y-64926000D01*
X108138000Y-82326000D02*
X108138000Y-68426000D01*
X119438000Y-82326000D02*
X108138000Y-82326000D01*
X119438000Y-68426000D02*
X119438000Y-82326000D01*
X108138000Y-68426000D02*
X119438000Y-68426000D01*
D10*
X116354000Y-95900000D02*
X116354000Y-90000000D01*
X116354000Y-90000000D02*
X112754000Y-90000000D01*
X112754000Y-90000000D02*
X112754000Y-95900000D01*
X150030000Y-88078000D02*
X150030000Y-105978000D01*
X150030000Y-105978000D02*
X152690000Y-105978000D01*
X152690000Y-105978000D02*
X152690000Y-88078000D01*
X152690000Y-88078000D02*
X150030000Y-88078000D01*
X152690000Y-89028000D02*
X158690000Y-89028000D01*
X158690000Y-89028000D02*
X158690000Y-89788000D01*
X158690000Y-89788000D02*
X152690000Y-89788000D01*
X152690000Y-89088000D02*
X158690000Y-89088000D01*
X152690000Y-89208000D02*
X158690000Y-89208000D01*
X152690000Y-89328000D02*
X158690000Y-89328000D01*
X152690000Y-89448000D02*
X158690000Y-89448000D01*
X152690000Y-89568000D02*
X158690000Y-89568000D01*
X152690000Y-89688000D02*
X158690000Y-89688000D01*
X149700000Y-89028000D02*
X150030000Y-89028000D01*
X149700000Y-89788000D02*
X150030000Y-89788000D01*
X150030000Y-90678000D02*
X152690000Y-90678000D01*
X152690000Y-91568000D02*
X158690000Y-91568000D01*
X158690000Y-91568000D02*
X158690000Y-92328000D01*
X158690000Y-92328000D02*
X152690000Y-92328000D01*
X149632929Y-91568000D02*
X150030000Y-91568000D01*
X149632929Y-92328000D02*
X150030000Y-92328000D01*
X150030000Y-93218000D02*
X152690000Y-93218000D01*
X152690000Y-94108000D02*
X158690000Y-94108000D01*
X158690000Y-94108000D02*
X158690000Y-94868000D01*
X158690000Y-94868000D02*
X152690000Y-94868000D01*
X149632929Y-94108000D02*
X150030000Y-94108000D01*
X149632929Y-94868000D02*
X150030000Y-94868000D01*
X150030000Y-95758000D02*
X152690000Y-95758000D01*
X152690000Y-96648000D02*
X158690000Y-96648000D01*
X158690000Y-96648000D02*
X158690000Y-97408000D01*
X158690000Y-97408000D02*
X152690000Y-97408000D01*
X149632929Y-96648000D02*
X150030000Y-96648000D01*
X149632929Y-97408000D02*
X150030000Y-97408000D01*
X150030000Y-98298000D02*
X152690000Y-98298000D01*
X152690000Y-99188000D02*
X158690000Y-99188000D01*
X158690000Y-99188000D02*
X158690000Y-99948000D01*
X158690000Y-99948000D02*
X152690000Y-99948000D01*
X149632929Y-99188000D02*
X150030000Y-99188000D01*
X149632929Y-99948000D02*
X150030000Y-99948000D01*
X150030000Y-100838000D02*
X152690000Y-100838000D01*
X152690000Y-101728000D02*
X158690000Y-101728000D01*
X158690000Y-101728000D02*
X158690000Y-102488000D01*
X158690000Y-102488000D02*
X152690000Y-102488000D01*
X149632929Y-101728000D02*
X150030000Y-101728000D01*
X149632929Y-102488000D02*
X150030000Y-102488000D01*
X150030000Y-103378000D02*
X152690000Y-103378000D01*
X152690000Y-104268000D02*
X158690000Y-104268000D01*
X158690000Y-104268000D02*
X158690000Y-105028000D01*
X158690000Y-105028000D02*
X152690000Y-105028000D01*
X149632929Y-104268000D02*
X150030000Y-104268000D01*
X149632929Y-105028000D02*
X150030000Y-105028000D01*
X147320000Y-89408000D02*
X147320000Y-88138000D01*
X147320000Y-88138000D02*
X148590000Y-88138000D01*
X134622000Y-83510000D02*
X134622000Y-84440000D01*
X134622000Y-86670000D02*
X134622000Y-85740000D01*
X134622000Y-86670000D02*
X136782000Y-86670000D01*
X134622000Y-83510000D02*
X136082000Y-83510000D01*
X113700779Y-87886000D02*
X113375221Y-87886000D01*
X113700779Y-86866000D02*
X113375221Y-86866000D01*
X103237221Y-108210000D02*
X103562779Y-108210000D01*
X103237221Y-107190000D02*
X103562779Y-107190000D01*
X113779279Y-98550000D02*
X113453721Y-98550000D01*
X113779279Y-99570000D02*
X113453721Y-99570000D01*
X113326721Y-103122000D02*
X113652279Y-103122000D01*
X113326721Y-104142000D02*
X113652279Y-104142000D01*
X113326721Y-105662000D02*
X113652279Y-105662000D01*
X113326721Y-106682000D02*
X113652279Y-106682000D01*
X128775279Y-105410000D02*
X128449721Y-105410000D01*
X128775279Y-104390000D02*
X128449721Y-104390000D01*
X143710000Y-96150279D02*
X143710000Y-95824721D01*
X142690000Y-96150279D02*
X142690000Y-95824721D01*
X140097500Y-99365000D02*
X137812500Y-99365000D01*
X140097500Y-100835000D02*
X140097500Y-99365000D01*
X137812500Y-100835000D02*
X140097500Y-100835000D01*
X137787500Y-106435000D02*
X140072500Y-106435000D01*
X140072500Y-106435000D02*
X140072500Y-104965000D01*
X140072500Y-104965000D02*
X137787500Y-104965000D01*
X140172500Y-101265000D02*
X137887500Y-101265000D01*
X140172500Y-102735000D02*
X140172500Y-101265000D01*
X137887500Y-102735000D02*
X140172500Y-102735000D01*
X137887500Y-104435000D02*
X140172500Y-104435000D01*
X140172500Y-104435000D02*
X140172500Y-102965000D01*
X140172500Y-102965000D02*
X137887500Y-102965000D01*
X107512500Y-95065000D02*
X105227500Y-95065000D01*
X105227500Y-95065000D02*
X105227500Y-96535000D01*
X105227500Y-96535000D02*
X107512500Y-96535000D01*
X108470721Y-84711000D02*
X108796279Y-84711000D01*
X108470721Y-83691000D02*
X108796279Y-83691000D01*
X113453721Y-84072000D02*
X113779279Y-84072000D01*
X113453721Y-85092000D02*
X113779279Y-85092000D01*
X135375279Y-100610000D02*
X135049721Y-100610000D01*
X135375279Y-99590000D02*
X135049721Y-99590000D01*
X100668279Y-90549000D02*
X100342721Y-90549000D01*
X100668279Y-91569000D02*
X100342721Y-91569000D01*
X135350279Y-105290000D02*
X135024721Y-105290000D01*
X135350279Y-106310000D02*
X135024721Y-106310000D01*
X135350279Y-102510000D02*
X135024721Y-102510000D01*
X135350279Y-101490000D02*
X135024721Y-101490000D01*
X135350279Y-103290000D02*
X135024721Y-103290000D01*
X135350279Y-104310000D02*
X135024721Y-104310000D01*
X117150279Y-87910000D02*
X116824721Y-87910000D01*
X117150279Y-86890000D02*
X116824721Y-86890000D01*
X134711221Y-93474000D02*
X135036779Y-93474000D01*
X134711221Y-92454000D02*
X135036779Y-92454000D01*
X134789721Y-89914000D02*
X135115279Y-89914000D01*
X134789721Y-90934000D02*
X135115279Y-90934000D01*
X125810000Y-85275279D02*
X125810000Y-84949721D01*
X124790000Y-85275279D02*
X124790000Y-84949721D01*
X126690000Y-85275279D02*
X126690000Y-84949721D01*
X127710000Y-85275279D02*
X127710000Y-84949721D01*
X130524721Y-103710000D02*
X130850279Y-103710000D01*
X130524721Y-102690000D02*
X130850279Y-102690000D01*
X103450279Y-95290000D02*
X103124721Y-95290000D01*
X103450279Y-96310000D02*
X103124721Y-96310000D01*
X121090000Y-85350279D02*
X121090000Y-85024721D01*
X122110000Y-85350279D02*
X122110000Y-85024721D01*
X130075279Y-85690000D02*
X129749721Y-85690000D01*
X130075279Y-86710000D02*
X129749721Y-86710000D01*
X126075279Y-103910000D02*
X125749721Y-103910000D01*
X126075279Y-102890000D02*
X125749721Y-102890000D01*
X122590000Y-85275279D02*
X122590000Y-84949721D01*
X123610000Y-85275279D02*
X123610000Y-84949721D01*
X99850000Y-112100000D02*
X99850000Y-111800000D01*
X103150000Y-112100000D02*
X99850000Y-112100000D01*
X103150000Y-111800000D02*
X103150000Y-112100000D01*
X99850000Y-109300000D02*
X99850000Y-109600000D01*
X103150000Y-109300000D02*
X99850000Y-109300000D01*
X103150000Y-109600000D02*
X103150000Y-109300000D01*
X118650000Y-107200000D02*
X118650000Y-107500000D01*
X118650000Y-107500000D02*
X121950000Y-107500000D01*
X121950000Y-107500000D02*
X121950000Y-107200000D01*
X118650000Y-105000000D02*
X118650000Y-104700000D01*
X118650000Y-104700000D02*
X121950000Y-104700000D01*
X121950000Y-104700000D02*
X121950000Y-105000000D01*
X138811091Y-93044544D02*
X139023223Y-93256676D01*
X139023223Y-93256676D02*
X141356676Y-90923223D01*
X141356676Y-90923223D02*
X141144544Y-90711091D01*
X137255456Y-91488909D02*
X137043324Y-91276777D01*
X137043324Y-91276777D02*
X139376777Y-88943324D01*
X139376777Y-88943324D02*
X139588909Y-89155456D01*
X98897936Y-87090000D02*
X100102064Y-87090000D01*
X98897936Y-88910000D02*
X100102064Y-88910000D01*
D14*
X101396380Y-83431095D02*
X100396380Y-83431095D01*
X100396380Y-83193000D01*
X100444000Y-83050142D01*
X100539238Y-82954904D01*
X100634476Y-82907285D01*
X100824952Y-82859666D01*
X100967809Y-82859666D01*
X101158285Y-82907285D01*
X101253523Y-82954904D01*
X101348761Y-83050142D01*
X101396380Y-83193000D01*
X101396380Y-83431095D01*
X101396380Y-81907285D02*
X101396380Y-82478714D01*
X101396380Y-82193000D02*
X100396380Y-82193000D01*
X100539238Y-82288238D01*
X100634476Y-82383476D01*
X100682095Y-82478714D01*
X136398380Y-82629333D02*
X137112666Y-82629333D01*
X137255523Y-82676952D01*
X137350761Y-82772190D01*
X137398380Y-82915047D01*
X137398380Y-83010285D01*
X137398380Y-81629333D02*
X137398380Y-82200761D01*
X137398380Y-81915047D02*
X136398380Y-81915047D01*
X136541238Y-82010285D01*
X136636476Y-82105523D01*
X136684095Y-82200761D01*
X142160666Y-73906380D02*
X142160666Y-74620666D01*
X142113047Y-74763523D01*
X142017809Y-74858761D01*
X141874952Y-74906380D01*
X141779714Y-74906380D01*
X142589238Y-74001619D02*
X142636857Y-73954000D01*
X142732095Y-73906380D01*
X142970190Y-73906380D01*
X143065428Y-73954000D01*
X143113047Y-74001619D01*
X143160666Y-74096857D01*
X143160666Y-74192095D01*
X143113047Y-74334952D01*
X142541619Y-74906380D01*
X143160666Y-74906380D01*
X140136380Y-116446523D02*
X139136380Y-116446523D01*
X139850666Y-116113190D01*
X139136380Y-115779857D01*
X140136380Y-115779857D01*
X140136380Y-114779857D02*
X140136380Y-115351285D01*
X140136380Y-115065571D02*
X139136380Y-115065571D01*
X139279238Y-115160809D01*
X139374476Y-115256047D01*
X139422095Y-115351285D01*
X116260380Y-116700523D02*
X115260380Y-116700523D01*
X115974666Y-116367190D01*
X115260380Y-116033857D01*
X116260380Y-116033857D01*
X115355619Y-115605285D02*
X115308000Y-115557666D01*
X115260380Y-115462428D01*
X115260380Y-115224333D01*
X115308000Y-115129095D01*
X115355619Y-115081476D01*
X115450857Y-115033857D01*
X115546095Y-115033857D01*
X115688952Y-115081476D01*
X116260380Y-115652904D01*
X116260380Y-115033857D01*
X128452380Y-116700523D02*
X127452380Y-116700523D01*
X128166666Y-116367190D01*
X127452380Y-116033857D01*
X128452380Y-116033857D01*
X127452380Y-115652904D02*
X127452380Y-115033857D01*
X127833333Y-115367190D01*
X127833333Y-115224333D01*
X127880952Y-115129095D01*
X127928571Y-115081476D01*
X128023809Y-115033857D01*
X128261904Y-115033857D01*
X128357142Y-115081476D01*
X128404761Y-115129095D01*
X128452380Y-115224333D01*
X128452380Y-115510047D01*
X128404761Y-115605285D01*
X128357142Y-115652904D01*
X109786380Y-90677904D02*
X110595904Y-90677904D01*
X110691142Y-90630285D01*
X110738761Y-90582666D01*
X110786380Y-90487428D01*
X110786380Y-90296952D01*
X110738761Y-90201714D01*
X110691142Y-90154095D01*
X110595904Y-90106476D01*
X109786380Y-90106476D01*
X110786380Y-89106476D02*
X110786380Y-89677904D01*
X110786380Y-89392190D02*
X109786380Y-89392190D01*
X109929238Y-89487428D01*
X110024476Y-89582666D01*
X110072095Y-89677904D01*
X105156095Y-96425380D02*
X105156095Y-97234904D01*
X105203714Y-97330142D01*
X105251333Y-97377761D01*
X105346571Y-97425380D01*
X105537047Y-97425380D01*
X105632285Y-97377761D01*
X105679904Y-97330142D01*
X105727523Y-97234904D01*
X105727523Y-96425380D01*
X106156095Y-96520619D02*
X106203714Y-96473000D01*
X106298952Y-96425380D01*
X106537047Y-96425380D01*
X106632285Y-96473000D01*
X106679904Y-96520619D01*
X106727523Y-96615857D01*
X106727523Y-96711095D01*
X106679904Y-96853952D01*
X106108476Y-97425380D01*
X106727523Y-97425380D01*
X132038095Y-86952380D02*
X132038095Y-87761904D01*
X132085714Y-87857142D01*
X132133333Y-87904761D01*
X132228571Y-87952380D01*
X132419047Y-87952380D01*
X132514285Y-87904761D01*
X132561904Y-87857142D01*
X132609523Y-87761904D01*
X132609523Y-86952380D01*
X132990476Y-86952380D02*
X133609523Y-86952380D01*
X133276190Y-87333333D01*
X133419047Y-87333333D01*
X133514285Y-87380952D01*
X133561904Y-87428571D01*
X133609523Y-87523809D01*
X133609523Y-87761904D01*
X133561904Y-87857142D01*
X133514285Y-87904761D01*
X133419047Y-87952380D01*
X133133333Y-87952380D01*
X133038095Y-87904761D01*
X132990476Y-87857142D01*
D15*
X130381476Y-59903380D02*
X131048142Y-60903380D01*
X131048142Y-59903380D02*
X130381476Y-60903380D01*
X131952904Y-60903380D02*
X131381476Y-60903380D01*
X131667190Y-60903380D02*
X131667190Y-59903380D01*
X131571952Y-60046238D01*
X131476714Y-60141476D01*
X131381476Y-60189095D01*
X115903476Y-59903380D02*
X116570142Y-60903380D01*
X116570142Y-59903380D02*
X115903476Y-60903380D01*
X116903476Y-59998619D02*
X116951095Y-59951000D01*
X117046333Y-59903380D01*
X117284428Y-59903380D01*
X117379666Y-59951000D01*
X117427285Y-59998619D01*
X117474904Y-60093857D01*
X117474904Y-60189095D01*
X117427285Y-60331952D01*
X116855857Y-60903380D01*
X117474904Y-60903380D01*
D14*
X117330190Y-93676190D02*
X117806380Y-93676190D01*
X116806380Y-94009523D02*
X117330190Y-93676190D01*
X116806380Y-93342857D01*
X117806380Y-92485714D02*
X117806380Y-93057142D01*
X117806380Y-92771428D02*
X116806380Y-92771428D01*
X116949238Y-92866666D01*
X117044476Y-92961904D01*
X117092095Y-93057142D01*
X152641666Y-86590380D02*
X152641666Y-87304666D01*
X152594047Y-87447523D01*
X152498809Y-87542761D01*
X152355952Y-87590380D01*
X152260714Y-87590380D01*
X153022619Y-86590380D02*
X153641666Y-86590380D01*
X153308333Y-86971333D01*
X153451190Y-86971333D01*
X153546428Y-87018952D01*
X153594047Y-87066571D01*
X153641666Y-87161809D01*
X153641666Y-87399904D01*
X153594047Y-87495142D01*
X153546428Y-87542761D01*
X153451190Y-87590380D01*
X153165476Y-87590380D01*
X153070238Y-87542761D01*
X153022619Y-87495142D01*
X134643904Y-88042380D02*
X134643904Y-87042380D01*
X134882000Y-87042380D01*
X135024857Y-87090000D01*
X135120095Y-87185238D01*
X135167714Y-87280476D01*
X135215333Y-87470952D01*
X135215333Y-87613809D01*
X135167714Y-87804285D01*
X135120095Y-87899523D01*
X135024857Y-87994761D01*
X134882000Y-88042380D01*
X134643904Y-88042380D01*
X135596285Y-87137619D02*
X135643904Y-87090000D01*
X135739142Y-87042380D01*
X135977238Y-87042380D01*
X136072476Y-87090000D01*
X136120095Y-87137619D01*
X136167714Y-87232857D01*
X136167714Y-87328095D01*
X136120095Y-87470952D01*
X135548666Y-88042380D01*
X136167714Y-88042380D01*
X113371333Y-89163142D02*
X113323714Y-89210761D01*
X113180857Y-89258380D01*
X113085619Y-89258380D01*
X112942761Y-89210761D01*
X112847523Y-89115523D01*
X112799904Y-89020285D01*
X112752285Y-88829809D01*
X112752285Y-88686952D01*
X112799904Y-88496476D01*
X112847523Y-88401238D01*
X112942761Y-88306000D01*
X113085619Y-88258380D01*
X113180857Y-88258380D01*
X113323714Y-88306000D01*
X113371333Y-88353619D01*
X114323714Y-89258380D02*
X113752285Y-89258380D01*
X114038000Y-89258380D02*
X114038000Y-88258380D01*
X113942761Y-88401238D01*
X113847523Y-88496476D01*
X113752285Y-88544095D01*
X103233333Y-106627142D02*
X103185714Y-106674761D01*
X103042857Y-106722380D01*
X102947619Y-106722380D01*
X102804761Y-106674761D01*
X102709523Y-106579523D01*
X102661904Y-106484285D01*
X102614285Y-106293809D01*
X102614285Y-106150952D01*
X102661904Y-105960476D01*
X102709523Y-105865238D01*
X102804761Y-105770000D01*
X102947619Y-105722380D01*
X103042857Y-105722380D01*
X103185714Y-105770000D01*
X103233333Y-105817619D01*
X103614285Y-105817619D02*
X103661904Y-105770000D01*
X103757142Y-105722380D01*
X103995238Y-105722380D01*
X104090476Y-105770000D01*
X104138095Y-105817619D01*
X104185714Y-105912857D01*
X104185714Y-106008095D01*
X104138095Y-106150952D01*
X103566666Y-106722380D01*
X104185714Y-106722380D01*
X113449833Y-100847142D02*
X113402214Y-100894761D01*
X113259357Y-100942380D01*
X113164119Y-100942380D01*
X113021261Y-100894761D01*
X112926023Y-100799523D01*
X112878404Y-100704285D01*
X112830785Y-100513809D01*
X112830785Y-100370952D01*
X112878404Y-100180476D01*
X112926023Y-100085238D01*
X113021261Y-99990000D01*
X113164119Y-99942380D01*
X113259357Y-99942380D01*
X113402214Y-99990000D01*
X113449833Y-100037619D01*
X114306976Y-100275714D02*
X114306976Y-100942380D01*
X114068880Y-99894761D02*
X113830785Y-100609047D01*
X114449833Y-100609047D01*
X113322833Y-102559142D02*
X113275214Y-102606761D01*
X113132357Y-102654380D01*
X113037119Y-102654380D01*
X112894261Y-102606761D01*
X112799023Y-102511523D01*
X112751404Y-102416285D01*
X112703785Y-102225809D01*
X112703785Y-102082952D01*
X112751404Y-101892476D01*
X112799023Y-101797238D01*
X112894261Y-101702000D01*
X113037119Y-101654380D01*
X113132357Y-101654380D01*
X113275214Y-101702000D01*
X113322833Y-101749619D01*
X114227595Y-101654380D02*
X113751404Y-101654380D01*
X113703785Y-102130571D01*
X113751404Y-102082952D01*
X113846642Y-102035333D01*
X114084738Y-102035333D01*
X114179976Y-102082952D01*
X114227595Y-102130571D01*
X114275214Y-102225809D01*
X114275214Y-102463904D01*
X114227595Y-102559142D01*
X114179976Y-102606761D01*
X114084738Y-102654380D01*
X113846642Y-102654380D01*
X113751404Y-102606761D01*
X113703785Y-102559142D01*
X113322833Y-105099142D02*
X113275214Y-105146761D01*
X113132357Y-105194380D01*
X113037119Y-105194380D01*
X112894261Y-105146761D01*
X112799023Y-105051523D01*
X112751404Y-104956285D01*
X112703785Y-104765809D01*
X112703785Y-104622952D01*
X112751404Y-104432476D01*
X112799023Y-104337238D01*
X112894261Y-104242000D01*
X113037119Y-104194380D01*
X113132357Y-104194380D01*
X113275214Y-104242000D01*
X113322833Y-104289619D01*
X114179976Y-104194380D02*
X113989500Y-104194380D01*
X113894261Y-104242000D01*
X113846642Y-104289619D01*
X113751404Y-104432476D01*
X113703785Y-104622952D01*
X113703785Y-105003904D01*
X113751404Y-105099142D01*
X113799023Y-105146761D01*
X113894261Y-105194380D01*
X114084738Y-105194380D01*
X114179976Y-105146761D01*
X114227595Y-105099142D01*
X114275214Y-105003904D01*
X114275214Y-104765809D01*
X114227595Y-104670571D01*
X114179976Y-104622952D01*
X114084738Y-104575333D01*
X113894261Y-104575333D01*
X113799023Y-104622952D01*
X113751404Y-104670571D01*
X113703785Y-104765809D01*
X128445833Y-106687142D02*
X128398214Y-106734761D01*
X128255357Y-106782380D01*
X128160119Y-106782380D01*
X128017261Y-106734761D01*
X127922023Y-106639523D01*
X127874404Y-106544285D01*
X127826785Y-106353809D01*
X127826785Y-106210952D01*
X127874404Y-106020476D01*
X127922023Y-105925238D01*
X128017261Y-105830000D01*
X128160119Y-105782380D01*
X128255357Y-105782380D01*
X128398214Y-105830000D01*
X128445833Y-105877619D01*
X128779166Y-105782380D02*
X129445833Y-105782380D01*
X129017261Y-106782380D01*
X142127142Y-96154166D02*
X142174761Y-96201785D01*
X142222380Y-96344642D01*
X142222380Y-96439880D01*
X142174761Y-96582738D01*
X142079523Y-96677976D01*
X141984285Y-96725595D01*
X141793809Y-96773214D01*
X141650952Y-96773214D01*
X141460476Y-96725595D01*
X141365238Y-96677976D01*
X141270000Y-96582738D01*
X141222380Y-96439880D01*
X141222380Y-96344642D01*
X141270000Y-96201785D01*
X141317619Y-96154166D01*
X141650952Y-95582738D02*
X141603333Y-95677976D01*
X141555714Y-95725595D01*
X141460476Y-95773214D01*
X141412857Y-95773214D01*
X141317619Y-95725595D01*
X141270000Y-95677976D01*
X141222380Y-95582738D01*
X141222380Y-95392261D01*
X141270000Y-95297023D01*
X141317619Y-95249404D01*
X141412857Y-95201785D01*
X141460476Y-95201785D01*
X141555714Y-95249404D01*
X141603333Y-95297023D01*
X141650952Y-95392261D01*
X141650952Y-95582738D01*
X141698571Y-95677976D01*
X141746190Y-95725595D01*
X141841428Y-95773214D01*
X142031904Y-95773214D01*
X142127142Y-95725595D01*
X142174761Y-95677976D01*
X142222380Y-95582738D01*
X142222380Y-95392261D01*
X142174761Y-95297023D01*
X142127142Y-95249404D01*
X142031904Y-95201785D01*
X141841428Y-95201785D01*
X141746190Y-95249404D01*
X141698571Y-95297023D01*
X141650952Y-95392261D01*
X140461904Y-100652380D02*
X140461904Y-99652380D01*
X140700000Y-99652380D01*
X140842857Y-99700000D01*
X140938095Y-99795238D01*
X140985714Y-99890476D01*
X141033333Y-100080952D01*
X141033333Y-100223809D01*
X140985714Y-100414285D01*
X140938095Y-100509523D01*
X140842857Y-100604761D01*
X140700000Y-100652380D01*
X140461904Y-100652380D01*
X141366666Y-99652380D02*
X141985714Y-99652380D01*
X141652380Y-100033333D01*
X141795238Y-100033333D01*
X141890476Y-100080952D01*
X141938095Y-100128571D01*
X141985714Y-100223809D01*
X141985714Y-100461904D01*
X141938095Y-100557142D01*
X141890476Y-100604761D01*
X141795238Y-100652380D01*
X141509523Y-100652380D01*
X141414285Y-100604761D01*
X141366666Y-100557142D01*
X140461904Y-106352380D02*
X140461904Y-105352380D01*
X140700000Y-105352380D01*
X140842857Y-105400000D01*
X140938095Y-105495238D01*
X140985714Y-105590476D01*
X141033333Y-105780952D01*
X141033333Y-105923809D01*
X140985714Y-106114285D01*
X140938095Y-106209523D01*
X140842857Y-106304761D01*
X140700000Y-106352380D01*
X140461904Y-106352380D01*
X141890476Y-105685714D02*
X141890476Y-106352380D01*
X141652380Y-105304761D02*
X141414285Y-106019047D01*
X142033333Y-106019047D01*
X140361904Y-102652380D02*
X140361904Y-101652380D01*
X140600000Y-101652380D01*
X140742857Y-101700000D01*
X140838095Y-101795238D01*
X140885714Y-101890476D01*
X140933333Y-102080952D01*
X140933333Y-102223809D01*
X140885714Y-102414285D01*
X140838095Y-102509523D01*
X140742857Y-102604761D01*
X140600000Y-102652380D01*
X140361904Y-102652380D01*
X141838095Y-101652380D02*
X141361904Y-101652380D01*
X141314285Y-102128571D01*
X141361904Y-102080952D01*
X141457142Y-102033333D01*
X141695238Y-102033333D01*
X141790476Y-102080952D01*
X141838095Y-102128571D01*
X141885714Y-102223809D01*
X141885714Y-102461904D01*
X141838095Y-102557142D01*
X141790476Y-102604761D01*
X141695238Y-102652380D01*
X141457142Y-102652380D01*
X141361904Y-102604761D01*
X141314285Y-102557142D01*
X140461904Y-104252380D02*
X140461904Y-103252380D01*
X140700000Y-103252380D01*
X140842857Y-103300000D01*
X140938095Y-103395238D01*
X140985714Y-103490476D01*
X141033333Y-103680952D01*
X141033333Y-103823809D01*
X140985714Y-104014285D01*
X140938095Y-104109523D01*
X140842857Y-104204761D01*
X140700000Y-104252380D01*
X140461904Y-104252380D01*
X141890476Y-103252380D02*
X141700000Y-103252380D01*
X141604761Y-103300000D01*
X141557142Y-103347619D01*
X141461904Y-103490476D01*
X141414285Y-103680952D01*
X141414285Y-104061904D01*
X141461904Y-104157142D01*
X141509523Y-104204761D01*
X141604761Y-104252380D01*
X141795238Y-104252380D01*
X141890476Y-104204761D01*
X141938095Y-104157142D01*
X141985714Y-104061904D01*
X141985714Y-103823809D01*
X141938095Y-103728571D01*
X141890476Y-103680952D01*
X141795238Y-103633333D01*
X141604761Y-103633333D01*
X141509523Y-103680952D01*
X141461904Y-103728571D01*
X141414285Y-103823809D01*
X105974404Y-94822380D02*
X105974404Y-93822380D01*
X106212500Y-93822380D01*
X106355357Y-93870000D01*
X106450595Y-93965238D01*
X106498214Y-94060476D01*
X106545833Y-94250952D01*
X106545833Y-94393809D01*
X106498214Y-94584285D01*
X106450595Y-94679523D01*
X106355357Y-94774761D01*
X106212500Y-94822380D01*
X105974404Y-94822380D01*
X106879166Y-93822380D02*
X107545833Y-93822380D01*
X107117261Y-94822380D01*
X108466833Y-83223380D02*
X108133500Y-82747190D01*
X107895404Y-83223380D02*
X107895404Y-82223380D01*
X108276357Y-82223380D01*
X108371595Y-82271000D01*
X108419214Y-82318619D01*
X108466833Y-82413857D01*
X108466833Y-82556714D01*
X108419214Y-82651952D01*
X108371595Y-82699571D01*
X108276357Y-82747190D01*
X107895404Y-82747190D01*
X109419214Y-83223380D02*
X108847785Y-83223380D01*
X109133500Y-83223380D02*
X109133500Y-82223380D01*
X109038261Y-82366238D01*
X108943023Y-82461476D01*
X108847785Y-82509095D01*
X113449833Y-83604380D02*
X113116500Y-83128190D01*
X112878404Y-83604380D02*
X112878404Y-82604380D01*
X113259357Y-82604380D01*
X113354595Y-82652000D01*
X113402214Y-82699619D01*
X113449833Y-82794857D01*
X113449833Y-82937714D01*
X113402214Y-83032952D01*
X113354595Y-83080571D01*
X113259357Y-83128190D01*
X112878404Y-83128190D01*
X113830785Y-82699619D02*
X113878404Y-82652000D01*
X113973642Y-82604380D01*
X114211738Y-82604380D01*
X114306976Y-82652000D01*
X114354595Y-82699619D01*
X114402214Y-82794857D01*
X114402214Y-82890095D01*
X114354595Y-83032952D01*
X113783166Y-83604380D01*
X114402214Y-83604380D01*
X132633333Y-100452380D02*
X132300000Y-99976190D01*
X132061904Y-100452380D02*
X132061904Y-99452380D01*
X132442857Y-99452380D01*
X132538095Y-99500000D01*
X132585714Y-99547619D01*
X132633333Y-99642857D01*
X132633333Y-99785714D01*
X132585714Y-99880952D01*
X132538095Y-99928571D01*
X132442857Y-99976190D01*
X132061904Y-99976190D01*
X132966666Y-99452380D02*
X133585714Y-99452380D01*
X133252380Y-99833333D01*
X133395238Y-99833333D01*
X133490476Y-99880952D01*
X133538095Y-99928571D01*
X133585714Y-100023809D01*
X133585714Y-100261904D01*
X133538095Y-100357142D01*
X133490476Y-100404761D01*
X133395238Y-100452380D01*
X133109523Y-100452380D01*
X133014285Y-100404761D01*
X132966666Y-100357142D01*
X100338833Y-92941380D02*
X100005500Y-92465190D01*
X99767404Y-92941380D02*
X99767404Y-91941380D01*
X100148357Y-91941380D01*
X100243595Y-91989000D01*
X100291214Y-92036619D01*
X100338833Y-92131857D01*
X100338833Y-92274714D01*
X100291214Y-92369952D01*
X100243595Y-92417571D01*
X100148357Y-92465190D01*
X99767404Y-92465190D01*
X101195976Y-92274714D02*
X101195976Y-92941380D01*
X100957880Y-91893761D02*
X100719785Y-92608047D01*
X101338833Y-92608047D01*
X132733333Y-106252380D02*
X132400000Y-105776190D01*
X132161904Y-106252380D02*
X132161904Y-105252380D01*
X132542857Y-105252380D01*
X132638095Y-105300000D01*
X132685714Y-105347619D01*
X132733333Y-105442857D01*
X132733333Y-105585714D01*
X132685714Y-105680952D01*
X132638095Y-105728571D01*
X132542857Y-105776190D01*
X132161904Y-105776190D01*
X133638095Y-105252380D02*
X133161904Y-105252380D01*
X133114285Y-105728571D01*
X133161904Y-105680952D01*
X133257142Y-105633333D01*
X133495238Y-105633333D01*
X133590476Y-105680952D01*
X133638095Y-105728571D01*
X133685714Y-105823809D01*
X133685714Y-106061904D01*
X133638095Y-106157142D01*
X133590476Y-106204761D01*
X133495238Y-106252380D01*
X133257142Y-106252380D01*
X133161904Y-106204761D01*
X133114285Y-106157142D01*
X132833333Y-102452380D02*
X132500000Y-101976190D01*
X132261904Y-102452380D02*
X132261904Y-101452380D01*
X132642857Y-101452380D01*
X132738095Y-101500000D01*
X132785714Y-101547619D01*
X132833333Y-101642857D01*
X132833333Y-101785714D01*
X132785714Y-101880952D01*
X132738095Y-101928571D01*
X132642857Y-101976190D01*
X132261904Y-101976190D01*
X133690476Y-101452380D02*
X133500000Y-101452380D01*
X133404761Y-101500000D01*
X133357142Y-101547619D01*
X133261904Y-101690476D01*
X133214285Y-101880952D01*
X133214285Y-102261904D01*
X133261904Y-102357142D01*
X133309523Y-102404761D01*
X133404761Y-102452380D01*
X133595238Y-102452380D01*
X133690476Y-102404761D01*
X133738095Y-102357142D01*
X133785714Y-102261904D01*
X133785714Y-102023809D01*
X133738095Y-101928571D01*
X133690476Y-101880952D01*
X133595238Y-101833333D01*
X133404761Y-101833333D01*
X133309523Y-101880952D01*
X133261904Y-101928571D01*
X133214285Y-102023809D01*
X132733333Y-104352380D02*
X132400000Y-103876190D01*
X132161904Y-104352380D02*
X132161904Y-103352380D01*
X132542857Y-103352380D01*
X132638095Y-103400000D01*
X132685714Y-103447619D01*
X132733333Y-103542857D01*
X132733333Y-103685714D01*
X132685714Y-103780952D01*
X132638095Y-103828571D01*
X132542857Y-103876190D01*
X132161904Y-103876190D01*
X133066666Y-103352380D02*
X133733333Y-103352380D01*
X133304761Y-104352380D01*
X116820833Y-89282380D02*
X116487500Y-88806190D01*
X116249404Y-89282380D02*
X116249404Y-88282380D01*
X116630357Y-88282380D01*
X116725595Y-88330000D01*
X116773214Y-88377619D01*
X116820833Y-88472857D01*
X116820833Y-88615714D01*
X116773214Y-88710952D01*
X116725595Y-88758571D01*
X116630357Y-88806190D01*
X116249404Y-88806190D01*
X117392261Y-88710952D02*
X117297023Y-88663333D01*
X117249404Y-88615714D01*
X117201785Y-88520476D01*
X117201785Y-88472857D01*
X117249404Y-88377619D01*
X117297023Y-88330000D01*
X117392261Y-88282380D01*
X117582738Y-88282380D01*
X117677976Y-88330000D01*
X117725595Y-88377619D01*
X117773214Y-88472857D01*
X117773214Y-88520476D01*
X117725595Y-88615714D01*
X117677976Y-88663333D01*
X117582738Y-88710952D01*
X117392261Y-88710952D01*
X117297023Y-88758571D01*
X117249404Y-88806190D01*
X117201785Y-88901428D01*
X117201785Y-89091904D01*
X117249404Y-89187142D01*
X117297023Y-89234761D01*
X117392261Y-89282380D01*
X117582738Y-89282380D01*
X117677976Y-89234761D01*
X117725595Y-89187142D01*
X117773214Y-89091904D01*
X117773214Y-88901428D01*
X117725595Y-88806190D01*
X117677976Y-88758571D01*
X117582738Y-88710952D01*
X134707333Y-91986380D02*
X134374000Y-91510190D01*
X134135904Y-91986380D02*
X134135904Y-90986380D01*
X134516857Y-90986380D01*
X134612095Y-91034000D01*
X134659714Y-91081619D01*
X134707333Y-91176857D01*
X134707333Y-91319714D01*
X134659714Y-91414952D01*
X134612095Y-91462571D01*
X134516857Y-91510190D01*
X134135904Y-91510190D01*
X135183523Y-91986380D02*
X135374000Y-91986380D01*
X135469238Y-91938761D01*
X135516857Y-91891142D01*
X135612095Y-91748285D01*
X135659714Y-91557809D01*
X135659714Y-91176857D01*
X135612095Y-91081619D01*
X135564476Y-91034000D01*
X135469238Y-90986380D01*
X135278761Y-90986380D01*
X135183523Y-91034000D01*
X135135904Y-91081619D01*
X135088285Y-91176857D01*
X135088285Y-91414952D01*
X135135904Y-91510190D01*
X135183523Y-91557809D01*
X135278761Y-91605428D01*
X135469238Y-91605428D01*
X135564476Y-91557809D01*
X135612095Y-91510190D01*
X135659714Y-91414952D01*
X134309642Y-89446380D02*
X133976309Y-88970190D01*
X133738214Y-89446380D02*
X133738214Y-88446380D01*
X134119166Y-88446380D01*
X134214404Y-88494000D01*
X134262023Y-88541619D01*
X134309642Y-88636857D01*
X134309642Y-88779714D01*
X134262023Y-88874952D01*
X134214404Y-88922571D01*
X134119166Y-88970190D01*
X133738214Y-88970190D01*
X135262023Y-89446380D02*
X134690595Y-89446380D01*
X134976309Y-89446380D02*
X134976309Y-88446380D01*
X134881071Y-88589238D01*
X134785833Y-88684476D01*
X134690595Y-88732095D01*
X135881071Y-88446380D02*
X135976309Y-88446380D01*
X136071547Y-88494000D01*
X136119166Y-88541619D01*
X136166785Y-88636857D01*
X136214404Y-88827333D01*
X136214404Y-89065428D01*
X136166785Y-89255904D01*
X136119166Y-89351142D01*
X136071547Y-89398761D01*
X135976309Y-89446380D01*
X135881071Y-89446380D01*
X135785833Y-89398761D01*
X135738214Y-89351142D01*
X135690595Y-89255904D01*
X135642976Y-89065428D01*
X135642976Y-88827333D01*
X135690595Y-88636857D01*
X135738214Y-88541619D01*
X135785833Y-88494000D01*
X135881071Y-88446380D01*
X126552380Y-82942857D02*
X126076190Y-83276190D01*
X126552380Y-83514285D02*
X125552380Y-83514285D01*
X125552380Y-83133333D01*
X125600000Y-83038095D01*
X125647619Y-82990476D01*
X125742857Y-82942857D01*
X125885714Y-82942857D01*
X125980952Y-82990476D01*
X126028571Y-83038095D01*
X126076190Y-83133333D01*
X126076190Y-83514285D01*
X126552380Y-81990476D02*
X126552380Y-82561904D01*
X126552380Y-82276190D02*
X125552380Y-82276190D01*
X125695238Y-82371428D01*
X125790476Y-82466666D01*
X125838095Y-82561904D01*
X126552380Y-81038095D02*
X126552380Y-81609523D01*
X126552380Y-81323809D02*
X125552380Y-81323809D01*
X125695238Y-81419047D01*
X125790476Y-81514285D01*
X125838095Y-81609523D01*
X128352380Y-82942857D02*
X127876190Y-83276190D01*
X128352380Y-83514285D02*
X127352380Y-83514285D01*
X127352380Y-83133333D01*
X127400000Y-83038095D01*
X127447619Y-82990476D01*
X127542857Y-82942857D01*
X127685714Y-82942857D01*
X127780952Y-82990476D01*
X127828571Y-83038095D01*
X127876190Y-83133333D01*
X127876190Y-83514285D01*
X128352380Y-81990476D02*
X128352380Y-82561904D01*
X128352380Y-82276190D02*
X127352380Y-82276190D01*
X127495238Y-82371428D01*
X127590476Y-82466666D01*
X127638095Y-82561904D01*
X127447619Y-81609523D02*
X127400000Y-81561904D01*
X127352380Y-81466666D01*
X127352380Y-81228571D01*
X127400000Y-81133333D01*
X127447619Y-81085714D01*
X127542857Y-81038095D01*
X127638095Y-81038095D01*
X127780952Y-81085714D01*
X128352380Y-81657142D01*
X128352380Y-81038095D01*
X130044642Y-102222380D02*
X129711309Y-101746190D01*
X129473214Y-102222380D02*
X129473214Y-101222380D01*
X129854166Y-101222380D01*
X129949404Y-101270000D01*
X129997023Y-101317619D01*
X130044642Y-101412857D01*
X130044642Y-101555714D01*
X129997023Y-101650952D01*
X129949404Y-101698571D01*
X129854166Y-101746190D01*
X129473214Y-101746190D01*
X130997023Y-102222380D02*
X130425595Y-102222380D01*
X130711309Y-102222380D02*
X130711309Y-101222380D01*
X130616071Y-101365238D01*
X130520833Y-101460476D01*
X130425595Y-101508095D01*
X131330357Y-101222380D02*
X131949404Y-101222380D01*
X131616071Y-101603333D01*
X131758928Y-101603333D01*
X131854166Y-101650952D01*
X131901785Y-101698571D01*
X131949404Y-101793809D01*
X131949404Y-102031904D01*
X131901785Y-102127142D01*
X131854166Y-102174761D01*
X131758928Y-102222380D01*
X131473214Y-102222380D01*
X131377976Y-102174761D01*
X131330357Y-102127142D01*
X102644642Y-97682380D02*
X102311309Y-97206190D01*
X102073214Y-97682380D02*
X102073214Y-96682380D01*
X102454166Y-96682380D01*
X102549404Y-96730000D01*
X102597023Y-96777619D01*
X102644642Y-96872857D01*
X102644642Y-97015714D01*
X102597023Y-97110952D01*
X102549404Y-97158571D01*
X102454166Y-97206190D01*
X102073214Y-97206190D01*
X103597023Y-97682380D02*
X103025595Y-97682380D01*
X103311309Y-97682380D02*
X103311309Y-96682380D01*
X103216071Y-96825238D01*
X103120833Y-96920476D01*
X103025595Y-96968095D01*
X104454166Y-97015714D02*
X104454166Y-97682380D01*
X104216071Y-96634761D02*
X103977976Y-97349047D01*
X104597023Y-97349047D01*
X120352380Y-85542857D02*
X119876190Y-85876190D01*
X120352380Y-86114285D02*
X119352380Y-86114285D01*
X119352380Y-85733333D01*
X119400000Y-85638095D01*
X119447619Y-85590476D01*
X119542857Y-85542857D01*
X119685714Y-85542857D01*
X119780952Y-85590476D01*
X119828571Y-85638095D01*
X119876190Y-85733333D01*
X119876190Y-86114285D01*
X120352380Y-84590476D02*
X120352380Y-85161904D01*
X120352380Y-84876190D02*
X119352380Y-84876190D01*
X119495238Y-84971428D01*
X119590476Y-85066666D01*
X119638095Y-85161904D01*
X119352380Y-83685714D02*
X119352380Y-84161904D01*
X119828571Y-84209523D01*
X119780952Y-84161904D01*
X119733333Y-84066666D01*
X119733333Y-83828571D01*
X119780952Y-83733333D01*
X119828571Y-83685714D01*
X119923809Y-83638095D01*
X120161904Y-83638095D01*
X120257142Y-83685714D01*
X120304761Y-83733333D01*
X120352380Y-83828571D01*
X120352380Y-84066666D01*
X120304761Y-84161904D01*
X120257142Y-84209523D01*
X130657142Y-85352380D02*
X130323809Y-84876190D01*
X130085714Y-85352380D02*
X130085714Y-84352380D01*
X130466666Y-84352380D01*
X130561904Y-84400000D01*
X130609523Y-84447619D01*
X130657142Y-84542857D01*
X130657142Y-84685714D01*
X130609523Y-84780952D01*
X130561904Y-84828571D01*
X130466666Y-84876190D01*
X130085714Y-84876190D01*
X131609523Y-85352380D02*
X131038095Y-85352380D01*
X131323809Y-85352380D02*
X131323809Y-84352380D01*
X131228571Y-84495238D01*
X131133333Y-84590476D01*
X131038095Y-84638095D01*
X132466666Y-84352380D02*
X132276190Y-84352380D01*
X132180952Y-84400000D01*
X132133333Y-84447619D01*
X132038095Y-84590476D01*
X131990476Y-84780952D01*
X131990476Y-85161904D01*
X132038095Y-85257142D01*
X132085714Y-85304761D01*
X132180952Y-85352380D01*
X132371428Y-85352380D01*
X132466666Y-85304761D01*
X132514285Y-85257142D01*
X132561904Y-85161904D01*
X132561904Y-84923809D01*
X132514285Y-84828571D01*
X132466666Y-84780952D01*
X132371428Y-84733333D01*
X132180952Y-84733333D01*
X132085714Y-84780952D01*
X132038095Y-84828571D01*
X131990476Y-84923809D01*
X125269642Y-105282380D02*
X124936309Y-104806190D01*
X124698214Y-105282380D02*
X124698214Y-104282380D01*
X125079166Y-104282380D01*
X125174404Y-104330000D01*
X125222023Y-104377619D01*
X125269642Y-104472857D01*
X125269642Y-104615714D01*
X125222023Y-104710952D01*
X125174404Y-104758571D01*
X125079166Y-104806190D01*
X124698214Y-104806190D01*
X126222023Y-105282380D02*
X125650595Y-105282380D01*
X125936309Y-105282380D02*
X125936309Y-104282380D01*
X125841071Y-104425238D01*
X125745833Y-104520476D01*
X125650595Y-104568095D01*
X126555357Y-104282380D02*
X127222023Y-104282380D01*
X126793452Y-105282380D01*
X124539285Y-85582142D02*
X124182142Y-85832142D01*
X124539285Y-86010714D02*
X123789285Y-86010714D01*
X123789285Y-85725000D01*
X123825000Y-85653571D01*
X123860714Y-85617857D01*
X123932142Y-85582142D01*
X124039285Y-85582142D01*
X124110714Y-85617857D01*
X124146428Y-85653571D01*
X124182142Y-85725000D01*
X124182142Y-86010714D01*
X124539285Y-84867857D02*
X124539285Y-85296428D01*
X124539285Y-85082142D02*
X123789285Y-85082142D01*
X123896428Y-85153571D01*
X123967857Y-85225000D01*
X124003571Y-85296428D01*
X124110714Y-84439285D02*
X124075000Y-84510714D01*
X124039285Y-84546428D01*
X123967857Y-84582142D01*
X123932142Y-84582142D01*
X123860714Y-84546428D01*
X123825000Y-84510714D01*
X123789285Y-84439285D01*
X123789285Y-84296428D01*
X123825000Y-84225000D01*
X123860714Y-84189285D01*
X123932142Y-84153571D01*
X123967857Y-84153571D01*
X124039285Y-84189285D01*
X124075000Y-84225000D01*
X124110714Y-84296428D01*
X124110714Y-84439285D01*
X124146428Y-84510714D01*
X124182142Y-84546428D01*
X124253571Y-84582142D01*
X124396428Y-84582142D01*
X124467857Y-84546428D01*
X124503571Y-84510714D01*
X124539285Y-84439285D01*
X124539285Y-84296428D01*
X124503571Y-84225000D01*
X124467857Y-84189285D01*
X124396428Y-84153571D01*
X124253571Y-84153571D01*
X124182142Y-84189285D01*
X124146428Y-84225000D01*
X124110714Y-84296428D01*
X100142857Y-113128571D02*
X100285714Y-113176190D01*
X100333333Y-113223809D01*
X100380952Y-113319047D01*
X100380952Y-113461904D01*
X100333333Y-113557142D01*
X100285714Y-113604761D01*
X100190476Y-113652380D01*
X99809523Y-113652380D01*
X99809523Y-112652380D01*
X100142857Y-112652380D01*
X100238095Y-112700000D01*
X100285714Y-112747619D01*
X100333333Y-112842857D01*
X100333333Y-112938095D01*
X100285714Y-113033333D01*
X100238095Y-113080952D01*
X100142857Y-113128571D01*
X99809523Y-113128571D01*
X101000000Y-112652380D02*
X101190476Y-112652380D01*
X101285714Y-112700000D01*
X101380952Y-112795238D01*
X101428571Y-112985714D01*
X101428571Y-113319047D01*
X101380952Y-113509523D01*
X101285714Y-113604761D01*
X101190476Y-113652380D01*
X101000000Y-113652380D01*
X100904761Y-113604761D01*
X100809523Y-113509523D01*
X100761904Y-113319047D01*
X100761904Y-112985714D01*
X100809523Y-112795238D01*
X100904761Y-112700000D01*
X101000000Y-112652380D01*
X102047619Y-112652380D02*
X102238095Y-112652380D01*
X102333333Y-112700000D01*
X102428571Y-112795238D01*
X102476190Y-112985714D01*
X102476190Y-113319047D01*
X102428571Y-113509523D01*
X102333333Y-113604761D01*
X102238095Y-113652380D01*
X102047619Y-113652380D01*
X101952380Y-113604761D01*
X101857142Y-113509523D01*
X101809523Y-113319047D01*
X101809523Y-112985714D01*
X101857142Y-112795238D01*
X101952380Y-112700000D01*
X102047619Y-112652380D01*
X102761904Y-112652380D02*
X103333333Y-112652380D01*
X103047619Y-113652380D02*
X103047619Y-112652380D01*
X119752380Y-104052380D02*
X119419047Y-103576190D01*
X119180952Y-104052380D02*
X119180952Y-103052380D01*
X119561904Y-103052380D01*
X119657142Y-103100000D01*
X119704761Y-103147619D01*
X119752380Y-103242857D01*
X119752380Y-103385714D01*
X119704761Y-103480952D01*
X119657142Y-103528571D01*
X119561904Y-103576190D01*
X119180952Y-103576190D01*
X120133333Y-104004761D02*
X120276190Y-104052380D01*
X120514285Y-104052380D01*
X120609523Y-104004761D01*
X120657142Y-103957142D01*
X120704761Y-103861904D01*
X120704761Y-103766666D01*
X120657142Y-103671428D01*
X120609523Y-103623809D01*
X120514285Y-103576190D01*
X120323809Y-103528571D01*
X120228571Y-103480952D01*
X120180952Y-103433333D01*
X120133333Y-103338095D01*
X120133333Y-103242857D01*
X120180952Y-103147619D01*
X120228571Y-103100000D01*
X120323809Y-103052380D01*
X120561904Y-103052380D01*
X120704761Y-103100000D01*
X120990476Y-103052380D02*
X121561904Y-103052380D01*
X121276190Y-104052380D02*
X121276190Y-103052380D01*
X136420473Y-89905076D02*
X136992893Y-90477496D01*
X137093908Y-90511167D01*
X137161251Y-90511167D01*
X137262267Y-90477496D01*
X137396954Y-90342809D01*
X137430625Y-90241793D01*
X137430625Y-90174450D01*
X137396954Y-90073435D01*
X136824534Y-89501015D01*
X137801015Y-89871404D02*
X137935702Y-89804061D01*
X138104061Y-89635702D01*
X138137732Y-89534687D01*
X138137732Y-89467343D01*
X138104061Y-89366328D01*
X138036717Y-89298984D01*
X137935702Y-89265312D01*
X137868358Y-89265312D01*
X137767343Y-89298984D01*
X137598984Y-89400000D01*
X137497969Y-89433671D01*
X137430625Y-89433671D01*
X137329610Y-89400000D01*
X137262267Y-89332656D01*
X137228595Y-89231641D01*
X137228595Y-89164297D01*
X137262267Y-89063282D01*
X137430625Y-88894923D01*
X137565312Y-88827580D01*
X138945854Y-88793908D02*
X138373435Y-88692893D01*
X138541793Y-89197969D02*
X137834687Y-88490862D01*
X138104061Y-88221488D01*
X138205076Y-88187816D01*
X138272419Y-88187816D01*
X138373435Y-88221488D01*
X138474450Y-88322503D01*
X138508122Y-88423519D01*
X138508122Y-88490862D01*
X138474450Y-88591877D01*
X138205076Y-88861251D01*
X99333333Y-86537142D02*
X99285714Y-86584761D01*
X99142857Y-86632380D01*
X99047619Y-86632380D01*
X98904761Y-86584761D01*
X98809523Y-86489523D01*
X98761904Y-86394285D01*
X98714285Y-86203809D01*
X98714285Y-86060952D01*
X98761904Y-85870476D01*
X98809523Y-85775238D01*
X98904761Y-85680000D01*
X99047619Y-85632380D01*
X99142857Y-85632380D01*
X99285714Y-85680000D01*
X99333333Y-85727619D01*
X99666666Y-85632380D02*
X100285714Y-85632380D01*
X99952380Y-86013333D01*
X100095238Y-86013333D01*
X100190476Y-86060952D01*
X100238095Y-86108571D01*
X100285714Y-86203809D01*
X100285714Y-86441904D01*
X100238095Y-86537142D01*
X100190476Y-86584761D01*
X100095238Y-86632380D01*
X99809523Y-86632380D01*
X99714285Y-86584761D01*
X99666666Y-86537142D01*
M02*
