G04 #@! TF.GenerationSoftware,KiCad,Pcbnew,(5.1.5)-3*
G04 #@! TF.CreationDate,2020-09-20T15:24:45+01:00*
G04 #@! TF.ProjectId,Alexa_kicad_PCB,416c6578-615f-46b6-9963-61645f504342,rev?*
G04 #@! TF.SameCoordinates,Original*
G04 #@! TF.FileFunction,Soldermask,Bot*
G04 #@! TF.FilePolarity,Negative*
%FSLAX46Y46*%
G04 Gerber Fmt 4.6, Leading zero omitted, Abs format (unit mm)*
G04 Created by KiCad (PCBNEW (5.1.5)-3) date 2020-09-20 15:24:45*
%MOMM*%
%LPD*%
G04 APERTURE LIST*
%ADD10C,0.100000*%
G04 APERTURE END LIST*
D10*
G36*
X145289943Y-107466248D02*
G01*
X145845189Y-107696238D01*
X145845190Y-107696239D01*
X146344899Y-108030134D01*
X146769866Y-108455101D01*
X146769867Y-108455103D01*
X147103762Y-108954811D01*
X147333752Y-109510057D01*
X147451000Y-110099501D01*
X147451000Y-110700499D01*
X147333752Y-111289943D01*
X147103762Y-111845189D01*
X147103761Y-111845190D01*
X146769866Y-112344899D01*
X146344899Y-112769866D01*
X146093347Y-112937948D01*
X145845189Y-113103762D01*
X145289943Y-113333752D01*
X144700499Y-113451000D01*
X144099501Y-113451000D01*
X143510057Y-113333752D01*
X142954811Y-113103762D01*
X142706653Y-112937948D01*
X142455101Y-112769866D01*
X142030134Y-112344899D01*
X141696239Y-111845190D01*
X141696238Y-111845189D01*
X141466248Y-111289943D01*
X141349000Y-110700499D01*
X141349000Y-110099501D01*
X141466248Y-109510057D01*
X141696238Y-108954811D01*
X142030133Y-108455103D01*
X142030134Y-108455101D01*
X142455101Y-108030134D01*
X142954810Y-107696239D01*
X142954811Y-107696238D01*
X143510057Y-107466248D01*
X144099501Y-107349000D01*
X144700499Y-107349000D01*
X145289943Y-107466248D01*
G37*
G36*
X126631000Y-112407000D02*
G01*
X124829000Y-112407000D01*
X124829000Y-110605000D01*
X126631000Y-110605000D01*
X126631000Y-112407000D01*
G37*
G36*
X123303512Y-110609927D02*
G01*
X123452812Y-110639624D01*
X123616784Y-110707544D01*
X123764354Y-110806147D01*
X123889853Y-110931646D01*
X123988456Y-111079216D01*
X124056376Y-111243188D01*
X124091000Y-111417259D01*
X124091000Y-111594741D01*
X124056376Y-111768812D01*
X123988456Y-111932784D01*
X123889853Y-112080354D01*
X123764354Y-112205853D01*
X123616784Y-112304456D01*
X123452812Y-112372376D01*
X123303512Y-112402073D01*
X123278742Y-112407000D01*
X123101258Y-112407000D01*
X123076488Y-112402073D01*
X122927188Y-112372376D01*
X122763216Y-112304456D01*
X122615646Y-112205853D01*
X122490147Y-112080354D01*
X122391544Y-111932784D01*
X122323624Y-111768812D01*
X122289000Y-111594741D01*
X122289000Y-111417259D01*
X122323624Y-111243188D01*
X122391544Y-111079216D01*
X122490147Y-110931646D01*
X122615646Y-110806147D01*
X122763216Y-110707544D01*
X122927188Y-110639624D01*
X123076488Y-110609927D01*
X123101258Y-110605000D01*
X123278742Y-110605000D01*
X123303512Y-110609927D01*
G37*
G36*
X120763512Y-110609927D02*
G01*
X120912812Y-110639624D01*
X121076784Y-110707544D01*
X121224354Y-110806147D01*
X121349853Y-110931646D01*
X121448456Y-111079216D01*
X121516376Y-111243188D01*
X121551000Y-111417259D01*
X121551000Y-111594741D01*
X121516376Y-111768812D01*
X121448456Y-111932784D01*
X121349853Y-112080354D01*
X121224354Y-112205853D01*
X121076784Y-112304456D01*
X120912812Y-112372376D01*
X120763512Y-112402073D01*
X120738742Y-112407000D01*
X120561258Y-112407000D01*
X120536488Y-112402073D01*
X120387188Y-112372376D01*
X120223216Y-112304456D01*
X120075646Y-112205853D01*
X119950147Y-112080354D01*
X119851544Y-111932784D01*
X119783624Y-111768812D01*
X119749000Y-111594741D01*
X119749000Y-111417259D01*
X119783624Y-111243188D01*
X119851544Y-111079216D01*
X119950147Y-110931646D01*
X120075646Y-110806147D01*
X120223216Y-110707544D01*
X120387188Y-110639624D01*
X120536488Y-110609927D01*
X120561258Y-110605000D01*
X120738742Y-110605000D01*
X120763512Y-110609927D01*
G37*
G36*
X108571512Y-110609927D02*
G01*
X108720812Y-110639624D01*
X108884784Y-110707544D01*
X109032354Y-110806147D01*
X109157853Y-110931646D01*
X109256456Y-111079216D01*
X109324376Y-111243188D01*
X109359000Y-111417259D01*
X109359000Y-111594741D01*
X109324376Y-111768812D01*
X109256456Y-111932784D01*
X109157853Y-112080354D01*
X109032354Y-112205853D01*
X108884784Y-112304456D01*
X108720812Y-112372376D01*
X108571512Y-112402073D01*
X108546742Y-112407000D01*
X108369258Y-112407000D01*
X108344488Y-112402073D01*
X108195188Y-112372376D01*
X108031216Y-112304456D01*
X107883646Y-112205853D01*
X107758147Y-112080354D01*
X107659544Y-111932784D01*
X107591624Y-111768812D01*
X107557000Y-111594741D01*
X107557000Y-111417259D01*
X107591624Y-111243188D01*
X107659544Y-111079216D01*
X107758147Y-110931646D01*
X107883646Y-110806147D01*
X108031216Y-110707544D01*
X108195188Y-110639624D01*
X108344488Y-110609927D01*
X108369258Y-110605000D01*
X108546742Y-110605000D01*
X108571512Y-110609927D01*
G37*
G36*
X111111512Y-110609927D02*
G01*
X111260812Y-110639624D01*
X111424784Y-110707544D01*
X111572354Y-110806147D01*
X111697853Y-110931646D01*
X111796456Y-111079216D01*
X111864376Y-111243188D01*
X111899000Y-111417259D01*
X111899000Y-111594741D01*
X111864376Y-111768812D01*
X111796456Y-111932784D01*
X111697853Y-112080354D01*
X111572354Y-112205853D01*
X111424784Y-112304456D01*
X111260812Y-112372376D01*
X111111512Y-112402073D01*
X111086742Y-112407000D01*
X110909258Y-112407000D01*
X110884488Y-112402073D01*
X110735188Y-112372376D01*
X110571216Y-112304456D01*
X110423646Y-112205853D01*
X110298147Y-112080354D01*
X110199544Y-111932784D01*
X110131624Y-111768812D01*
X110097000Y-111594741D01*
X110097000Y-111417259D01*
X110131624Y-111243188D01*
X110199544Y-111079216D01*
X110298147Y-110931646D01*
X110423646Y-110806147D01*
X110571216Y-110707544D01*
X110735188Y-110639624D01*
X110884488Y-110609927D01*
X110909258Y-110605000D01*
X111086742Y-110605000D01*
X111111512Y-110609927D01*
G37*
G36*
X114439000Y-112407000D02*
G01*
X112637000Y-112407000D01*
X112637000Y-110605000D01*
X114439000Y-110605000D01*
X114439000Y-112407000D01*
G37*
G36*
X132447512Y-110355927D02*
G01*
X132596812Y-110385624D01*
X132760784Y-110453544D01*
X132908354Y-110552147D01*
X133033853Y-110677646D01*
X133132456Y-110825216D01*
X133200376Y-110989188D01*
X133235000Y-111163259D01*
X133235000Y-111340741D01*
X133200376Y-111514812D01*
X133132456Y-111678784D01*
X133033853Y-111826354D01*
X132908354Y-111951853D01*
X132760784Y-112050456D01*
X132596812Y-112118376D01*
X132447512Y-112148073D01*
X132422742Y-112153000D01*
X132245258Y-112153000D01*
X132220488Y-112148073D01*
X132071188Y-112118376D01*
X131907216Y-112050456D01*
X131759646Y-111951853D01*
X131634147Y-111826354D01*
X131535544Y-111678784D01*
X131467624Y-111514812D01*
X131433000Y-111340741D01*
X131433000Y-111163259D01*
X131467624Y-110989188D01*
X131535544Y-110825216D01*
X131634147Y-110677646D01*
X131759646Y-110552147D01*
X131907216Y-110453544D01*
X132071188Y-110385624D01*
X132220488Y-110355927D01*
X132245258Y-110351000D01*
X132422742Y-110351000D01*
X132447512Y-110355927D01*
G37*
G36*
X134987512Y-110355927D02*
G01*
X135136812Y-110385624D01*
X135300784Y-110453544D01*
X135448354Y-110552147D01*
X135573853Y-110677646D01*
X135672456Y-110825216D01*
X135740376Y-110989188D01*
X135775000Y-111163259D01*
X135775000Y-111340741D01*
X135740376Y-111514812D01*
X135672456Y-111678784D01*
X135573853Y-111826354D01*
X135448354Y-111951853D01*
X135300784Y-112050456D01*
X135136812Y-112118376D01*
X134987512Y-112148073D01*
X134962742Y-112153000D01*
X134785258Y-112153000D01*
X134760488Y-112148073D01*
X134611188Y-112118376D01*
X134447216Y-112050456D01*
X134299646Y-111951853D01*
X134174147Y-111826354D01*
X134075544Y-111678784D01*
X134007624Y-111514812D01*
X133973000Y-111340741D01*
X133973000Y-111163259D01*
X134007624Y-110989188D01*
X134075544Y-110825216D01*
X134174147Y-110677646D01*
X134299646Y-110552147D01*
X134447216Y-110453544D01*
X134611188Y-110385624D01*
X134760488Y-110355927D01*
X134785258Y-110351000D01*
X134962742Y-110351000D01*
X134987512Y-110355927D01*
G37*
G36*
X138315000Y-112153000D02*
G01*
X136513000Y-112153000D01*
X136513000Y-110351000D01*
X138315000Y-110351000D01*
X138315000Y-112153000D01*
G37*
G36*
X148703512Y-103751927D02*
G01*
X148852812Y-103781624D01*
X149016784Y-103849544D01*
X149164354Y-103948147D01*
X149289853Y-104073646D01*
X149388456Y-104221216D01*
X149456376Y-104385188D01*
X149491000Y-104559259D01*
X149491000Y-104736741D01*
X149456376Y-104910812D01*
X149388456Y-105074784D01*
X149289853Y-105222354D01*
X149164354Y-105347853D01*
X149016784Y-105446456D01*
X148852812Y-105514376D01*
X148703512Y-105544073D01*
X148678742Y-105549000D01*
X148501258Y-105549000D01*
X148476488Y-105544073D01*
X148327188Y-105514376D01*
X148163216Y-105446456D01*
X148015646Y-105347853D01*
X147890147Y-105222354D01*
X147791544Y-105074784D01*
X147723624Y-104910812D01*
X147689000Y-104736741D01*
X147689000Y-104559259D01*
X147723624Y-104385188D01*
X147791544Y-104221216D01*
X147890147Y-104073646D01*
X148015646Y-103948147D01*
X148163216Y-103849544D01*
X148327188Y-103781624D01*
X148476488Y-103751927D01*
X148501258Y-103747000D01*
X148678742Y-103747000D01*
X148703512Y-103751927D01*
G37*
G36*
X148703512Y-101211927D02*
G01*
X148852812Y-101241624D01*
X149016784Y-101309544D01*
X149164354Y-101408147D01*
X149289853Y-101533646D01*
X149388456Y-101681216D01*
X149456376Y-101845188D01*
X149491000Y-102019259D01*
X149491000Y-102196741D01*
X149456376Y-102370812D01*
X149388456Y-102534784D01*
X149289853Y-102682354D01*
X149164354Y-102807853D01*
X149016784Y-102906456D01*
X148852812Y-102974376D01*
X148703512Y-103004073D01*
X148678742Y-103009000D01*
X148501258Y-103009000D01*
X148476488Y-103004073D01*
X148327188Y-102974376D01*
X148163216Y-102906456D01*
X148015646Y-102807853D01*
X147890147Y-102682354D01*
X147791544Y-102534784D01*
X147723624Y-102370812D01*
X147689000Y-102196741D01*
X147689000Y-102019259D01*
X147723624Y-101845188D01*
X147791544Y-101681216D01*
X147890147Y-101533646D01*
X148015646Y-101408147D01*
X148163216Y-101309544D01*
X148327188Y-101241624D01*
X148476488Y-101211927D01*
X148501258Y-101207000D01*
X148678742Y-101207000D01*
X148703512Y-101211927D01*
G37*
G36*
X148703512Y-98671927D02*
G01*
X148852812Y-98701624D01*
X149016784Y-98769544D01*
X149164354Y-98868147D01*
X149289853Y-98993646D01*
X149388456Y-99141216D01*
X149456376Y-99305188D01*
X149491000Y-99479259D01*
X149491000Y-99656741D01*
X149456376Y-99830812D01*
X149388456Y-99994784D01*
X149289853Y-100142354D01*
X149164354Y-100267853D01*
X149016784Y-100366456D01*
X148852812Y-100434376D01*
X148703512Y-100464073D01*
X148678742Y-100469000D01*
X148501258Y-100469000D01*
X148476488Y-100464073D01*
X148327188Y-100434376D01*
X148163216Y-100366456D01*
X148015646Y-100267853D01*
X147890147Y-100142354D01*
X147791544Y-99994784D01*
X147723624Y-99830812D01*
X147689000Y-99656741D01*
X147689000Y-99479259D01*
X147723624Y-99305188D01*
X147791544Y-99141216D01*
X147890147Y-98993646D01*
X148015646Y-98868147D01*
X148163216Y-98769544D01*
X148327188Y-98701624D01*
X148476488Y-98671927D01*
X148501258Y-98667000D01*
X148678742Y-98667000D01*
X148703512Y-98671927D01*
G37*
G36*
X148703512Y-96131927D02*
G01*
X148852812Y-96161624D01*
X149016784Y-96229544D01*
X149164354Y-96328147D01*
X149289853Y-96453646D01*
X149388456Y-96601216D01*
X149456376Y-96765188D01*
X149491000Y-96939259D01*
X149491000Y-97116741D01*
X149456376Y-97290812D01*
X149388456Y-97454784D01*
X149289853Y-97602354D01*
X149164354Y-97727853D01*
X149016784Y-97826456D01*
X148852812Y-97894376D01*
X148703512Y-97924073D01*
X148678742Y-97929000D01*
X148501258Y-97929000D01*
X148476488Y-97924073D01*
X148327188Y-97894376D01*
X148163216Y-97826456D01*
X148015646Y-97727853D01*
X147890147Y-97602354D01*
X147791544Y-97454784D01*
X147723624Y-97290812D01*
X147689000Y-97116741D01*
X147689000Y-96939259D01*
X147723624Y-96765188D01*
X147791544Y-96601216D01*
X147890147Y-96453646D01*
X148015646Y-96328147D01*
X148163216Y-96229544D01*
X148327188Y-96161624D01*
X148476488Y-96131927D01*
X148501258Y-96127000D01*
X148678742Y-96127000D01*
X148703512Y-96131927D01*
G37*
G36*
X148703512Y-93591927D02*
G01*
X148852812Y-93621624D01*
X149016784Y-93689544D01*
X149164354Y-93788147D01*
X149289853Y-93913646D01*
X149388456Y-94061216D01*
X149456376Y-94225188D01*
X149491000Y-94399259D01*
X149491000Y-94576741D01*
X149456376Y-94750812D01*
X149388456Y-94914784D01*
X149289853Y-95062354D01*
X149164354Y-95187853D01*
X149016784Y-95286456D01*
X148852812Y-95354376D01*
X148703512Y-95384073D01*
X148678742Y-95389000D01*
X148501258Y-95389000D01*
X148476488Y-95384073D01*
X148327188Y-95354376D01*
X148163216Y-95286456D01*
X148015646Y-95187853D01*
X147890147Y-95062354D01*
X147791544Y-94914784D01*
X147723624Y-94750812D01*
X147689000Y-94576741D01*
X147689000Y-94399259D01*
X147723624Y-94225188D01*
X147791544Y-94061216D01*
X147890147Y-93913646D01*
X148015646Y-93788147D01*
X148163216Y-93689544D01*
X148327188Y-93621624D01*
X148476488Y-93591927D01*
X148501258Y-93587000D01*
X148678742Y-93587000D01*
X148703512Y-93591927D01*
G37*
G36*
X148703512Y-91051927D02*
G01*
X148852812Y-91081624D01*
X149016784Y-91149544D01*
X149164354Y-91248147D01*
X149289853Y-91373646D01*
X149388456Y-91521216D01*
X149456376Y-91685188D01*
X149491000Y-91859259D01*
X149491000Y-92036741D01*
X149456376Y-92210812D01*
X149388456Y-92374784D01*
X149289853Y-92522354D01*
X149164354Y-92647853D01*
X149016784Y-92746456D01*
X148852812Y-92814376D01*
X148703512Y-92844073D01*
X148678742Y-92849000D01*
X148501258Y-92849000D01*
X148476488Y-92844073D01*
X148327188Y-92814376D01*
X148163216Y-92746456D01*
X148015646Y-92647853D01*
X147890147Y-92522354D01*
X147791544Y-92374784D01*
X147723624Y-92210812D01*
X147689000Y-92036741D01*
X147689000Y-91859259D01*
X147723624Y-91685188D01*
X147791544Y-91521216D01*
X147890147Y-91373646D01*
X148015646Y-91248147D01*
X148163216Y-91149544D01*
X148327188Y-91081624D01*
X148476488Y-91051927D01*
X148501258Y-91047000D01*
X148678742Y-91047000D01*
X148703512Y-91051927D01*
G37*
G36*
X149491000Y-90309000D02*
G01*
X147689000Y-90309000D01*
X147689000Y-88507000D01*
X149491000Y-88507000D01*
X149491000Y-90309000D01*
G37*
G36*
X140397000Y-84547000D02*
G01*
X138495000Y-84547000D01*
X138495000Y-80045000D01*
X140397000Y-80045000D01*
X140397000Y-84547000D01*
G37*
G36*
X145432424Y-80258760D02*
G01*
X145432427Y-80258761D01*
X145432428Y-80258761D01*
X145611692Y-80313140D01*
X145611695Y-80313142D01*
X145611696Y-80313142D01*
X145776903Y-80401446D01*
X145921712Y-80520288D01*
X146040554Y-80665097D01*
X146099298Y-80775000D01*
X146128860Y-80830307D01*
X146169247Y-80963446D01*
X146183240Y-81009575D01*
X146197000Y-81149282D01*
X146197000Y-83442718D01*
X146183240Y-83582425D01*
X146183239Y-83582428D01*
X146183239Y-83582429D01*
X146128860Y-83761693D01*
X146128858Y-83761696D01*
X146128858Y-83761697D01*
X146040554Y-83926903D01*
X145921712Y-84071712D01*
X145776903Y-84190554D01*
X145611697Y-84278858D01*
X145611693Y-84278860D01*
X145432429Y-84333239D01*
X145432428Y-84333239D01*
X145432425Y-84333240D01*
X145246000Y-84351601D01*
X145059576Y-84333240D01*
X145059573Y-84333239D01*
X145059572Y-84333239D01*
X144880308Y-84278860D01*
X144880304Y-84278858D01*
X144715098Y-84190554D01*
X144570289Y-84071712D01*
X144451447Y-83926903D01*
X144363143Y-83761697D01*
X144363143Y-83761696D01*
X144363141Y-83761693D01*
X144308762Y-83582429D01*
X144308762Y-83582428D01*
X144308761Y-83582425D01*
X144295001Y-83442718D01*
X144295000Y-81149283D01*
X144308760Y-81009576D01*
X144308761Y-81009572D01*
X144363140Y-80830308D01*
X144367770Y-80821645D01*
X144451446Y-80665097D01*
X144570288Y-80520288D01*
X144715097Y-80401446D01*
X144880303Y-80313142D01*
X144880304Y-80313142D01*
X144880307Y-80313140D01*
X145059571Y-80258761D01*
X145059572Y-80258761D01*
X145059575Y-80258760D01*
X145246000Y-80240399D01*
X145432424Y-80258760D01*
G37*
G36*
X110201855Y-80778140D02*
G01*
X110265618Y-80784420D01*
X110356404Y-80811960D01*
X110388336Y-80821646D01*
X110501425Y-80882094D01*
X110600554Y-80963446D01*
X110681906Y-81062575D01*
X110742354Y-81175664D01*
X110742355Y-81175668D01*
X110779580Y-81298382D01*
X110792149Y-81426000D01*
X110779580Y-81553618D01*
X110752040Y-81644404D01*
X110742354Y-81676336D01*
X110681906Y-81789425D01*
X110600554Y-81888554D01*
X110501425Y-81969906D01*
X110388336Y-82030354D01*
X110356404Y-82040040D01*
X110265618Y-82067580D01*
X110201855Y-82073860D01*
X110169974Y-82077000D01*
X108906026Y-82077000D01*
X108874145Y-82073860D01*
X108810382Y-82067580D01*
X108719596Y-82040040D01*
X108687664Y-82030354D01*
X108574575Y-81969906D01*
X108475446Y-81888554D01*
X108394094Y-81789425D01*
X108333646Y-81676336D01*
X108323960Y-81644404D01*
X108296420Y-81553618D01*
X108283851Y-81426000D01*
X108296420Y-81298382D01*
X108333645Y-81175668D01*
X108333646Y-81175664D01*
X108394094Y-81062575D01*
X108475446Y-80963446D01*
X108574575Y-80882094D01*
X108687664Y-80821646D01*
X108719596Y-80811960D01*
X108810382Y-80784420D01*
X108874145Y-80778140D01*
X108906026Y-80775000D01*
X110169974Y-80775000D01*
X110201855Y-80778140D01*
G37*
G36*
X124679855Y-80778140D02*
G01*
X124743618Y-80784420D01*
X124834404Y-80811960D01*
X124866336Y-80821646D01*
X124979425Y-80882094D01*
X125078554Y-80963446D01*
X125159906Y-81062575D01*
X125220354Y-81175664D01*
X125220355Y-81175668D01*
X125257580Y-81298382D01*
X125270149Y-81426000D01*
X125257580Y-81553618D01*
X125230040Y-81644404D01*
X125220354Y-81676336D01*
X125159906Y-81789425D01*
X125078554Y-81888554D01*
X124979425Y-81969906D01*
X124866336Y-82030354D01*
X124834404Y-82040040D01*
X124743618Y-82067580D01*
X124679855Y-82073860D01*
X124647974Y-82077000D01*
X123384026Y-82077000D01*
X123352145Y-82073860D01*
X123288382Y-82067580D01*
X123197596Y-82040040D01*
X123165664Y-82030354D01*
X123052575Y-81969906D01*
X122953446Y-81888554D01*
X122872094Y-81789425D01*
X122811646Y-81676336D01*
X122801960Y-81644404D01*
X122774420Y-81553618D01*
X122761851Y-81426000D01*
X122774420Y-81298382D01*
X122811645Y-81175668D01*
X122811646Y-81175664D01*
X122872094Y-81062575D01*
X122953446Y-80963446D01*
X123052575Y-80882094D01*
X123165664Y-80821646D01*
X123197596Y-80811960D01*
X123288382Y-80784420D01*
X123352145Y-80778140D01*
X123384026Y-80775000D01*
X124647974Y-80775000D01*
X124679855Y-80778140D01*
G37*
G36*
X133193617Y-76984420D02*
G01*
X133284403Y-77011960D01*
X133316335Y-77021646D01*
X133429424Y-77082094D01*
X133528554Y-77163447D01*
X133609906Y-77262575D01*
X133670354Y-77375664D01*
X133680040Y-77407596D01*
X133707580Y-77498382D01*
X133717000Y-77594027D01*
X133717000Y-78857973D01*
X133707580Y-78953618D01*
X133680040Y-79044404D01*
X133670354Y-79076336D01*
X133609906Y-79189425D01*
X133528554Y-79288554D01*
X133429425Y-79369906D01*
X133316336Y-79430354D01*
X133284404Y-79440040D01*
X133193618Y-79467580D01*
X133066000Y-79480149D01*
X132938383Y-79467580D01*
X132847597Y-79440040D01*
X132815665Y-79430354D01*
X132702576Y-79369906D01*
X132603447Y-79288554D01*
X132522095Y-79189425D01*
X132461647Y-79076336D01*
X132451961Y-79044404D01*
X132424421Y-78953618D01*
X132415001Y-78857973D01*
X132415000Y-77594028D01*
X132424420Y-77498383D01*
X132461645Y-77375669D01*
X132461646Y-77375665D01*
X132522094Y-77262576D01*
X132603447Y-77163446D01*
X132702575Y-77082094D01*
X132815664Y-77021646D01*
X132847596Y-77011960D01*
X132938382Y-76984420D01*
X133066000Y-76971851D01*
X133193617Y-76984420D01*
G37*
G36*
X118715617Y-76984420D02*
G01*
X118806403Y-77011960D01*
X118838335Y-77021646D01*
X118951424Y-77082094D01*
X119050554Y-77163447D01*
X119131906Y-77262575D01*
X119192354Y-77375664D01*
X119202040Y-77407596D01*
X119229580Y-77498382D01*
X119239000Y-77594027D01*
X119239000Y-78857973D01*
X119229580Y-78953618D01*
X119202040Y-79044404D01*
X119192354Y-79076336D01*
X119131906Y-79189425D01*
X119050554Y-79288554D01*
X118951425Y-79369906D01*
X118838336Y-79430354D01*
X118806404Y-79440040D01*
X118715618Y-79467580D01*
X118588000Y-79480149D01*
X118460383Y-79467580D01*
X118369597Y-79440040D01*
X118337665Y-79430354D01*
X118224576Y-79369906D01*
X118125447Y-79288554D01*
X118044095Y-79189425D01*
X117983647Y-79076336D01*
X117973961Y-79044404D01*
X117946421Y-78953618D01*
X117937001Y-78857973D01*
X117937000Y-77594028D01*
X117946420Y-77498383D01*
X117983645Y-77375669D01*
X117983646Y-77375665D01*
X118044094Y-77262576D01*
X118125447Y-77163446D01*
X118224575Y-77082094D01*
X118337664Y-77021646D01*
X118369596Y-77011960D01*
X118460382Y-76984420D01*
X118588000Y-76971851D01*
X118715617Y-76984420D01*
G37*
G36*
X143732425Y-76558760D02*
G01*
X143732428Y-76558761D01*
X143732429Y-76558761D01*
X143911693Y-76613140D01*
X143911696Y-76613142D01*
X143911697Y-76613142D01*
X144076903Y-76701446D01*
X144221712Y-76820288D01*
X144340554Y-76965097D01*
X144403090Y-77082095D01*
X144428860Y-77130307D01*
X144468983Y-77262575D01*
X144483240Y-77309575D01*
X144501601Y-77496000D01*
X144483240Y-77682425D01*
X144483239Y-77682428D01*
X144483239Y-77682429D01*
X144428860Y-77861693D01*
X144428858Y-77861696D01*
X144428858Y-77861697D01*
X144340554Y-78026903D01*
X144221712Y-78171712D01*
X144076903Y-78290554D01*
X143911697Y-78378858D01*
X143911693Y-78378860D01*
X143732429Y-78433239D01*
X143732428Y-78433239D01*
X143732425Y-78433240D01*
X143592718Y-78447000D01*
X141299282Y-78447000D01*
X141159575Y-78433240D01*
X141159572Y-78433239D01*
X141159571Y-78433239D01*
X140980307Y-78378860D01*
X140980303Y-78378858D01*
X140815097Y-78290554D01*
X140670288Y-78171712D01*
X140551446Y-78026903D01*
X140463142Y-77861697D01*
X140463142Y-77861696D01*
X140463140Y-77861693D01*
X140408761Y-77682429D01*
X140408761Y-77682428D01*
X140408760Y-77682425D01*
X140390399Y-77496000D01*
X140408760Y-77309575D01*
X140423017Y-77262575D01*
X140463140Y-77130307D01*
X140488910Y-77082095D01*
X140551446Y-76965097D01*
X140670288Y-76820288D01*
X140815097Y-76701446D01*
X140980303Y-76613142D01*
X140980304Y-76613142D01*
X140980307Y-76613140D01*
X141159571Y-76558761D01*
X141159572Y-76558761D01*
X141159575Y-76558760D01*
X141299282Y-76545000D01*
X143592718Y-76545000D01*
X143732425Y-76558760D01*
G37*
G36*
X130793617Y-75584420D02*
G01*
X130884403Y-75611960D01*
X130916335Y-75621646D01*
X131029424Y-75682094D01*
X131128554Y-75763447D01*
X131209906Y-75862575D01*
X131270354Y-75975664D01*
X131280040Y-76007596D01*
X131307580Y-76098382D01*
X131317000Y-76194027D01*
X131317000Y-77457973D01*
X131307580Y-77553618D01*
X131280040Y-77644404D01*
X131270354Y-77676336D01*
X131209906Y-77789425D01*
X131128554Y-77888554D01*
X131029425Y-77969906D01*
X130916336Y-78030354D01*
X130884404Y-78040040D01*
X130793618Y-78067580D01*
X130666000Y-78080149D01*
X130538383Y-78067580D01*
X130447597Y-78040040D01*
X130415665Y-78030354D01*
X130302576Y-77969906D01*
X130203447Y-77888554D01*
X130122095Y-77789425D01*
X130061647Y-77676336D01*
X130051961Y-77644404D01*
X130024421Y-77553618D01*
X130015001Y-77457973D01*
X130015000Y-76194028D01*
X130024420Y-76098383D01*
X130061645Y-75975669D01*
X130061646Y-75975665D01*
X130122094Y-75862576D01*
X130203447Y-75763446D01*
X130302575Y-75682094D01*
X130415664Y-75621646D01*
X130447596Y-75611960D01*
X130538382Y-75584420D01*
X130666000Y-75571851D01*
X130793617Y-75584420D01*
G37*
G36*
X116315617Y-75584420D02*
G01*
X116406403Y-75611960D01*
X116438335Y-75621646D01*
X116551424Y-75682094D01*
X116650554Y-75763447D01*
X116731906Y-75862575D01*
X116792354Y-75975664D01*
X116802040Y-76007596D01*
X116829580Y-76098382D01*
X116839000Y-76194027D01*
X116839000Y-77457973D01*
X116829580Y-77553618D01*
X116802040Y-77644404D01*
X116792354Y-77676336D01*
X116731906Y-77789425D01*
X116650554Y-77888554D01*
X116551425Y-77969906D01*
X116438336Y-78030354D01*
X116406404Y-78040040D01*
X116315618Y-78067580D01*
X116188000Y-78080149D01*
X116060383Y-78067580D01*
X115969597Y-78040040D01*
X115937665Y-78030354D01*
X115824576Y-77969906D01*
X115725447Y-77888554D01*
X115644095Y-77789425D01*
X115583647Y-77676336D01*
X115573961Y-77644404D01*
X115546421Y-77553618D01*
X115537001Y-77457973D01*
X115537000Y-76194028D01*
X115546420Y-76098383D01*
X115583645Y-75975669D01*
X115583646Y-75975665D01*
X115644094Y-75862576D01*
X115725447Y-75763446D01*
X115824575Y-75682094D01*
X115937664Y-75621646D01*
X115969596Y-75611960D01*
X116060382Y-75584420D01*
X116188000Y-75571851D01*
X116315617Y-75584420D01*
G37*
G36*
X103289943Y-70866248D02*
G01*
X103845189Y-71096238D01*
X103845190Y-71096239D01*
X104344899Y-71430134D01*
X104769866Y-71855101D01*
X104905319Y-72057821D01*
X105103762Y-72354811D01*
X105333752Y-72910057D01*
X105451000Y-73499501D01*
X105451000Y-74100499D01*
X105333752Y-74689943D01*
X105103762Y-75245189D01*
X105103761Y-75245190D01*
X104769866Y-75744899D01*
X104344899Y-76169866D01*
X104308738Y-76194028D01*
X103845189Y-76503762D01*
X103289943Y-76733752D01*
X102700499Y-76851000D01*
X102099501Y-76851000D01*
X101510057Y-76733752D01*
X100954811Y-76503762D01*
X100491262Y-76194028D01*
X100455101Y-76169866D01*
X100030134Y-75744899D01*
X99696239Y-75245190D01*
X99696238Y-75245189D01*
X99466248Y-74689943D01*
X99349000Y-74100499D01*
X99349000Y-73499501D01*
X99466248Y-72910057D01*
X99696238Y-72354811D01*
X99894681Y-72057821D01*
X100030134Y-71855101D01*
X100455101Y-71430134D01*
X100954810Y-71096239D01*
X100954811Y-71096238D01*
X101510057Y-70866248D01*
X102099501Y-70749000D01*
X102700499Y-70749000D01*
X103289943Y-70866248D01*
G37*
G36*
X109115617Y-72484420D02*
G01*
X109206403Y-72511960D01*
X109238335Y-72521646D01*
X109351424Y-72582094D01*
X109450554Y-72663447D01*
X109531906Y-72762575D01*
X109592354Y-72875664D01*
X109593799Y-72880429D01*
X109629580Y-72998382D01*
X109639000Y-73094027D01*
X109639000Y-74357973D01*
X109629580Y-74453618D01*
X109602040Y-74544404D01*
X109592354Y-74576336D01*
X109531906Y-74689425D01*
X109450554Y-74788554D01*
X109351425Y-74869906D01*
X109238336Y-74930354D01*
X109206404Y-74940040D01*
X109115618Y-74967580D01*
X108988000Y-74980149D01*
X108860383Y-74967580D01*
X108769597Y-74940040D01*
X108737665Y-74930354D01*
X108624576Y-74869906D01*
X108525447Y-74788554D01*
X108444095Y-74689425D01*
X108383647Y-74576336D01*
X108373961Y-74544404D01*
X108346421Y-74453618D01*
X108337001Y-74357973D01*
X108337000Y-73094028D01*
X108346420Y-72998383D01*
X108383645Y-72875669D01*
X108383646Y-72875665D01*
X108444094Y-72762576D01*
X108525447Y-72663446D01*
X108624575Y-72582094D01*
X108737664Y-72521646D01*
X108769596Y-72511960D01*
X108860382Y-72484420D01*
X108988000Y-72471851D01*
X109115617Y-72484420D01*
G37*
G36*
X123593617Y-72484420D02*
G01*
X123684403Y-72511960D01*
X123716335Y-72521646D01*
X123829424Y-72582094D01*
X123928554Y-72663447D01*
X124009906Y-72762575D01*
X124070354Y-72875664D01*
X124071799Y-72880429D01*
X124107580Y-72998382D01*
X124117000Y-73094027D01*
X124117000Y-74357973D01*
X124107580Y-74453618D01*
X124080040Y-74544404D01*
X124070354Y-74576336D01*
X124009906Y-74689425D01*
X123928554Y-74788554D01*
X123829425Y-74869906D01*
X123716336Y-74930354D01*
X123684404Y-74940040D01*
X123593618Y-74967580D01*
X123466000Y-74980149D01*
X123338383Y-74967580D01*
X123247597Y-74940040D01*
X123215665Y-74930354D01*
X123102576Y-74869906D01*
X123003447Y-74788554D01*
X122922095Y-74689425D01*
X122861647Y-74576336D01*
X122851961Y-74544404D01*
X122824421Y-74453618D01*
X122815001Y-74357973D01*
X122815000Y-73094028D01*
X122824420Y-72998383D01*
X122861645Y-72875669D01*
X122861646Y-72875665D01*
X122922094Y-72762576D01*
X123003447Y-72663446D01*
X123102575Y-72582094D01*
X123215664Y-72521646D01*
X123247596Y-72511960D01*
X123338382Y-72484420D01*
X123466000Y-72471851D01*
X123593617Y-72484420D01*
G37*
G36*
X140220348Y-72057820D02*
G01*
X140220350Y-72057821D01*
X140220351Y-72057821D01*
X140361574Y-72116317D01*
X140361577Y-72116319D01*
X140488669Y-72201239D01*
X140596761Y-72309331D01*
X140681681Y-72436423D01*
X140681683Y-72436426D01*
X140716982Y-72521646D01*
X140740180Y-72577652D01*
X140770000Y-72727569D01*
X140770000Y-72880431D01*
X140746538Y-72998385D01*
X140740179Y-73030351D01*
X140681683Y-73171574D01*
X140681681Y-73171577D01*
X140596761Y-73298669D01*
X140488669Y-73406761D01*
X140361577Y-73491681D01*
X140361574Y-73491683D01*
X140220351Y-73550179D01*
X140220350Y-73550179D01*
X140220348Y-73550180D01*
X140070431Y-73580000D01*
X139917569Y-73580000D01*
X139767652Y-73550180D01*
X139767650Y-73550179D01*
X139767649Y-73550179D01*
X139626426Y-73491683D01*
X139626423Y-73491681D01*
X139499331Y-73406761D01*
X139391239Y-73298669D01*
X139306319Y-73171577D01*
X139306317Y-73171574D01*
X139247821Y-73030351D01*
X139241463Y-72998385D01*
X139218000Y-72880431D01*
X139218000Y-72727569D01*
X139247820Y-72577652D01*
X139271018Y-72521646D01*
X139306317Y-72436426D01*
X139306319Y-72436423D01*
X139391239Y-72309331D01*
X139499331Y-72201239D01*
X139626423Y-72116319D01*
X139626426Y-72116317D01*
X139767649Y-72057821D01*
X139767650Y-72057821D01*
X139767652Y-72057820D01*
X139917569Y-72028000D01*
X140070431Y-72028000D01*
X140220348Y-72057820D01*
G37*
G36*
X145220348Y-72057820D02*
G01*
X145220350Y-72057821D01*
X145220351Y-72057821D01*
X145361574Y-72116317D01*
X145361577Y-72116319D01*
X145488669Y-72201239D01*
X145596761Y-72309331D01*
X145681681Y-72436423D01*
X145681683Y-72436426D01*
X145716982Y-72521646D01*
X145740180Y-72577652D01*
X145770000Y-72727569D01*
X145770000Y-72880431D01*
X145746538Y-72998385D01*
X145740179Y-73030351D01*
X145681683Y-73171574D01*
X145681681Y-73171577D01*
X145596761Y-73298669D01*
X145488669Y-73406761D01*
X145361577Y-73491681D01*
X145361574Y-73491683D01*
X145220351Y-73550179D01*
X145220350Y-73550179D01*
X145220348Y-73550180D01*
X145070431Y-73580000D01*
X144917569Y-73580000D01*
X144767652Y-73550180D01*
X144767650Y-73550179D01*
X144767649Y-73550179D01*
X144626426Y-73491683D01*
X144626423Y-73491681D01*
X144499331Y-73406761D01*
X144391239Y-73298669D01*
X144306319Y-73171577D01*
X144306317Y-73171574D01*
X144247821Y-73030351D01*
X144241463Y-72998385D01*
X144218000Y-72880431D01*
X144218000Y-72727569D01*
X144247820Y-72577652D01*
X144271018Y-72521646D01*
X144306317Y-72436426D01*
X144306319Y-72436423D01*
X144391239Y-72309331D01*
X144499331Y-72201239D01*
X144626423Y-72116319D01*
X144626426Y-72116317D01*
X144767649Y-72057821D01*
X144767650Y-72057821D01*
X144767652Y-72057820D01*
X144917569Y-72028000D01*
X145070431Y-72028000D01*
X145220348Y-72057820D01*
G37*
G36*
X139121618Y-69112420D02*
G01*
X139212404Y-69139960D01*
X139244336Y-69149646D01*
X139357425Y-69210094D01*
X139456554Y-69291446D01*
X139537906Y-69390575D01*
X139598354Y-69503664D01*
X139608040Y-69535596D01*
X139635580Y-69626382D01*
X139645000Y-69722027D01*
X139645000Y-70485973D01*
X139635580Y-70581618D01*
X139608040Y-70672404D01*
X139598354Y-70704336D01*
X139537906Y-70817425D01*
X139456554Y-70916553D01*
X139357424Y-70997906D01*
X139244335Y-71058354D01*
X139213920Y-71067580D01*
X139121617Y-71095580D01*
X138994000Y-71108149D01*
X138866382Y-71095580D01*
X138774079Y-71067580D01*
X138743664Y-71058354D01*
X138630575Y-70997906D01*
X138531447Y-70916554D01*
X138450094Y-70817424D01*
X138389646Y-70704335D01*
X138379960Y-70672403D01*
X138352420Y-70581617D01*
X138343000Y-70485972D01*
X138343000Y-69722027D01*
X138352420Y-69626382D01*
X138389645Y-69503668D01*
X138414608Y-69456966D01*
X138450095Y-69390575D01*
X138531447Y-69291446D01*
X138630576Y-69210094D01*
X138743665Y-69149646D01*
X138775597Y-69139960D01*
X138866383Y-69112420D01*
X138994000Y-69099851D01*
X139121618Y-69112420D01*
G37*
G36*
X146121617Y-69112420D02*
G01*
X146212403Y-69139960D01*
X146244335Y-69149646D01*
X146357424Y-69210094D01*
X146456554Y-69291447D01*
X146537906Y-69390575D01*
X146598354Y-69503664D01*
X146608040Y-69535596D01*
X146635580Y-69626382D01*
X146645000Y-69722027D01*
X146645000Y-70485973D01*
X146635580Y-70581618D01*
X146608040Y-70672404D01*
X146598354Y-70704336D01*
X146537906Y-70817425D01*
X146456554Y-70916554D01*
X146357425Y-70997906D01*
X146244336Y-71058354D01*
X146213921Y-71067580D01*
X146121618Y-71095580D01*
X145994000Y-71108149D01*
X145866383Y-71095580D01*
X145774080Y-71067580D01*
X145743665Y-71058354D01*
X145630576Y-70997906D01*
X145531447Y-70916554D01*
X145450095Y-70817425D01*
X145389648Y-70704337D01*
X145389645Y-70704332D01*
X145352420Y-70581618D01*
X145343000Y-70485973D01*
X145343000Y-69722028D01*
X145352420Y-69626383D01*
X145389645Y-69503669D01*
X145389646Y-69503665D01*
X145450094Y-69390576D01*
X145531447Y-69291446D01*
X145630575Y-69210094D01*
X145743664Y-69149646D01*
X145775596Y-69139960D01*
X145866382Y-69112420D01*
X145994000Y-69099851D01*
X146121617Y-69112420D01*
G37*
G36*
X114201855Y-69778140D02*
G01*
X114265618Y-69784420D01*
X114356404Y-69811960D01*
X114388336Y-69821646D01*
X114501425Y-69882094D01*
X114600554Y-69963446D01*
X114681906Y-70062575D01*
X114742354Y-70175664D01*
X114742355Y-70175668D01*
X114779580Y-70298382D01*
X114792149Y-70426000D01*
X114779580Y-70553618D01*
X114771086Y-70581618D01*
X114742354Y-70676336D01*
X114681906Y-70789425D01*
X114600554Y-70888554D01*
X114501425Y-70969906D01*
X114388336Y-71030354D01*
X114356404Y-71040040D01*
X114265618Y-71067580D01*
X114201855Y-71073860D01*
X114169974Y-71077000D01*
X112906026Y-71077000D01*
X112874145Y-71073860D01*
X112810382Y-71067580D01*
X112719596Y-71040040D01*
X112687664Y-71030354D01*
X112574575Y-70969906D01*
X112475446Y-70888554D01*
X112394094Y-70789425D01*
X112333646Y-70676336D01*
X112304914Y-70581618D01*
X112296420Y-70553618D01*
X112283851Y-70426000D01*
X112296420Y-70298382D01*
X112333645Y-70175668D01*
X112333646Y-70175664D01*
X112394094Y-70062575D01*
X112475446Y-69963446D01*
X112574575Y-69882094D01*
X112687664Y-69821646D01*
X112719596Y-69811960D01*
X112810382Y-69784420D01*
X112874145Y-69778140D01*
X112906026Y-69775000D01*
X114169974Y-69775000D01*
X114201855Y-69778140D01*
G37*
G36*
X128679855Y-69778140D02*
G01*
X128743618Y-69784420D01*
X128834404Y-69811960D01*
X128866336Y-69821646D01*
X128979425Y-69882094D01*
X129078554Y-69963446D01*
X129159906Y-70062575D01*
X129220354Y-70175664D01*
X129220355Y-70175668D01*
X129257580Y-70298382D01*
X129270149Y-70426000D01*
X129257580Y-70553618D01*
X129249086Y-70581618D01*
X129220354Y-70676336D01*
X129159906Y-70789425D01*
X129078554Y-70888554D01*
X128979425Y-70969906D01*
X128866336Y-71030354D01*
X128834404Y-71040040D01*
X128743618Y-71067580D01*
X128679855Y-71073860D01*
X128647974Y-71077000D01*
X127384026Y-71077000D01*
X127352145Y-71073860D01*
X127288382Y-71067580D01*
X127197596Y-71040040D01*
X127165664Y-71030354D01*
X127052575Y-70969906D01*
X126953446Y-70888554D01*
X126872094Y-70789425D01*
X126811646Y-70676336D01*
X126782914Y-70581618D01*
X126774420Y-70553618D01*
X126761851Y-70426000D01*
X126774420Y-70298382D01*
X126811645Y-70175668D01*
X126811646Y-70175664D01*
X126872094Y-70062575D01*
X126953446Y-69963446D01*
X127052575Y-69882094D01*
X127165664Y-69821646D01*
X127197596Y-69811960D01*
X127288382Y-69784420D01*
X127352145Y-69778140D01*
X127384026Y-69775000D01*
X128647974Y-69775000D01*
X128679855Y-69778140D01*
G37*
M02*
