G04 #@! TF.GenerationSoftware,KiCad,Pcbnew,(5.1.5)-3*
G04 #@! TF.CreationDate,2020-09-20T15:24:45+01:00*
G04 #@! TF.ProjectId,Alexa_kicad_PCB,416c6578-615f-46b6-9963-61645f504342,rev?*
G04 #@! TF.SameCoordinates,Original*
G04 #@! TF.FileFunction,Copper,L2,Bot*
G04 #@! TF.FilePolarity,Positive*
%FSLAX46Y46*%
G04 Gerber Fmt 4.6, Leading zero omitted, Abs format (unit mm)*
G04 Created by KiCad (PCBNEW (5.1.5)-3) date 2020-09-20 15:24:45*
%MOMM*%
%LPD*%
G04 APERTURE LIST*
%ADD10C,6.000000*%
%ADD11O,4.000000X1.800000*%
%ADD12O,1.800000X4.000000*%
%ADD13R,1.800000X4.400000*%
%ADD14C,1.450000*%
%ADD15O,1.200000X1.900000*%
%ADD16R,1.700000X1.700000*%
%ADD17O,1.700000X1.700000*%
%ADD18O,2.400000X1.200000*%
%ADD19O,1.200000X2.400000*%
%ADD20C,0.400000*%
%ADD21C,0.800000*%
%ADD22C,0.250000*%
%ADD23C,0.150000*%
%ADD24C,0.254000*%
G04 APERTURE END LIST*
D10*
X102400000Y-73800000D03*
X144400000Y-110400000D03*
D11*
X142446000Y-77496000D03*
D12*
X145246000Y-82296000D03*
D13*
X139446000Y-82296000D03*
D14*
X144994000Y-72804000D03*
X139994000Y-72804000D03*
D15*
X145994000Y-70104000D03*
X138994000Y-70104000D03*
D16*
X137414000Y-111252000D03*
D17*
X134874000Y-111252000D03*
X132334000Y-111252000D03*
D16*
X113538000Y-111506000D03*
D17*
X110998000Y-111506000D03*
X108458000Y-111506000D03*
X120650000Y-111506000D03*
X123190000Y-111506000D03*
D16*
X125730000Y-111506000D03*
D18*
X128016000Y-70426000D03*
D19*
X123466000Y-73726000D03*
X133066000Y-78226000D03*
D18*
X124016000Y-81426000D03*
D19*
X130666000Y-76826000D03*
X116188000Y-76826000D03*
D18*
X109538000Y-81426000D03*
D19*
X118588000Y-78226000D03*
X108988000Y-73726000D03*
D18*
X113538000Y-70426000D03*
D16*
X148590000Y-89408000D03*
D17*
X148590000Y-91948000D03*
X148590000Y-94488000D03*
X148590000Y-97028000D03*
X148590000Y-99568000D03*
X148590000Y-102108000D03*
X148590000Y-104648000D03*
D20*
X122500000Y-95900000D03*
X122100000Y-101900000D03*
X111200000Y-93200000D03*
X111000000Y-96800000D03*
X115600000Y-102300000D03*
X129000000Y-84400000D03*
X124300000Y-85400000D03*
X125400000Y-101900000D03*
X126600000Y-104700000D03*
X145800000Y-95800000D03*
X144800000Y-96700000D03*
D21*
X141224000Y-87122000D03*
X99123500Y-106807000D03*
D20*
X141700000Y-96500000D03*
X128900000Y-90800000D03*
X133000000Y-100100000D03*
X132700000Y-89400000D03*
X123400000Y-101500000D03*
X123400000Y-97100000D03*
X124000000Y-91200000D03*
X129400000Y-88000000D03*
X120900000Y-104400000D03*
X120500000Y-93900000D03*
X116400000Y-101200000D03*
X122700000Y-90200000D03*
X126400000Y-91500000D03*
X137600000Y-89600000D03*
X115600000Y-103700000D03*
X120100000Y-101000000D03*
D22*
X141224000Y-87122000D02*
X103441500Y-87122000D01*
X103441500Y-87122000D02*
X99123500Y-91440000D01*
X99123500Y-91440000D02*
X99123500Y-106807000D01*
D23*
X141700000Y-96500000D02*
X137100000Y-101100000D01*
X137100000Y-101100000D02*
X131900000Y-101100000D01*
X131900000Y-101100000D02*
X128900000Y-98100000D01*
X128900000Y-98100000D02*
X128900000Y-90800000D01*
X133000000Y-100100000D02*
X133000000Y-89700000D01*
X133000000Y-89700000D02*
X132700000Y-89400000D01*
X123400000Y-101500000D02*
X123400000Y-97100000D01*
X124000000Y-91200000D02*
X124400000Y-90800000D01*
X124400000Y-90800000D02*
X126600000Y-90800000D01*
X126600000Y-90800000D02*
X129400000Y-88000000D01*
X120900000Y-104400000D02*
X120900000Y-94300000D01*
X120900000Y-94300000D02*
X120500000Y-93900000D01*
X116400000Y-101200000D02*
X116400000Y-91500000D01*
X116400000Y-91500000D02*
X117700000Y-90200000D01*
X117700000Y-90200000D02*
X122700000Y-90200000D01*
X126682842Y-91500000D02*
X129782842Y-88400000D01*
X126400000Y-91500000D02*
X126682842Y-91500000D01*
X129782842Y-88400000D02*
X136400000Y-88400000D01*
X136400000Y-88400000D02*
X137600000Y-89600000D01*
X115600000Y-103700000D02*
X117400000Y-103700000D01*
X117400000Y-103700000D02*
X120100000Y-101000000D01*
D24*
G36*
X138037693Y-68962275D02*
G01*
X137901610Y-69164054D01*
X137807507Y-69388504D01*
X137759000Y-69627000D01*
X137759000Y-69977000D01*
X138867000Y-69977000D01*
X138867000Y-69957000D01*
X139121000Y-69957000D01*
X139121000Y-69977000D01*
X140229000Y-69977000D01*
X140229000Y-69627000D01*
X140180493Y-69388504D01*
X140086390Y-69164054D01*
X139950307Y-68962275D01*
X139919771Y-68932000D01*
X145068229Y-68932000D01*
X145037693Y-68962275D01*
X144901610Y-69164054D01*
X144807507Y-69388504D01*
X144759000Y-69627000D01*
X144759000Y-69977000D01*
X145867000Y-69977000D01*
X145867000Y-69957000D01*
X146121000Y-69957000D01*
X146121000Y-69977000D01*
X147229000Y-69977000D01*
X147229000Y-69627000D01*
X147180493Y-69388504D01*
X147086390Y-69164054D01*
X146950307Y-68962275D01*
X146919771Y-68932000D01*
X147302785Y-68932000D01*
X147744654Y-68975326D01*
X148153140Y-69098655D01*
X148529888Y-69298974D01*
X148860550Y-69568657D01*
X149132535Y-69897431D01*
X149335480Y-70272769D01*
X149461657Y-70680381D01*
X149508000Y-71121308D01*
X149508000Y-88236914D01*
X149504103Y-88235732D01*
X149440000Y-88229418D01*
X147740000Y-88229418D01*
X147675897Y-88235732D01*
X147614257Y-88254430D01*
X147557450Y-88284794D01*
X147507657Y-88325657D01*
X147466794Y-88375450D01*
X147436430Y-88432257D01*
X147417732Y-88493897D01*
X147411418Y-88558000D01*
X147411418Y-90258000D01*
X147417732Y-90322103D01*
X147436430Y-90383743D01*
X147466794Y-90440550D01*
X147507657Y-90490343D01*
X147557450Y-90531206D01*
X147614257Y-90561570D01*
X147675897Y-90580268D01*
X147740000Y-90586582D01*
X149440000Y-90586582D01*
X149504103Y-90580268D01*
X149508000Y-90579086D01*
X149508000Y-91203340D01*
X149504236Y-91197706D01*
X149340294Y-91033764D01*
X149147519Y-90904956D01*
X148933318Y-90816231D01*
X148705924Y-90771000D01*
X148474076Y-90771000D01*
X148246682Y-90816231D01*
X148032481Y-90904956D01*
X147839706Y-91033764D01*
X147675764Y-91197706D01*
X147546956Y-91390481D01*
X147458231Y-91604682D01*
X147413000Y-91832076D01*
X147413000Y-92063924D01*
X147458231Y-92291318D01*
X147546956Y-92505519D01*
X147675764Y-92698294D01*
X147839706Y-92862236D01*
X148032481Y-92991044D01*
X148246682Y-93079769D01*
X148474076Y-93125000D01*
X148705924Y-93125000D01*
X148933318Y-93079769D01*
X149147519Y-92991044D01*
X149340294Y-92862236D01*
X149504236Y-92698294D01*
X149508001Y-92692660D01*
X149508001Y-93743340D01*
X149504236Y-93737706D01*
X149340294Y-93573764D01*
X149147519Y-93444956D01*
X148933318Y-93356231D01*
X148705924Y-93311000D01*
X148474076Y-93311000D01*
X148246682Y-93356231D01*
X148032481Y-93444956D01*
X147839706Y-93573764D01*
X147675764Y-93737706D01*
X147546956Y-93930481D01*
X147458231Y-94144682D01*
X147413000Y-94372076D01*
X147413000Y-94603924D01*
X147458231Y-94831318D01*
X147546956Y-95045519D01*
X147675764Y-95238294D01*
X147839706Y-95402236D01*
X148032481Y-95531044D01*
X148246682Y-95619769D01*
X148474076Y-95665000D01*
X148705924Y-95665000D01*
X148933318Y-95619769D01*
X149147519Y-95531044D01*
X149340294Y-95402236D01*
X149504236Y-95238294D01*
X149508001Y-95232660D01*
X149508001Y-96283340D01*
X149504236Y-96277706D01*
X149340294Y-96113764D01*
X149147519Y-95984956D01*
X148933318Y-95896231D01*
X148705924Y-95851000D01*
X148474076Y-95851000D01*
X148246682Y-95896231D01*
X148032481Y-95984956D01*
X147839706Y-96113764D01*
X147675764Y-96277706D01*
X147546956Y-96470481D01*
X147458231Y-96684682D01*
X147413000Y-96912076D01*
X147413000Y-97143924D01*
X147458231Y-97371318D01*
X147546956Y-97585519D01*
X147675764Y-97778294D01*
X147839706Y-97942236D01*
X148032481Y-98071044D01*
X148246682Y-98159769D01*
X148474076Y-98205000D01*
X148705924Y-98205000D01*
X148933318Y-98159769D01*
X149147519Y-98071044D01*
X149340294Y-97942236D01*
X149504236Y-97778294D01*
X149508001Y-97772660D01*
X149508001Y-98823340D01*
X149504236Y-98817706D01*
X149340294Y-98653764D01*
X149147519Y-98524956D01*
X148933318Y-98436231D01*
X148705924Y-98391000D01*
X148474076Y-98391000D01*
X148246682Y-98436231D01*
X148032481Y-98524956D01*
X147839706Y-98653764D01*
X147675764Y-98817706D01*
X147546956Y-99010481D01*
X147458231Y-99224682D01*
X147413000Y-99452076D01*
X147413000Y-99683924D01*
X147458231Y-99911318D01*
X147546956Y-100125519D01*
X147675764Y-100318294D01*
X147839706Y-100482236D01*
X148032481Y-100611044D01*
X148197179Y-100679264D01*
X147958748Y-100763843D01*
X147708645Y-100912822D01*
X147492412Y-101107731D01*
X147318359Y-101341080D01*
X147193175Y-101603901D01*
X147148524Y-101751110D01*
X147269845Y-101981000D01*
X148463000Y-101981000D01*
X148463000Y-101961000D01*
X148717000Y-101961000D01*
X148717000Y-101981000D01*
X148737000Y-101981000D01*
X148737000Y-102235000D01*
X148717000Y-102235000D01*
X148717000Y-102255000D01*
X148463000Y-102255000D01*
X148463000Y-102235000D01*
X147269845Y-102235000D01*
X147148524Y-102464890D01*
X147193175Y-102612099D01*
X147318359Y-102874920D01*
X147492412Y-103108269D01*
X147708645Y-103303178D01*
X147958748Y-103452157D01*
X148197179Y-103536736D01*
X148032481Y-103604956D01*
X147839706Y-103733764D01*
X147675764Y-103897706D01*
X147546956Y-104090481D01*
X147458231Y-104304682D01*
X147413000Y-104532076D01*
X147413000Y-104763924D01*
X147458231Y-104991318D01*
X147546956Y-105205519D01*
X147675764Y-105398294D01*
X147839706Y-105562236D01*
X148032481Y-105691044D01*
X148246682Y-105779769D01*
X148474076Y-105825000D01*
X148705924Y-105825000D01*
X148933318Y-105779769D01*
X149147519Y-105691044D01*
X149340294Y-105562236D01*
X149504236Y-105398294D01*
X149508001Y-105392660D01*
X149508001Y-111742775D01*
X149464674Y-112184659D01*
X149341346Y-112593139D01*
X149141025Y-112969889D01*
X148871346Y-113300548D01*
X148542569Y-113572535D01*
X148167231Y-113775480D01*
X147759621Y-113901657D01*
X147318692Y-113948000D01*
X99077215Y-113948000D01*
X98635341Y-113904674D01*
X98226861Y-113781346D01*
X97850111Y-113581025D01*
X97519452Y-113311346D01*
X97247465Y-112982569D01*
X97044520Y-112607231D01*
X96918343Y-112199621D01*
X96882952Y-111862891D01*
X107016519Y-111862891D01*
X107113843Y-112137252D01*
X107262822Y-112387355D01*
X107457731Y-112603588D01*
X107691080Y-112777641D01*
X107953901Y-112902825D01*
X108101110Y-112947476D01*
X108331000Y-112826155D01*
X108331000Y-111633000D01*
X107137186Y-111633000D01*
X107016519Y-111862891D01*
X96882952Y-111862891D01*
X96872000Y-111758692D01*
X96872000Y-111149109D01*
X107016519Y-111149109D01*
X107137186Y-111379000D01*
X108331000Y-111379000D01*
X108331000Y-110185845D01*
X108585000Y-110185845D01*
X108585000Y-111379000D01*
X108605000Y-111379000D01*
X108605000Y-111633000D01*
X108585000Y-111633000D01*
X108585000Y-112826155D01*
X108814890Y-112947476D01*
X108962099Y-112902825D01*
X109224920Y-112777641D01*
X109458269Y-112603588D01*
X109653178Y-112387355D01*
X109802157Y-112137252D01*
X109886736Y-111898821D01*
X109954956Y-112063519D01*
X110083764Y-112256294D01*
X110247706Y-112420236D01*
X110440481Y-112549044D01*
X110654682Y-112637769D01*
X110882076Y-112683000D01*
X111113924Y-112683000D01*
X111341318Y-112637769D01*
X111555519Y-112549044D01*
X111748294Y-112420236D01*
X111912236Y-112256294D01*
X112041044Y-112063519D01*
X112129769Y-111849318D01*
X112175000Y-111621924D01*
X112175000Y-111390076D01*
X112129769Y-111162682D01*
X112041044Y-110948481D01*
X111912236Y-110755706D01*
X111812530Y-110656000D01*
X112359418Y-110656000D01*
X112359418Y-112356000D01*
X112365732Y-112420103D01*
X112384430Y-112481743D01*
X112414794Y-112538550D01*
X112455657Y-112588343D01*
X112505450Y-112629206D01*
X112562257Y-112659570D01*
X112623897Y-112678268D01*
X112688000Y-112684582D01*
X114388000Y-112684582D01*
X114452103Y-112678268D01*
X114513743Y-112659570D01*
X114570550Y-112629206D01*
X114620343Y-112588343D01*
X114661206Y-112538550D01*
X114691570Y-112481743D01*
X114710268Y-112420103D01*
X114716582Y-112356000D01*
X114716582Y-111862891D01*
X119208519Y-111862891D01*
X119305843Y-112137252D01*
X119454822Y-112387355D01*
X119649731Y-112603588D01*
X119883080Y-112777641D01*
X120145901Y-112902825D01*
X120293110Y-112947476D01*
X120523000Y-112826155D01*
X120523000Y-111633000D01*
X119329186Y-111633000D01*
X119208519Y-111862891D01*
X114716582Y-111862891D01*
X114716582Y-111149109D01*
X119208519Y-111149109D01*
X119329186Y-111379000D01*
X120523000Y-111379000D01*
X120523000Y-110185845D01*
X120777000Y-110185845D01*
X120777000Y-111379000D01*
X120797000Y-111379000D01*
X120797000Y-111633000D01*
X120777000Y-111633000D01*
X120777000Y-112826155D01*
X121006890Y-112947476D01*
X121154099Y-112902825D01*
X121416920Y-112777641D01*
X121650269Y-112603588D01*
X121845178Y-112387355D01*
X121994157Y-112137252D01*
X122078736Y-111898821D01*
X122146956Y-112063519D01*
X122275764Y-112256294D01*
X122439706Y-112420236D01*
X122632481Y-112549044D01*
X122846682Y-112637769D01*
X123074076Y-112683000D01*
X123305924Y-112683000D01*
X123533318Y-112637769D01*
X123747519Y-112549044D01*
X123940294Y-112420236D01*
X124104236Y-112256294D01*
X124233044Y-112063519D01*
X124321769Y-111849318D01*
X124367000Y-111621924D01*
X124367000Y-111390076D01*
X124321769Y-111162682D01*
X124233044Y-110948481D01*
X124104236Y-110755706D01*
X124004530Y-110656000D01*
X124551418Y-110656000D01*
X124551418Y-112356000D01*
X124557732Y-112420103D01*
X124576430Y-112481743D01*
X124606794Y-112538550D01*
X124647657Y-112588343D01*
X124697450Y-112629206D01*
X124754257Y-112659570D01*
X124815897Y-112678268D01*
X124880000Y-112684582D01*
X126580000Y-112684582D01*
X126644103Y-112678268D01*
X126705743Y-112659570D01*
X126762550Y-112629206D01*
X126812343Y-112588343D01*
X126853206Y-112538550D01*
X126883570Y-112481743D01*
X126902268Y-112420103D01*
X126908582Y-112356000D01*
X126908582Y-111608891D01*
X130892519Y-111608891D01*
X130989843Y-111883252D01*
X131138822Y-112133355D01*
X131333731Y-112349588D01*
X131567080Y-112523641D01*
X131829901Y-112648825D01*
X131977110Y-112693476D01*
X132207000Y-112572155D01*
X132207000Y-111379000D01*
X131013186Y-111379000D01*
X130892519Y-111608891D01*
X126908582Y-111608891D01*
X126908582Y-110895109D01*
X130892519Y-110895109D01*
X131013186Y-111125000D01*
X132207000Y-111125000D01*
X132207000Y-109931845D01*
X132461000Y-109931845D01*
X132461000Y-111125000D01*
X132481000Y-111125000D01*
X132481000Y-111379000D01*
X132461000Y-111379000D01*
X132461000Y-112572155D01*
X132690890Y-112693476D01*
X132838099Y-112648825D01*
X133100920Y-112523641D01*
X133334269Y-112349588D01*
X133529178Y-112133355D01*
X133678157Y-111883252D01*
X133762736Y-111644821D01*
X133830956Y-111809519D01*
X133959764Y-112002294D01*
X134123706Y-112166236D01*
X134316481Y-112295044D01*
X134530682Y-112383769D01*
X134758076Y-112429000D01*
X134989924Y-112429000D01*
X135217318Y-112383769D01*
X135431519Y-112295044D01*
X135624294Y-112166236D01*
X135788236Y-112002294D01*
X135917044Y-111809519D01*
X136005769Y-111595318D01*
X136051000Y-111367924D01*
X136051000Y-111136076D01*
X136005769Y-110908682D01*
X135917044Y-110694481D01*
X135788236Y-110501706D01*
X135688530Y-110402000D01*
X136235418Y-110402000D01*
X136235418Y-112102000D01*
X136241732Y-112166103D01*
X136260430Y-112227743D01*
X136290794Y-112284550D01*
X136331657Y-112334343D01*
X136381450Y-112375206D01*
X136438257Y-112405570D01*
X136499897Y-112424268D01*
X136564000Y-112430582D01*
X138264000Y-112430582D01*
X138328103Y-112424268D01*
X138389743Y-112405570D01*
X138446550Y-112375206D01*
X138496343Y-112334343D01*
X138537206Y-112284550D01*
X138567570Y-112227743D01*
X138586268Y-112166103D01*
X138592582Y-112102000D01*
X138592582Y-110402000D01*
X138586268Y-110337897D01*
X138567570Y-110276257D01*
X138537206Y-110219450D01*
X138496343Y-110169657D01*
X138446550Y-110128794D01*
X138389743Y-110098430D01*
X138328103Y-110079732D01*
X138264000Y-110073418D01*
X136564000Y-110073418D01*
X136499897Y-110079732D01*
X136438257Y-110098430D01*
X136381450Y-110128794D01*
X136331657Y-110169657D01*
X136290794Y-110219450D01*
X136260430Y-110276257D01*
X136241732Y-110337897D01*
X136235418Y-110402000D01*
X135688530Y-110402000D01*
X135624294Y-110337764D01*
X135431519Y-110208956D01*
X135217318Y-110120231D01*
X134989924Y-110075000D01*
X134758076Y-110075000D01*
X134530682Y-110120231D01*
X134316481Y-110208956D01*
X134123706Y-110337764D01*
X133959764Y-110501706D01*
X133830956Y-110694481D01*
X133762736Y-110859179D01*
X133678157Y-110620748D01*
X133529178Y-110370645D01*
X133334269Y-110154412D01*
X133224209Y-110072319D01*
X141073000Y-110072319D01*
X141073000Y-110727681D01*
X141200855Y-111370450D01*
X141451651Y-111975925D01*
X141815750Y-112520839D01*
X142279161Y-112984250D01*
X142824075Y-113348349D01*
X143429550Y-113599145D01*
X144072319Y-113727000D01*
X144727681Y-113727000D01*
X145370450Y-113599145D01*
X145975925Y-113348349D01*
X146520839Y-112984250D01*
X146984250Y-112520839D01*
X147348349Y-111975925D01*
X147599145Y-111370450D01*
X147727000Y-110727681D01*
X147727000Y-110072319D01*
X147599145Y-109429550D01*
X147348349Y-108824075D01*
X146984250Y-108279161D01*
X146520839Y-107815750D01*
X145975925Y-107451651D01*
X145370450Y-107200855D01*
X144727681Y-107073000D01*
X144072319Y-107073000D01*
X143429550Y-107200855D01*
X142824075Y-107451651D01*
X142279161Y-107815750D01*
X141815750Y-108279161D01*
X141451651Y-108824075D01*
X141200855Y-109429550D01*
X141073000Y-110072319D01*
X133224209Y-110072319D01*
X133100920Y-109980359D01*
X132838099Y-109855175D01*
X132690890Y-109810524D01*
X132461000Y-109931845D01*
X132207000Y-109931845D01*
X131977110Y-109810524D01*
X131829901Y-109855175D01*
X131567080Y-109980359D01*
X131333731Y-110154412D01*
X131138822Y-110370645D01*
X130989843Y-110620748D01*
X130892519Y-110895109D01*
X126908582Y-110895109D01*
X126908582Y-110656000D01*
X126902268Y-110591897D01*
X126883570Y-110530257D01*
X126853206Y-110473450D01*
X126812343Y-110423657D01*
X126762550Y-110382794D01*
X126705743Y-110352430D01*
X126644103Y-110333732D01*
X126580000Y-110327418D01*
X124880000Y-110327418D01*
X124815897Y-110333732D01*
X124754257Y-110352430D01*
X124697450Y-110382794D01*
X124647657Y-110423657D01*
X124606794Y-110473450D01*
X124576430Y-110530257D01*
X124557732Y-110591897D01*
X124551418Y-110656000D01*
X124004530Y-110656000D01*
X123940294Y-110591764D01*
X123747519Y-110462956D01*
X123533318Y-110374231D01*
X123305924Y-110329000D01*
X123074076Y-110329000D01*
X122846682Y-110374231D01*
X122632481Y-110462956D01*
X122439706Y-110591764D01*
X122275764Y-110755706D01*
X122146956Y-110948481D01*
X122078736Y-111113179D01*
X121994157Y-110874748D01*
X121845178Y-110624645D01*
X121650269Y-110408412D01*
X121416920Y-110234359D01*
X121154099Y-110109175D01*
X121006890Y-110064524D01*
X120777000Y-110185845D01*
X120523000Y-110185845D01*
X120293110Y-110064524D01*
X120145901Y-110109175D01*
X119883080Y-110234359D01*
X119649731Y-110408412D01*
X119454822Y-110624645D01*
X119305843Y-110874748D01*
X119208519Y-111149109D01*
X114716582Y-111149109D01*
X114716582Y-110656000D01*
X114710268Y-110591897D01*
X114691570Y-110530257D01*
X114661206Y-110473450D01*
X114620343Y-110423657D01*
X114570550Y-110382794D01*
X114513743Y-110352430D01*
X114452103Y-110333732D01*
X114388000Y-110327418D01*
X112688000Y-110327418D01*
X112623897Y-110333732D01*
X112562257Y-110352430D01*
X112505450Y-110382794D01*
X112455657Y-110423657D01*
X112414794Y-110473450D01*
X112384430Y-110530257D01*
X112365732Y-110591897D01*
X112359418Y-110656000D01*
X111812530Y-110656000D01*
X111748294Y-110591764D01*
X111555519Y-110462956D01*
X111341318Y-110374231D01*
X111113924Y-110329000D01*
X110882076Y-110329000D01*
X110654682Y-110374231D01*
X110440481Y-110462956D01*
X110247706Y-110591764D01*
X110083764Y-110755706D01*
X109954956Y-110948481D01*
X109886736Y-111113179D01*
X109802157Y-110874748D01*
X109653178Y-110624645D01*
X109458269Y-110408412D01*
X109224920Y-110234359D01*
X108962099Y-110109175D01*
X108814890Y-110064524D01*
X108585000Y-110185845D01*
X108331000Y-110185845D01*
X108101110Y-110064524D01*
X107953901Y-110109175D01*
X107691080Y-110234359D01*
X107457731Y-110408412D01*
X107262822Y-110624645D01*
X107113843Y-110874748D01*
X107016519Y-111149109D01*
X96872000Y-111149109D01*
X96872000Y-106735397D01*
X98396500Y-106735397D01*
X98396500Y-106878603D01*
X98424438Y-107019058D01*
X98479241Y-107151364D01*
X98558802Y-107270436D01*
X98660064Y-107371698D01*
X98779136Y-107451259D01*
X98911442Y-107506062D01*
X99051897Y-107534000D01*
X99195103Y-107534000D01*
X99335558Y-107506062D01*
X99467864Y-107451259D01*
X99586936Y-107371698D01*
X99688198Y-107270436D01*
X99767759Y-107151364D01*
X99822562Y-107019058D01*
X99850500Y-106878603D01*
X99850500Y-106735397D01*
X99822562Y-106594942D01*
X99767759Y-106462636D01*
X99688198Y-106343564D01*
X99586936Y-106242302D01*
X99575500Y-106234661D01*
X99575500Y-103648095D01*
X115073000Y-103648095D01*
X115073000Y-103751905D01*
X115093252Y-103853720D01*
X115132979Y-103949628D01*
X115190652Y-104035943D01*
X115264057Y-104109348D01*
X115350372Y-104167021D01*
X115446280Y-104206748D01*
X115548095Y-104227000D01*
X115651905Y-104227000D01*
X115753720Y-104206748D01*
X115849628Y-104167021D01*
X115935943Y-104109348D01*
X115943291Y-104102000D01*
X117380261Y-104102000D01*
X117400000Y-104103944D01*
X117419739Y-104102000D01*
X117419747Y-104102000D01*
X117478806Y-104096183D01*
X117554583Y-104073197D01*
X117624420Y-104035868D01*
X117685632Y-103985632D01*
X117698223Y-103970290D01*
X120141514Y-101527000D01*
X120151905Y-101527000D01*
X120253720Y-101506748D01*
X120349628Y-101467021D01*
X120435943Y-101409348D01*
X120498000Y-101347291D01*
X120498000Y-104056709D01*
X120490652Y-104064057D01*
X120432979Y-104150372D01*
X120393252Y-104246280D01*
X120373000Y-104348095D01*
X120373000Y-104451905D01*
X120393252Y-104553720D01*
X120432979Y-104649628D01*
X120490652Y-104735943D01*
X120564057Y-104809348D01*
X120650372Y-104867021D01*
X120746280Y-104906748D01*
X120848095Y-104927000D01*
X120951905Y-104927000D01*
X121053720Y-104906748D01*
X121149628Y-104867021D01*
X121235943Y-104809348D01*
X121309348Y-104735943D01*
X121367021Y-104649628D01*
X121406748Y-104553720D01*
X121427000Y-104451905D01*
X121427000Y-104348095D01*
X121406748Y-104246280D01*
X121367021Y-104150372D01*
X121309348Y-104064057D01*
X121302000Y-104056709D01*
X121302000Y-97048095D01*
X122873000Y-97048095D01*
X122873000Y-97151905D01*
X122893252Y-97253720D01*
X122932979Y-97349628D01*
X122990652Y-97435943D01*
X122998001Y-97443292D01*
X122998000Y-101156709D01*
X122990652Y-101164057D01*
X122932979Y-101250372D01*
X122893252Y-101346280D01*
X122873000Y-101448095D01*
X122873000Y-101551905D01*
X122893252Y-101653720D01*
X122932979Y-101749628D01*
X122990652Y-101835943D01*
X123064057Y-101909348D01*
X123150372Y-101967021D01*
X123246280Y-102006748D01*
X123348095Y-102027000D01*
X123451905Y-102027000D01*
X123553720Y-102006748D01*
X123649628Y-101967021D01*
X123735943Y-101909348D01*
X123809348Y-101835943D01*
X123867021Y-101749628D01*
X123906748Y-101653720D01*
X123927000Y-101551905D01*
X123927000Y-101448095D01*
X123906748Y-101346280D01*
X123867021Y-101250372D01*
X123809348Y-101164057D01*
X123802000Y-101156709D01*
X123802000Y-97443291D01*
X123809348Y-97435943D01*
X123867021Y-97349628D01*
X123906748Y-97253720D01*
X123927000Y-97151905D01*
X123927000Y-97048095D01*
X123906748Y-96946280D01*
X123867021Y-96850372D01*
X123809348Y-96764057D01*
X123735943Y-96690652D01*
X123649628Y-96632979D01*
X123553720Y-96593252D01*
X123451905Y-96573000D01*
X123348095Y-96573000D01*
X123246280Y-96593252D01*
X123150372Y-96632979D01*
X123064057Y-96690652D01*
X122990652Y-96764057D01*
X122932979Y-96850372D01*
X122893252Y-96946280D01*
X122873000Y-97048095D01*
X121302000Y-97048095D01*
X121302000Y-94319739D01*
X121303944Y-94299999D01*
X121302000Y-94280260D01*
X121302000Y-94280253D01*
X121296183Y-94221194D01*
X121273197Y-94145417D01*
X121235868Y-94075580D01*
X121185632Y-94014368D01*
X121170290Y-94001777D01*
X121027000Y-93858487D01*
X121027000Y-93848095D01*
X121006748Y-93746280D01*
X120967021Y-93650372D01*
X120909348Y-93564057D01*
X120835943Y-93490652D01*
X120749628Y-93432979D01*
X120653720Y-93393252D01*
X120551905Y-93373000D01*
X120448095Y-93373000D01*
X120346280Y-93393252D01*
X120250372Y-93432979D01*
X120164057Y-93490652D01*
X120090652Y-93564057D01*
X120032979Y-93650372D01*
X119993252Y-93746280D01*
X119973000Y-93848095D01*
X119973000Y-93951905D01*
X119993252Y-94053720D01*
X120032979Y-94149628D01*
X120090652Y-94235943D01*
X120164057Y-94309348D01*
X120250372Y-94367021D01*
X120346280Y-94406748D01*
X120448095Y-94427000D01*
X120458487Y-94427000D01*
X120498001Y-94466514D01*
X120498000Y-100652709D01*
X120435943Y-100590652D01*
X120349628Y-100532979D01*
X120253720Y-100493252D01*
X120151905Y-100473000D01*
X120048095Y-100473000D01*
X119946280Y-100493252D01*
X119850372Y-100532979D01*
X119764057Y-100590652D01*
X119690652Y-100664057D01*
X119632979Y-100750372D01*
X119593252Y-100846280D01*
X119573000Y-100948095D01*
X119573000Y-100958486D01*
X117233487Y-103298000D01*
X115943291Y-103298000D01*
X115935943Y-103290652D01*
X115849628Y-103232979D01*
X115753720Y-103193252D01*
X115651905Y-103173000D01*
X115548095Y-103173000D01*
X115446280Y-103193252D01*
X115350372Y-103232979D01*
X115264057Y-103290652D01*
X115190652Y-103364057D01*
X115132979Y-103450372D01*
X115093252Y-103546280D01*
X115073000Y-103648095D01*
X99575500Y-103648095D01*
X99575500Y-101148095D01*
X115873000Y-101148095D01*
X115873000Y-101251905D01*
X115893252Y-101353720D01*
X115932979Y-101449628D01*
X115990652Y-101535943D01*
X116064057Y-101609348D01*
X116150372Y-101667021D01*
X116246280Y-101706748D01*
X116348095Y-101727000D01*
X116451905Y-101727000D01*
X116553720Y-101706748D01*
X116649628Y-101667021D01*
X116735943Y-101609348D01*
X116809348Y-101535943D01*
X116867021Y-101449628D01*
X116906748Y-101353720D01*
X116927000Y-101251905D01*
X116927000Y-101148095D01*
X116906748Y-101046280D01*
X116867021Y-100950372D01*
X116809348Y-100864057D01*
X116802000Y-100856709D01*
X116802000Y-91666513D01*
X117866514Y-90602000D01*
X122356709Y-90602000D01*
X122364057Y-90609348D01*
X122450372Y-90667021D01*
X122546280Y-90706748D01*
X122648095Y-90727000D01*
X122751905Y-90727000D01*
X122853720Y-90706748D01*
X122949628Y-90667021D01*
X123035943Y-90609348D01*
X123109348Y-90535943D01*
X123167021Y-90449628D01*
X123206748Y-90353720D01*
X123227000Y-90251905D01*
X123227000Y-90148095D01*
X123206748Y-90046280D01*
X123167021Y-89950372D01*
X123109348Y-89864057D01*
X123035943Y-89790652D01*
X122949628Y-89732979D01*
X122853720Y-89693252D01*
X122751905Y-89673000D01*
X122648095Y-89673000D01*
X122546280Y-89693252D01*
X122450372Y-89732979D01*
X122364057Y-89790652D01*
X122356709Y-89798000D01*
X117719739Y-89798000D01*
X117700000Y-89796056D01*
X117680260Y-89798000D01*
X117680253Y-89798000D01*
X117621194Y-89803817D01*
X117545416Y-89826803D01*
X117493445Y-89854583D01*
X117475580Y-89864132D01*
X117414368Y-89914368D01*
X117401781Y-89929705D01*
X116129705Y-91201782D01*
X116114369Y-91214368D01*
X116064133Y-91275580D01*
X116047473Y-91306748D01*
X116026804Y-91345417D01*
X116003817Y-91421195D01*
X115996056Y-91500000D01*
X115998001Y-91519749D01*
X115998000Y-100856709D01*
X115990652Y-100864057D01*
X115932979Y-100950372D01*
X115893252Y-101046280D01*
X115873000Y-101148095D01*
X99575500Y-101148095D01*
X99575500Y-91627223D01*
X103628725Y-87574000D01*
X129088979Y-87574000D01*
X129064057Y-87590652D01*
X128990652Y-87664057D01*
X128932979Y-87750372D01*
X128893252Y-87846280D01*
X128873000Y-87948095D01*
X128873000Y-87958486D01*
X126433487Y-90398000D01*
X124419739Y-90398000D01*
X124399999Y-90396056D01*
X124380260Y-90398000D01*
X124380253Y-90398000D01*
X124321194Y-90403817D01*
X124245417Y-90426803D01*
X124175580Y-90464132D01*
X124114368Y-90514368D01*
X124101777Y-90529710D01*
X123958487Y-90673000D01*
X123948095Y-90673000D01*
X123846280Y-90693252D01*
X123750372Y-90732979D01*
X123664057Y-90790652D01*
X123590652Y-90864057D01*
X123532979Y-90950372D01*
X123493252Y-91046280D01*
X123473000Y-91148095D01*
X123473000Y-91251905D01*
X123493252Y-91353720D01*
X123532979Y-91449628D01*
X123590652Y-91535943D01*
X123664057Y-91609348D01*
X123750372Y-91667021D01*
X123846280Y-91706748D01*
X123948095Y-91727000D01*
X124051905Y-91727000D01*
X124153720Y-91706748D01*
X124249628Y-91667021D01*
X124335943Y-91609348D01*
X124409348Y-91535943D01*
X124467021Y-91449628D01*
X124506748Y-91353720D01*
X124527000Y-91251905D01*
X124527000Y-91241513D01*
X124566513Y-91202000D01*
X125965300Y-91202000D01*
X125932979Y-91250372D01*
X125893252Y-91346280D01*
X125873000Y-91448095D01*
X125873000Y-91551905D01*
X125893252Y-91653720D01*
X125932979Y-91749628D01*
X125990652Y-91835943D01*
X126064057Y-91909348D01*
X126150372Y-91967021D01*
X126246280Y-92006748D01*
X126348095Y-92027000D01*
X126451905Y-92027000D01*
X126553720Y-92006748D01*
X126649628Y-91967021D01*
X126735943Y-91909348D01*
X126747738Y-91897553D01*
X126761648Y-91896183D01*
X126837425Y-91873197D01*
X126907262Y-91835868D01*
X126968474Y-91785632D01*
X126981065Y-91770290D01*
X128003260Y-90748095D01*
X128373000Y-90748095D01*
X128373000Y-90851905D01*
X128393252Y-90953720D01*
X128432979Y-91049628D01*
X128490652Y-91135943D01*
X128498001Y-91143292D01*
X128498000Y-98080261D01*
X128496056Y-98100000D01*
X128498000Y-98119739D01*
X128498000Y-98119746D01*
X128503817Y-98178805D01*
X128526803Y-98254582D01*
X128564132Y-98324419D01*
X128614368Y-98385632D01*
X128629710Y-98398223D01*
X131601781Y-101370295D01*
X131614368Y-101385632D01*
X131629704Y-101398218D01*
X131629706Y-101398220D01*
X131675580Y-101435868D01*
X131745416Y-101473197D01*
X131821194Y-101496183D01*
X131880253Y-101502000D01*
X131880260Y-101502000D01*
X131900000Y-101503944D01*
X131919739Y-101502000D01*
X137080261Y-101502000D01*
X137100000Y-101503944D01*
X137119739Y-101502000D01*
X137119747Y-101502000D01*
X137178806Y-101496183D01*
X137254583Y-101473197D01*
X137324420Y-101435868D01*
X137385632Y-101385632D01*
X137398223Y-101370290D01*
X141741513Y-97027000D01*
X141751905Y-97027000D01*
X141853720Y-97006748D01*
X141949628Y-96967021D01*
X142035943Y-96909348D01*
X142109348Y-96835943D01*
X142167021Y-96749628D01*
X142206748Y-96653720D01*
X142227000Y-96551905D01*
X142227000Y-96448095D01*
X142206748Y-96346280D01*
X142167021Y-96250372D01*
X142109348Y-96164057D01*
X142035943Y-96090652D01*
X141949628Y-96032979D01*
X141853720Y-95993252D01*
X141751905Y-95973000D01*
X141648095Y-95973000D01*
X141546280Y-95993252D01*
X141450372Y-96032979D01*
X141364057Y-96090652D01*
X141290652Y-96164057D01*
X141232979Y-96250372D01*
X141193252Y-96346280D01*
X141173000Y-96448095D01*
X141173000Y-96458487D01*
X136933487Y-100698000D01*
X132066514Y-100698000D01*
X129302000Y-97933487D01*
X129302000Y-91143291D01*
X129309348Y-91135943D01*
X129367021Y-91049628D01*
X129406748Y-90953720D01*
X129427000Y-90851905D01*
X129427000Y-90748095D01*
X129406748Y-90646280D01*
X129367021Y-90550372D01*
X129309348Y-90464057D01*
X129235943Y-90390652D01*
X129149628Y-90332979D01*
X129053720Y-90293252D01*
X128951905Y-90273000D01*
X128848095Y-90273000D01*
X128746280Y-90293252D01*
X128650372Y-90332979D01*
X128564057Y-90390652D01*
X128490652Y-90464057D01*
X128432979Y-90550372D01*
X128393252Y-90646280D01*
X128373000Y-90748095D01*
X128003260Y-90748095D01*
X129403260Y-89348095D01*
X132173000Y-89348095D01*
X132173000Y-89451905D01*
X132193252Y-89553720D01*
X132232979Y-89649628D01*
X132290652Y-89735943D01*
X132364057Y-89809348D01*
X132450372Y-89867021D01*
X132546280Y-89906748D01*
X132598001Y-89917036D01*
X132598000Y-99756709D01*
X132590652Y-99764057D01*
X132532979Y-99850372D01*
X132493252Y-99946280D01*
X132473000Y-100048095D01*
X132473000Y-100151905D01*
X132493252Y-100253720D01*
X132532979Y-100349628D01*
X132590652Y-100435943D01*
X132664057Y-100509348D01*
X132750372Y-100567021D01*
X132846280Y-100606748D01*
X132948095Y-100627000D01*
X133051905Y-100627000D01*
X133153720Y-100606748D01*
X133249628Y-100567021D01*
X133335943Y-100509348D01*
X133409348Y-100435943D01*
X133467021Y-100349628D01*
X133506748Y-100253720D01*
X133527000Y-100151905D01*
X133527000Y-100048095D01*
X133506748Y-99946280D01*
X133467021Y-99850372D01*
X133409348Y-99764057D01*
X133402000Y-99756709D01*
X133402000Y-89719739D01*
X133403944Y-89699999D01*
X133402000Y-89680260D01*
X133402000Y-89680253D01*
X133396183Y-89621194D01*
X133373197Y-89545417D01*
X133335868Y-89475580D01*
X133285632Y-89414368D01*
X133270295Y-89401781D01*
X133227000Y-89358486D01*
X133227000Y-89348095D01*
X133206748Y-89246280D01*
X133167021Y-89150372D01*
X133109348Y-89064057D01*
X133035943Y-88990652D01*
X132949628Y-88932979D01*
X132853720Y-88893252D01*
X132751905Y-88873000D01*
X132648095Y-88873000D01*
X132546280Y-88893252D01*
X132450372Y-88932979D01*
X132364057Y-88990652D01*
X132290652Y-89064057D01*
X132232979Y-89150372D01*
X132193252Y-89246280D01*
X132173000Y-89348095D01*
X129403260Y-89348095D01*
X129949356Y-88802000D01*
X136233487Y-88802000D01*
X137073000Y-89641513D01*
X137073000Y-89651905D01*
X137093252Y-89753720D01*
X137132979Y-89849628D01*
X137190652Y-89935943D01*
X137264057Y-90009348D01*
X137350372Y-90067021D01*
X137446280Y-90106748D01*
X137548095Y-90127000D01*
X137651905Y-90127000D01*
X137753720Y-90106748D01*
X137849628Y-90067021D01*
X137935943Y-90009348D01*
X138009348Y-89935943D01*
X138067021Y-89849628D01*
X138106748Y-89753720D01*
X138127000Y-89651905D01*
X138127000Y-89548095D01*
X138106748Y-89446280D01*
X138067021Y-89350372D01*
X138009348Y-89264057D01*
X137935943Y-89190652D01*
X137849628Y-89132979D01*
X137753720Y-89093252D01*
X137651905Y-89073000D01*
X137641513Y-89073000D01*
X136698223Y-88129710D01*
X136685632Y-88114368D01*
X136624420Y-88064132D01*
X136554583Y-88026803D01*
X136478806Y-88003817D01*
X136419747Y-87998000D01*
X136419739Y-87998000D01*
X136400000Y-87996056D01*
X136380261Y-87998000D01*
X129927000Y-87998000D01*
X129927000Y-87948095D01*
X129906748Y-87846280D01*
X129867021Y-87750372D01*
X129809348Y-87664057D01*
X129735943Y-87590652D01*
X129711021Y-87574000D01*
X140651661Y-87574000D01*
X140659302Y-87585436D01*
X140760564Y-87686698D01*
X140879636Y-87766259D01*
X141011942Y-87821062D01*
X141152397Y-87849000D01*
X141295603Y-87849000D01*
X141436058Y-87821062D01*
X141568364Y-87766259D01*
X141687436Y-87686698D01*
X141788698Y-87585436D01*
X141868259Y-87466364D01*
X141923062Y-87334058D01*
X141951000Y-87193603D01*
X141951000Y-87050397D01*
X141923062Y-86909942D01*
X141868259Y-86777636D01*
X141788698Y-86658564D01*
X141687436Y-86557302D01*
X141568364Y-86477741D01*
X141436058Y-86422938D01*
X141295603Y-86395000D01*
X141152397Y-86395000D01*
X141011942Y-86422938D01*
X140879636Y-86477741D01*
X140760564Y-86557302D01*
X140659302Y-86658564D01*
X140651661Y-86670000D01*
X103463704Y-86670000D01*
X103441499Y-86667813D01*
X103352892Y-86676540D01*
X103267690Y-86702386D01*
X103189167Y-86744357D01*
X103120341Y-86800841D01*
X103106186Y-86818089D01*
X98819600Y-91104677D01*
X98802341Y-91118841D01*
X98745857Y-91187668D01*
X98734269Y-91209348D01*
X98703886Y-91266191D01*
X98678040Y-91351393D01*
X98669313Y-91440000D01*
X98671500Y-91462205D01*
X98671501Y-106234660D01*
X98660064Y-106242302D01*
X98558802Y-106343564D01*
X98479241Y-106462636D01*
X98424438Y-106594942D01*
X98396500Y-106735397D01*
X96872000Y-106735397D01*
X96872000Y-81426000D01*
X108006515Y-81426000D01*
X108024413Y-81607724D01*
X108077420Y-81782464D01*
X108163499Y-81943505D01*
X108279341Y-82084659D01*
X108420495Y-82200501D01*
X108581536Y-82286580D01*
X108756276Y-82339587D01*
X108892462Y-82353000D01*
X110183538Y-82353000D01*
X110319724Y-82339587D01*
X110494464Y-82286580D01*
X110655505Y-82200501D01*
X110796659Y-82084659D01*
X110912501Y-81943505D01*
X110998580Y-81782464D01*
X111051587Y-81607724D01*
X111069485Y-81426000D01*
X122484515Y-81426000D01*
X122502413Y-81607724D01*
X122555420Y-81782464D01*
X122641499Y-81943505D01*
X122757341Y-82084659D01*
X122898495Y-82200501D01*
X123059536Y-82286580D01*
X123234276Y-82339587D01*
X123370462Y-82353000D01*
X124661538Y-82353000D01*
X124797724Y-82339587D01*
X124972464Y-82286580D01*
X125133505Y-82200501D01*
X125274659Y-82084659D01*
X125390501Y-81943505D01*
X125476580Y-81782464D01*
X125529587Y-81607724D01*
X125547485Y-81426000D01*
X125529587Y-81244276D01*
X125476580Y-81069536D01*
X125390501Y-80908495D01*
X125274659Y-80767341D01*
X125133505Y-80651499D01*
X124972464Y-80565420D01*
X124797724Y-80512413D01*
X124661538Y-80499000D01*
X123370462Y-80499000D01*
X123234276Y-80512413D01*
X123059536Y-80565420D01*
X122898495Y-80651499D01*
X122757341Y-80767341D01*
X122641499Y-80908495D01*
X122555420Y-81069536D01*
X122502413Y-81244276D01*
X122484515Y-81426000D01*
X111069485Y-81426000D01*
X111051587Y-81244276D01*
X110998580Y-81069536D01*
X110912501Y-80908495D01*
X110796659Y-80767341D01*
X110655505Y-80651499D01*
X110494464Y-80565420D01*
X110319724Y-80512413D01*
X110183538Y-80499000D01*
X108892462Y-80499000D01*
X108756276Y-80512413D01*
X108581536Y-80565420D01*
X108420495Y-80651499D01*
X108279341Y-80767341D01*
X108163499Y-80908495D01*
X108077420Y-81069536D01*
X108024413Y-81244276D01*
X108006515Y-81426000D01*
X96872000Y-81426000D01*
X96872000Y-80096000D01*
X138217418Y-80096000D01*
X138217418Y-84496000D01*
X138223732Y-84560103D01*
X138242430Y-84621743D01*
X138272794Y-84678550D01*
X138313657Y-84728343D01*
X138363450Y-84769206D01*
X138420257Y-84799570D01*
X138481897Y-84818268D01*
X138546000Y-84824582D01*
X140346000Y-84824582D01*
X140410103Y-84818268D01*
X140471743Y-84799570D01*
X140528550Y-84769206D01*
X140578343Y-84728343D01*
X140619206Y-84678550D01*
X140649570Y-84621743D01*
X140668268Y-84560103D01*
X140674582Y-84496000D01*
X140674582Y-82423000D01*
X143711000Y-82423000D01*
X143711000Y-83523000D01*
X143765271Y-83820023D01*
X143876446Y-84100751D01*
X144040252Y-84354396D01*
X144250394Y-84571210D01*
X144498796Y-84742862D01*
X144775913Y-84862755D01*
X144881260Y-84887036D01*
X145119000Y-84766378D01*
X145119000Y-82423000D01*
X145373000Y-82423000D01*
X145373000Y-84766378D01*
X145610740Y-84887036D01*
X145716087Y-84862755D01*
X145993204Y-84742862D01*
X146241606Y-84571210D01*
X146451748Y-84354396D01*
X146615554Y-84100751D01*
X146726729Y-83820023D01*
X146781000Y-83523000D01*
X146781000Y-82423000D01*
X145373000Y-82423000D01*
X145119000Y-82423000D01*
X143711000Y-82423000D01*
X140674582Y-82423000D01*
X140674582Y-81069000D01*
X143711000Y-81069000D01*
X143711000Y-82169000D01*
X145119000Y-82169000D01*
X145119000Y-79825622D01*
X145373000Y-79825622D01*
X145373000Y-82169000D01*
X146781000Y-82169000D01*
X146781000Y-81069000D01*
X146726729Y-80771977D01*
X146615554Y-80491249D01*
X146451748Y-80237604D01*
X146241606Y-80020790D01*
X145993204Y-79849138D01*
X145716087Y-79729245D01*
X145610740Y-79704964D01*
X145373000Y-79825622D01*
X145119000Y-79825622D01*
X144881260Y-79704964D01*
X144775913Y-79729245D01*
X144498796Y-79849138D01*
X144250394Y-80020790D01*
X144040252Y-80237604D01*
X143876446Y-80491249D01*
X143765271Y-80771977D01*
X143711000Y-81069000D01*
X140674582Y-81069000D01*
X140674582Y-80096000D01*
X140668268Y-80031897D01*
X140649570Y-79970257D01*
X140619206Y-79913450D01*
X140578343Y-79863657D01*
X140528550Y-79822794D01*
X140471743Y-79792430D01*
X140410103Y-79773732D01*
X140346000Y-79767418D01*
X138546000Y-79767418D01*
X138481897Y-79773732D01*
X138420257Y-79792430D01*
X138363450Y-79822794D01*
X138313657Y-79863657D01*
X138272794Y-79913450D01*
X138242430Y-79970257D01*
X138223732Y-80031897D01*
X138217418Y-80096000D01*
X96872000Y-80096000D01*
X96872000Y-73472319D01*
X99073000Y-73472319D01*
X99073000Y-74127681D01*
X99200855Y-74770450D01*
X99451651Y-75375925D01*
X99815750Y-75920839D01*
X100279161Y-76384250D01*
X100824075Y-76748349D01*
X101429550Y-76999145D01*
X102072319Y-77127000D01*
X102727681Y-77127000D01*
X103370450Y-76999145D01*
X103975925Y-76748349D01*
X104520839Y-76384250D01*
X104724626Y-76180463D01*
X115261000Y-76180463D01*
X115261001Y-77471538D01*
X115274414Y-77607724D01*
X115327421Y-77782464D01*
X115413500Y-77943505D01*
X115529342Y-78084659D01*
X115670496Y-78200501D01*
X115831537Y-78286580D01*
X116006277Y-78339587D01*
X116188000Y-78357485D01*
X116369724Y-78339587D01*
X116544464Y-78286580D01*
X116705505Y-78200501D01*
X116846659Y-78084659D01*
X116962501Y-77943505D01*
X117048580Y-77782464D01*
X117101587Y-77607724D01*
X117104271Y-77580463D01*
X117661000Y-77580463D01*
X117661001Y-78871538D01*
X117674414Y-79007724D01*
X117727421Y-79182464D01*
X117813500Y-79343505D01*
X117929342Y-79484659D01*
X118070496Y-79600501D01*
X118231537Y-79686580D01*
X118406277Y-79739587D01*
X118588000Y-79757485D01*
X118769724Y-79739587D01*
X118944464Y-79686580D01*
X119105505Y-79600501D01*
X119246659Y-79484659D01*
X119362501Y-79343505D01*
X119448580Y-79182464D01*
X119501587Y-79007724D01*
X119515000Y-78871538D01*
X119515000Y-77580462D01*
X119501587Y-77444276D01*
X119448580Y-77269536D01*
X119362501Y-77108495D01*
X119246659Y-76967341D01*
X119105504Y-76851499D01*
X118944463Y-76765420D01*
X118769723Y-76712413D01*
X118588000Y-76694515D01*
X118406276Y-76712413D01*
X118231536Y-76765420D01*
X118070495Y-76851499D01*
X117929341Y-76967341D01*
X117813499Y-77108496D01*
X117727420Y-77269537D01*
X117674413Y-77444277D01*
X117661000Y-77580463D01*
X117104271Y-77580463D01*
X117115000Y-77471538D01*
X117115000Y-76180463D01*
X129739000Y-76180463D01*
X129739001Y-77471538D01*
X129752414Y-77607724D01*
X129805421Y-77782464D01*
X129891500Y-77943505D01*
X130007342Y-78084659D01*
X130148496Y-78200501D01*
X130309537Y-78286580D01*
X130484277Y-78339587D01*
X130666000Y-78357485D01*
X130847724Y-78339587D01*
X131022464Y-78286580D01*
X131183505Y-78200501D01*
X131324659Y-78084659D01*
X131440501Y-77943505D01*
X131526580Y-77782464D01*
X131579587Y-77607724D01*
X131582271Y-77580463D01*
X132139000Y-77580463D01*
X132139001Y-78871538D01*
X132152414Y-79007724D01*
X132205421Y-79182464D01*
X132291500Y-79343505D01*
X132407342Y-79484659D01*
X132548496Y-79600501D01*
X132709537Y-79686580D01*
X132884277Y-79739587D01*
X133066000Y-79757485D01*
X133247724Y-79739587D01*
X133422464Y-79686580D01*
X133583505Y-79600501D01*
X133724659Y-79484659D01*
X133840501Y-79343505D01*
X133926580Y-79182464D01*
X133979587Y-79007724D01*
X133993000Y-78871538D01*
X133993000Y-77580462D01*
X133984682Y-77496000D01*
X140113064Y-77496000D01*
X140136755Y-77736534D01*
X140206916Y-77967824D01*
X140320851Y-78180983D01*
X140474183Y-78367817D01*
X140661017Y-78521149D01*
X140874176Y-78635084D01*
X141105466Y-78705245D01*
X141285732Y-78723000D01*
X143606268Y-78723000D01*
X143786534Y-78705245D01*
X144017824Y-78635084D01*
X144230983Y-78521149D01*
X144417817Y-78367817D01*
X144571149Y-78180983D01*
X144685084Y-77967824D01*
X144755245Y-77736534D01*
X144778936Y-77496000D01*
X144755245Y-77255466D01*
X144685084Y-77024176D01*
X144571149Y-76811017D01*
X144417817Y-76624183D01*
X144230983Y-76470851D01*
X144017824Y-76356916D01*
X143786534Y-76286755D01*
X143606268Y-76269000D01*
X141285732Y-76269000D01*
X141105466Y-76286755D01*
X140874176Y-76356916D01*
X140661017Y-76470851D01*
X140474183Y-76624183D01*
X140320851Y-76811017D01*
X140206916Y-77024176D01*
X140136755Y-77255466D01*
X140113064Y-77496000D01*
X133984682Y-77496000D01*
X133979587Y-77444276D01*
X133926580Y-77269536D01*
X133840501Y-77108495D01*
X133724659Y-76967341D01*
X133583504Y-76851499D01*
X133422463Y-76765420D01*
X133247723Y-76712413D01*
X133066000Y-76694515D01*
X132884276Y-76712413D01*
X132709536Y-76765420D01*
X132548495Y-76851499D01*
X132407341Y-76967341D01*
X132291499Y-77108496D01*
X132205420Y-77269537D01*
X132152413Y-77444277D01*
X132139000Y-77580463D01*
X131582271Y-77580463D01*
X131593000Y-77471538D01*
X131593000Y-76180462D01*
X131579587Y-76044276D01*
X131526580Y-75869536D01*
X131440501Y-75708495D01*
X131324659Y-75567341D01*
X131183504Y-75451499D01*
X131022463Y-75365420D01*
X130847723Y-75312413D01*
X130666000Y-75294515D01*
X130484276Y-75312413D01*
X130309536Y-75365420D01*
X130148495Y-75451499D01*
X130007341Y-75567341D01*
X129891499Y-75708496D01*
X129805420Y-75869537D01*
X129752413Y-76044277D01*
X129739000Y-76180463D01*
X117115000Y-76180463D01*
X117115000Y-76180462D01*
X117101587Y-76044276D01*
X117048580Y-75869536D01*
X116962501Y-75708495D01*
X116846659Y-75567341D01*
X116705504Y-75451499D01*
X116544463Y-75365420D01*
X116369723Y-75312413D01*
X116188000Y-75294515D01*
X116006276Y-75312413D01*
X115831536Y-75365420D01*
X115670495Y-75451499D01*
X115529341Y-75567341D01*
X115413499Y-75708496D01*
X115327420Y-75869537D01*
X115274413Y-76044277D01*
X115261000Y-76180463D01*
X104724626Y-76180463D01*
X104984250Y-75920839D01*
X105348349Y-75375925D01*
X105599145Y-74770450D01*
X105727000Y-74127681D01*
X105727000Y-73472319D01*
X105649055Y-73080463D01*
X108061000Y-73080463D01*
X108061001Y-74371538D01*
X108074414Y-74507724D01*
X108127421Y-74682464D01*
X108213500Y-74843505D01*
X108329342Y-74984659D01*
X108470496Y-75100501D01*
X108631537Y-75186580D01*
X108806277Y-75239587D01*
X108988000Y-75257485D01*
X109169724Y-75239587D01*
X109344464Y-75186580D01*
X109505505Y-75100501D01*
X109646659Y-74984659D01*
X109762501Y-74843505D01*
X109848580Y-74682464D01*
X109901587Y-74507724D01*
X109915000Y-74371538D01*
X109915000Y-73080463D01*
X122539000Y-73080463D01*
X122539001Y-74371538D01*
X122552414Y-74507724D01*
X122605421Y-74682464D01*
X122691500Y-74843505D01*
X122807342Y-74984659D01*
X122948496Y-75100501D01*
X123109537Y-75186580D01*
X123284277Y-75239587D01*
X123466000Y-75257485D01*
X123647724Y-75239587D01*
X123822464Y-75186580D01*
X123983505Y-75100501D01*
X124124659Y-74984659D01*
X124240501Y-74843505D01*
X124326580Y-74682464D01*
X124379587Y-74507724D01*
X124393000Y-74371538D01*
X124393000Y-73743133D01*
X139234472Y-73743133D01*
X139296965Y-73979450D01*
X139539678Y-74092850D01*
X139799849Y-74156719D01*
X140067482Y-74168604D01*
X140332291Y-74128048D01*
X140584100Y-74036609D01*
X140691035Y-73979450D01*
X140753528Y-73743133D01*
X144234472Y-73743133D01*
X144296965Y-73979450D01*
X144539678Y-74092850D01*
X144799849Y-74156719D01*
X145067482Y-74168604D01*
X145332291Y-74128048D01*
X145584100Y-74036609D01*
X145691035Y-73979450D01*
X145753528Y-73743133D01*
X144994000Y-72983605D01*
X144234472Y-73743133D01*
X140753528Y-73743133D01*
X139994000Y-72983605D01*
X139234472Y-73743133D01*
X124393000Y-73743133D01*
X124393000Y-73080462D01*
X124379587Y-72944276D01*
X124359326Y-72877482D01*
X138629396Y-72877482D01*
X138669952Y-73142291D01*
X138761391Y-73394100D01*
X138818550Y-73501035D01*
X139054867Y-73563528D01*
X139814395Y-72804000D01*
X140173605Y-72804000D01*
X140933133Y-73563528D01*
X141169450Y-73501035D01*
X141282850Y-73258322D01*
X141346719Y-72998151D01*
X141352077Y-72877482D01*
X143629396Y-72877482D01*
X143669952Y-73142291D01*
X143761391Y-73394100D01*
X143818550Y-73501035D01*
X144054867Y-73563528D01*
X144814395Y-72804000D01*
X145173605Y-72804000D01*
X145933133Y-73563528D01*
X146169450Y-73501035D01*
X146282850Y-73258322D01*
X146346719Y-72998151D01*
X146358604Y-72730518D01*
X146318048Y-72465709D01*
X146226609Y-72213900D01*
X146169450Y-72106965D01*
X145933133Y-72044472D01*
X145173605Y-72804000D01*
X144814395Y-72804000D01*
X144054867Y-72044472D01*
X143818550Y-72106965D01*
X143705150Y-72349678D01*
X143641281Y-72609849D01*
X143629396Y-72877482D01*
X141352077Y-72877482D01*
X141358604Y-72730518D01*
X141318048Y-72465709D01*
X141226609Y-72213900D01*
X141169450Y-72106965D01*
X140933133Y-72044472D01*
X140173605Y-72804000D01*
X139814395Y-72804000D01*
X139054867Y-72044472D01*
X138818550Y-72106965D01*
X138705150Y-72349678D01*
X138641281Y-72609849D01*
X138629396Y-72877482D01*
X124359326Y-72877482D01*
X124326580Y-72769536D01*
X124240501Y-72608495D01*
X124124659Y-72467341D01*
X123983504Y-72351499D01*
X123822463Y-72265420D01*
X123647723Y-72212413D01*
X123466000Y-72194515D01*
X123284276Y-72212413D01*
X123109536Y-72265420D01*
X122948495Y-72351499D01*
X122807341Y-72467341D01*
X122691499Y-72608496D01*
X122605420Y-72769537D01*
X122552413Y-72944277D01*
X122539000Y-73080463D01*
X109915000Y-73080463D01*
X109915000Y-73080462D01*
X109901587Y-72944276D01*
X109848580Y-72769536D01*
X109762501Y-72608495D01*
X109646659Y-72467341D01*
X109505504Y-72351499D01*
X109344463Y-72265420D01*
X109169723Y-72212413D01*
X108988000Y-72194515D01*
X108806276Y-72212413D01*
X108631536Y-72265420D01*
X108470495Y-72351499D01*
X108329341Y-72467341D01*
X108213499Y-72608496D01*
X108127420Y-72769537D01*
X108074413Y-72944277D01*
X108061000Y-73080463D01*
X105649055Y-73080463D01*
X105599145Y-72829550D01*
X105348349Y-72224075D01*
X104984250Y-71679161D01*
X104520839Y-71215750D01*
X103975925Y-70851651D01*
X103715089Y-70743609D01*
X111744538Y-70743609D01*
X111748409Y-70781282D01*
X111840579Y-71006533D01*
X111974922Y-71209474D01*
X112146275Y-71382307D01*
X112348054Y-71518390D01*
X112572504Y-71612493D01*
X112811000Y-71661000D01*
X113411000Y-71661000D01*
X113411000Y-70553000D01*
X113665000Y-70553000D01*
X113665000Y-71661000D01*
X114265000Y-71661000D01*
X114503496Y-71612493D01*
X114727946Y-71518390D01*
X114929725Y-71382307D01*
X115101078Y-71209474D01*
X115235421Y-71006533D01*
X115327591Y-70781282D01*
X115331462Y-70743609D01*
X126222538Y-70743609D01*
X126226409Y-70781282D01*
X126318579Y-71006533D01*
X126452922Y-71209474D01*
X126624275Y-71382307D01*
X126826054Y-71518390D01*
X127050504Y-71612493D01*
X127289000Y-71661000D01*
X127889000Y-71661000D01*
X127889000Y-70553000D01*
X128143000Y-70553000D01*
X128143000Y-71661000D01*
X128743000Y-71661000D01*
X128981496Y-71612493D01*
X129205946Y-71518390D01*
X129407725Y-71382307D01*
X129579078Y-71209474D01*
X129713421Y-71006533D01*
X129805591Y-70781282D01*
X129809462Y-70743609D01*
X129684731Y-70553000D01*
X128143000Y-70553000D01*
X127889000Y-70553000D01*
X126347269Y-70553000D01*
X126222538Y-70743609D01*
X115331462Y-70743609D01*
X115206731Y-70553000D01*
X113665000Y-70553000D01*
X113411000Y-70553000D01*
X111869269Y-70553000D01*
X111744538Y-70743609D01*
X103715089Y-70743609D01*
X103370450Y-70600855D01*
X102727681Y-70473000D01*
X102072319Y-70473000D01*
X101429550Y-70600855D01*
X100824075Y-70851651D01*
X100279161Y-71215750D01*
X99815750Y-71679161D01*
X99451651Y-72224075D01*
X99200855Y-72829550D01*
X99073000Y-73472319D01*
X96872000Y-73472319D01*
X96872000Y-71137215D01*
X96915326Y-70695346D01*
X97038655Y-70286860D01*
X97133547Y-70108391D01*
X111744538Y-70108391D01*
X111869269Y-70299000D01*
X113411000Y-70299000D01*
X113411000Y-69191000D01*
X113665000Y-69191000D01*
X113665000Y-70299000D01*
X115206731Y-70299000D01*
X115331462Y-70108391D01*
X126222538Y-70108391D01*
X126347269Y-70299000D01*
X127889000Y-70299000D01*
X127889000Y-69191000D01*
X128143000Y-69191000D01*
X128143000Y-70299000D01*
X129684731Y-70299000D01*
X129729228Y-70231000D01*
X137759000Y-70231000D01*
X137759000Y-70581000D01*
X137807507Y-70819496D01*
X137901610Y-71043946D01*
X138037693Y-71245725D01*
X138210526Y-71417078D01*
X138413467Y-71551421D01*
X138638718Y-71643591D01*
X138676391Y-71647462D01*
X138867000Y-71522731D01*
X138867000Y-70231000D01*
X139121000Y-70231000D01*
X139121000Y-71522731D01*
X139294862Y-71636503D01*
X139234472Y-71864867D01*
X139994000Y-72624395D01*
X140753528Y-71864867D01*
X144234472Y-71864867D01*
X144994000Y-72624395D01*
X145753528Y-71864867D01*
X145693138Y-71636503D01*
X145867000Y-71522731D01*
X145867000Y-70231000D01*
X146121000Y-70231000D01*
X146121000Y-71522731D01*
X146311609Y-71647462D01*
X146349282Y-71643591D01*
X146574533Y-71551421D01*
X146777474Y-71417078D01*
X146950307Y-71245725D01*
X147086390Y-71043946D01*
X147180493Y-70819496D01*
X147229000Y-70581000D01*
X147229000Y-70231000D01*
X146121000Y-70231000D01*
X145867000Y-70231000D01*
X144759000Y-70231000D01*
X144759000Y-70581000D01*
X144807507Y-70819496D01*
X144901610Y-71043946D01*
X145037693Y-71245725D01*
X145210526Y-71417078D01*
X145305836Y-71480171D01*
X145188151Y-71451281D01*
X144920518Y-71439396D01*
X144655709Y-71479952D01*
X144403900Y-71571391D01*
X144296965Y-71628550D01*
X144234472Y-71864867D01*
X140753528Y-71864867D01*
X140691035Y-71628550D01*
X140448322Y-71515150D01*
X140188151Y-71451281D01*
X139920518Y-71439396D01*
X139690558Y-71474615D01*
X139777474Y-71417078D01*
X139950307Y-71245725D01*
X140086390Y-71043946D01*
X140180493Y-70819496D01*
X140229000Y-70581000D01*
X140229000Y-70231000D01*
X139121000Y-70231000D01*
X138867000Y-70231000D01*
X137759000Y-70231000D01*
X129729228Y-70231000D01*
X129809462Y-70108391D01*
X129805591Y-70070718D01*
X129713421Y-69845467D01*
X129579078Y-69642526D01*
X129407725Y-69469693D01*
X129205946Y-69333610D01*
X128981496Y-69239507D01*
X128743000Y-69191000D01*
X128143000Y-69191000D01*
X127889000Y-69191000D01*
X127289000Y-69191000D01*
X127050504Y-69239507D01*
X126826054Y-69333610D01*
X126624275Y-69469693D01*
X126452922Y-69642526D01*
X126318579Y-69845467D01*
X126226409Y-70070718D01*
X126222538Y-70108391D01*
X115331462Y-70108391D01*
X115327591Y-70070718D01*
X115235421Y-69845467D01*
X115101078Y-69642526D01*
X114929725Y-69469693D01*
X114727946Y-69333610D01*
X114503496Y-69239507D01*
X114265000Y-69191000D01*
X113665000Y-69191000D01*
X113411000Y-69191000D01*
X112811000Y-69191000D01*
X112572504Y-69239507D01*
X112348054Y-69333610D01*
X112146275Y-69469693D01*
X111974922Y-69642526D01*
X111840579Y-69845467D01*
X111748409Y-70070718D01*
X111744538Y-70108391D01*
X97133547Y-70108391D01*
X97238974Y-69910112D01*
X97508657Y-69579450D01*
X97837431Y-69307465D01*
X98212769Y-69104520D01*
X98620381Y-68978343D01*
X99061308Y-68932000D01*
X138068229Y-68932000D01*
X138037693Y-68962275D01*
G37*
X138037693Y-68962275D02*
X137901610Y-69164054D01*
X137807507Y-69388504D01*
X137759000Y-69627000D01*
X137759000Y-69977000D01*
X138867000Y-69977000D01*
X138867000Y-69957000D01*
X139121000Y-69957000D01*
X139121000Y-69977000D01*
X140229000Y-69977000D01*
X140229000Y-69627000D01*
X140180493Y-69388504D01*
X140086390Y-69164054D01*
X139950307Y-68962275D01*
X139919771Y-68932000D01*
X145068229Y-68932000D01*
X145037693Y-68962275D01*
X144901610Y-69164054D01*
X144807507Y-69388504D01*
X144759000Y-69627000D01*
X144759000Y-69977000D01*
X145867000Y-69977000D01*
X145867000Y-69957000D01*
X146121000Y-69957000D01*
X146121000Y-69977000D01*
X147229000Y-69977000D01*
X147229000Y-69627000D01*
X147180493Y-69388504D01*
X147086390Y-69164054D01*
X146950307Y-68962275D01*
X146919771Y-68932000D01*
X147302785Y-68932000D01*
X147744654Y-68975326D01*
X148153140Y-69098655D01*
X148529888Y-69298974D01*
X148860550Y-69568657D01*
X149132535Y-69897431D01*
X149335480Y-70272769D01*
X149461657Y-70680381D01*
X149508000Y-71121308D01*
X149508000Y-88236914D01*
X149504103Y-88235732D01*
X149440000Y-88229418D01*
X147740000Y-88229418D01*
X147675897Y-88235732D01*
X147614257Y-88254430D01*
X147557450Y-88284794D01*
X147507657Y-88325657D01*
X147466794Y-88375450D01*
X147436430Y-88432257D01*
X147417732Y-88493897D01*
X147411418Y-88558000D01*
X147411418Y-90258000D01*
X147417732Y-90322103D01*
X147436430Y-90383743D01*
X147466794Y-90440550D01*
X147507657Y-90490343D01*
X147557450Y-90531206D01*
X147614257Y-90561570D01*
X147675897Y-90580268D01*
X147740000Y-90586582D01*
X149440000Y-90586582D01*
X149504103Y-90580268D01*
X149508000Y-90579086D01*
X149508000Y-91203340D01*
X149504236Y-91197706D01*
X149340294Y-91033764D01*
X149147519Y-90904956D01*
X148933318Y-90816231D01*
X148705924Y-90771000D01*
X148474076Y-90771000D01*
X148246682Y-90816231D01*
X148032481Y-90904956D01*
X147839706Y-91033764D01*
X147675764Y-91197706D01*
X147546956Y-91390481D01*
X147458231Y-91604682D01*
X147413000Y-91832076D01*
X147413000Y-92063924D01*
X147458231Y-92291318D01*
X147546956Y-92505519D01*
X147675764Y-92698294D01*
X147839706Y-92862236D01*
X148032481Y-92991044D01*
X148246682Y-93079769D01*
X148474076Y-93125000D01*
X148705924Y-93125000D01*
X148933318Y-93079769D01*
X149147519Y-92991044D01*
X149340294Y-92862236D01*
X149504236Y-92698294D01*
X149508001Y-92692660D01*
X149508001Y-93743340D01*
X149504236Y-93737706D01*
X149340294Y-93573764D01*
X149147519Y-93444956D01*
X148933318Y-93356231D01*
X148705924Y-93311000D01*
X148474076Y-93311000D01*
X148246682Y-93356231D01*
X148032481Y-93444956D01*
X147839706Y-93573764D01*
X147675764Y-93737706D01*
X147546956Y-93930481D01*
X147458231Y-94144682D01*
X147413000Y-94372076D01*
X147413000Y-94603924D01*
X147458231Y-94831318D01*
X147546956Y-95045519D01*
X147675764Y-95238294D01*
X147839706Y-95402236D01*
X148032481Y-95531044D01*
X148246682Y-95619769D01*
X148474076Y-95665000D01*
X148705924Y-95665000D01*
X148933318Y-95619769D01*
X149147519Y-95531044D01*
X149340294Y-95402236D01*
X149504236Y-95238294D01*
X149508001Y-95232660D01*
X149508001Y-96283340D01*
X149504236Y-96277706D01*
X149340294Y-96113764D01*
X149147519Y-95984956D01*
X148933318Y-95896231D01*
X148705924Y-95851000D01*
X148474076Y-95851000D01*
X148246682Y-95896231D01*
X148032481Y-95984956D01*
X147839706Y-96113764D01*
X147675764Y-96277706D01*
X147546956Y-96470481D01*
X147458231Y-96684682D01*
X147413000Y-96912076D01*
X147413000Y-97143924D01*
X147458231Y-97371318D01*
X147546956Y-97585519D01*
X147675764Y-97778294D01*
X147839706Y-97942236D01*
X148032481Y-98071044D01*
X148246682Y-98159769D01*
X148474076Y-98205000D01*
X148705924Y-98205000D01*
X148933318Y-98159769D01*
X149147519Y-98071044D01*
X149340294Y-97942236D01*
X149504236Y-97778294D01*
X149508001Y-97772660D01*
X149508001Y-98823340D01*
X149504236Y-98817706D01*
X149340294Y-98653764D01*
X149147519Y-98524956D01*
X148933318Y-98436231D01*
X148705924Y-98391000D01*
X148474076Y-98391000D01*
X148246682Y-98436231D01*
X148032481Y-98524956D01*
X147839706Y-98653764D01*
X147675764Y-98817706D01*
X147546956Y-99010481D01*
X147458231Y-99224682D01*
X147413000Y-99452076D01*
X147413000Y-99683924D01*
X147458231Y-99911318D01*
X147546956Y-100125519D01*
X147675764Y-100318294D01*
X147839706Y-100482236D01*
X148032481Y-100611044D01*
X148197179Y-100679264D01*
X147958748Y-100763843D01*
X147708645Y-100912822D01*
X147492412Y-101107731D01*
X147318359Y-101341080D01*
X147193175Y-101603901D01*
X147148524Y-101751110D01*
X147269845Y-101981000D01*
X148463000Y-101981000D01*
X148463000Y-101961000D01*
X148717000Y-101961000D01*
X148717000Y-101981000D01*
X148737000Y-101981000D01*
X148737000Y-102235000D01*
X148717000Y-102235000D01*
X148717000Y-102255000D01*
X148463000Y-102255000D01*
X148463000Y-102235000D01*
X147269845Y-102235000D01*
X147148524Y-102464890D01*
X147193175Y-102612099D01*
X147318359Y-102874920D01*
X147492412Y-103108269D01*
X147708645Y-103303178D01*
X147958748Y-103452157D01*
X148197179Y-103536736D01*
X148032481Y-103604956D01*
X147839706Y-103733764D01*
X147675764Y-103897706D01*
X147546956Y-104090481D01*
X147458231Y-104304682D01*
X147413000Y-104532076D01*
X147413000Y-104763924D01*
X147458231Y-104991318D01*
X147546956Y-105205519D01*
X147675764Y-105398294D01*
X147839706Y-105562236D01*
X148032481Y-105691044D01*
X148246682Y-105779769D01*
X148474076Y-105825000D01*
X148705924Y-105825000D01*
X148933318Y-105779769D01*
X149147519Y-105691044D01*
X149340294Y-105562236D01*
X149504236Y-105398294D01*
X149508001Y-105392660D01*
X149508001Y-111742775D01*
X149464674Y-112184659D01*
X149341346Y-112593139D01*
X149141025Y-112969889D01*
X148871346Y-113300548D01*
X148542569Y-113572535D01*
X148167231Y-113775480D01*
X147759621Y-113901657D01*
X147318692Y-113948000D01*
X99077215Y-113948000D01*
X98635341Y-113904674D01*
X98226861Y-113781346D01*
X97850111Y-113581025D01*
X97519452Y-113311346D01*
X97247465Y-112982569D01*
X97044520Y-112607231D01*
X96918343Y-112199621D01*
X96882952Y-111862891D01*
X107016519Y-111862891D01*
X107113843Y-112137252D01*
X107262822Y-112387355D01*
X107457731Y-112603588D01*
X107691080Y-112777641D01*
X107953901Y-112902825D01*
X108101110Y-112947476D01*
X108331000Y-112826155D01*
X108331000Y-111633000D01*
X107137186Y-111633000D01*
X107016519Y-111862891D01*
X96882952Y-111862891D01*
X96872000Y-111758692D01*
X96872000Y-111149109D01*
X107016519Y-111149109D01*
X107137186Y-111379000D01*
X108331000Y-111379000D01*
X108331000Y-110185845D01*
X108585000Y-110185845D01*
X108585000Y-111379000D01*
X108605000Y-111379000D01*
X108605000Y-111633000D01*
X108585000Y-111633000D01*
X108585000Y-112826155D01*
X108814890Y-112947476D01*
X108962099Y-112902825D01*
X109224920Y-112777641D01*
X109458269Y-112603588D01*
X109653178Y-112387355D01*
X109802157Y-112137252D01*
X109886736Y-111898821D01*
X109954956Y-112063519D01*
X110083764Y-112256294D01*
X110247706Y-112420236D01*
X110440481Y-112549044D01*
X110654682Y-112637769D01*
X110882076Y-112683000D01*
X111113924Y-112683000D01*
X111341318Y-112637769D01*
X111555519Y-112549044D01*
X111748294Y-112420236D01*
X111912236Y-112256294D01*
X112041044Y-112063519D01*
X112129769Y-111849318D01*
X112175000Y-111621924D01*
X112175000Y-111390076D01*
X112129769Y-111162682D01*
X112041044Y-110948481D01*
X111912236Y-110755706D01*
X111812530Y-110656000D01*
X112359418Y-110656000D01*
X112359418Y-112356000D01*
X112365732Y-112420103D01*
X112384430Y-112481743D01*
X112414794Y-112538550D01*
X112455657Y-112588343D01*
X112505450Y-112629206D01*
X112562257Y-112659570D01*
X112623897Y-112678268D01*
X112688000Y-112684582D01*
X114388000Y-112684582D01*
X114452103Y-112678268D01*
X114513743Y-112659570D01*
X114570550Y-112629206D01*
X114620343Y-112588343D01*
X114661206Y-112538550D01*
X114691570Y-112481743D01*
X114710268Y-112420103D01*
X114716582Y-112356000D01*
X114716582Y-111862891D01*
X119208519Y-111862891D01*
X119305843Y-112137252D01*
X119454822Y-112387355D01*
X119649731Y-112603588D01*
X119883080Y-112777641D01*
X120145901Y-112902825D01*
X120293110Y-112947476D01*
X120523000Y-112826155D01*
X120523000Y-111633000D01*
X119329186Y-111633000D01*
X119208519Y-111862891D01*
X114716582Y-111862891D01*
X114716582Y-111149109D01*
X119208519Y-111149109D01*
X119329186Y-111379000D01*
X120523000Y-111379000D01*
X120523000Y-110185845D01*
X120777000Y-110185845D01*
X120777000Y-111379000D01*
X120797000Y-111379000D01*
X120797000Y-111633000D01*
X120777000Y-111633000D01*
X120777000Y-112826155D01*
X121006890Y-112947476D01*
X121154099Y-112902825D01*
X121416920Y-112777641D01*
X121650269Y-112603588D01*
X121845178Y-112387355D01*
X121994157Y-112137252D01*
X122078736Y-111898821D01*
X122146956Y-112063519D01*
X122275764Y-112256294D01*
X122439706Y-112420236D01*
X122632481Y-112549044D01*
X122846682Y-112637769D01*
X123074076Y-112683000D01*
X123305924Y-112683000D01*
X123533318Y-112637769D01*
X123747519Y-112549044D01*
X123940294Y-112420236D01*
X124104236Y-112256294D01*
X124233044Y-112063519D01*
X124321769Y-111849318D01*
X124367000Y-111621924D01*
X124367000Y-111390076D01*
X124321769Y-111162682D01*
X124233044Y-110948481D01*
X124104236Y-110755706D01*
X124004530Y-110656000D01*
X124551418Y-110656000D01*
X124551418Y-112356000D01*
X124557732Y-112420103D01*
X124576430Y-112481743D01*
X124606794Y-112538550D01*
X124647657Y-112588343D01*
X124697450Y-112629206D01*
X124754257Y-112659570D01*
X124815897Y-112678268D01*
X124880000Y-112684582D01*
X126580000Y-112684582D01*
X126644103Y-112678268D01*
X126705743Y-112659570D01*
X126762550Y-112629206D01*
X126812343Y-112588343D01*
X126853206Y-112538550D01*
X126883570Y-112481743D01*
X126902268Y-112420103D01*
X126908582Y-112356000D01*
X126908582Y-111608891D01*
X130892519Y-111608891D01*
X130989843Y-111883252D01*
X131138822Y-112133355D01*
X131333731Y-112349588D01*
X131567080Y-112523641D01*
X131829901Y-112648825D01*
X131977110Y-112693476D01*
X132207000Y-112572155D01*
X132207000Y-111379000D01*
X131013186Y-111379000D01*
X130892519Y-111608891D01*
X126908582Y-111608891D01*
X126908582Y-110895109D01*
X130892519Y-110895109D01*
X131013186Y-111125000D01*
X132207000Y-111125000D01*
X132207000Y-109931845D01*
X132461000Y-109931845D01*
X132461000Y-111125000D01*
X132481000Y-111125000D01*
X132481000Y-111379000D01*
X132461000Y-111379000D01*
X132461000Y-112572155D01*
X132690890Y-112693476D01*
X132838099Y-112648825D01*
X133100920Y-112523641D01*
X133334269Y-112349588D01*
X133529178Y-112133355D01*
X133678157Y-111883252D01*
X133762736Y-111644821D01*
X133830956Y-111809519D01*
X133959764Y-112002294D01*
X134123706Y-112166236D01*
X134316481Y-112295044D01*
X134530682Y-112383769D01*
X134758076Y-112429000D01*
X134989924Y-112429000D01*
X135217318Y-112383769D01*
X135431519Y-112295044D01*
X135624294Y-112166236D01*
X135788236Y-112002294D01*
X135917044Y-111809519D01*
X136005769Y-111595318D01*
X136051000Y-111367924D01*
X136051000Y-111136076D01*
X136005769Y-110908682D01*
X135917044Y-110694481D01*
X135788236Y-110501706D01*
X135688530Y-110402000D01*
X136235418Y-110402000D01*
X136235418Y-112102000D01*
X136241732Y-112166103D01*
X136260430Y-112227743D01*
X136290794Y-112284550D01*
X136331657Y-112334343D01*
X136381450Y-112375206D01*
X136438257Y-112405570D01*
X136499897Y-112424268D01*
X136564000Y-112430582D01*
X138264000Y-112430582D01*
X138328103Y-112424268D01*
X138389743Y-112405570D01*
X138446550Y-112375206D01*
X138496343Y-112334343D01*
X138537206Y-112284550D01*
X138567570Y-112227743D01*
X138586268Y-112166103D01*
X138592582Y-112102000D01*
X138592582Y-110402000D01*
X138586268Y-110337897D01*
X138567570Y-110276257D01*
X138537206Y-110219450D01*
X138496343Y-110169657D01*
X138446550Y-110128794D01*
X138389743Y-110098430D01*
X138328103Y-110079732D01*
X138264000Y-110073418D01*
X136564000Y-110073418D01*
X136499897Y-110079732D01*
X136438257Y-110098430D01*
X136381450Y-110128794D01*
X136331657Y-110169657D01*
X136290794Y-110219450D01*
X136260430Y-110276257D01*
X136241732Y-110337897D01*
X136235418Y-110402000D01*
X135688530Y-110402000D01*
X135624294Y-110337764D01*
X135431519Y-110208956D01*
X135217318Y-110120231D01*
X134989924Y-110075000D01*
X134758076Y-110075000D01*
X134530682Y-110120231D01*
X134316481Y-110208956D01*
X134123706Y-110337764D01*
X133959764Y-110501706D01*
X133830956Y-110694481D01*
X133762736Y-110859179D01*
X133678157Y-110620748D01*
X133529178Y-110370645D01*
X133334269Y-110154412D01*
X133224209Y-110072319D01*
X141073000Y-110072319D01*
X141073000Y-110727681D01*
X141200855Y-111370450D01*
X141451651Y-111975925D01*
X141815750Y-112520839D01*
X142279161Y-112984250D01*
X142824075Y-113348349D01*
X143429550Y-113599145D01*
X144072319Y-113727000D01*
X144727681Y-113727000D01*
X145370450Y-113599145D01*
X145975925Y-113348349D01*
X146520839Y-112984250D01*
X146984250Y-112520839D01*
X147348349Y-111975925D01*
X147599145Y-111370450D01*
X147727000Y-110727681D01*
X147727000Y-110072319D01*
X147599145Y-109429550D01*
X147348349Y-108824075D01*
X146984250Y-108279161D01*
X146520839Y-107815750D01*
X145975925Y-107451651D01*
X145370450Y-107200855D01*
X144727681Y-107073000D01*
X144072319Y-107073000D01*
X143429550Y-107200855D01*
X142824075Y-107451651D01*
X142279161Y-107815750D01*
X141815750Y-108279161D01*
X141451651Y-108824075D01*
X141200855Y-109429550D01*
X141073000Y-110072319D01*
X133224209Y-110072319D01*
X133100920Y-109980359D01*
X132838099Y-109855175D01*
X132690890Y-109810524D01*
X132461000Y-109931845D01*
X132207000Y-109931845D01*
X131977110Y-109810524D01*
X131829901Y-109855175D01*
X131567080Y-109980359D01*
X131333731Y-110154412D01*
X131138822Y-110370645D01*
X130989843Y-110620748D01*
X130892519Y-110895109D01*
X126908582Y-110895109D01*
X126908582Y-110656000D01*
X126902268Y-110591897D01*
X126883570Y-110530257D01*
X126853206Y-110473450D01*
X126812343Y-110423657D01*
X126762550Y-110382794D01*
X126705743Y-110352430D01*
X126644103Y-110333732D01*
X126580000Y-110327418D01*
X124880000Y-110327418D01*
X124815897Y-110333732D01*
X124754257Y-110352430D01*
X124697450Y-110382794D01*
X124647657Y-110423657D01*
X124606794Y-110473450D01*
X124576430Y-110530257D01*
X124557732Y-110591897D01*
X124551418Y-110656000D01*
X124004530Y-110656000D01*
X123940294Y-110591764D01*
X123747519Y-110462956D01*
X123533318Y-110374231D01*
X123305924Y-110329000D01*
X123074076Y-110329000D01*
X122846682Y-110374231D01*
X122632481Y-110462956D01*
X122439706Y-110591764D01*
X122275764Y-110755706D01*
X122146956Y-110948481D01*
X122078736Y-111113179D01*
X121994157Y-110874748D01*
X121845178Y-110624645D01*
X121650269Y-110408412D01*
X121416920Y-110234359D01*
X121154099Y-110109175D01*
X121006890Y-110064524D01*
X120777000Y-110185845D01*
X120523000Y-110185845D01*
X120293110Y-110064524D01*
X120145901Y-110109175D01*
X119883080Y-110234359D01*
X119649731Y-110408412D01*
X119454822Y-110624645D01*
X119305843Y-110874748D01*
X119208519Y-111149109D01*
X114716582Y-111149109D01*
X114716582Y-110656000D01*
X114710268Y-110591897D01*
X114691570Y-110530257D01*
X114661206Y-110473450D01*
X114620343Y-110423657D01*
X114570550Y-110382794D01*
X114513743Y-110352430D01*
X114452103Y-110333732D01*
X114388000Y-110327418D01*
X112688000Y-110327418D01*
X112623897Y-110333732D01*
X112562257Y-110352430D01*
X112505450Y-110382794D01*
X112455657Y-110423657D01*
X112414794Y-110473450D01*
X112384430Y-110530257D01*
X112365732Y-110591897D01*
X112359418Y-110656000D01*
X111812530Y-110656000D01*
X111748294Y-110591764D01*
X111555519Y-110462956D01*
X111341318Y-110374231D01*
X111113924Y-110329000D01*
X110882076Y-110329000D01*
X110654682Y-110374231D01*
X110440481Y-110462956D01*
X110247706Y-110591764D01*
X110083764Y-110755706D01*
X109954956Y-110948481D01*
X109886736Y-111113179D01*
X109802157Y-110874748D01*
X109653178Y-110624645D01*
X109458269Y-110408412D01*
X109224920Y-110234359D01*
X108962099Y-110109175D01*
X108814890Y-110064524D01*
X108585000Y-110185845D01*
X108331000Y-110185845D01*
X108101110Y-110064524D01*
X107953901Y-110109175D01*
X107691080Y-110234359D01*
X107457731Y-110408412D01*
X107262822Y-110624645D01*
X107113843Y-110874748D01*
X107016519Y-111149109D01*
X96872000Y-111149109D01*
X96872000Y-106735397D01*
X98396500Y-106735397D01*
X98396500Y-106878603D01*
X98424438Y-107019058D01*
X98479241Y-107151364D01*
X98558802Y-107270436D01*
X98660064Y-107371698D01*
X98779136Y-107451259D01*
X98911442Y-107506062D01*
X99051897Y-107534000D01*
X99195103Y-107534000D01*
X99335558Y-107506062D01*
X99467864Y-107451259D01*
X99586936Y-107371698D01*
X99688198Y-107270436D01*
X99767759Y-107151364D01*
X99822562Y-107019058D01*
X99850500Y-106878603D01*
X99850500Y-106735397D01*
X99822562Y-106594942D01*
X99767759Y-106462636D01*
X99688198Y-106343564D01*
X99586936Y-106242302D01*
X99575500Y-106234661D01*
X99575500Y-103648095D01*
X115073000Y-103648095D01*
X115073000Y-103751905D01*
X115093252Y-103853720D01*
X115132979Y-103949628D01*
X115190652Y-104035943D01*
X115264057Y-104109348D01*
X115350372Y-104167021D01*
X115446280Y-104206748D01*
X115548095Y-104227000D01*
X115651905Y-104227000D01*
X115753720Y-104206748D01*
X115849628Y-104167021D01*
X115935943Y-104109348D01*
X115943291Y-104102000D01*
X117380261Y-104102000D01*
X117400000Y-104103944D01*
X117419739Y-104102000D01*
X117419747Y-104102000D01*
X117478806Y-104096183D01*
X117554583Y-104073197D01*
X117624420Y-104035868D01*
X117685632Y-103985632D01*
X117698223Y-103970290D01*
X120141514Y-101527000D01*
X120151905Y-101527000D01*
X120253720Y-101506748D01*
X120349628Y-101467021D01*
X120435943Y-101409348D01*
X120498000Y-101347291D01*
X120498000Y-104056709D01*
X120490652Y-104064057D01*
X120432979Y-104150372D01*
X120393252Y-104246280D01*
X120373000Y-104348095D01*
X120373000Y-104451905D01*
X120393252Y-104553720D01*
X120432979Y-104649628D01*
X120490652Y-104735943D01*
X120564057Y-104809348D01*
X120650372Y-104867021D01*
X120746280Y-104906748D01*
X120848095Y-104927000D01*
X120951905Y-104927000D01*
X121053720Y-104906748D01*
X121149628Y-104867021D01*
X121235943Y-104809348D01*
X121309348Y-104735943D01*
X121367021Y-104649628D01*
X121406748Y-104553720D01*
X121427000Y-104451905D01*
X121427000Y-104348095D01*
X121406748Y-104246280D01*
X121367021Y-104150372D01*
X121309348Y-104064057D01*
X121302000Y-104056709D01*
X121302000Y-97048095D01*
X122873000Y-97048095D01*
X122873000Y-97151905D01*
X122893252Y-97253720D01*
X122932979Y-97349628D01*
X122990652Y-97435943D01*
X122998001Y-97443292D01*
X122998000Y-101156709D01*
X122990652Y-101164057D01*
X122932979Y-101250372D01*
X122893252Y-101346280D01*
X122873000Y-101448095D01*
X122873000Y-101551905D01*
X122893252Y-101653720D01*
X122932979Y-101749628D01*
X122990652Y-101835943D01*
X123064057Y-101909348D01*
X123150372Y-101967021D01*
X123246280Y-102006748D01*
X123348095Y-102027000D01*
X123451905Y-102027000D01*
X123553720Y-102006748D01*
X123649628Y-101967021D01*
X123735943Y-101909348D01*
X123809348Y-101835943D01*
X123867021Y-101749628D01*
X123906748Y-101653720D01*
X123927000Y-101551905D01*
X123927000Y-101448095D01*
X123906748Y-101346280D01*
X123867021Y-101250372D01*
X123809348Y-101164057D01*
X123802000Y-101156709D01*
X123802000Y-97443291D01*
X123809348Y-97435943D01*
X123867021Y-97349628D01*
X123906748Y-97253720D01*
X123927000Y-97151905D01*
X123927000Y-97048095D01*
X123906748Y-96946280D01*
X123867021Y-96850372D01*
X123809348Y-96764057D01*
X123735943Y-96690652D01*
X123649628Y-96632979D01*
X123553720Y-96593252D01*
X123451905Y-96573000D01*
X123348095Y-96573000D01*
X123246280Y-96593252D01*
X123150372Y-96632979D01*
X123064057Y-96690652D01*
X122990652Y-96764057D01*
X122932979Y-96850372D01*
X122893252Y-96946280D01*
X122873000Y-97048095D01*
X121302000Y-97048095D01*
X121302000Y-94319739D01*
X121303944Y-94299999D01*
X121302000Y-94280260D01*
X121302000Y-94280253D01*
X121296183Y-94221194D01*
X121273197Y-94145417D01*
X121235868Y-94075580D01*
X121185632Y-94014368D01*
X121170290Y-94001777D01*
X121027000Y-93858487D01*
X121027000Y-93848095D01*
X121006748Y-93746280D01*
X120967021Y-93650372D01*
X120909348Y-93564057D01*
X120835943Y-93490652D01*
X120749628Y-93432979D01*
X120653720Y-93393252D01*
X120551905Y-93373000D01*
X120448095Y-93373000D01*
X120346280Y-93393252D01*
X120250372Y-93432979D01*
X120164057Y-93490652D01*
X120090652Y-93564057D01*
X120032979Y-93650372D01*
X119993252Y-93746280D01*
X119973000Y-93848095D01*
X119973000Y-93951905D01*
X119993252Y-94053720D01*
X120032979Y-94149628D01*
X120090652Y-94235943D01*
X120164057Y-94309348D01*
X120250372Y-94367021D01*
X120346280Y-94406748D01*
X120448095Y-94427000D01*
X120458487Y-94427000D01*
X120498001Y-94466514D01*
X120498000Y-100652709D01*
X120435943Y-100590652D01*
X120349628Y-100532979D01*
X120253720Y-100493252D01*
X120151905Y-100473000D01*
X120048095Y-100473000D01*
X119946280Y-100493252D01*
X119850372Y-100532979D01*
X119764057Y-100590652D01*
X119690652Y-100664057D01*
X119632979Y-100750372D01*
X119593252Y-100846280D01*
X119573000Y-100948095D01*
X119573000Y-100958486D01*
X117233487Y-103298000D01*
X115943291Y-103298000D01*
X115935943Y-103290652D01*
X115849628Y-103232979D01*
X115753720Y-103193252D01*
X115651905Y-103173000D01*
X115548095Y-103173000D01*
X115446280Y-103193252D01*
X115350372Y-103232979D01*
X115264057Y-103290652D01*
X115190652Y-103364057D01*
X115132979Y-103450372D01*
X115093252Y-103546280D01*
X115073000Y-103648095D01*
X99575500Y-103648095D01*
X99575500Y-101148095D01*
X115873000Y-101148095D01*
X115873000Y-101251905D01*
X115893252Y-101353720D01*
X115932979Y-101449628D01*
X115990652Y-101535943D01*
X116064057Y-101609348D01*
X116150372Y-101667021D01*
X116246280Y-101706748D01*
X116348095Y-101727000D01*
X116451905Y-101727000D01*
X116553720Y-101706748D01*
X116649628Y-101667021D01*
X116735943Y-101609348D01*
X116809348Y-101535943D01*
X116867021Y-101449628D01*
X116906748Y-101353720D01*
X116927000Y-101251905D01*
X116927000Y-101148095D01*
X116906748Y-101046280D01*
X116867021Y-100950372D01*
X116809348Y-100864057D01*
X116802000Y-100856709D01*
X116802000Y-91666513D01*
X117866514Y-90602000D01*
X122356709Y-90602000D01*
X122364057Y-90609348D01*
X122450372Y-90667021D01*
X122546280Y-90706748D01*
X122648095Y-90727000D01*
X122751905Y-90727000D01*
X122853720Y-90706748D01*
X122949628Y-90667021D01*
X123035943Y-90609348D01*
X123109348Y-90535943D01*
X123167021Y-90449628D01*
X123206748Y-90353720D01*
X123227000Y-90251905D01*
X123227000Y-90148095D01*
X123206748Y-90046280D01*
X123167021Y-89950372D01*
X123109348Y-89864057D01*
X123035943Y-89790652D01*
X122949628Y-89732979D01*
X122853720Y-89693252D01*
X122751905Y-89673000D01*
X122648095Y-89673000D01*
X122546280Y-89693252D01*
X122450372Y-89732979D01*
X122364057Y-89790652D01*
X122356709Y-89798000D01*
X117719739Y-89798000D01*
X117700000Y-89796056D01*
X117680260Y-89798000D01*
X117680253Y-89798000D01*
X117621194Y-89803817D01*
X117545416Y-89826803D01*
X117493445Y-89854583D01*
X117475580Y-89864132D01*
X117414368Y-89914368D01*
X117401781Y-89929705D01*
X116129705Y-91201782D01*
X116114369Y-91214368D01*
X116064133Y-91275580D01*
X116047473Y-91306748D01*
X116026804Y-91345417D01*
X116003817Y-91421195D01*
X115996056Y-91500000D01*
X115998001Y-91519749D01*
X115998000Y-100856709D01*
X115990652Y-100864057D01*
X115932979Y-100950372D01*
X115893252Y-101046280D01*
X115873000Y-101148095D01*
X99575500Y-101148095D01*
X99575500Y-91627223D01*
X103628725Y-87574000D01*
X129088979Y-87574000D01*
X129064057Y-87590652D01*
X128990652Y-87664057D01*
X128932979Y-87750372D01*
X128893252Y-87846280D01*
X128873000Y-87948095D01*
X128873000Y-87958486D01*
X126433487Y-90398000D01*
X124419739Y-90398000D01*
X124399999Y-90396056D01*
X124380260Y-90398000D01*
X124380253Y-90398000D01*
X124321194Y-90403817D01*
X124245417Y-90426803D01*
X124175580Y-90464132D01*
X124114368Y-90514368D01*
X124101777Y-90529710D01*
X123958487Y-90673000D01*
X123948095Y-90673000D01*
X123846280Y-90693252D01*
X123750372Y-90732979D01*
X123664057Y-90790652D01*
X123590652Y-90864057D01*
X123532979Y-90950372D01*
X123493252Y-91046280D01*
X123473000Y-91148095D01*
X123473000Y-91251905D01*
X123493252Y-91353720D01*
X123532979Y-91449628D01*
X123590652Y-91535943D01*
X123664057Y-91609348D01*
X123750372Y-91667021D01*
X123846280Y-91706748D01*
X123948095Y-91727000D01*
X124051905Y-91727000D01*
X124153720Y-91706748D01*
X124249628Y-91667021D01*
X124335943Y-91609348D01*
X124409348Y-91535943D01*
X124467021Y-91449628D01*
X124506748Y-91353720D01*
X124527000Y-91251905D01*
X124527000Y-91241513D01*
X124566513Y-91202000D01*
X125965300Y-91202000D01*
X125932979Y-91250372D01*
X125893252Y-91346280D01*
X125873000Y-91448095D01*
X125873000Y-91551905D01*
X125893252Y-91653720D01*
X125932979Y-91749628D01*
X125990652Y-91835943D01*
X126064057Y-91909348D01*
X126150372Y-91967021D01*
X126246280Y-92006748D01*
X126348095Y-92027000D01*
X126451905Y-92027000D01*
X126553720Y-92006748D01*
X126649628Y-91967021D01*
X126735943Y-91909348D01*
X126747738Y-91897553D01*
X126761648Y-91896183D01*
X126837425Y-91873197D01*
X126907262Y-91835868D01*
X126968474Y-91785632D01*
X126981065Y-91770290D01*
X128003260Y-90748095D01*
X128373000Y-90748095D01*
X128373000Y-90851905D01*
X128393252Y-90953720D01*
X128432979Y-91049628D01*
X128490652Y-91135943D01*
X128498001Y-91143292D01*
X128498000Y-98080261D01*
X128496056Y-98100000D01*
X128498000Y-98119739D01*
X128498000Y-98119746D01*
X128503817Y-98178805D01*
X128526803Y-98254582D01*
X128564132Y-98324419D01*
X128614368Y-98385632D01*
X128629710Y-98398223D01*
X131601781Y-101370295D01*
X131614368Y-101385632D01*
X131629704Y-101398218D01*
X131629706Y-101398220D01*
X131675580Y-101435868D01*
X131745416Y-101473197D01*
X131821194Y-101496183D01*
X131880253Y-101502000D01*
X131880260Y-101502000D01*
X131900000Y-101503944D01*
X131919739Y-101502000D01*
X137080261Y-101502000D01*
X137100000Y-101503944D01*
X137119739Y-101502000D01*
X137119747Y-101502000D01*
X137178806Y-101496183D01*
X137254583Y-101473197D01*
X137324420Y-101435868D01*
X137385632Y-101385632D01*
X137398223Y-101370290D01*
X141741513Y-97027000D01*
X141751905Y-97027000D01*
X141853720Y-97006748D01*
X141949628Y-96967021D01*
X142035943Y-96909348D01*
X142109348Y-96835943D01*
X142167021Y-96749628D01*
X142206748Y-96653720D01*
X142227000Y-96551905D01*
X142227000Y-96448095D01*
X142206748Y-96346280D01*
X142167021Y-96250372D01*
X142109348Y-96164057D01*
X142035943Y-96090652D01*
X141949628Y-96032979D01*
X141853720Y-95993252D01*
X141751905Y-95973000D01*
X141648095Y-95973000D01*
X141546280Y-95993252D01*
X141450372Y-96032979D01*
X141364057Y-96090652D01*
X141290652Y-96164057D01*
X141232979Y-96250372D01*
X141193252Y-96346280D01*
X141173000Y-96448095D01*
X141173000Y-96458487D01*
X136933487Y-100698000D01*
X132066514Y-100698000D01*
X129302000Y-97933487D01*
X129302000Y-91143291D01*
X129309348Y-91135943D01*
X129367021Y-91049628D01*
X129406748Y-90953720D01*
X129427000Y-90851905D01*
X129427000Y-90748095D01*
X129406748Y-90646280D01*
X129367021Y-90550372D01*
X129309348Y-90464057D01*
X129235943Y-90390652D01*
X129149628Y-90332979D01*
X129053720Y-90293252D01*
X128951905Y-90273000D01*
X128848095Y-90273000D01*
X128746280Y-90293252D01*
X128650372Y-90332979D01*
X128564057Y-90390652D01*
X128490652Y-90464057D01*
X128432979Y-90550372D01*
X128393252Y-90646280D01*
X128373000Y-90748095D01*
X128003260Y-90748095D01*
X129403260Y-89348095D01*
X132173000Y-89348095D01*
X132173000Y-89451905D01*
X132193252Y-89553720D01*
X132232979Y-89649628D01*
X132290652Y-89735943D01*
X132364057Y-89809348D01*
X132450372Y-89867021D01*
X132546280Y-89906748D01*
X132598001Y-89917036D01*
X132598000Y-99756709D01*
X132590652Y-99764057D01*
X132532979Y-99850372D01*
X132493252Y-99946280D01*
X132473000Y-100048095D01*
X132473000Y-100151905D01*
X132493252Y-100253720D01*
X132532979Y-100349628D01*
X132590652Y-100435943D01*
X132664057Y-100509348D01*
X132750372Y-100567021D01*
X132846280Y-100606748D01*
X132948095Y-100627000D01*
X133051905Y-100627000D01*
X133153720Y-100606748D01*
X133249628Y-100567021D01*
X133335943Y-100509348D01*
X133409348Y-100435943D01*
X133467021Y-100349628D01*
X133506748Y-100253720D01*
X133527000Y-100151905D01*
X133527000Y-100048095D01*
X133506748Y-99946280D01*
X133467021Y-99850372D01*
X133409348Y-99764057D01*
X133402000Y-99756709D01*
X133402000Y-89719739D01*
X133403944Y-89699999D01*
X133402000Y-89680260D01*
X133402000Y-89680253D01*
X133396183Y-89621194D01*
X133373197Y-89545417D01*
X133335868Y-89475580D01*
X133285632Y-89414368D01*
X133270295Y-89401781D01*
X133227000Y-89358486D01*
X133227000Y-89348095D01*
X133206748Y-89246280D01*
X133167021Y-89150372D01*
X133109348Y-89064057D01*
X133035943Y-88990652D01*
X132949628Y-88932979D01*
X132853720Y-88893252D01*
X132751905Y-88873000D01*
X132648095Y-88873000D01*
X132546280Y-88893252D01*
X132450372Y-88932979D01*
X132364057Y-88990652D01*
X132290652Y-89064057D01*
X132232979Y-89150372D01*
X132193252Y-89246280D01*
X132173000Y-89348095D01*
X129403260Y-89348095D01*
X129949356Y-88802000D01*
X136233487Y-88802000D01*
X137073000Y-89641513D01*
X137073000Y-89651905D01*
X137093252Y-89753720D01*
X137132979Y-89849628D01*
X137190652Y-89935943D01*
X137264057Y-90009348D01*
X137350372Y-90067021D01*
X137446280Y-90106748D01*
X137548095Y-90127000D01*
X137651905Y-90127000D01*
X137753720Y-90106748D01*
X137849628Y-90067021D01*
X137935943Y-90009348D01*
X138009348Y-89935943D01*
X138067021Y-89849628D01*
X138106748Y-89753720D01*
X138127000Y-89651905D01*
X138127000Y-89548095D01*
X138106748Y-89446280D01*
X138067021Y-89350372D01*
X138009348Y-89264057D01*
X137935943Y-89190652D01*
X137849628Y-89132979D01*
X137753720Y-89093252D01*
X137651905Y-89073000D01*
X137641513Y-89073000D01*
X136698223Y-88129710D01*
X136685632Y-88114368D01*
X136624420Y-88064132D01*
X136554583Y-88026803D01*
X136478806Y-88003817D01*
X136419747Y-87998000D01*
X136419739Y-87998000D01*
X136400000Y-87996056D01*
X136380261Y-87998000D01*
X129927000Y-87998000D01*
X129927000Y-87948095D01*
X129906748Y-87846280D01*
X129867021Y-87750372D01*
X129809348Y-87664057D01*
X129735943Y-87590652D01*
X129711021Y-87574000D01*
X140651661Y-87574000D01*
X140659302Y-87585436D01*
X140760564Y-87686698D01*
X140879636Y-87766259D01*
X141011942Y-87821062D01*
X141152397Y-87849000D01*
X141295603Y-87849000D01*
X141436058Y-87821062D01*
X141568364Y-87766259D01*
X141687436Y-87686698D01*
X141788698Y-87585436D01*
X141868259Y-87466364D01*
X141923062Y-87334058D01*
X141951000Y-87193603D01*
X141951000Y-87050397D01*
X141923062Y-86909942D01*
X141868259Y-86777636D01*
X141788698Y-86658564D01*
X141687436Y-86557302D01*
X141568364Y-86477741D01*
X141436058Y-86422938D01*
X141295603Y-86395000D01*
X141152397Y-86395000D01*
X141011942Y-86422938D01*
X140879636Y-86477741D01*
X140760564Y-86557302D01*
X140659302Y-86658564D01*
X140651661Y-86670000D01*
X103463704Y-86670000D01*
X103441499Y-86667813D01*
X103352892Y-86676540D01*
X103267690Y-86702386D01*
X103189167Y-86744357D01*
X103120341Y-86800841D01*
X103106186Y-86818089D01*
X98819600Y-91104677D01*
X98802341Y-91118841D01*
X98745857Y-91187668D01*
X98734269Y-91209348D01*
X98703886Y-91266191D01*
X98678040Y-91351393D01*
X98669313Y-91440000D01*
X98671500Y-91462205D01*
X98671501Y-106234660D01*
X98660064Y-106242302D01*
X98558802Y-106343564D01*
X98479241Y-106462636D01*
X98424438Y-106594942D01*
X98396500Y-106735397D01*
X96872000Y-106735397D01*
X96872000Y-81426000D01*
X108006515Y-81426000D01*
X108024413Y-81607724D01*
X108077420Y-81782464D01*
X108163499Y-81943505D01*
X108279341Y-82084659D01*
X108420495Y-82200501D01*
X108581536Y-82286580D01*
X108756276Y-82339587D01*
X108892462Y-82353000D01*
X110183538Y-82353000D01*
X110319724Y-82339587D01*
X110494464Y-82286580D01*
X110655505Y-82200501D01*
X110796659Y-82084659D01*
X110912501Y-81943505D01*
X110998580Y-81782464D01*
X111051587Y-81607724D01*
X111069485Y-81426000D01*
X122484515Y-81426000D01*
X122502413Y-81607724D01*
X122555420Y-81782464D01*
X122641499Y-81943505D01*
X122757341Y-82084659D01*
X122898495Y-82200501D01*
X123059536Y-82286580D01*
X123234276Y-82339587D01*
X123370462Y-82353000D01*
X124661538Y-82353000D01*
X124797724Y-82339587D01*
X124972464Y-82286580D01*
X125133505Y-82200501D01*
X125274659Y-82084659D01*
X125390501Y-81943505D01*
X125476580Y-81782464D01*
X125529587Y-81607724D01*
X125547485Y-81426000D01*
X125529587Y-81244276D01*
X125476580Y-81069536D01*
X125390501Y-80908495D01*
X125274659Y-80767341D01*
X125133505Y-80651499D01*
X124972464Y-80565420D01*
X124797724Y-80512413D01*
X124661538Y-80499000D01*
X123370462Y-80499000D01*
X123234276Y-80512413D01*
X123059536Y-80565420D01*
X122898495Y-80651499D01*
X122757341Y-80767341D01*
X122641499Y-80908495D01*
X122555420Y-81069536D01*
X122502413Y-81244276D01*
X122484515Y-81426000D01*
X111069485Y-81426000D01*
X111051587Y-81244276D01*
X110998580Y-81069536D01*
X110912501Y-80908495D01*
X110796659Y-80767341D01*
X110655505Y-80651499D01*
X110494464Y-80565420D01*
X110319724Y-80512413D01*
X110183538Y-80499000D01*
X108892462Y-80499000D01*
X108756276Y-80512413D01*
X108581536Y-80565420D01*
X108420495Y-80651499D01*
X108279341Y-80767341D01*
X108163499Y-80908495D01*
X108077420Y-81069536D01*
X108024413Y-81244276D01*
X108006515Y-81426000D01*
X96872000Y-81426000D01*
X96872000Y-80096000D01*
X138217418Y-80096000D01*
X138217418Y-84496000D01*
X138223732Y-84560103D01*
X138242430Y-84621743D01*
X138272794Y-84678550D01*
X138313657Y-84728343D01*
X138363450Y-84769206D01*
X138420257Y-84799570D01*
X138481897Y-84818268D01*
X138546000Y-84824582D01*
X140346000Y-84824582D01*
X140410103Y-84818268D01*
X140471743Y-84799570D01*
X140528550Y-84769206D01*
X140578343Y-84728343D01*
X140619206Y-84678550D01*
X140649570Y-84621743D01*
X140668268Y-84560103D01*
X140674582Y-84496000D01*
X140674582Y-82423000D01*
X143711000Y-82423000D01*
X143711000Y-83523000D01*
X143765271Y-83820023D01*
X143876446Y-84100751D01*
X144040252Y-84354396D01*
X144250394Y-84571210D01*
X144498796Y-84742862D01*
X144775913Y-84862755D01*
X144881260Y-84887036D01*
X145119000Y-84766378D01*
X145119000Y-82423000D01*
X145373000Y-82423000D01*
X145373000Y-84766378D01*
X145610740Y-84887036D01*
X145716087Y-84862755D01*
X145993204Y-84742862D01*
X146241606Y-84571210D01*
X146451748Y-84354396D01*
X146615554Y-84100751D01*
X146726729Y-83820023D01*
X146781000Y-83523000D01*
X146781000Y-82423000D01*
X145373000Y-82423000D01*
X145119000Y-82423000D01*
X143711000Y-82423000D01*
X140674582Y-82423000D01*
X140674582Y-81069000D01*
X143711000Y-81069000D01*
X143711000Y-82169000D01*
X145119000Y-82169000D01*
X145119000Y-79825622D01*
X145373000Y-79825622D01*
X145373000Y-82169000D01*
X146781000Y-82169000D01*
X146781000Y-81069000D01*
X146726729Y-80771977D01*
X146615554Y-80491249D01*
X146451748Y-80237604D01*
X146241606Y-80020790D01*
X145993204Y-79849138D01*
X145716087Y-79729245D01*
X145610740Y-79704964D01*
X145373000Y-79825622D01*
X145119000Y-79825622D01*
X144881260Y-79704964D01*
X144775913Y-79729245D01*
X144498796Y-79849138D01*
X144250394Y-80020790D01*
X144040252Y-80237604D01*
X143876446Y-80491249D01*
X143765271Y-80771977D01*
X143711000Y-81069000D01*
X140674582Y-81069000D01*
X140674582Y-80096000D01*
X140668268Y-80031897D01*
X140649570Y-79970257D01*
X140619206Y-79913450D01*
X140578343Y-79863657D01*
X140528550Y-79822794D01*
X140471743Y-79792430D01*
X140410103Y-79773732D01*
X140346000Y-79767418D01*
X138546000Y-79767418D01*
X138481897Y-79773732D01*
X138420257Y-79792430D01*
X138363450Y-79822794D01*
X138313657Y-79863657D01*
X138272794Y-79913450D01*
X138242430Y-79970257D01*
X138223732Y-80031897D01*
X138217418Y-80096000D01*
X96872000Y-80096000D01*
X96872000Y-73472319D01*
X99073000Y-73472319D01*
X99073000Y-74127681D01*
X99200855Y-74770450D01*
X99451651Y-75375925D01*
X99815750Y-75920839D01*
X100279161Y-76384250D01*
X100824075Y-76748349D01*
X101429550Y-76999145D01*
X102072319Y-77127000D01*
X102727681Y-77127000D01*
X103370450Y-76999145D01*
X103975925Y-76748349D01*
X104520839Y-76384250D01*
X104724626Y-76180463D01*
X115261000Y-76180463D01*
X115261001Y-77471538D01*
X115274414Y-77607724D01*
X115327421Y-77782464D01*
X115413500Y-77943505D01*
X115529342Y-78084659D01*
X115670496Y-78200501D01*
X115831537Y-78286580D01*
X116006277Y-78339587D01*
X116188000Y-78357485D01*
X116369724Y-78339587D01*
X116544464Y-78286580D01*
X116705505Y-78200501D01*
X116846659Y-78084659D01*
X116962501Y-77943505D01*
X117048580Y-77782464D01*
X117101587Y-77607724D01*
X117104271Y-77580463D01*
X117661000Y-77580463D01*
X117661001Y-78871538D01*
X117674414Y-79007724D01*
X117727421Y-79182464D01*
X117813500Y-79343505D01*
X117929342Y-79484659D01*
X118070496Y-79600501D01*
X118231537Y-79686580D01*
X118406277Y-79739587D01*
X118588000Y-79757485D01*
X118769724Y-79739587D01*
X118944464Y-79686580D01*
X119105505Y-79600501D01*
X119246659Y-79484659D01*
X119362501Y-79343505D01*
X119448580Y-79182464D01*
X119501587Y-79007724D01*
X119515000Y-78871538D01*
X119515000Y-77580462D01*
X119501587Y-77444276D01*
X119448580Y-77269536D01*
X119362501Y-77108495D01*
X119246659Y-76967341D01*
X119105504Y-76851499D01*
X118944463Y-76765420D01*
X118769723Y-76712413D01*
X118588000Y-76694515D01*
X118406276Y-76712413D01*
X118231536Y-76765420D01*
X118070495Y-76851499D01*
X117929341Y-76967341D01*
X117813499Y-77108496D01*
X117727420Y-77269537D01*
X117674413Y-77444277D01*
X117661000Y-77580463D01*
X117104271Y-77580463D01*
X117115000Y-77471538D01*
X117115000Y-76180463D01*
X129739000Y-76180463D01*
X129739001Y-77471538D01*
X129752414Y-77607724D01*
X129805421Y-77782464D01*
X129891500Y-77943505D01*
X130007342Y-78084659D01*
X130148496Y-78200501D01*
X130309537Y-78286580D01*
X130484277Y-78339587D01*
X130666000Y-78357485D01*
X130847724Y-78339587D01*
X131022464Y-78286580D01*
X131183505Y-78200501D01*
X131324659Y-78084659D01*
X131440501Y-77943505D01*
X131526580Y-77782464D01*
X131579587Y-77607724D01*
X131582271Y-77580463D01*
X132139000Y-77580463D01*
X132139001Y-78871538D01*
X132152414Y-79007724D01*
X132205421Y-79182464D01*
X132291500Y-79343505D01*
X132407342Y-79484659D01*
X132548496Y-79600501D01*
X132709537Y-79686580D01*
X132884277Y-79739587D01*
X133066000Y-79757485D01*
X133247724Y-79739587D01*
X133422464Y-79686580D01*
X133583505Y-79600501D01*
X133724659Y-79484659D01*
X133840501Y-79343505D01*
X133926580Y-79182464D01*
X133979587Y-79007724D01*
X133993000Y-78871538D01*
X133993000Y-77580462D01*
X133984682Y-77496000D01*
X140113064Y-77496000D01*
X140136755Y-77736534D01*
X140206916Y-77967824D01*
X140320851Y-78180983D01*
X140474183Y-78367817D01*
X140661017Y-78521149D01*
X140874176Y-78635084D01*
X141105466Y-78705245D01*
X141285732Y-78723000D01*
X143606268Y-78723000D01*
X143786534Y-78705245D01*
X144017824Y-78635084D01*
X144230983Y-78521149D01*
X144417817Y-78367817D01*
X144571149Y-78180983D01*
X144685084Y-77967824D01*
X144755245Y-77736534D01*
X144778936Y-77496000D01*
X144755245Y-77255466D01*
X144685084Y-77024176D01*
X144571149Y-76811017D01*
X144417817Y-76624183D01*
X144230983Y-76470851D01*
X144017824Y-76356916D01*
X143786534Y-76286755D01*
X143606268Y-76269000D01*
X141285732Y-76269000D01*
X141105466Y-76286755D01*
X140874176Y-76356916D01*
X140661017Y-76470851D01*
X140474183Y-76624183D01*
X140320851Y-76811017D01*
X140206916Y-77024176D01*
X140136755Y-77255466D01*
X140113064Y-77496000D01*
X133984682Y-77496000D01*
X133979587Y-77444276D01*
X133926580Y-77269536D01*
X133840501Y-77108495D01*
X133724659Y-76967341D01*
X133583504Y-76851499D01*
X133422463Y-76765420D01*
X133247723Y-76712413D01*
X133066000Y-76694515D01*
X132884276Y-76712413D01*
X132709536Y-76765420D01*
X132548495Y-76851499D01*
X132407341Y-76967341D01*
X132291499Y-77108496D01*
X132205420Y-77269537D01*
X132152413Y-77444277D01*
X132139000Y-77580463D01*
X131582271Y-77580463D01*
X131593000Y-77471538D01*
X131593000Y-76180462D01*
X131579587Y-76044276D01*
X131526580Y-75869536D01*
X131440501Y-75708495D01*
X131324659Y-75567341D01*
X131183504Y-75451499D01*
X131022463Y-75365420D01*
X130847723Y-75312413D01*
X130666000Y-75294515D01*
X130484276Y-75312413D01*
X130309536Y-75365420D01*
X130148495Y-75451499D01*
X130007341Y-75567341D01*
X129891499Y-75708496D01*
X129805420Y-75869537D01*
X129752413Y-76044277D01*
X129739000Y-76180463D01*
X117115000Y-76180463D01*
X117115000Y-76180462D01*
X117101587Y-76044276D01*
X117048580Y-75869536D01*
X116962501Y-75708495D01*
X116846659Y-75567341D01*
X116705504Y-75451499D01*
X116544463Y-75365420D01*
X116369723Y-75312413D01*
X116188000Y-75294515D01*
X116006276Y-75312413D01*
X115831536Y-75365420D01*
X115670495Y-75451499D01*
X115529341Y-75567341D01*
X115413499Y-75708496D01*
X115327420Y-75869537D01*
X115274413Y-76044277D01*
X115261000Y-76180463D01*
X104724626Y-76180463D01*
X104984250Y-75920839D01*
X105348349Y-75375925D01*
X105599145Y-74770450D01*
X105727000Y-74127681D01*
X105727000Y-73472319D01*
X105649055Y-73080463D01*
X108061000Y-73080463D01*
X108061001Y-74371538D01*
X108074414Y-74507724D01*
X108127421Y-74682464D01*
X108213500Y-74843505D01*
X108329342Y-74984659D01*
X108470496Y-75100501D01*
X108631537Y-75186580D01*
X108806277Y-75239587D01*
X108988000Y-75257485D01*
X109169724Y-75239587D01*
X109344464Y-75186580D01*
X109505505Y-75100501D01*
X109646659Y-74984659D01*
X109762501Y-74843505D01*
X109848580Y-74682464D01*
X109901587Y-74507724D01*
X109915000Y-74371538D01*
X109915000Y-73080463D01*
X122539000Y-73080463D01*
X122539001Y-74371538D01*
X122552414Y-74507724D01*
X122605421Y-74682464D01*
X122691500Y-74843505D01*
X122807342Y-74984659D01*
X122948496Y-75100501D01*
X123109537Y-75186580D01*
X123284277Y-75239587D01*
X123466000Y-75257485D01*
X123647724Y-75239587D01*
X123822464Y-75186580D01*
X123983505Y-75100501D01*
X124124659Y-74984659D01*
X124240501Y-74843505D01*
X124326580Y-74682464D01*
X124379587Y-74507724D01*
X124393000Y-74371538D01*
X124393000Y-73743133D01*
X139234472Y-73743133D01*
X139296965Y-73979450D01*
X139539678Y-74092850D01*
X139799849Y-74156719D01*
X140067482Y-74168604D01*
X140332291Y-74128048D01*
X140584100Y-74036609D01*
X140691035Y-73979450D01*
X140753528Y-73743133D01*
X144234472Y-73743133D01*
X144296965Y-73979450D01*
X144539678Y-74092850D01*
X144799849Y-74156719D01*
X145067482Y-74168604D01*
X145332291Y-74128048D01*
X145584100Y-74036609D01*
X145691035Y-73979450D01*
X145753528Y-73743133D01*
X144994000Y-72983605D01*
X144234472Y-73743133D01*
X140753528Y-73743133D01*
X139994000Y-72983605D01*
X139234472Y-73743133D01*
X124393000Y-73743133D01*
X124393000Y-73080462D01*
X124379587Y-72944276D01*
X124359326Y-72877482D01*
X138629396Y-72877482D01*
X138669952Y-73142291D01*
X138761391Y-73394100D01*
X138818550Y-73501035D01*
X139054867Y-73563528D01*
X139814395Y-72804000D01*
X140173605Y-72804000D01*
X140933133Y-73563528D01*
X141169450Y-73501035D01*
X141282850Y-73258322D01*
X141346719Y-72998151D01*
X141352077Y-72877482D01*
X143629396Y-72877482D01*
X143669952Y-73142291D01*
X143761391Y-73394100D01*
X143818550Y-73501035D01*
X144054867Y-73563528D01*
X144814395Y-72804000D01*
X145173605Y-72804000D01*
X145933133Y-73563528D01*
X146169450Y-73501035D01*
X146282850Y-73258322D01*
X146346719Y-72998151D01*
X146358604Y-72730518D01*
X146318048Y-72465709D01*
X146226609Y-72213900D01*
X146169450Y-72106965D01*
X145933133Y-72044472D01*
X145173605Y-72804000D01*
X144814395Y-72804000D01*
X144054867Y-72044472D01*
X143818550Y-72106965D01*
X143705150Y-72349678D01*
X143641281Y-72609849D01*
X143629396Y-72877482D01*
X141352077Y-72877482D01*
X141358604Y-72730518D01*
X141318048Y-72465709D01*
X141226609Y-72213900D01*
X141169450Y-72106965D01*
X140933133Y-72044472D01*
X140173605Y-72804000D01*
X139814395Y-72804000D01*
X139054867Y-72044472D01*
X138818550Y-72106965D01*
X138705150Y-72349678D01*
X138641281Y-72609849D01*
X138629396Y-72877482D01*
X124359326Y-72877482D01*
X124326580Y-72769536D01*
X124240501Y-72608495D01*
X124124659Y-72467341D01*
X123983504Y-72351499D01*
X123822463Y-72265420D01*
X123647723Y-72212413D01*
X123466000Y-72194515D01*
X123284276Y-72212413D01*
X123109536Y-72265420D01*
X122948495Y-72351499D01*
X122807341Y-72467341D01*
X122691499Y-72608496D01*
X122605420Y-72769537D01*
X122552413Y-72944277D01*
X122539000Y-73080463D01*
X109915000Y-73080463D01*
X109915000Y-73080462D01*
X109901587Y-72944276D01*
X109848580Y-72769536D01*
X109762501Y-72608495D01*
X109646659Y-72467341D01*
X109505504Y-72351499D01*
X109344463Y-72265420D01*
X109169723Y-72212413D01*
X108988000Y-72194515D01*
X108806276Y-72212413D01*
X108631536Y-72265420D01*
X108470495Y-72351499D01*
X108329341Y-72467341D01*
X108213499Y-72608496D01*
X108127420Y-72769537D01*
X108074413Y-72944277D01*
X108061000Y-73080463D01*
X105649055Y-73080463D01*
X105599145Y-72829550D01*
X105348349Y-72224075D01*
X104984250Y-71679161D01*
X104520839Y-71215750D01*
X103975925Y-70851651D01*
X103715089Y-70743609D01*
X111744538Y-70743609D01*
X111748409Y-70781282D01*
X111840579Y-71006533D01*
X111974922Y-71209474D01*
X112146275Y-71382307D01*
X112348054Y-71518390D01*
X112572504Y-71612493D01*
X112811000Y-71661000D01*
X113411000Y-71661000D01*
X113411000Y-70553000D01*
X113665000Y-70553000D01*
X113665000Y-71661000D01*
X114265000Y-71661000D01*
X114503496Y-71612493D01*
X114727946Y-71518390D01*
X114929725Y-71382307D01*
X115101078Y-71209474D01*
X115235421Y-71006533D01*
X115327591Y-70781282D01*
X115331462Y-70743609D01*
X126222538Y-70743609D01*
X126226409Y-70781282D01*
X126318579Y-71006533D01*
X126452922Y-71209474D01*
X126624275Y-71382307D01*
X126826054Y-71518390D01*
X127050504Y-71612493D01*
X127289000Y-71661000D01*
X127889000Y-71661000D01*
X127889000Y-70553000D01*
X128143000Y-70553000D01*
X128143000Y-71661000D01*
X128743000Y-71661000D01*
X128981496Y-71612493D01*
X129205946Y-71518390D01*
X129407725Y-71382307D01*
X129579078Y-71209474D01*
X129713421Y-71006533D01*
X129805591Y-70781282D01*
X129809462Y-70743609D01*
X129684731Y-70553000D01*
X128143000Y-70553000D01*
X127889000Y-70553000D01*
X126347269Y-70553000D01*
X126222538Y-70743609D01*
X115331462Y-70743609D01*
X115206731Y-70553000D01*
X113665000Y-70553000D01*
X113411000Y-70553000D01*
X111869269Y-70553000D01*
X111744538Y-70743609D01*
X103715089Y-70743609D01*
X103370450Y-70600855D01*
X102727681Y-70473000D01*
X102072319Y-70473000D01*
X101429550Y-70600855D01*
X100824075Y-70851651D01*
X100279161Y-71215750D01*
X99815750Y-71679161D01*
X99451651Y-72224075D01*
X99200855Y-72829550D01*
X99073000Y-73472319D01*
X96872000Y-73472319D01*
X96872000Y-71137215D01*
X96915326Y-70695346D01*
X97038655Y-70286860D01*
X97133547Y-70108391D01*
X111744538Y-70108391D01*
X111869269Y-70299000D01*
X113411000Y-70299000D01*
X113411000Y-69191000D01*
X113665000Y-69191000D01*
X113665000Y-70299000D01*
X115206731Y-70299000D01*
X115331462Y-70108391D01*
X126222538Y-70108391D01*
X126347269Y-70299000D01*
X127889000Y-70299000D01*
X127889000Y-69191000D01*
X128143000Y-69191000D01*
X128143000Y-70299000D01*
X129684731Y-70299000D01*
X129729228Y-70231000D01*
X137759000Y-70231000D01*
X137759000Y-70581000D01*
X137807507Y-70819496D01*
X137901610Y-71043946D01*
X138037693Y-71245725D01*
X138210526Y-71417078D01*
X138413467Y-71551421D01*
X138638718Y-71643591D01*
X138676391Y-71647462D01*
X138867000Y-71522731D01*
X138867000Y-70231000D01*
X139121000Y-70231000D01*
X139121000Y-71522731D01*
X139294862Y-71636503D01*
X139234472Y-71864867D01*
X139994000Y-72624395D01*
X140753528Y-71864867D01*
X144234472Y-71864867D01*
X144994000Y-72624395D01*
X145753528Y-71864867D01*
X145693138Y-71636503D01*
X145867000Y-71522731D01*
X145867000Y-70231000D01*
X146121000Y-70231000D01*
X146121000Y-71522731D01*
X146311609Y-71647462D01*
X146349282Y-71643591D01*
X146574533Y-71551421D01*
X146777474Y-71417078D01*
X146950307Y-71245725D01*
X147086390Y-71043946D01*
X147180493Y-70819496D01*
X147229000Y-70581000D01*
X147229000Y-70231000D01*
X146121000Y-70231000D01*
X145867000Y-70231000D01*
X144759000Y-70231000D01*
X144759000Y-70581000D01*
X144807507Y-70819496D01*
X144901610Y-71043946D01*
X145037693Y-71245725D01*
X145210526Y-71417078D01*
X145305836Y-71480171D01*
X145188151Y-71451281D01*
X144920518Y-71439396D01*
X144655709Y-71479952D01*
X144403900Y-71571391D01*
X144296965Y-71628550D01*
X144234472Y-71864867D01*
X140753528Y-71864867D01*
X140691035Y-71628550D01*
X140448322Y-71515150D01*
X140188151Y-71451281D01*
X139920518Y-71439396D01*
X139690558Y-71474615D01*
X139777474Y-71417078D01*
X139950307Y-71245725D01*
X140086390Y-71043946D01*
X140180493Y-70819496D01*
X140229000Y-70581000D01*
X140229000Y-70231000D01*
X139121000Y-70231000D01*
X138867000Y-70231000D01*
X137759000Y-70231000D01*
X129729228Y-70231000D01*
X129809462Y-70108391D01*
X129805591Y-70070718D01*
X129713421Y-69845467D01*
X129579078Y-69642526D01*
X129407725Y-69469693D01*
X129205946Y-69333610D01*
X128981496Y-69239507D01*
X128743000Y-69191000D01*
X128143000Y-69191000D01*
X127889000Y-69191000D01*
X127289000Y-69191000D01*
X127050504Y-69239507D01*
X126826054Y-69333610D01*
X126624275Y-69469693D01*
X126452922Y-69642526D01*
X126318579Y-69845467D01*
X126226409Y-70070718D01*
X126222538Y-70108391D01*
X115331462Y-70108391D01*
X115327591Y-70070718D01*
X115235421Y-69845467D01*
X115101078Y-69642526D01*
X114929725Y-69469693D01*
X114727946Y-69333610D01*
X114503496Y-69239507D01*
X114265000Y-69191000D01*
X113665000Y-69191000D01*
X113411000Y-69191000D01*
X112811000Y-69191000D01*
X112572504Y-69239507D01*
X112348054Y-69333610D01*
X112146275Y-69469693D01*
X111974922Y-69642526D01*
X111840579Y-69845467D01*
X111748409Y-70070718D01*
X111744538Y-70108391D01*
X97133547Y-70108391D01*
X97238974Y-69910112D01*
X97508657Y-69579450D01*
X97837431Y-69307465D01*
X98212769Y-69104520D01*
X98620381Y-68978343D01*
X99061308Y-68932000D01*
X138068229Y-68932000D01*
X138037693Y-68962275D01*
M02*
